<svg id="Gifts" xmlns="http://www.w3.org/2000/svg" viewBox="0 0 170.48 104.98"><defs><style>.cls-1{font-size:90px;stroke-width:1.75px;font-family:Amatic;font-weight:700;}.cls-1,.cls-2{fill:#efd7d4;stroke:#42210b;stroke-miterlimit:10;}.cls-2{stroke-width:2px;}</style></defs><title>Gifts1</title><text class="cls-1" transform="translate(0.87 79.93)">Gifts</text><polyline class="cls-2" points="126.56 70.81 145.42 70.81 145.42 44.87 126.56 44.87 126.56 70.81"/><polygon class="cls-2" points="147.73 70.81 166.92 70.81 166.92 44.87 147.73 44.87 147.73 70.81 147.73 70.81"/><path class="cls-2" d="M587.64,380.49h6.2a10.37,10.37,0,0,0,4.32-2.69c1.71-1.77,3.58-5.43,2.37-7.88-0.53-1.08-1.88-2.13-3.16-1.63a8.61,8.61,0,0,0-3.35,2.89,27.23,27.23,0,0,0-3.29,5,27.31,27.31,0,0,0-3.29-5,8.62,8.62,0,0,0-3.35-2.89c-1.28-.49-2.63.56-3.16,1.63-1.2,2.46.66,6.12,2.37,7.88a10.37,10.37,0,0,0,4.32,2.69h0Zm6.85-5.57a24.39,24.39,0,0,1,1.68-2.24c0.29-.34.59-0.67,0.89-1s1.08-1.33,1.18-.23c0.15,1.72-1.08,3.61-2.21,4.78a7,7,0,0,1-3.35,1.88,28.7,28.7,0,0,1,1.81-3.19h0Zm-11.26-3.47c0.09-1.1.83-.15,1.18,0.23s0.61,0.66.89,1a24.19,24.19,0,0,1,1.68,2.24,28.69,28.69,0,0,1,1.81,3.19,7,7,0,0,1-3.35-1.88c-1.13-1.17-2.36-3.06-2.21-4.78h0Z" transform="translate(-444.16 -350.04)"/><path class="cls-2" d="M567.83,393.31h21.75V382.09H567.83v11.21h0Zm24.06,0h21.75V382.09H591.89v11.21h0Z" transform="translate(-444.16 -350.04)"/></svg>