<svg id="Layer_1" data-name="Layer 1" xmlns="http://www.w3.org/2000/svg" viewBox="0 0 215.04 183.26"><defs><style>.cls-1{font-size:90px;stroke-width:1.75px;font-family:Amatic;font-weight:700;}.cls-1,.cls-3{fill:#efd7d4;}.cls-1,.cls-2,.cls-3{stroke:#42210b;stroke-miterlimit:10;}.cls-2{font-size:72px;fill:#42210b;font-family:Janda Stylish Script;}.cls-3{stroke-width:1.5px;}</style></defs><title>Ourstory1</title><text class="cls-1" transform="translate(0.87 79.93)">Our</text><text class="cls-2" transform="translate(45.6 152.39)">Story</text><path class="cls-3" d="M175.21,75.93a13,13,0,0,0-19.32-11.35,13.11,13.11,0,0,0-4.75,4.57l-1.38,2.25-1.38-2.25a13.1,13.1,0,0,0-4.75-4.57,13,13,0,0,0-18.17,16.72,13.09,13.09,0,0,0,3.31,4.43l0.08,0.07,11,11a14.43,14.43,0,0,1,25-5.22l5.81-5.81,0.08-.07a13.09,13.09,0,0,0,3.31-4.43,12.88,12.88,0,0,0,1.15-5.36h0Z" transform="translate(-40.81 -20.34)"/><path class="cls-3" d="M191.67,100.84a13,13,0,0,0-19.32-11.35,13.11,13.11,0,0,0-4.75,4.57l-1.38,2.25-1.38-2.25a13.11,13.11,0,0,0-4.75-4.57,13,13,0,0,0-18.17,16.72,13.1,13.1,0,0,0,3.31,4.43l0.08,0.07L166,131.43h0l0.08,0.06,0.11,0,0.11,0,0.08-.06h0l20.72-20.72,0.08-.07a13.08,13.08,0,0,0,3.31-4.43,12.89,12.89,0,0,0,1.15-5.36h0Z" transform="translate(-40.81 -20.34)"/></svg>