<svg id="t_A" data-name="t&amp;A" xmlns="http://www.w3.org/2000/svg" viewBox="0 0 484.54 153.99"><defs><style>.cls-1{font-size:90px;stroke-width:1.75px;}.cls-1,.cls-5,.cls-6{fill:#efd7d4;}.cls-1,.cls-3,.cls-4,.cls-5,.cls-6{stroke:#42210b;stroke-miterlimit:10;}.cls-1,.cls-4{font-family:Amatic;font-weight:700;}.cls-2{letter-spacing:-1px;}.cls-3{font-size:72px;font-family:Janda Stylish Script;}.cls-3,.cls-4{fill:#42210b;}.cls-4{font-size:39.5px;}.cls-5,.cls-6{stroke-width:2px;}.cls-5{fill-rule:evenodd;}</style></defs><title>t&amp;amp;a</title><text class="cls-1" transform="translate(142.05 79.93)">T<tspan class="cls-2" x="21.62" y="0">r</tspan><tspan class="cls-2" x="42.45" y="0">a</tspan><tspan x="67.98" y="0">vel</tspan></text><text class="cls-3" transform="translate(0.5 123.12)">Accommodations</text><text class="cls-4" transform="translate(279.14 57.34) scale(1.95 1)">&amp;</text><path class="cls-5" d="M515.33,83.14c2.83,0,21.93,10.76,24.35,12.13,1.72,0.38,11.37,2.5,13,3,2.13,0.71,3.49,2.88,4.12,5.49a16.78,16.78,0,0,1-.16,8.26,6,6,0,0,1-3.11,3.52,10.74,10.74,0,0,1-5,1.08H541a7.83,7.83,0,1,0-14.7,0H492.42a7.83,7.83,0,1,0-14.69,0h-8.57a5,5,0,0,1-5-5V101.6a5,5,0,0,1,3.47-4.74l0.32-.07,8.32-1.11c1-.76,2-1.55,2.9-2.34h0c1.14-1,2.11-1.86,3-2.7a52.74,52.74,0,0,1,6.14-5.08,12.6,12.6,0,0,1,7-2.4h20Zm-10,21.23a10.48,10.48,0,0,1-4.73-1.31,1.7,1.7,0,0,0-.86,3.07l2.61,2.2a0.22,0.22,0,0,0,.31,0l2.2-2.61a1.7,1.7,0,0,0,.48-1.33h0Zm17.08,0a10.48,10.48,0,0,1-4.73-1.31,1.7,1.7,0,0,0-.86,3.07l2.61,2.2a0.22,0.22,0,0,0,.16.05,0.22,0.22,0,0,0,.15-0.08l2.2-2.61a1.7,1.7,0,0,0,.48-1.33h0Zm-39.24-9.11h24.61V84.78h1.83V95.26h24.61v1.83H483.14V95.26h0Z" transform="translate(-414.77 -52.88)"/><path class="cls-6" d="M485.07,120.93a7,7,0,0,1-4.93-2h0a7,7,0,1,1,4.92,2h0Zm-2.33-4.64a3.29,3.29,0,1,0-1-2.33,3.29,3.29,0,0,0,1,2.33h0Zm51,4.64a7,7,0,1,1,4.92-2,6.95,6.95,0,0,1-4.92,2h0Zm-2.33-4.63a3.29,3.29,0,1,0-1-2.33,3.29,3.29,0,0,0,1,2.33h0Z" transform="translate(-414.77 -52.88)"/><path class="cls-5" d="M540.86,91.65a0.45,0.45,0,0,0,.17,0,0.46,0.46,0,0,0,.16-0.06c0.21-.12,3.08-4.08,3.59-4.69a2.91,2.91,0,0,0-2.65-4.74,3.32,3.32,0,0,1-4.77.67,2.91,2.91,0,0,0-1.24,5.29c0.65,0.44,4.5,3.46,4.74,3.52h0Z" transform="translate(-414.77 -52.88)"/><path class="cls-5" d="M527.08,81.93a0.4,0.4,0,0,0,.34,0c0.21-.12,3.08-4.08,3.59-4.69a2.91,2.91,0,0,0-2.65-4.74,3.93,3.93,0,0,0-2.24,1.36,3.93,3.93,0,0,0-2.53-.69,2.91,2.91,0,0,0-1.24,5.29c0.65,0.44,4.5,3.46,4.74,3.52h0Z" transform="translate(-414.77 -52.88)"/></svg>