<svg id="Layer_1" data-name="Layer 1" xmlns="http://www.w3.org/2000/svg" xmlns:xlink="http://www.w3.org/1999/xlink" viewBox="0 0 449.06 202.38"><defs><style>.cls-1{fill:#c1bca1}.cls-2{fill:#a9af37}.cls-11,.cls-3{fill:#f8a69c}.cls-3{stroke:#f8a69c;stroke-miterlimit:10;stroke-width:.42px}.cls-4{fill:#afaf35}.cls-5{fill:#c6b2d7}.cls-6{fill:#ffcd73}.cls-7{fill:#cee5d6}.cls-8{fill:#aed3ba}.cls-9{fill:#fff}.cls-10{fill:#9bba9a}.cls-12{fill:#f58a7b}.cls-13{fill:#ddc0c1}.cls-14{fill:#dfb0af}.cls-15{fill:#efd7d4}.cls-16{font-size:36.29px;font-family:Blooming Elegant Hand;fill:#42210b}.cls-17,.cls-18{fill:#42210b;font-size:97.92px;font-family:Blooming Elegant}.cls-18{font-size:97px}</style><symbol id="New_Symbol_7" data-name="New Symbol 7" viewBox="0 0 34.19 40.3"><path class="cls-2" d="M22.18 6.91s-.9 6.29-9.08 7.23c0-.01-.1-7.33 9.08-7.23zM22.38 15.08s-.91 6.39-9.22 7.34c0 .01-.09-7.42 9.22-7.34zM19 25.71s-3.59 5.37-11.49 2.63c.04-.01 3.18-6.75 11.49-2.63zM11.74 34.92S8.93 41.3 0 39.87c0 0 2.08-7.77 11.74-4.95zM16.52 29.78s5 3.21 2.59 10.52c0 0-6.24-2.78-2.59-10.52zM20.24 23.4s5.83 1.09 6.38 8.76c-.01 0-6.84-.21-6.38-8.76zM22.67 15.35s7.24.74 8.69 10.05c-.01 0-8.36.43-8.69-10.05zM22.56 6.57s7-1.82 11.63 6.42c0 .01-7.69 3.3-11.63-6.42z"/><path class="cls-2" d="M21.81.42s.2.63.45 1.72A39.88 39.88 0 0 1 23 6.7c.11.95.17 2 .21 3.07s0 2.25-.06 3.44a32.16 32.16 0 0 1-.44 3.65 30.68 30.68 0 0 1-.89 3.69c-.18.61-.42 1.2-.61 1.81s-.46 1.18-.72 1.75a26.24 26.24 0 0 1-1.68 3.27 22.09 22.09 0 0 1-2 2.78c-.37.41-.7.82-1.06 1.19l-1.06 1.05c-.71.63-1.36 1.22-2 1.68s-1.14.88-1.62 1.17l-1.47.93a.08.08 0 0 1-.07-.18l1.37-1c.44-.32.92-.79 1.51-1.27s1.17-1.11 1.84-1.76l1-1.07c.34-.37.65-.79 1-1.2a30.66 30.66 0 0 0 1.89-2.7 27.48 27.48 0 0 0 1.74-3.13c.27-.55.47-1.13.71-1.7s.41-1.17.57-1.77a29.45 29.45 0 0 0 .79-3.62 31.62 31.62 0 0 0 .35-3.57c.06-1.16 0-2.29 0-3.35s-.14-2.07-.27-3a35.17 35.17 0 0 0-.86-4.4c-.28-1-.48-1.61-.48-1.61A.6.6 0 1 1 21.8.39z"/></symbol><symbol id="New_Symbol_9" data-name="New Symbol 9" viewBox="0 0 76.23 113"><path class="cls-3" d="M11.36 43.86c-2.13 2.1-5.12 2.74-8 3.32-.19 0-.51.53-.26.48 3-.62 6.15-1.33 8.43-3.58.31-.26.09-.48-.17-.22z"/><path class="cls-3" d="M11.35 43.76c-1 2.84-3.34 4.74-5.61 6.53-.15.12-.22.71 0 .55 2.44-1.92 4.89-3.95 5.92-7 .1-.33-.2-.43-.31-.08zM11.57 46.33c-1 2.84-3.34 4.74-5.61 6.53-.15.12-.21.71 0 .55 2.44-1.92 4.89-3.95 5.92-7 .12-.34-.2-.41-.31-.08zM12.28 41.23c-3.1 1.18-6 2.76-9 4.08-.28.13-.58.69-.09.43 3-1.3 5.82-2.85 8.86-4 .23-.1.66-.67.23-.51zM9.57 40.66c-3.1 1.18-6 2.76-9 4.08-.3.12-.57.64-.1.43 3-1.3 5.82-2.85 8.86-4 .24-.11.67-.68.24-.51zM1.53 42.39c-.39.26-.16.49.23.24a21.46 21.46 0 0 1 11.07-3.47c.26 0 .81-.49.46-.47a22.88 22.88 0 0 0-11.76 3.7zM1.45 39.32c-.32.16-.2.44.13.28a12.18 12.18 0 0 1 8.63-.86c.19 0 .67-.29.41-.36a13 13 0 0 0-9.17.94zM10.93 37c-3.36.39-6.64-.94-9.74-2.21-.19-.06-.82.14-.54.21C4 36.41 7.41 37.75 11 37.33c.42-.04.34-.33-.07-.33zM10.52 35.3c-2.28-1-4.7-1.5-7-2.31-.22-.07-.67.15-.3.28 2.29.79 4.66 1.32 6.9 2.26.15.08.71-.1.4-.23zM2.48 29.78c-.39-.06-.43.25 0 .31a14.84 14.84 0 0 1 8.48 4.51c.15.15.78.16.58-.05a15.82 15.82 0 0 0-9.06-4.77zM1.67 26.5c-.38-.09-.44.22-.05.31a14.84 14.84 0 0 1 8.18 5c.14.16.77.21.58 0a15.82 15.82 0 0 0-8.71-5.31z"/><path class="cls-4" d="M6.54 27.09a11.63 11.63 0 0 0 3.82 5.62 5.28 5.28 0 0 0-2.63 0c-.1 0-.48.4-.25.47a13 13 0 0 1 3.59 2.16c-1.49-.11-3 0-4.55.07-.15 0-.54.39-.3.48 1.16.45 2.34 1.38 3.57 1.94-1.22.32-2.44.87-3.6 1.12-.11 0-.47.39-.25.47a14 14 0 0 0 5.21.46 13 13 0 0 0-3.74 2.06c-.07.06-.34.42-.08.4 1.6-.09 3.19-.21 4.79-.26-1.52 1.4-3.12 2.66-3.9 4.67-.09.25.18.17.27.09 1.23-1 2.76-1.55 4-2.51-1.26 2-2.7 4.16-2.31 6.59 0 .24.46-.18.47-.31.26-2 1.93-3.28 3.11-4.8a7 7 0 0 0 .72-1.16.48.48 0 0 0 .2-.23l.13-.42a7.7 7.7 0 0 0 .48-2.3.12.12 0 0 0 0-.07c.11-.64.19-1.29.24-1.94 4.93-.31 10.47.62 13.46 4.93a.31.31 0 0 0 .48 0c1.82-2-1.77-4.13-3.22-4.94a16.63 16.63 0 0 0-10.67-1.91 10.33 10.33 0 0 0-1.13-4.6c-1.57-2.96-4.93-4.55-7.45-6.48-.19-.13-.5.22-.46.4z"/><path class="cls-5" d="M42.1 40.82c.68-.32 1.88-.74 2.67-1.19 2-1.11 2.57-3.09 2.84-5.21.36-2.76-2.37-4.71-4.47-5.81-4.07-2.14-4.95-3-9.28-4.11 7.26-.39 20-2.46 15.27-9.36-.85-1.24-2.89-1.78-2.07-4 1.2-3.22-3.41-4.53-6.66-3.14s-8.65 6.81-10.05 10.38a45.48 45.48 0 0 1 1.81-4.95c.18-.28.36-.56.55-.83a55.84 55.84 0 0 0 3.19-5.2c.65-1.22 1.35-2.64 1-4.05a1.65 1.65 0 0 0-.09-.28 1.08 1.08 0 0 0-.53-.9c-.88-.5-2.15-2-3.14-1.29-2 1.48-2.61.2-3.76-.53a.83.83 0 0 0-.15-.11c-3-.94-6 1-6.6 4.43-.58 3.24.54 7 1.49 10.2-.17-.23-.34-.47-.5-.71-1.36-2-2.46-4.79-4.53-6.26-2.48-1.77-5.72-1.08-6.87 1.32-.82 1.72.08 3.33-3.22 4.18-.93.24-.8 1.76-.92 2.63-.75 2.26 1 4.48 3.41 5.57s4.83.94 7.24 1.2c1.88.21.6.28-1.37 1.94a35.43 35.43 0 0 0-6 6.64c-1.39 2.1-1.07 4.74 1 5.86S17 36.58 18 41.42c1.24 5.5 8.41-2.57 10-8.15v.07a28.63 28.63 0 0 0 2.91 6.55 9.22 9.22 0 0 0 .75 1.1 17.3 17.3 0 0 0 2.75 2.86 1 1 0 0 0 1.17.62c1.19-.28 2.76-.33 3.8-1.31a11.23 11.23 0 0 1 2.72-2.34z"/><path class="cls-6" d="M34 20.79a1.06 1.06 0 0 0-.36-.73.88.88 0 0 0-1.47.73 1 1 0 0 0 .35.74.89.89 0 0 0 1.48-.74zM32.68 19.27a.87.87 0 0 0-.79-1h-.11A.76.76 0 0 0 31 19a1.19 1.19 0 0 0 .27.64.62.62 0 0 0 .49.22.78.78 0 0 0 .92-.59zM30.76 21.06a.89.89 0 0 0 .08-.76.94.94 0 0 0-.84-.75h.09a.8.8 0 0 0-.48 0 1 1 0 0 0 .35-.44 1.13 1.13 0 0 0-.06-.93.78.78 0 0 0 .81-1.13c-.49-1.06-2.13-.54-1.67.53a.62.62 0 0 0-.18 0l-.3.07a1 1 0 0 0-.43 1.57v.05a1.06 1.06 0 0 0 1.23.36 1.08 1.08 0 0 0-.36 1.26 1 1 0 0 0 1.76.17zM26.7 19.7a1.31 1.31 0 0 0-.7-.58 1 1 0 0 0 .92-.6 1.07 1.07 0 0 0-.26-1.2c.32.1.6-.29.82-1.2a.72.72 0 0 0-.74-.19.58.58 0 0 0-.21.07.7.7 0 0 0-.31.43.79.79 0 0 0 .07.57l.09.13-.23-.08c-.1 0-.3-.12 0 0a.92.92 0 0 0-1.32.93 1.29 1.29 0 0 0 .67 1h.1a.56.56 0 0 0-.36.15l-.09.12a.62.62 0 0 0-.09.29.92.92 0 0 0 1.1 1.3.94.94 0 0 0 .54-1.14z"/><path class="cls-6" d="M27.51 22.56a1.07 1.07 0 0 0-.2-1.78A1 1 0 0 0 26 22.05a1 1 0 0 0 1.42.51z"/><path class="cls-6" d="M25.16 23.74l.24-.39 1.34-.41a1 1 0 0 0-.35-.32.88.88 0 0 0-.48-.1.68.68 0 0 0-.68.44.86.86 0 0 0-.07.78zM24.19 28.08a1.24 1.24 0 0 0 .12-1.71 1.29 1.29 0 0 0-1-.44l.06-.11a1.06 1.06 0 0 0-.11-1 1 1 0 0 0-.86-.44l-.26.05a.7.7 0 0 0-.5.42l-.13-.08a.85.85 0 0 0-.64 1.31v.07a.87.87 0 0 0 .76.42.77.77 0 0 0 .61-.26 1.09 1.09 0 0 0 .26 0v.05c0 .09-.21.24 0 0a1.32 1.32 0 0 0-.48.81 1.11 1.11 0 0 0 1.14 1.26 1.75 1.75 0 0 0 1.03-.35z"/><path class="cls-6" d="M27.77 29.51a1.5 1.5 0 0 0 0-.57 1 1 0 0 0-1.21-.94 1.07 1.07 0 0 0-.42-.85.7.7 0 0 0 .42-.15.83.83 0 0 0 .32-.92.84.84 0 0 0-.52-.56 1.13 1.13 0 0 0-.77-1.63A1 1 0 0 0 25 24a.77.77 0 0 0 0-.09.59.59 0 0 0 0-.11.87.87 0 0 0-.31-.6 1 1 0 0 0 0-.2 1 1 0 0 0-.44-1 1.11 1.11 0 0 0-.6-2.07h-.08a1.05 1.05 0 0 0-.9 1.18 1.09 1.09 0 0 0 .49.79 1.05 1.05 0 0 0-.45.68 1.12 1.12 0 0 0 .74 1.19.93.93 0 0 0 .41.8.69.69 0 0 0 .6.07 1.13 1.13 0 0 0 0 .62v.07a1 1 0 0 0 .83.68 1 1 0 0 0 .31 1 .83.83 0 0 0-.54.15.92.92 0 0 0-.33 1v.06a1 1 0 0 0 1.07.64.89.89 0 0 0 .19.71 2 2 0 0 0 .54.46.8.8 0 0 0 1.24-.52zM29 22.85c-.44-.95-1.69-.1-1.27.81s1.64.09 1.27-.81zM29.62 27.6a1.36 1.36 0 0 0 .16-.83 1 1 0 0 0-1.31-.89 1 1 0 0 0-.25 1.73s.17.21 0 0a.79.79 0 0 0 1.4-.01zM29.09 25.06a.81.81 0 0 0-.94-1h-.05a.69.69 0 0 0-.46 1c-.05-.09 0 0 0 .15l.07.08v.07l.07.08a.72.72 0 0 0 1.31-.38zM31.74 25.85v-.47a.85.85 0 0 0-1.57-.38l-.11.23c-.61 1.26 1.61 1.89 1.68.62zM32.45 23.7a.92.92 0 0 0 .22-1.22.83.83 0 0 0-1.17-.28.77.77 0 0 0-.29.35.91.91 0 0 0-1.09-.6.89.89 0 0 0-.54 1.05.91.91 0 0 0 1.09.6.89.89 0 0 0 .51-.49 1.47 1.47 0 0 0 .1.28.83.83 0 0 0 1.17.31zM33.46 25.47a.56.56 0 0 0-.13-.19.58.58 0 0 0-.87-.5l-.13.08a.62.62 0 0 0 .32 1.14.49.49 0 0 0 .81-.53zM32 27.41a.54.54 0 1 0-1 .5.54.54 0 1 0 1-.5zM30.61 28.15a.55.55 0 1 0-1 .52.55.55 0 1 0 1-.52z"/><path class="cls-6" d="M27.28 26.86a.27.27 0 1 0-.5.21.27.27 0 1 0 .5-.21zM25 29.07c-.42-.91-1.64-.11-1.23.76s1.63.12 1.23-.76zM29.37 29.31c-.48-1-1.84-.07-1.38.92s1.84.07 1.38-.92zM32.77 28.8c-.45-1-1.75-.09-1.31.85s1.75.08 1.31-.85zM24.4 18.58a.5.5 0 1 0-.89.46.5.5 0 1 0 .89-.46zM33.77 24.64a.67.67 0 0 0-.4-1.12h-.06a.45.45 0 0 0-.61.41.9.9 0 0 0 .06.36.61.61 0 0 0 1.01.35zM35 24.93c-.39-.84-1.53-.13-1.15.68s1.54.12 1.15-.68z"/><use width="34.19" height="40.3" transform="translate(11.04 72.7)" xlink:href="#New_Symbol_7"/><path class="cls-7" d="M74.93 76.18a4.12 4.12 0 0 0-1.57-3.66A2.76 2.76 0 0 0 74.78 71a3 3 0 0 0-.59-3.13 2.39 2.39 0 0 0 1.66-1.72 1.77 1.77 0 0 0-.85-2.04A1.94 1.94 0 0 0 76.2 62c-.35-1.64-2.15-2-3.57-2.08h-.24a2.38 2.38 0 0 0 .27-2.35 1.77 1.77 0 0 0-2-1.12 1.94 1.94 0 0 0-.28-2.39 2.15 2.15 0 0 0-.82-.45 4.42 4.42 0 0 0-.92-2.49 3 3 0 0 0-3.89-.68 2.59 2.59 0 0 0-3.58.47c-.47-.88-1.17-1.54-2.29-1.1a2.15 2.15 0 0 0-.52.3 4 4 0 0 0-.55-.18 3 3 0 0 0-3.51 1.81 2.59 2.59 0 0 0-2.57 2.54c-.9-.42-1.86-.52-2.49.5a3 3 0 0 0-.24 1.94 3.93 3.93 0 0 0 .2 3.55 2.67 2.67 0 0 0-2.5 1.41 2.13 2.13 0 0 0 .2 2.17 2.58 2.58 0 0 0-1.11 1.09l-.08.17a2.74 2.74 0 0 0-.2.27 2.67 2.67 0 0 0 .28 3 4.34 4.34 0 0 0 1.51 1.12 2.46 2.46 0 0 0-.59 2.11 2.31 2.31 0 0 0 2 1.76 2.42 2.42 0 0 0-.71 1.94 2.67 2.67 0 0 0 2 2.24 4.58 4.58 0 0 0 2.28-.13c-.44 1.52-.47 3.54.8 4.38a4.05 4.05 0 0 0 4.18-.1 4.52 4.52 0 0 0 .52.91 2.45 2.45 0 0 0 3.07.9 2.59 2.59 0 0 0 1-.75 2.66 2.66 0 0 0 2.1 1A3.72 3.72 0 0 0 66.77 82a3 3 0 0 0 .47-.83 4.5 4.5 0 0 0 1 .4 2.45 2.45 0 0 0 3-1.14 3.36 3.36 0 0 0 0-2.85c1.47.42 3.35.34 3.69-1.4z"/><path class="cls-8" d="M55.16 60.39c-5.8 4.65-4.28 9.76-.77 13.14 1.53 1.47 1-.23.72-.49-2.4-2.2-1.7-8.08-.3-10.91 1.1-2.24 2.14-3.13.35-1.74zM57.09 75.06C61.66 80 65.68 77.65 68 73.63c1-1.75-.32-1-.5-.63-1.5 2.74-6.44 3-9 2.12-1.92-.72-2.82-1.59-1.41-.06z"/><path class="cls-8" d="M65.63 73c6.32-3 5.56-7.79 2.61-11.49-1.28-1.61-1 0-.78.29 2 2.43.51 7.5-1.25 9.73-1.39 1.8-2.53 2.47-.58 1.47zM65.8 61.57c-2-6.42-6.65-6-10.48-3.38-1.67 1.15-.12 1 .18.78 2.53-1.83 7.12 0 9 1.92 1.5 1.5 1.92 2.67 1.3.68z"/><path class="cls-8" d="M60 60.14c-4.67.44-5.07 3.65-3.84 6.65.54 1.3.66.23.56 0-.88-2 1.06-4.84 2.62-5.85 1.21-.8 2.07-.94.66-.8zM66.34 67.93c1.21-4.53-1.66-6-4.9-5.91-1.41.05-.44.54-.19.53 2.17-.13 4.17 2.67 4.57 4.49.32 1.44.18 2.29.52.89zM55 68.2c-.68 5.41 2.89 6.54 6.61 5.75 1.62-.34.43-.71.13-.64-2.49.59-5.26-2.21-6-4.2-.64-1.57-.58-2.58-.74-.91z"/><path class="cls-8" d="M61.11 71.92c3.81 1.08 4.38-1.44 3.61-4.27-.34-1.23-.52-.39-.45-.17.56 1.9-1.22 3.65-2.56 4-1.08.27-1.78.11-.6.44z"/><path class="cls-8" d="M58.32 65.06c-2.38 3.42-.22 5.19 2.73 5.73 1.29.23.55-.35.32-.39-2-.32-3-3-2.84-4.52.12-1.22.52-1.88-.21-.82z"/><path class="cls-8" d="M63.53 64.47c-2.82-2.48-4-.42-4.13 2.45-.06 1.25.32.56.33.33a2.81 2.81 0 0 1 3.2-2.61c.94.17 1.48.59.6-.17z"/><path class="cls-8" d="M61.79 69.26c2.73-.63 1.85-2.1 0-3.33-.79-.53-.49 0-.34.06a1.87 1.87 0 0 1 .43 2.86c-.45.47-.94.6-.09.41zM37 45.6c3.65 2.23 8.35-4.09 8.5-4-.26 2.14 3.67 7.67 7.29 5.5 5-3 1.88-9.92-.62-10.61 3.21 3.63 8.36 1.46 9.3-1.21 1.47-4.19-3.87-9-6.88-7.54 4.1-5 2.16-8.95-2-10.41-2.71-1-7.42 2.57-7.44 5.69-.33-.16-3.24-11.79-10.31-3-2.24 2.8.75 6.3 1.35 6.67-2.19-1.55-6.08.25-6.74 2.15-1.34 3.81 2.88 6.56 7.59 6.72-3.04 1.7-3.56 7.86-.04 10.04z"/><path class="cls-9" d="M45.07 34.11c.74-.26 1.63-.21 2.21-.81.09-.09.18-.29 0-.32a3.35 3.35 0 0 0-2.2.71.28.28 0 0 0-.12.3c-.04.09-.02.16.11.12zM45 33.11c-.07.29.34.1.4-.08a3.83 3.83 0 0 0 1.13-1.38c.06-.15 0-.26-.19-.19a2.35 2.35 0 0 0-1.3 1.48.18.18 0 0 0-.04.17zM44.21 33.28c0 .11.15.08.25 0a.4.4 0 0 0 .36-.3 4 4 0 0 0-.15-1.84c-.1-.2-.37.07-.41.19a3.93 3.93 0 0 0-.05 1.95zM43.69 33.62c0 .27.45 0 .42-.2a.13.13 0 0 0 0-.12 1.51 1.51 0 0 0-1-1.45.34.34 0 0 0-.32.31 2.41 2.41 0 0 0 .9 1.46zM44.55 35.41a.09.09 0 0 0 .1.11c.71 0 1.56.16 2-.6a.14.14 0 0 0 0-.21 1.85 1.85 0 0 0-1.87.38.35.35 0 0 0-.23.32zM43.3 35.22h.15a.11.11 0 0 0 .06.12.3.3 0 0 0 .3-.14 1.85 1.85 0 0 0 .63-1.25c0-.14-.17-.13-.27-.05a3.6 3.6 0 0 0-1 1.12c.01.06.01.2.13.2zM42.77 34.87c.16.12.48-.19.38-.33a.16.16 0 0 0 0-.08 2.37 2.37 0 0 0-.67-1.46c-.13-.12-.37.1-.39.23a1.71 1.71 0 0 0 .68 1.64zM47.33 35c.73.06 1.7 0 1.91-.85a.12.12 0 0 0-.06-.15 2 2 0 0 0-1.74.44.41.41 0 0 0-.16.3c-.07.11-.09.26.05.26zM47.74 32.78a.11.11 0 0 0 .09.16c.75.06 1.93-.2 1.71-1.2a.12.12 0 0 0-.15-.06.21.21 0 0 0-.14 0 5.45 5.45 0 0 0-1.37.73.32.32 0 0 0-.14.37zM45.31 31.41a.77.77 0 0 0 .25-.09c.09.1.4-.12.4-.28v-.14a2.26 2.26 0 0 0 .18-.4 1.61 1.61 0 0 0 .12-1c-.12-.2-.51.12-.41.29a.55.55 0 0 0-.31.21 5.3 5.3 0 0 0-.4 1.21.12.12 0 0 0 .17.2zM47.46 31.59a.12.12 0 0 0 .16.06.32.32 0 0 0 .21-.09l.17-.21a3.55 3.55 0 0 0 .93-1.35c.07-.19-.08-.27-.24-.16l-.26.21-.09.08a2.62 2.62 0 0 0-.77 1.16.26.26 0 0 0-.11.3zM43.64 31.4a.13.13 0 0 0 .16 0 .39.39 0 0 0 .36-.3 2.46 2.46 0 0 0-.43-1.87c-.13-.12-.36.1-.39.23a2.23 2.23 0 0 0 .3 1.94zM42.23 31.8c0 .26.42 0 .42-.2a2.6 2.6 0 0 0-.49-2.13c-.12-.11-.32.07-.37.17a2.09 2.09 0 0 0 .44 2.16zM44.56 30.16c0 .16.19.12.29 0a.4.4 0 0 0 .33-.3v-.22a1.26 1.26 0 0 0 0-.21 1.91 1.91 0 0 1 .15-1c.18-.24-.07-.31-.24-.18a.4.4 0 0 0-.39.29 7 7 0 0 0-.14 1.62zM46.81 30.85c0 .17.22.1.31 0a.29.29 0 0 0 .25-.13 9.6 9.6 0 0 0 .85-1.85c.09-.2-.09-.26-.24-.16a2.14 2.14 0 0 0-.37.31.44.44 0 0 0-.23.26 2.47 2.47 0 0 0-.57 1.57zM46.36 29a.09.09 0 0 0 .06.06c0 .26.43 0 .42-.2s0-.09 0-.14a3.64 3.64 0 0 0 .44-1.66c0-.17-.2-.1-.27-.05a1.6 1.6 0 0 0-.31.24.21.21 0 0 0-.08.24.4.4 0 0 0-.13.12 1.92 1.92 0 0 0-.13 1.39z"/><path class="cls-10" d="M47.68 27.76c.48-.61.89-1.28 1.32-1.92a10.21 10.21 0 0 1 .63-1 1.28 1.28 0 0 0 .41-.64.06.06 0 0 0-.04-.08 2.62 2.62 0 0 0-1.41 1.33 4.77 4.77 0 0 0-1 2.24.06.06 0 0 0 .09.07zM48.07 28.37l.08-.1a4.41 4.41 0 0 0 .43-.37c.2-.16.42-.31.64-.45.44-.3.86-.64 1.28-1s.8-.57 1.22-.85a1.26 1.26 0 0 0 .64-.79.06.06 0 0 0-.06-.07 3.31 3.31 0 0 0-2 1.1A10.82 10.82 0 0 0 49.14 27c-.37.44-.8.83-1.15 1.28-.05.08.01.15.08.09zM48.88 29.44a3.24 3.24 0 0 0 1-.34c.44-.21.88-.4 1.33-.59l1-.43a1.55 1.55 0 0 0 .69-.49.06.06 0 0 0 0-.08 2.43 2.43 0 0 0-1.74.48c-.35.19-.72.34-1.08.52a5.17 5.17 0 0 0-.59.33c-.19.12-.34.28-.52.41a.32.32 0 0 0-.07.1.06.06 0 0 0-.02.09zM49.87 30.91a.78.78 0 0 0 .22-.06c.6-.06 1.18 0 1.79-.06a1.8 1.8 0 0 0 1.39-.46.06.06 0 0 0 0-.09 4.84 4.84 0 0 0-1.67.08 6.76 6.76 0 0 0-.87.15 5.83 5.83 0 0 0-.6.26h-.28c-.07 0-.07.12 0 .11l.02.07zM45.69 27.23a6.09 6.09 0 0 0 .24-1.83 1.47 1.47 0 0 0-.23-1.29.06.06 0 0 0-.08 0 2 2 0 0 0-.2 1.35 4.18 4.18 0 0 0 .19 1.63v.07a.06.06 0 0 0 .08.07zM44.7 27.43a.05.05 0 0 0 0-.06 9.62 9.62 0 0 0-.53-2.69c-.06-.16-.49-1.22-.78-.82a.87.87 0 0 0 0 .68c.06.28.15.56.23.85a4 4 0 0 0 1 2.05.05.05 0 0 0 .08-.01zM44 27.61v-.08a29.06 29.06 0 0 0-1.82-2.35 5.26 5.26 0 0 0-1.4-1.24c-.44-.06.84 1.68.89 1.74a8.44 8.44 0 0 0 1 1.11 4.87 4.87 0 0 0 .52.42c.23.16.49.23.71.4a.06.06 0 0 0 .1 0zM42.83 28.11l-.05-.11c-.23-.27-.46-.54-.69-.8s-.51-.48-.76-.72a1.72 1.72 0 0 0-1.22-.7.06.06 0 0 0-.05.06 2.47 2.47 0 0 0 1 1.33 4.08 4.08 0 0 0 1.75 1.05.06.06 0 0 0 .02-.11zM38.91 35.15c.65-.28 1.25-.67 1.89-1h.22A.06.06 0 0 0 41 34a.12.12 0 0 0-.07 0l-.15.07c-.68.14-1.35.26-2 .46a2.75 2.75 0 0 0-1.49.82.06.06 0 0 0 0 .08 2.23 2.23 0 0 0 1.62-.28zM38.56 33.9c.75-.24 1.45-.59 2.19-.84L41 33a.06.06 0 1 0 0-.12.14.14 0 0 0-.08 0l-.2.12c-.76.09-1.53.18-2.28.34a3.34 3.34 0 0 0-1.74.66.05.05 0 0 0 0 .09 2.76 2.76 0 0 0 1.86-.19zM37.37 30.13c.38.1.76.2 1.14.27.9.17 1.81.18 2.7.42.07 0 .09-.09 0-.11a18.61 18.61 0 0 0-2.79-1 2.63 2.63 0 0 0-1.87 0 .06.06 0 0 0 0 .09 2.31 2.31 0 0 0 .82.33zM38.48 32.15c.48.06 1 .13 1.44.17a3.63 3.63 0 0 0 1.2 0 .06.06 0 0 0 0-.09 2.32 2.32 0 0 0-.25-.23 16.94 16.94 0 0 0-2.56-.63 4.72 4.72 0 0 0-2.16 0 .06.06 0 0 0 0 .09c.52.65 1.56.54 2.33.69zM40.65 39.58a2.47 2.47 0 0 0 1.41-1.24c.2-.31.38-.63.57-.94a2.42 2.42 0 0 0 .45-1.11.06.06 0 0 0-.08-.04.29.29 0 0 0-.12.11 12.07 12.07 0 0 1-1.59 1.88 1.59 1.59 0 0 0-.66 1.28.06.06 0 0 0 .02.06zM42.77 40a2 2 0 0 0 .73-1.19 8.11 8.11 0 0 0 .32-1.81.06.06 0 0 0-.09 0h-.17v.07c-.21.54-.43 1.06-.62 1.61a1.86 1.86 0 0 0-.25 1.32.06.06 0 0 0 .08 0zM45.19 41a3.71 3.71 0 0 0 0-1.8 6 6 0 0 0-.28-2.2.06.06 0 0 0-.1 0 1.1 1.1 0 0 0-.11.3 5.75 5.75 0 0 0 .39 3.7.06.06 0 0 0 .1 0zM46.74 40.43a4.93 4.93 0 0 0-.51-3.65.06.06 0 0 0-.1 0 .52.52 0 0 0-.06.32 19.26 19.26 0 0 0 .17 2 2.48 2.48 0 0 0 .42 1.35.06.06 0 0 0 .08-.02zM52.82 35.07a.06.06 0 0 0 0-.09A4.63 4.63 0 0 0 50 33.45l-.1-.06c-.06 0-.11.06-.05.1s0 .13 0 .15a.5.5 0 0 0 0 .14 2.92 2.92 0 0 1 .8.29 7.41 7.41 0 0 1 .74.46 2.42 2.42 0 0 0 1.43.54zM52.64 36.88a.06.06 0 0 0 .05 0 1.27 1.27 0 0 0-.85-.94c-.73-.44-1.48-.87-2.19-1.35-.05 0-.1 0-.07.08v.05c.31.25.55.57.86.82l.71.59a2.78 2.78 0 0 0 1.49.75zM51.52 39.12a.06.06 0 0 0 .05-.12 4.83 4.83 0 0 0-.94-1.82 13 13 0 0 0-1.56-1.78H49a.06.06 0 0 0-.06.09c.24.37.36.8.61 1.17s.54.84.8 1.27.65 1.2 1.17 1.19zM49.74 39.75a.06.06 0 0 0 .07-.06 3.21 3.21 0 0 0-.53-1.6 15.45 15.45 0 0 1-.94-1.91s0-.11-.07-.09c-.23.11 0 .61.09.75a6.25 6.25 0 0 1 .33.9 8.87 8.87 0 0 0 .41 1.35 1 1 0 0 0 .64.66z"/><path class="cls-11" d="M62.24 57.28c-.91-3.4 1.89-8-.25-11.14a4.19 4.19 0 0 0-2.43-1.84c-2.24-.73-4.38 0-5.57-2.41-1.46-2.93-3-5.62-6-6.59a7.56 7.56 0 0 0-5.21.28c-1.8.71-3.33 2-5.45.71-1-.61-1.66-1.67-2.78-2.06a7.07 7.07 0 0 0-5 .25 13.53 13.53 0 0 0-3.64 2.21c-1.65 1.55-2.75.25-5.5.62-3.24 1-4.48 3.5-4.28 7.13.11 1.91-2 2.44-3.09 3.81a5.52 5.52 0 0 0-1 3.16c-.26 4.27 3.48 7.72 3.47 12 0 1.86-1 3.59-1.2 5.4a13.86 13.86 0 0 0 .24 4.59c.54 2.89 2.45 4.6 5.18 5.6 1 .38 1.85 1 2.87.94 2.83-.23 5.63-.62 6.91 2.07 1.08 2.27 3.12 4.34 5.65 4.61 3.78.4 7-2.62 10-4.67 4-2.69 6.85-.07 11.32-1.42 1.76-.53 3.81-1.78 3.88-3.91.08-2.33-.41-4.19.73-6.36 1-1.86 2.49-3.29 3.35-5.24 1.26-2.74-1.49-5.1-2.2-7.74z"/><path class="cls-12" d="M29.94 74.54c-8.9-1.61-8.21-13.11-8.21-13.11a2.5 2.5 0 0 0-.42.7c-5.68 6.19 2.23 16.45 9.11 12.42.5-.29-.02.07-.48-.01zM53 66.27c-.12-.52-2.67 10.47-16 10.63-1.12 0-2-.82-1.89-.43 1.17 3 7.7 3.36 11.54 1.5 3.27-1.54 7.15-8.38 6.35-11.7zM20.77 57.33c-1.29-6.53 3.16-12.15 8.11-14.73 1-.52-.73-.62-.74-.6-3.11.69-8.54 1.95-10.07 5.21S17 53.37 20.43 58.1c.75 1.04.57.45.34-.77zM52.29 49.42c7 4 4.34 13.2 4.34 13.2a1.75 1.75 0 0 0 .48-.45c7.5-7.5-2.64-17-9.06-15.76-.47.09 3.88 2.81 4.24 3.01zM32.81 44.23c-.18.49.16.19.63-.11 3-2 10.31-1.91 12.6 2.07 0 0 .31 1.18.39.77.64-3.13-2.18-7.14-5.2-8-3.47-.96-7.28 2.12-8.42 5.27z"/><path class="cls-12" d="M25.82 57.07c.3.56.32 0 .44-.6.81-4.12 7.18-9.81 12.81-8.22 0 0 1.35.76 1.05.35-2.32-3.19-8.43-4.39-11.8-2.71-3.89 1.95-4.4 7.58-2.5 11.18zM43.63 69c.33-.52-2.91 1-3.51 1.14-3.95 1.14-11.66-2.61-13.19-8.38 0 0 0-1.55-.24-1.1-1.55 3.52 1.8 10 5 12.22 3.62 2.65 9.83-.52 11.94-3.88zM41.73 49.64c-.56.23 0 .32.56.52 4 1.32 9.19 8.48 7.36 14 0 0-.81 1.28-.4 1 3.22-2 4.7-8.08 3.24-11.71-1.69-4.12-7.16-5.31-10.76-3.81z"/><path class="cls-9" d="M38.63 58.1a.82.82 0 0 0 .76-1.18.81.81 0 1 0-.62-.44.81.81 0 0 0-.14 1.62z"/><path class="cls-9" d="M41.51 56.53a.71.71 0 0 0-.56-.31.81.81 0 0 0-.14 1.62.78.78 0 0 0 .83-.84.71.71 0 0 0 .56.31.81.81 0 0 0 .14-1.62.78.78 0 0 0-.83.84zM42.56 57.61a.81.81 0 0 0-.14 1.62.81.81 0 0 0 .14-1.62zM40.44 58.07a.81.81 0 0 0-.14 1.62.81.81 0 0 0 .14-1.62zM38.57 59.53a.81.81 0 0 0-.14 1.62.81.81 0 0 0 .14-1.62z"/><path class="cls-9" d="M37 57.17a.81.81 0 0 0-.27 1.58.8.8 0 1 0 .62-.1.81.81 0 0 0-.35-1.48zM36.83 57a.81.81 0 0 0 .17-1.66.81.81 0 0 0-.17 1.66zM40.62 61.92a.81.81 0 0 0 .14-1.62.81.81 0 0 0-.14 1.62zM42.41 61.84a.81.81 0 0 0 .14-1.62.81.81 0 0 0-.14 1.62zM38.38 61.77a.81.81 0 0 0-.14 1.62.81.81 0 0 0 .14-1.62z"/><path class="cls-9" d="M37 60.65a.81.81 0 0 0-.14 1.62.81.81 0 0 0 .14-1.62zM35.06 61.53a.81.81 0 0 0 .14-1.62.81.81 0 0 0-.14 1.62zM35 58.26a.81.81 0 0 0-.14 1.62.81.81 0 0 0 .14-1.62zM34.85 57.84a.81.81 0 0 0 .15-1.62.81.81 0 0 0-.15 1.62zM31.94 58.37a.81.81 0 0 0 .14-1.62.81.81 0 0 0-.14 1.62zM31.64 61.23a.82.82 0 0 0 .74-1.23.75.75 0 0 0 .18.05.78.78 0 0 0 .28 0 .8.8 0 0 0 .52 1.32.81.81 0 0 0 .14-1.62.78.78 0 0 0-.28 0 .8.8 0 0 0-.52-1.32.82.82 0 0 0-.7 1.23.75.75 0 0 0-.18-.05.81.81 0 0 0-.18 1.62zM34.2 62.09a.81.81 0 0 0-.14 1.62.81.81 0 0 0 .14-1.62zM36 62.21a.81.81 0 0 0-.14 1.62.81.81 0 0 0 .14-1.62zM36.39 64.28a.81.81 0 0 0-.14 1.62.81.81 0 0 0 .14-1.62zM39 64.06a.81.81 0 0 0-.14 1.62.81.81 0 0 0 .14-1.62zM40.5 62.46a.81.81 0 0 0-.14 1.62.81.81 0 0 0 .14-1.62zM38.43 55.29a.76.76 0 0 0 .65-.9 1 1 0 0 0-.13-.39.86.86 0 0 0-1.06-.48.78.78 0 0 0-.39 1.06.87.87 0 0 0 .93.71zM35.57 55.3a.81.81 0 0 0 .14-1.62.81.81 0 0 0-.14 1.62zM33.06 56.82a.81.81 0 0 0 .14-1.62.81.81 0 0 0-.14 1.62zM40.48 55.37a.81.81 0 0 0 .14-1.62.81.81 0 0 0-.14 1.62zM42.42 62.47h-.06a.75.75 0 0 0-.66.69v.06a.81.81 0 0 0 1.18.82.84.84 0 0 0-.46-1.57zM41.43 63.89a.81.81 0 0 0-.14 1.62.81.81 0 0 0 .14-1.62zM34.34 64a.81.81 0 0 0-.14 1.62.81.81 0 0 0 .14-1.62zM32.48 61.9c-.85-.06-1 1.56-.14 1.62a.81.81 0 0 0 .14-1.62zM44.64 57.58a.83.83 0 0 0-.5 1.5.81.81 0 0 0 0 1.6.83.83 0 0 0 .5-1.5.81.81 0 0 0 0-1.6zM43.88 61.2a.81.81 0 0 0-.14 1.62.81.81 0 0 0 .14-1.62zM42.47 55.58A.81.81 0 0 0 42.6 54a.81.81 0 0 0-.13 1.58zM44.39 55.65a.81.81 0 0 0-.14 1.62.81.81 0 0 0 .14-1.62z"/></symbol><symbol id="New_Symbol_3" data-name="New Symbol 3" viewBox="0 0 9.92 8.54"><circle class="cls-1" cx="1.76" cy="1.76" r="1.76" transform="rotate(-31.8 1.735 1.736)"/><circle class="cls-1" cx="7.79" cy="2.6" r="2.13" transform="rotate(-31.68 7.79 2.61)"/><circle class="cls-1" cx="4.31" cy="7.13" r="1.41" transform="rotate(-31.68 4.318 7.128)"/></symbol></defs><title>A&amp;amp;ANEWFONT</title><path class="cls-13" d="M310.79 161.71h64.13l-9.91-18.51 9.91-18.5h-64.13v37.01z"/><path class="cls-14" d="M347.93 149.16l-37.07 12.91-.06-26.22 37.13 13.31z"/><path class="cls-13" d="M125.79 161.71H64.17l9.91-18.51-9.91-18.5h61.62v37.01z"/><path class="cls-14" d="M90.17 149.16l37.06 12.91.06-26.22-37.12 13.31z"/><path class="cls-15" d="M88.79 99.71h259v50h-259z"/><text class="cls-16" transform="matrix(.9 0 0 1 145.3 137.04)">are getting married!</text><use width="76.23" height="113.01" transform="translate(317.7 89.1)" xlink:href="#New_Symbol_9"/><use width="76.23" height="113.01" transform="matrix(-1 0 0 1 117.88 89.37)" xlink:href="#New_Symbol_9"/><use width="9.92" height="8.54" transform="translate(42.07 126.9)" xlink:href="#New_Symbol_3"/><use width="9.92" height="8.54" transform="translate(379.72 126.44)" xlink:href="#New_Symbol_3"/><text class="cls-17" transform="translate(64.9 92.11)">Alex &amp; Aaron</text><text class="cls-18" transform="translate(0 79.1)"></text><text class="cls-18" transform="rotate(.01 -525445.37 2132709.37)"></text></svg>