<svg id="Attire" xmlns="http://www.w3.org/2000/svg" viewBox="0 0 174.99 125.9"><defs><style>.cls-1{font-size:90px;fill:#efd7d4;stroke:#42210b;stroke-miterlimit:10;stroke-width:1.75px;font-family:Amatic;font-weight:700}.cls-2{fill:#42210b;fill-rule:evenodd}</style></defs><title>Attire1</title><text class="cls-1" transform="matrix(1.22 0 0 1 8.42 100.86)">Attire</text><path class="cls-2" d="M621.53 254.26a69.87 69.87 0 0 1-3.32-11.84 38.57 38.57 0 0 1-.62-6.57 6.41 6.41 0 0 0-.23-2.14 3.81 3.81 0 0 0-1.47-1.05h-.06c-3.37-1.7-10-1.16-16.23.66-4.21 1.23-11.72 4.17-13.85 8.3-1.09 2.11-.68 2.72.54 4.56 2.58 2.51 7.38 17.53 7.44 17.51a1.07 1.07 0 0 1-.36 1.11 16.17 16.17 0 0 0-4 5.16 6.19 6.19 0 0 0-.42 4.41c4.07 12.77 48.37.17 43.86-14a7.11 7.11 0 0 0-2.64-3.63 11.52 11.52 0 0 0-5.12-1.93 3.37 3.37 0 0 0-2.41.18c2.64 4.77 7.91 9.11-8.7 16.12a1.07 1.07 0 1 1-.72-2c6.41-2.3 12.39-4.32 9.64-11.22q-.74-1.86-1.38-3.63zm-30.76-8.48c-1.17 0-2-.11-2.27-.13a1.07 1.07 0 0 1 0-2.14h.16c.21 0 .94.1 2.12.12a37.49 37.49 0 0 0 12.1-1.71 30.47 30.47 0 0 0 10-5.32l.76-.64q.37-.32.74-.67a1.07 1.07 0 0 1 1.47 1.55c-.27.25-.54.5-.81.73l-.81.68a32.59 32.59 0 0 1-10.7 5.7 39.63 39.63 0 0 1-12.78 1.81z" transform="translate(-585.13 -231.61)"/></svg>