<svg id="Layer_4" data-name="Layer 4" xmlns="http://www.w3.org/2000/svg" viewBox="0 0 253.26 105.26"><defs><style>.cls-1{font-size:72px;fill:#efd7d4;stroke:#42210b;stroke-miterlimit:10;stroke-width:2px;font-family:Century Schoolbook;font-weight:700}.cls-2{fill:#42210b;fill-rule:evenodd}</style></defs><title>AttireTitle</title><text class="cls-1" transform="translate(2.94 81.3)">Attire</text><path class="cls-2" d="M301.81 269.32a89.45 89.45 0 0 1 7-14.11 49.38 49.38 0 0 1 5-6.78 8.2 8.2 0 0 0 1.61-2.23 4.88 4.88 0 0 0-.5-2.26.21.21 0 0 1 0-.08c-1.77-4.5-8.51-9.63-16-13.24-5.06-2.43-14.73-6-20.3-3.94-2.84 1.08-3 2-3.38 4.81.31 4.59-8 23-7.89 23.05a1.37 1.37 0 0 1-1.3.75 20.7 20.7 0 0 0-8.18 1.53 7.92 7.92 0 0 0-4.17 3.85c-7 15.64 45.94 41.53 53.75 24.19a9.1 9.1 0 0 0 .6-5.72 14.75 14.75 0 0 0-3.23-6.22 4.32 4.32 0 0 0-2.45-1.89c-1.56 6.8-.25 15.44-22.07 7.92a1.36 1.36 0 1 1 1-2.53c8.07 3.29 15.5 6.48 18.77-2.45q.88-2.41 1.79-4.64zm-22.05-34.39c-1.09-1-1.81-1.8-2-2.07a1.37 1.37 0 0 1 1.85-2l.14.15c.18.2.81.89 1.92 1.93a48 48 0 0 0 13 8.71 39 39 0 0 0 14.08 3.49h2.54a1.37 1.37 0 0 1 .07 2.73h-2.75a41.72 41.72 0 0 1-15.07-3.72 50.73 50.73 0 0 1-13.73-9.21z" transform="translate(-62.19 -226.03)"/></svg>