<svg id="Layer_7" data-name="Layer 7" xmlns="http://www.w3.org/2000/svg" viewBox="0 0 150.76 104.98"><defs><style>.cls-1{font-size:90px;stroke-width:1.75px;font-family:Amatic;font-weight:700}.cls-1,.cls-3{fill:#efd7d4;stroke:#42210b;stroke-miterlimit:10}.cls-2{letter-spacing:-1px}.cls-3{stroke-width:2px}</style></defs><title>FAQ</title><text class="cls-1" transform="translate(.88 79.93)"><tspan class="cls-2">F</tspan><tspan x="15.64" y="0">AQ</tspan></text><path class="cls-3" d="M241 494.33a42.8 42.8 0 0 0-7.75 2l-2 .74V458l.91-.37 17.66-7.26 2-.83v43.84h-1.42a69.32 69.32 0 0 0-9.44.91z" transform="translate(-113.79 -431.07)"/><path class="cls-3" d="M263.55 459l-5.64 1.69v36.25a1.92 1.92 0 0 1-2 2 75.82 75.82 0 0 0-13.15.91 36.92 36.92 0 0 0-12.16 4.3l-.73.42-.73-.42a36.91 36.91 0 0 0-12.31-4.33 78.64 78.64 0 0 0-13.32-.88 1.68 1.68 0 0 1-1.72-1.8v-36.5l-5.7-1.64v42.7a85.52 85.52 0 0 1 16.16 0 34.49 34.49 0 0 1 12.26 3.3l.1.05c.79.42 3.94 2.08 5.21 2.08s4.42-1.67 5.21-2.08l.1-.05a34.47 34.47 0 0 1 12.26-3.29 85.49 85.49 0 0 1 16.16 0V459z" transform="translate(-113.79 -431.07)"/><path class="cls-3" d="M218.69 494.33a69.32 69.32 0 0 0-9.44-.91h-1.42v-43.88l2 .83 17.66 7.26.91.37v39.09l-2-.74a42.78 42.78 0 0 0-7.75-2z" transform="translate(-113.79 -431.07)"/></svg>