<svg id="Gifts" xmlns="http://www.w3.org/2000/svg" viewBox="0 0 170.48 104.98"><defs><style>.cls-1,.cls-2{fill:#efd7d4;stroke:#42210b;stroke-miterlimit:10}.cls-1{font-size:90px;font-family:Amatic;font-weight:700;stroke-width:1.75px}.cls-2{stroke-width:2px}</style></defs><title>Gifts1</title><text class="cls-1" transform="translate(.87 79.93)">Gifts</text><path class="cls-2" d="M126.56 70.81h18.86V44.87h-18.86v25.94M147.73 70.81h19.19V44.87h-19.19v25.94z"/><path class="cls-2" d="M587.64 380.49h6.2a10.37 10.37 0 0 0 4.32-2.69c1.71-1.77 3.58-5.43 2.37-7.88-.53-1.08-1.88-2.13-3.16-1.63a8.61 8.61 0 0 0-3.35 2.89 27.23 27.23 0 0 0-3.29 5 27.31 27.31 0 0 0-3.29-5 8.62 8.62 0 0 0-3.35-2.89c-1.28-.49-2.63.56-3.16 1.63-1.2 2.46.66 6.12 2.37 7.88a10.37 10.37 0 0 0 4.32 2.69zm6.85-5.57a24.39 24.39 0 0 1 1.68-2.24c.29-.34.59-.67.89-1s1.08-1.33 1.18-.23c.15 1.72-1.08 3.61-2.21 4.78a7 7 0 0 1-3.35 1.88 28.7 28.7 0 0 1 1.81-3.19zm-11.26-3.47c.09-1.1.83-.15 1.18.23s.61.66.89 1a24.19 24.19 0 0 1 1.68 2.24 28.69 28.69 0 0 1 1.81 3.19 7 7 0 0 1-3.35-1.88c-1.13-1.17-2.36-3.06-2.21-4.78zM567.83 393.31h21.75v-11.22h-21.75v11.21zm24.06 0h21.75v-11.22h-21.75v11.21z" transform="translate(-444.16 -350.04)"/></svg>