<svg id="Layer_6" data-name="Layer 6" xmlns="http://www.w3.org/2000/svg" viewBox="0 0 156.27 104.98"><defs><style>.cls-1,.cls-2{fill:#efd7d4;stroke:#42210b;stroke-miterlimit:10}.cls-1{font-size:90px;font-family:Amatic;font-weight:700;stroke-width:1.75px}.cls-2{stroke-width:2px}</style></defs><title>RSVP1</title><text class="cls-1" transform="translate(.88 79.93)">RSVP</text><path class="cls-2" d="M870.08 414.57l39.71 9.3s1.07.83.92 1.48a1.23 1.23 0 0 1-.2.44c-4.7 7.53-6.87 17.58-9 27.66-1.86 8.62-3.73 17.26-7.19 24.52a1.28 1.28 0 0 1-1.45.65l-39.72-9.3s-1.38-.8-.78-1.82c3.73-7.4 5.6-16.09 7.48-24.78 2.1-9.71 4.19-19.42 8.85-27.57a1.23 1.23 0 0 1 1.41-.57zm21.56 31.34a4.33 4.33 0 0 0 .15-.62 3.48 3.48 0 0 0-.47-2.41 3.58 3.58 0 0 0-2-1.49 4.53 4.53 0 0 0-.65-.15 5.2 5.2 0 0 0-2.41.21 5.92 5.92 0 0 0-2.21 1.31l-1.69 1.59-.67-2.22a3.33 3.33 0 0 0-1.07-1.61 4 4 0 0 0-1.94-.84 5.48 5.48 0 0 0-3.68.8 5.35 5.35 0 0 0-2.34 2.9 3.89 3.89 0 0 0-.16 1.75 3.34 3.34 0 0 0 .63 1.5l.06.09 5.45 8.63 10.28-6.35h.08a5.81 5.81 0 0 0 1.67-1.34 5 5 0 0 0 1-1.73zm-16.07-21.4a1.23 1.23 0 1 0-.53 2.4l22.39 4.9a1.23 1.23 0 0 0 .53-2.4l-22.39-4.9zM864 461.69a1.23 1.23 0 1 0-.53 2.4l22.39 4.9a1.23 1.23 0 0 0 .53-2.4l-22.39-4.9z" transform="translate(-755.46 -395.73)"/></svg>