<svg id="Layer_5" data-name="Layer 5" xmlns="http://www.w3.org/2000/svg" viewBox="0 0 317.33 178.99"><defs><style>.cls-1{font-size:90px;stroke-width:1.75px;font-family:Amatic;font-weight:700}.cls-1,.cls-3{fill:#efd7d4}.cls-1,.cls-2,.cls-3{stroke:#42210b;stroke-miterlimit:10}.cls-2{font-size:72px;fill:#42210b;font-family:Janda Stylish Script}.cls-3{stroke-width:2px}</style></defs><title>Weddingevents1</title><text class="cls-1" transform="translate(.87 79.93)">Wedding</text><text class="cls-2" transform="translate(120.3 148.11)">Events</text><path class="cls-3" d="M250.89 311.59a2.46 2.46 0 0 0 .88-1.31l2.59-9.4a15.94 15.94 0 0 1 16.74-11.61 6.14 6.14 0 0 1-1.33-1.84 6.1 6.1 0 1 1 8.92 2.46 6.15 6.15 0 0 1-2.08.9 15.94 15.94 0 0 1 8.39 18.55l-2.59 9.4a2.46 2.46 0 0 0 .08 1.57l1.29 3.3a2.89 2.89 0 0 1-.54 3 2.89 2.89 0 0 1-2.92.86l-31.27-8.63a2.89 2.89 0 0 1-2.05-2.24 2.89 2.89 0 0 1 1.07-2.84l2.8-2.17zm28.82 4.91l-13.14-3.63a1.43 1.43 0 1 0-.76 2.76l13.14 3.63a1.43 1.43 0 0 0 .76-2.76zm-5.45-27.94l.59.07a3.82 3.82 0 1 0-1.13-.31l.54.24zM258.43 322.59a6.26 6.26 0 0 0 12 3.3l-12-3.3zM218.78 338a2.46 2.46 0 0 0 .08-1.58l-2.6-9.4a15.94 15.94 0 0 1 8.42-18.56 6.15 6.15 0 0 1-2.08-.9 6.1 6.1 0 1 1 8.92-2.46 6.14 6.14 0 0 1-1.33 1.84 15.94 15.94 0 0 1 16.74 11.61l2.6 9.4a2.51 2.51 0 0 0 .33.73 2.48 2.48 0 0 0 .54.58l2.8 2.17a2.89 2.89 0 0 1 1.07 2.84 2.89 2.89 0 0 1-2.06 2.23l-31.27 8.63a2.89 2.89 0 0 1-2.92-.86 2.89 2.89 0 0 1-.54-3l1.29-3.3zM246 327.48l-13.14 3.63a1.43 1.43 0 0 0 .76 2.76l13.14-3.63a1.43 1.43 0 1 0-.76-2.76zm-19-21.19l.54-.24a3.82 3.82 0 1 0-1.13.31l.59-.07zM230.89 343.62a6.26 6.26 0 0 0 12-3.31l-12 3.31z" transform="translate(-12.13 -239.64)"/></svg>