<svg id="Layer_1" data-name="Layer 1" xmlns="http://www.w3.org/2000/svg" viewBox="0 0 332.5 345.3"><defs><style>.cls-1{fill:#deb0ae}.cls-2{fill:#dcbfc1}.cls-3{fill:#eed6d3}.cls-4{font-size:18px;font-family:Come unto Me}.cls-16,.cls-4{fill:#42210b}.cls-5{fill:#bcc54a}.cls-6{fill:#f7a59b}.cls-7{fill:#c6b2d7}.cls-8{fill:#9771b2}.cls-9{fill:#f48e80}.cls-10{fill:#add2b9}.cls-11{fill:#9ab998}.cls-12{fill:#fff}.cls-13{fill:#f18183}.cls-14{fill:#fbd1cb}.cls-15{fill:#ffcb73}</style></defs><title>finalwelcomeSPELLING</title><path class="cls-1" d="M570.16 142l-15.29 41.27s43.29 11.24 71.3 28.74c0 0-4.24-19-12.16-31.5 0 0 11.06-7.55 32.24-7.92 0 .03-31.91-20.31-76.09-30.59zM389.84 142l15.29 41.27s-43.29 11.24-71.3 28.74c0 0 4.24-19 12.16-31.5 0 0-11.06-7.55-32.24-7.92 0 .03 31.91-20.31 76.09-30.59z" transform="translate(-313.75 -120)"/><path class="cls-2" d="M384.38 177.76s11.27-6.47 16.89-4.9l3.87 10.45z" transform="translate(-313.75 -120)"/><path class="cls-2" d="M239.45 63.31l19.06-5.55-5.95-6.22-9.11.99-4 10.78z"/><path class="cls-3" d="M372.06 136.15l14 41.61s99-34.82 187.89 0l14.53-41.61s-93.4-36.34-216.42 0z" transform="translate(-313.75 -120)"/><text class="cls-4" transform="translate(16.22 106.81)">If you’re on this page it means we’d love to have you at <tspan x="115.56" y="21.6">our wedding!</tspan><tspan x="11.9" y="64.8">Feel free to explore through each tab to learn more </tspan><tspan x="1.58" y="86.4">about attire, event schedule, accommodations and more.</tspan><tspan x="3.05" y="129.6">If you have any questions, e-mail us using the icon on </tspan><tspan x="78.31" y="151.2">the top right of the screen!</tspan><tspan x="134.53" y="194.4">Enjoy!</tspan><tspan x="129.19" y="216">-A&amp;A</tspan></text><path class="cls-5" d="M529.06 428c-.37 8.32 2.27 18 9.55 19.61-3 5.25-4.76 11.19-3.41 17.21.19.86 1.2.58 1.14-.24-.54-7.58 2.56-14.37 6.9-20.26.87-.3 2 .09 2.86.07a.4.4 0 0 0 .16 0c1.58 6.22 9.48 2.73 13 1.53 3.25-1.09 6.6.12 6.16-.29-2.57-2.39-11-7-14.66-6.72-2.15.15-5.2 2-5 4.39a3.43 3.43 0 0 0-1.74 0c1-1.32 2.1-2.59 3.2-3.8a61 61 0 0 1 7.82-7.22c3-1.2 6.26.38 9.22 1 .44.09.79-.63.29-.78-2.81-.79-5.8-1.75-8.62-.87a74.46 74.46 0 0 1 18.13-9.77c.21.05 2.69.08 7.1 3.85 1.51 1.29 2.16 3.39 2.77 5.3-1.82.85-2 2.92-1.33 4.85 1.3 3.65 5.28 4.79 8.15 6.73.69.47 4.21 3.07 3.69 2.69-2.73-2-4.49-14.88-9.44-14.07a.38.38 0 0 0-.21-.43 15.13 15.13 0 0 0-2.42-5c-.13-.18-.27-.33-.41-.49 1.79.67 7.16.41 8.35.11 1.06.82 5 .63 5.87.42 2.78-.68 3.35-3.63 5.2-5.42 2.08-2 5-3.57 4.33-3.49-3.77.4-16.28 2-15.85 7.7a1 1 0 0 0 .05.22 17 17 0 0 1-3.38.4c-1.84 0-3.28-.8-5-.42a16.27 16.27 0 0 0-5-3 1.32 1.32 0 0 0-.73-.59c2.88-1.07 5.72-2.09 8.54-3.15l1-.29a25.94 25.94 0 0 0 6-2c.17 0 7.06-3 8-3.9a43.24 43.24 0 0 1 14-3.37.15.15 0 0 0 0-.3c-3.74-1-8.12.23-11.84 1.94a56.49 56.49 0 0 0 5.15-3.57 59.11 59.11 0 0 0 9.68-9.7 19.49 19.49 0 0 0 1.71-1.95 3.38 3.38 0 0 0 .29-.28 23.45 23.45 0 0 1 1.65-2.24h-.22c2.2-2.72 4.45-5.34 7.52-7.08.23-.13 0-.41-.23-.31a18.65 18.65 0 0 0-5.22 4c1.68-2.7 3.21-5.49 4.62-8.3.1-.21-.25-.32-.34-.14a85 85 0 0 1-9.74 15.29 12.5 12.5 0 0 0-1.14 1.28.28.28 0 0 0-.06.15 63.82 63.82 0 0 1-8.7 8.44 30.27 30.27 0 0 0 7.95-16.92c0-.16-.3-.19-.33 0a37.66 37.66 0 0 1-4.54 11.33 27.41 27.41 0 0 1-2.1 3.13 19.8 19.8 0 0 0 .92-8.17c3.94-5.13-1.1-9-1.84-12.16-.11-.49-1.36 2.26-1.37 2.68 0 0-1.51 2.4-1.34 3.84.3 2.53 2.58 4 3.66 6.06a.31.31 0 0 0 .26.19 32.61 32.61 0 0 1-1.31 8.49.28.28 0 0 0 0 .25 36.89 36.89 0 0 1-7.49 6.33 93.18 93.18 0 0 1-16.36 6.48 33 33 0 0 0 5.1-5c.23.05 1.73-2.36 2.13-3 0 .56 4.86-11 8-15.95.37-.59-.5-1.31-.91-.67-2.66 4.17-7.25 15.41-7.87 16.35 1.5-7.7-1.48-15-4.26-22.31-.28-.73-1.19-.15-.93.54 3 7.9 6.32 15.83 3.39 24.3-.23.29-.46.58-.71.86-1.67 1.93-3.79 3.37-5.52 5.23a.37.37 0 0 0-.09.17 137.82 137.82 0 0 0-14.64 5.23 55.06 55.06 0 0 0-5.1 2.61 16 16 0 0 1 1.5-4.51.41.41 0 0 0-.72-.39 9 9 0 0 0-1.45 5.27 66 66 0 0 0-12.74 10 14 14 0 0 0 .05-3.86c1.57.84 4-3.83 4.39-4.95 1.31-4-2.94-6.91-1.26-10.93.31-.74.62-3 0-2.19-2.54 3.5-5.77 5.59-6.91 10-.79 3.09-.56 6.82 2.76 8.07h.05a21.59 21.59 0 0 1 0 4.73q-1.84 1.91-3.53 3.94a49.91 49.91 0 0 0-3.11 4.13c-.09-2.37.07-5.22-.84-7.21-1.8-3.94-5.4-3.47-7.85-7-.62-.8-2.4-4.02-2.45-2.73z" transform="translate(-313.75 -120)"/><path class="cls-6" d="M625.59 381.34a2.3 2.3 0 0 0 2.09-.69c2.21-1 1.69-4.74 3.56-6.2.35-.28-.19-.45-.64-.42-1.16.07-1.85-.05-2.73.66a5.31 5.31 0 0 0-.65-1.8.37.37 0 0 0-.62 0 5.4 5.4 0 0 0-.91 1.5 12.68 12.68 0 0 0-2.21-1.47c-.37-.25-.94-.93-.87-.56.5 2.42-.51 8.15 2.98 8.98zM619.77 399.49c1.18 0 2.35-.67 3.53-.55a3.62 3.62 0 0 0 1 .46 6.28 6.28 0 0 0-1.07-2l-.15-.25c.66-.08 2.59-1.24 2.38-1.39a6.59 6.59 0 0 0-1.78-.91c-.22 0-.91-.52-1.12-.56a4.34 4.34 0 0 0 1.18-1.67c.13-.29.36-1.19.08-1-1.48 1.2-3.49.47-5.07.41a2.1 2.1 0 0 0-2.12 1.83 4.12 4.12 0 0 0 .4 4 3.77 3.77 0 0 0 2.74 1.63z" transform="translate(-313.75 -120)"/><path class="cls-7" d="M625 417c3.35-.09 4.46-5.38 1.55-7.29a4.74 4.74 0 0 0 .19-1 4.87 4.87 0 0 0-3.19-5 3.22 3.22 0 0 0-1.79 0 3.63 3.63 0 0 0-3.14-1.82 3.32 3.32 0 0 0-3.69 2.64c-3-.27-4.94 3.53-3.58 6.29a4 4 0 0 0-1.61 4.85 3.64 3.64 0 0 0 2.52 2.53 4 4 0 0 0 1.28 2.57 5.32 5.32 0 0 0 3.58 1.21 4.58 4.58 0 0 0 2.94-1.35 3.68 3.68 0 0 0 1.71.06A3.87 3.87 0 0 0 625 417z" transform="translate(-313.75 -120)"/><path class="cls-8" d="M621.22 416.43c.46-.29.11-.83-.23-1.23a1.15 1.15 0 0 0 .85 0 .31.31 0 0 0 .22-.33 1.1 1.1 0 0 0 .37-1.37h.11a.42.42 0 0 0 .24-.58.45.45 0 0 0 0-.46l.18-.09a.36.36 0 0 0 .17-.37.53.53 0 0 0-.27-.83c.59-.13.38-.81-.12-.9a.68.68 0 0 0-.51-.29.48.48 0 0 0-.56-.66.66.66 0 0 0-.67-.53 1.23 1.23 0 0 0-.24-.25.41.41 0 0 0-.64.19l-.1-.25a.85.85 0 0 0-1.12-.56.88.88 0 0 0-.21-.07.5.5 0 0 0-.46 0H618a.58.58 0 0 0-.88 0 .72.72 0 0 0-.34-.1.45.45 0 0 0-.73.39 3.69 3.69 0 0 0 .2.73 1.15 1.15 0 0 0-.05.13l-.53-.17a1.31 1.31 0 0 0-.56 0 .79.79 0 0 0-.5.37.54.54 0 0 0 .11.9.53.53 0 0 0 0 .21 3.12 3.12 0 0 1-.27 1.24.39.39 0 0 0 0 .43.46.46 0 0 0 .1.12.51.51 0 0 0 .14.31l-.48.15c-.27.09-.18.41 0 .58l-.27.16c-.38.27 0 .75.38.7a.41.41 0 0 0 .52.48 2.38 2.38 0 0 0-.26.41c-.14.38.44.8.69.44.17.45.67.67.91.33l.06-.06a1 1 0 0 0 .3 0 2.19 2.19 0 0 0 0 .72c.06.35.69.56.81.14 0-.11.06-.21.08-.32a1.89 1.89 0 0 0 .06.42c.12.41.87.44.92 0a1.35 1.35 0 0 0 .67.22.38.38 0 0 0 .39-.52c0 .08.09.16.15.24.22.3.92.27.88-.17a.49.49 0 0 0 .72.1z" transform="translate(-313.75 -120)"/><path class="cls-5" d="M616.46 382.85c-.11-1.89-1.21-3.34-2.1-4.94a3.37 3.37 0 0 0-.66-1.16 4.94 4.94 0 0 0-.14 1.34 9 9 0 0 1-1.93 3.47 4.55 4.55 0 0 0-1 2.75c0 1.89 2.42 2.43 3.28 3.94.08.31.46 1.43.57 1 .52-2.11 2.11-4.13 1.98-6.4zM430.46 427.59c.37 8.32-2.27 18-9.55 19.61 3 5.25 4.76 11.19 3.41 17.21-.19.86-1.2.58-1.14-.24.54-7.58-2.56-14.37-6.9-20.26-.87-.3-2 .09-2.86.07a.39.39 0 0 1-.16 0c-1.58 6.22-9.48 2.73-13 1.53-3.25-1.09-6.6.12-6.16-.29 2.57-2.39 11-7 14.66-6.72 2.15.15 5.2 2 5 4.39a3.43 3.43 0 0 1 1.74 0c-1-1.32-2.1-2.59-3.2-3.8a61 61 0 0 0-7.82-7.22c-3-1.2-6.26.38-9.22 1-.44.09-.79-.63-.29-.78 2.81-.79 5.8-1.75 8.62-.87a74.46 74.46 0 0 0-18.13-9.77c-.21.05-2.69.08-7.1 3.85-1.51 1.29-2.16 3.39-2.77 5.3 1.82.85 2 2.92 1.33 4.85-1.3 3.65-5.28 4.79-8.15 6.73-.69.47-4.21 3.07-3.69 2.69 2.73-2 4.49-14.88 9.44-14.07a.38.38 0 0 1 .21-.43 15.13 15.13 0 0 1 2.42-5c.13-.18.27-.33.41-.49-1.79.67-7.16.41-8.35.11-1.06.82-5 .63-5.87.42-2.78-.68-3.35-3.63-5.2-5.42-2.08-2-5-3.57-4.33-3.49 3.77.4 16.28 2 15.85 7.7a1 1 0 0 1-.05.22 17 17 0 0 0 3.38.4c1.84 0 3.28-.8 5-.42a16.27 16.27 0 0 1 5-3 1.32 1.32 0 0 1 .73-.59c-2.88-1.07-5.72-2.09-8.54-3.15l-1-.29a25.94 25.94 0 0 1-6-2c-.17 0-7.06-3-8-3.9a43.24 43.24 0 0 0-14-3.37.15.15 0 0 1 0-.3c3.74-1 8.12.23 11.84 1.94a56.49 56.49 0 0 1-5.15-3.57 59.11 59.11 0 0 1-9.68-9.7 19.5 19.5 0 0 1-1.71-1.95 3.37 3.37 0 0 1-.29-.28 23.45 23.45 0 0 0-1.65-2.24h.22c-2.2-2.72-4.45-5.34-7.52-7.08-.23-.13 0-.41.23-.31a18.65 18.65 0 0 1 5.22 4c-1.68-2.7-5.86-10.52-7.26-13.33-.1-.21 2.89 4.71 3 4.89a85 85 0 0 0 9.57 15.17 12.51 12.51 0 0 1 1.14 1.28.29.29 0 0 1 .06.15 63.82 63.82 0 0 0 8.7 8.44 30.27 30.27 0 0 1-7.9-16.92c0-.16.3-.19.33 0a37.66 37.66 0 0 0 4.54 11.33 27.4 27.4 0 0 0 2.1 3.13 19.8 19.8 0 0 1-.92-8.17c-3.94-5.13 1.1-9 1.84-12.16.11-.49 1.36 2.26 1.37 2.68 0 0 1.51 2.4 1.34 3.84-.3 2.53-2.58 4-3.66 6.06a.31.31 0 0 1-.26.19 32.61 32.61 0 0 0 1.31 8.49.29.29 0 0 1 0 .25 36.89 36.89 0 0 0 7.49 6.33 93.18 93.18 0 0 0 16.36 6.48 33 33 0 0 1-5.1-5c-.23.05-1.73-2.36-2.13-3 0 .56-4.86-11-8-15.95-.37-.59.5-1.31.91-.67 2.66 4.17 7.25 15.41 7.87 16.35-1.5-7.7 1.48-15 4.26-22.31.28-.73 1.19-.15.93.54-3 7.9-6.32 15.83-3.39 24.3.23.29.46.58.71.86 1.67 1.93 3.79 3.37 5.52 5.23a.37.37 0 0 1 .09.17 137.81 137.81 0 0 1 14.64 5.23 55.06 55.06 0 0 1 5.1 2.61 16 16 0 0 0-1.5-4.51.41.41 0 0 1 .72-.39 9 9 0 0 1 1.63 5.41 66 66 0 0 1 12.74 10 14 14 0 0 1-.05-3.86c-1.57.84-4-3.83-4.39-4.95-1.31-4 2.94-6.91 1.26-10.93-.31-.74-.62-3 0-2.19 2.54 3.5 5.77 5.59 6.91 10 .79 3.09.56 6.82-2.76 8.07h-.05a21.58 21.58 0 0 0 0 4.73q1.84 1.91 3.53 3.94a49.91 49.91 0 0 1 3.11 4.13c.09-2.37-.07-5.22.84-7.21 1.8-3.94 5.4-3.47 7.85-7 .54-.78 2.31-4 2.37-2.75z" transform="translate(-313.75 -120)"/><path class="cls-6" d="M331.27 389.1a5 5 0 0 0-4.11 1 .94.94 0 0 1-.09-.61 3.23 3.23 0 0 1 .35-1.55l.09-.29a4.37 4.37 0 0 1-2-.5.42.42 0 0 1-.17-.63 3.28 3.28 0 0 1 1-.95l.6-.27a2.8 2.8 0 0 1-1.2-1.86.51.51 0 0 1 .6-.59c1.72.79 2.58-.74 4.1-1.2a2.08 2.08 0 0 1 2.5 1.24 4.11 4.11 0 0 1 .6 4c-.36.99-1.29 2.47-2.27 2.21zM339.74 399.12c-1.18 0-2.35-.67-3.53-.55a3.62 3.62 0 0 1-1 .46 6.28 6.28 0 0 1 1.07-2l.15-.25c-.66-.08-2.59-1.24-2.38-1.39a6.59 6.59 0 0 1 1.78-.91c.22 0 .91-.52 1.12-.56a4.34 4.34 0 0 1-1.18-1.67c-.13-.29-.36-1.19-.08-1 1.48 1.2 3.49.47 5.07.41a2.1 2.1 0 0 1 2.12 1.83 4.12 4.12 0 0 1-.4 4 3.77 3.77 0 0 1-2.74 1.63z" transform="translate(-313.75 -120)"/><path class="cls-5" d="M345.06 388.89c.11.41.49-.71.57-1 .86-1.51 3.28-2 3.28-3.94a4.55 4.55 0 0 0-1-2.75 9 9 0 0 1-1.93-3.47 4.94 4.94 0 0 0-.14-1.34 3.37 3.37 0 0 0-.66 1.16c-.89 1.59-2 3-2.1 4.94-.16 2.26 1.43 4.29 1.98 6.4z" transform="translate(-313.75 -120)"/><path class="cls-7" d="M393.17 428.87c.41-.27 1.15-.76 1.64-.41s-.17 1.07-.35 1.31a9.17 9.17 0 0 1-2.27 1.94c-1.08.74-2.21 1.41-3.33 2.1a1 1 0 0 1 0 .45c.35-.16.71-.31 1.07-.45a15.14 15.14 0 0 0 2.46-1.36 18.34 18.34 0 0 1 2-1.15 3.1 3.1 0 0 1 1.56-.45c.65.09.61.72.39 1.2a4.45 4.45 0 0 1-1.65 1.84 4.76 4.76 0 0 1 1.06 1.94c.15.83-.61 1.17-1.27 1.28a5.77 5.77 0 0 1-2.93-.6c-1-.39-1.9-.9-2.86-1.34a2.4 2.4 0 0 1-.26.26 44 44 0 0 1 4 2.5c.71.48 1.82.88 2.23 1.7a1.05 1.05 0 0 1-1.08 1.44 6 6 0 0 1-3-.6 18.4 18.4 0 0 1-1.5 2.76c-1.55.82-1.72-4.49-1.51-7.37a2.35 2.35 0 0 1-.58.11c-.41 1.28 0 2.77 0 4.09a6.84 6.84 0 0 1-.36 3c-.44.81-1.39 0-1.7-.42a3.26 3.26 0 0 1-.59-2.29 5.21 5.21 0 0 1-3.41-.35.72.72 0 0 1-.62-.84c.4-1.31 2.09-1.6 3.25-2.27.85-.48 1.89-.57 2.76-1a.78.78 0 0 1-.37-.41 12.56 12.56 0 0 0-3.11.86 4.84 4.84 0 0 1-3 .31.92.92 0 0 1-.56-1.31 4.58 4.58 0 0 1 2.09-1.57c.47-.27.11-.73-.12-1.06a3.55 3.55 0 0 1-.68-1.35.81.81 0 0 1 1-.91 4.94 4.94 0 0 1 2.7 1.52 12.36 12.36 0 0 1 1.87 2.37 2.67 2.67 0 0 1 .34-.47c-.76-1.11-1.7-2.07-2.46-3.18a3.24 3.24 0 0 1-.78-2.3c.18-.83 1.41-.63 1.93-.35.28.15.49.41.77.57.45.27.94-.61 1.17-.88a4.26 4.26 0 0 1 .77-.73 1.21 1.21 0 0 1 1 1.34c0 1.35-1.28 4.6-1.35 4.89H387.7a.44.44 0 0 1 .27 0c.6-1.53 1-3.23 1.73-4.7a2.74 2.74 0 0 1 .69-.91c.39-.51.88-.27 1.21.16a1.88 1.88 0 0 1 .26 1.15c.05.82.91.2 1.31-.06zM400 406.55c.41-.27 1.15-.76 1.64-.41s-.17 1.07-.35 1.31a9.17 9.17 0 0 1-2.27 1.94c-1.08.74-2.21 1.41-3.33 2.1a1 1 0 0 1 0 .45c.35-.16.71-.31 1.07-.45a15.14 15.14 0 0 0 2.46-1.36 18.32 18.32 0 0 1 2-1.15 3.1 3.1 0 0 1 1.56-.45c.65.08.61.72.39 1.2a4.45 4.45 0 0 1-1.65 1.84 4.76 4.76 0 0 1 1.06 1.94c.15.83-.61 1.17-1.27 1.28a5.77 5.77 0 0 1-2.93-.6c-1-.39-1.9-.9-2.86-1.34a2.41 2.41 0 0 1-.26.26 44 44 0 0 1 4 2.5c.71.48 1.82.88 2.23 1.7a1.05 1.05 0 0 1-1.08 1.44 6 6 0 0 1-3-.6 18.41 18.41 0 0 1-1.5 2.76c-1.55.82-1.72-4.49-1.51-7.37a2.34 2.34 0 0 1-.58.11c-.41 1.28 0 2.77 0 4.09a6.84 6.84 0 0 1-.36 3c-.44.81-1.39 0-1.7-.42a3.27 3.27 0 0 1-.59-2.29 5.21 5.21 0 0 1-3.41-.35.72.72 0 0 1-.62-.84c.4-1.31 2.09-1.6 3.25-2.27.85-.48 1.89-.57 2.76-1a.78.78 0 0 1-.37-.41 12.56 12.56 0 0 0-3.11.86 4.84 4.84 0 0 1-3 .31.92.92 0 0 1-.56-1.31 4.58 4.58 0 0 1 2.09-1.57c.47-.27.11-.73-.12-1.06a3.55 3.55 0 0 1-.68-1.35.81.81 0 0 1 1-.91 4.94 4.94 0 0 1 2.7 1.52A12.36 12.36 0 0 1 393 412a2.66 2.66 0 0 1 .34-.47c-.76-1.11-1.7-2.07-2.46-3.18a3.24 3.24 0 0 1-.78-2.3c.18-.83 1.41-.63 1.93-.35.28.15.49.41.77.57.45.27.94-.61 1.17-.88a4.26 4.26 0 0 1 .77-.73 1.21 1.21 0 0 1 1 1.34c0 1.35-1.28 4.6-1.35 4.89H394.56a.44.44 0 0 1 .27 0c.6-1.53 1-3.23 1.73-4.7a2.74 2.74 0 0 1 .69-.91c.39-.51.88-.27 1.21.16a1.88 1.88 0 0 1 .26 1.15c.04.83.91.22 1.28-.04z" transform="translate(-313.75 -120)"/><path class="cls-9" d="M367.74 380.59c.09.06-.13.05-.21.1s-.1.06-.15.09.16.16.15.18a.4.4 0 0 1-.06.31.34.34 0 0 1-.21.09h-.13a13.17 13.17 0 0 0 1.13 2.59c2 4.19 1.21 9.87-2.6 12.61a1.06 1.06 0 0 0-.26.07c-.82.36-1.62.77-2.44 1.13-3.66.64-6.89-2.66-8.51-5.86a.4.4 0 0 1 .29-.58h.12a9 9 0 0 0-.65-1.16 15.13 15.13 0 0 0-1.26-1.42h-.15a.39.39 0 0 1-.47-.26.55.55 0 0 1 .23-.53l.08-.05.06-.07h.06a.76.76 0 0 1 .06-.16.43.43 0 0 1 .43-.21h.09v.06h.05a.58.58 0 0 1 .4.18.55.55 0 0 1 .17.44v.05a.44.44 0 0 1-.29.43h-.19a6.06 6.06 0 0 1 .74.79 6.32 6.32 0 0 1 1.14 1.77 16.93 16.93 0 0 0 1.94-.5 8.35 8.35 0 0 0-1.44-1.47h-.08a.31.31 0 0 1-.19 0 .68.68 0 0 1-.48-.08.57.57 0 0 1-.31-.86.21.21 0 0 1 .33-.08 1.52 1.52 0 0 1 .37-.13.77.77 0 0 1 .5 0 .39.39 0 0 1 .23.33.46.46 0 0 1-.16.37.41.41 0 0 1 0 .16.4.4 0 0 1-.06.19 8.66 8.66 0 0 1 1.55 1.52q.61-.2 1.2-.44c-.72-.88-1.52-1.69-2.32-2.5a5.39 5.39 0 0 1-.55-.06.58.58 0 0 1-.48-.49.51.51 0 0 1 .59-.54v-.08a.31.31 0 0 1 .31-.1.39.39 0 0 1 .27.19.93.93 0 0 1 .25.23v.07a.41.41 0 0 1 .07.2.46.46 0 0 1-.25.43A32.35 32.35 0 0 1 359 390l.66-.29A5.45 5.45 0 0 0 359 387a.79.79 0 0 1-.33-.05.41.41 0 0 1-.24-.46.52.52 0 0 1 .29-.36.43.43 0 0 1 .12-.14.66.66 0 0 1 .6.08 1.09 1.09 0 0 1 .27.18.44.44 0 0 1 .14.31.39.39 0 0 1-.26.41h-.14a5.72 5.72 0 0 1 .82 2.6q.79-.38 1.56-.79l.25-.14a24 24 0 0 0-1.63-2.93.66.66 0 0 1-.19-.05.69.69 0 0 1-.26 0 .66.66 0 0 1-.3-.18.5.5 0 0 1-.09-.53.38.38 0 0 1 .43-.25.68.68 0 0 1 .55 0 .45.45 0 0 1 .15.75.22.22 0 0 1 0 .14 17.47 17.47 0 0 1 1.7 2.84c.48-.27 1-.54 1.43-.82a12.29 12.29 0 0 0-2-2.75.61.61 0 0 1-.44-.29.62.62 0 0 1 .28-.91.3.3 0 0 1 .19 0 .41.41 0 0 1 .16 0l.3.09a.61.61 0 0 1 .22.13.42.42 0 0 1 .05.51.54.54 0 0 1-.12.12.26.26 0 0 1-.09.26.26.26 0 0 1-.14 0 11.11 11.11 0 0 1 2 2.57l.6-.38.8-.5c-.55-.85-2.44-3.65-2.73-4.18a1.12 1.12 0 0 1-.63.22.69.69 0 0 1-.31-.89c.17-.5.95-.93 1.34-.42a.6.6 0 0 1-.15.9c.28.5 2.12 3.4 2.68 4.22.31-.21.77-.61 1.05-.85-.25-.65-.64-1.07-.93-1.71a2.39 2.39 0 0 1-.32-1.55 1.09 1.09 0 0 0-.2-.13.88.88 0 0 1-.3-.05.31.31 0 0 1 0-.58h.08a.33.33 0 0 1 .1-.1.76.76 0 0 1 .27-.27.5.5 0 0 1 .38 0v.07a.79.79 0 0 1 .26.08.41.41 0 0 1 0 .74.22.22 0 0 1-.18.31.55.55 0 0 1-.3 0c.32 1.05 1 2 1.36 3a12.75 12.75 0 0 0 1-1.07 10.52 10.52 0 0 1-1-2.91h-.14a.4.4 0 0 1-.34-.22.25.25 0 0 1 0-.26c-.12-.41.11-.34.25-.36h.13l.2-.15a.31.31 0 0 1 .44.13.37.37 0 0 1 0 .14zM385.64 381.84a.4.4 0 0 1 .28.59c-1.74 3.34-5.26 6.78-9.14 5.62-.48-.29-1-.57-1.43-.89a1 1 0 0 0-.65-.18c-3.83-2.78-4.55-8.5-2.5-12.67a13.17 13.17 0 0 0 1.16-2.57h-.13a.34.34 0 0 1-.2-.09.4.4 0 0 1-.05-.31s.17-.17.16-.18-.17 0-.15-.1-.29 0-.21-.1l.12-.07a.37.37 0 0 1 0-.14.31.31 0 0 1 .44-.13l.2.15h.13s.36 0 .24.37a.25.25 0 0 1 0 .26.4.4 0 0 1-.34.22h-.14a10.52 10.52 0 0 1-1.07 2.9 12.76 12.76 0 0 0 1 1.09c.37-1 1.06-2 1.4-3a.55.55 0 0 1-.3 0 .22.22 0 0 1-.18-.31.41.41 0 0 1 0-.74.79.79 0 0 1 .27-.08v-.07a.5.5 0 0 1 .38 0 .76.76 0 0 1 .26.27.33.33 0 0 1 .1.1h.08a.31.31 0 0 1 0 .58.88.88 0 0 1-.3 0 1.09 1.09 0 0 0-.2.13 2.39 2.39 0 0 1-.33 1.55c-.29.63-.69 1.05-.95 1.7.28.24.74.65 1 .87.57-.82 2.44-3.69 2.73-4.19a.6.6 0 0 1-.14-.9c.39-.5 1.17-.07 1.33.43a.69.69 0 0 1-.32.89 1.12 1.12 0 0 1-.63-.23c-.3.52-2.22 3.31-2.78 4.15l.79.51.6.39a11.11 11.11 0 0 1 2-2.54.26.26 0 0 1-.14 0 .26.26 0 0 1-.09-.26.54.54 0 0 1-.12-.13.42.42 0 0 1 .06-.51.61.61 0 0 1 .22-.13l.3-.09a.41.41 0 0 1 .17 0 .3.3 0 0 1 .19 0 .62.62 0 0 1 .27.91.61.61 0 0 1-.44.28 12.29 12.29 0 0 0-1.99 2.81c.47.29.94.57 1.42.84a17.47 17.47 0 0 1 1.74-2.82.22.22 0 0 1 0-.14.45.45 0 0 1 .16-.75.68.68 0 0 1 .55 0 .38.38 0 0 1 .43.26.5.5 0 0 1-.1.53.66.66 0 0 1-.3.18.69.69 0 0 1-.26 0 .66.66 0 0 1-.19.05 24 24 0 0 0-1.66 2.91l.25.14q.77.43 1.55.81a5.72 5.72 0 0 1 .85-2.59h-.14a.39.39 0 0 1-.25-.41.44.44 0 0 1 .14-.31 1.09 1.09 0 0 1 .28-.17.66.66 0 0 1 .6-.08.43.43 0 0 1 .12.14.52.52 0 0 1 .28.37.41.41 0 0 1-.25.45.79.79 0 0 1-.33 0 5.45 5.45 0 0 0-.82 2.78l.66.3a32.35 32.35 0 0 1 2.38-2.43.46.46 0 0 1-.25-.43.41.41 0 0 1 .08-.2v-.07a.93.93 0 0 1 .25-.23.39.39 0 0 1 .27-.19.31.31 0 0 1 .31.1v.08a.51.51 0 0 1 .59.55.58.58 0 0 1-.48.48 5.37 5.37 0 0 1-.55.05c-.81.8-1.61 1.6-2.35 2.47q.59.25 1.2.46a8.66 8.66 0 0 1 1.56-1.51.4.4 0 0 1-.06-.19.41.41 0 0 1 0-.16.46.46 0 0 1-.15-.37.39.39 0 0 1 .23-.32.77.77 0 0 1 .5 0 1.52 1.52 0 0 1 .37.13.21.21 0 0 1 .33.08.57.57 0 0 1-.32.85.68.68 0 0 1-.49.08.31.31 0 0 1-.19 0h-.08a8.34 8.34 0 0 0-1.46 1.45 16.93 16.93 0 0 0 1.93.52 6.31 6.31 0 0 1 1.16-1.76 6.05 6.05 0 0 1 .75-.78h-.19a.44.44 0 0 1-.28-.44v-.05a.55.55 0 0 1 .17-.44.58.58 0 0 1 .44-.22h.05v-.06h.09a.43.43 0 0 1 .43.22.75.75 0 0 1 .06.16h.06l.05.07.08.05a.55.55 0 0 1 .23.53.39.39 0 0 1-.47.26h-.15a15.11 15.11 0 0 0-1.27 1.41 9 9 0 0 0-.66 1.15z" transform="translate(-313.75 -120)"/><path class="cls-10" d="M625.42 390a2.5 2.5 0 0 0 1.4 1.06 2.18 2.18 0 0 0 .61 2.42c.54.57 1.45 1 2.06.42a.94.94 0 0 0 .39.52 3.42 3.42 0 0 0 2.49.48 1 1 0 0 0 .76-.66.91.91 0 0 0 0-.12 2.24 2.24 0 0 0 2.32.31 2.09 2.09 0 0 0 1.13-.84 3.12 3.12 0 0 0 .32-1.37 2.65 2.65 0 0 0 1.19-.63 3.22 3.22 0 0 0 .71-1.76c.15-1.12-.08-2.53-1.16-2.85a3.9 3.9 0 0 0-.59-3.31 2.28 2.28 0 0 0-1.21-.83 2.17 2.17 0 0 0-1.52.21 2.8 2.8 0 0 0-2.3-1.67 1.82 1.82 0 0 0-2.28 1.24v.16c-.92-.56-2.11.13-2.85.8a2.38 2.38 0 0 0-.78 1.36 2.3 2.3 0 0 0 .28 1.4.89.89 0 0 0-.77.47 3.77 3.77 0 0 0-.59 1.46 2.46 2.46 0 0 0 .39 1.73z" transform="translate(-313.75 -120)"/><path class="cls-11" d="M627.37 390a6.51 6.51 0 0 0 1.53-.1c.57 0 1.14-.08 1.71-.07-.42.58-1 1-1.42 1.6-.08.13.08.31.19.19a6 6 0 0 1 1.9-1.49c-.09.51-.3 1-.38 1.5a16.89 16.89 0 0 0-.16 1.93c0 .14.24.19.25 0a10.47 10.47 0 0 1 .6-2.26c.18-.55.34-1.11.49-1.67.09.33.15.66.24 1a8.48 8.48 0 0 0 .6 1.4.12.12 0 0 0 .23-.07c0-.9-.46-1.78-.45-2.68.6.63 1.08 1.37 1.71 2a.12.12 0 0 0 .2-.13 7.38 7.38 0 0 0-.7-1.61l-.27-.51c.45.2.92.35 1.38.54l.63.31a.13.13 0 0 0 .1-.23 5 5 0 0 0-.61-.3c-.5-.26-1-.55-1.48-.83.79.09 1.59 0 2.38.2a.13.13 0 0 0 .07-.24 6.89 6.89 0 0 0-2.18-.61l.51-.22c.59-.27 1.21-.48 1.8-.75.13-.06 0-.3-.12-.24a15.62 15.62 0 0 1-2.77 1 7.16 7.16 0 0 1 .82-1 14 14 0 0 0 .87-1.29c.09-.13-.08-.31-.19-.19-.71.74-1.54 1.36-2.24 2.09a15.58 15.58 0 0 0 1.11-3.27c0-.13-.19-.25-.24-.1-.23.67-.53 1.32-.82 2-.18.4-.32.81-.46 1.21 0-.31-.08-.61-.11-.92-.06-.63 0-1.27 0-1.9a.13.13 0 0 0-.24-.07 5 5 0 0 0-.47 2 7.89 7.89 0 0 0-.07 1 13 13 0 0 0-1.65-2.08.12.12 0 0 0-.2.09 5.83 5.83 0 0 0 1.07 2.24 16.65 16.65 0 0 0-2.51-.95.13.13 0 0 0-.07.24c.91.49 1.74 1.11 2.61 1.67a5.8 5.8 0 0 1-2.43-.26c-.15 0-.2.18-.07.24a12 12 0 0 0 2.23.78c-.58.1-.73.2-1.32.26a3.66 3.66 0 0 0-1.63.38.14.14 0 0 0 .03.17z" transform="translate(-313.75 -120)"/><path class="cls-11" d="M629.84 388.28a1.1 1.1 0 0 0 .25.74.75.75 0 0 0 .7.23v.06a.74.74 0 0 0 .39.79.86.86 0 0 0 .88 0 .38.38 0 0 0 .16-.29.87.87 0 0 0 .41.24.8.8 0 0 0 .59-.12 1.18 1.18 0 0 0 .48-.56.7.7 0 0 0-.09-.71.78.78 0 0 0 .45-.82.87.87 0 0 0-.06-.29.72.72 0 0 0-.18-.24 1 1 0 0 0-.66-.28 1.39 1.39 0 0 0-.32 0 1.26 1.26 0 0 0-.28-.51 1.1 1.1 0 0 0-.7-.37.83.83 0 0 0-.84.7.77.77 0 0 0 .06.45 1.15 1.15 0 0 0-1.24.98z" transform="translate(-313.75 -120)"/><path class="cls-12" d="M632.39 389.43a.07.07 0 0 0 .1 0 .86.86 0 0 0-.3-.82.07.07 0 0 0-.11 0 .78.78 0 0 0 .31.82zM631.44 389.19a.72.72 0 0 0 .51-.65.07.07 0 0 0 0-.07.07.07 0 0 0-.09-.06.83.83 0 0 0-.49.69.08.08 0 0 0 .07.09zM631 387.91c0 .42.49.36.8.36a.07.07 0 0 0 .06-.09.08.08 0 0 0 0-.09c-.13-.07-.25-.17-.38-.23a.64.64 0 0 0-.4 0 .07.07 0 0 0-.08.05zM632.05 388.12c0 .06.11.1.13 0a.71.71 0 0 0-.12-.84.07.07 0 0 0-.11 0 .77.77 0 0 0 .1.84zM632.3 388.47a.79.79 0 0 0 .91-.15.08.08 0 0 0 0-.13c-.27-.12-.92-.24-.95.21a.06.06 0 0 0 .04.07zM632.47 388.77a.81.81 0 0 0 .27.34 1.12 1.12 0 0 0 .45.09.07.07 0 0 0 .06-.09.82.82 0 0 0-.21-.37.73.73 0 0 0-.46-.06.07.07 0 0 0-.11.09z" transform="translate(-313.75 -120)"/><path class="cls-12" d="M631.91 388.78c0 .08.13.13.16 0a3.47 3.47 0 0 0 .2-.31.56.56 0 0 0 0-.38.2.2 0 0 1 0-.07c0-.06-.1-.14-.15-.06a1.29 1.29 0 0 0-.23.38 1.13 1.13 0 0 0 .02.44zM630.7 388.59a.72.72 0 0 0 .75 0 .07.07 0 0 0 .06-.13 1.48 1.48 0 0 0-.47-.2.49.49 0 0 0-.37.23.08.08 0 0 0 .03.1zM631.72 387.87a.06.06 0 0 0 .08-.08.08.08 0 0 0 0-.05 4.08 4.08 0 0 0-.09-.41.68.68 0 0 0-.34-.18.07.07 0 0 0-.1 0 .57.57 0 0 0 .45.72zM632.47 388a.69.69 0 0 0 .51-.57.52.52 0 0 0-.38 0 .42.42 0 0 0-.14.16c0 .09 0 .19-.09.27a.07.07 0 0 0 .1.14z" transform="translate(-313.75 -120)"/><path class="cls-6" d="M607.7 400.1a.31.31 0 0 0-.12-.35 12.7 12.7 0 0 0-5-1.8c-.89-.2-1.78-.4-2.65-.66a10.05 10.05 0 0 1-1.38-.55c.14-.25 9.73 2.7 9.33 1.25a1.47 1.47 0 0 1 .1-.58 5.49 5.49 0 0 0 .54-3.49.27.27 0 0 0-.17-.2c-1.87-.51-3.68 0-5.58.25-.58.08-4 1.39-4.61 1.55 1.84-1 7.1-2.8 8.74-4.13a3.38 3.38 0 0 0-.59-1.8c-.63-.93-2.33-2.94-3.48-3.24-.86-.22-2.78 4.29-3.39 5.31s-1.92 2.77-2.46 3.63c.55-1.11 3.45-8.09 3.48-10a3.08 3.08 0 0 0-1.11-.51 4 4 0 0 0-3.59 1c-.9 1.08.54 6.11 0 9.17h-.28a27.58 27.58 0 0 0-1.47-8.87.31.31 0 0 0-.35-.22 4.82 4.82 0 0 0-2.61 1.31c-.73.69-1.81 1.11-1.2 1.83.43.51 4 6.05 4.55 6.87a1.84 1.84 0 0 0 1 2.31 2.19 2.19 0 0 0 1 0 .92.92 0 0 0 .33 0l.45.08c.6.11 3 1.91 5.54 3.61.72.48 2.19 2 3.08 1.67s1.61-2.54 1.9-3.44z" transform="translate(-313.75 -120)"/><path class="cls-13" d="M601.2 387.39c.31-.32.84-1.69.5-2-2.11-1.71-4-1.47-6.32-.37-.4.19.57 6.91.57 9.59 0 .68 1.71 1 1.76.47a14.59 14.59 0 0 1 3.49-7.69z" transform="translate(-313.75 -120)"/><path class="cls-9" d="M606.8 398.51c2.33.43 2.07-2.86 1.77-4.81-.05-.34-5.15-.64-10.28 1.8-.56.27.47 1.43.49 1.43 4.29.38 5.37 1.07 8.02 1.58z" transform="translate(-313.75 -120)"/><path class="cls-14" d="M602.4 398.85c-.91-.55-1.76-1.17-2.7-1.66a5 5 0 0 0-.66-.27 10 10 0 0 0 2.79-.24.31.31 0 0 0 0-.6c-.2 0-.4-.06-.59-.08l.41-.15c.21-.09.34-.52 0-.55h-.42a.3.3 0 0 0-.16-.57 22.34 22.34 0 0 0-2.62.55c.71-.69 1.53-1.27 2.24-2a.23.23 0 0 0-.29-.36 10.67 10.67 0 0 0-1.05.69 9.38 9.38 0 0 0 .82-1.17c.15-.26-.21-.43-.4-.28a7.89 7.89 0 0 0-1.73 2.06c.09-.79.15-1.58.29-2.36a4 4 0 0 0 .08-.45c0-.25-.41-.26-.46 0l-.09.47a8.4 8.4 0 0 1-.67 1.66 9.32 9.32 0 0 1 .35-1.83c.09-.28-.35-.33-.45-.09s-.2.57-.29.85v-1.88a.25.25 0 0 0-.47-.09 7.91 7.91 0 0 0-.64 2.35.24.24 0 0 0-.22.1 4.8 4.8 0 0 0-.24-.78c-.11-.26-.33-.19-.48 0-.05-.42-.09-.85-.11-1.26 0-.19-.29-.17-.36 0a2.82 2.82 0 0 0-.14.26c-.07-.23-.13-.47-.2-.7s-.38-.12-.42.06a6.5 6.5 0 0 0 .17 2.47 11.21 11.21 0 0 0-1.72-1.6c-.12-.1-.47-.05-.39.18a7.43 7.43 0 0 0 1.3 2.2 7.89 7.89 0 0 0 .82 2.52 7.57 7.57 0 0 0 2 2l.45.4.06.05a.24.24 0 0 0 .18.06 2.79 2.79 0 0 0 2.28.57h.06a8.3 8.3 0 0 0 1.28.9h.06c.25.14.5-.26.3-.46s-.72-.6-1.08-.9a.25.25 0 0 0 0-.1l.35.18.5.27c.23.12.52-.2.34-.38l1.51.64h.07c.39.03.62-.53.34-.68z" transform="translate(-313.75 -120)"/><path class="cls-5" d="M593.86 400.51a4.87 4.87 0 0 1 3.08-.59.77.77 0 0 0 .88-.42 4.72 4.72 0 0 0 .21-.82 2.47 2.47 0 0 0 .43-2.64 3.2 3.2 0 0 0-.55-1.06c-1.22-1.57-3.13-1.13-4.57-.24a.71.71 0 0 0-.26.29c-.36.22-.08.56 0 1.08a12.54 12.54 0 0 1 0 3.7c-.08.42.31.98.78.7z" transform="translate(-313.75 -120)"/><path class="cls-6" d="M594.36 377a.31.31 0 0 0-.35-.15c-1.74.34-3.31 1.58-4.72 2.6-.76.55-1.51 1.1-2.3 1.6a10.29 10.29 0 0 1-1.35.69c-.09-.28 8.64-5.67 7.29-6.35a1.48 1.48 0 0 1-.37-.47 5.51 5.51 0 0 0-2.25-2.79.26.26 0 0 0-.26 0c-1.65 1.1-2.52 2.82-3.61 4.48-.33.5-1.69 4.05-2 4.61.51-2.1 2.74-7.39 2.86-9.56a3.34 3.34 0 0 0-1.75-.77c-1.12-.15-3.79-.2-4.8.48-.75.51 1.32 5.07 1.67 6.23.3 1 .77 3.37 1 4.37-.46-1.18-3.7-8.17-5.11-9.48a3.14 3.14 0 0 0-1.14.51 4.15 4.15 0 0 0-1.69 3.47c.2 1.43 4.94 3.75 6.85 6.26a1.47 1.47 0 0 0-.16.24 27.29 27.29 0 0 0-7.64-4.91.32.32 0 0 0-.41.12 5.08 5.08 0 0 0-.8 2.91c0 1-.4 2.15.55 2.17.67 0 7.26 1 8.24 1.16a1.82 1.82 0 0 0 2.41.81 2.29 2.29 0 0 0 .68-.76 1 1 0 0 0 .21-.27l.36-.29c.49-.39 3.48-1 6.48-1.82.85-.23 3-.31 3.34-1.24s-.75-3.06-1.23-3.85z" transform="translate(-313.75 -120)"/><path class="cls-13" d="M580.41 373.32c0-.46-.69-1.8-1.13-1.72-2.72.47-3.85 2.12-4.58 4.63-.13.44 5.56 4.26 7.57 6.08.51.47 1.9-.65 1.55-1a14.9 14.9 0 0 1-3.41-7.99z" transform="translate(-313.75 -120)"/><path class="cls-9" d="M592.55 376.56c1.91-1.51-.73-3.54-2.4-4.65-.29-.19-4 3.54-5.66 9.16-.18.62 1.39.61 1.4.6 3.23-3.05 4.49-3.4 6.66-5.11z" transform="translate(-313.75 -120)"/><path class="cls-14" d="M589.81 380.19c-1 .33-2.08.56-3.09 1a5.05 5.05 0 0 0-.65.32 10.51 10.51 0 0 0 1.72-2.32.31.31 0 0 0-.44-.42c-.16.13-.32.26-.46.4a4.26 4.26 0 0 0 .16-.42c.07-.22-.16-.62-.4-.39l-.3.31a.3.3 0 0 0-.54-.26 23.54 23.54 0 0 0-1.37 2.4c0-1 .09-2 .05-3.07a.23.23 0 0 0-.47 0 11.22 11.22 0 0 0-.2 1.28 9.68 9.68 0 0 0-.32-1.43c-.09-.29-.46-.13-.48.12a8.2 8.2 0 0 0 .36 2.74c-.53-.61-1.08-1.19-1.57-1.83a4 4 0 0 0-.28-.37c-.17-.19-.47.14-.34.33l.29.38a8.56 8.56 0 0 1 .79 1.65 9.37 9.37 0 0 1-1.13-1.52c-.15-.26-.49 0-.37.28s.29.54.45.8c-.46-.44-.9-.89-1.4-1.28a.26.26 0 0 0-.39.31 8 8 0 0 0 1.32 2.09.26.26 0 0 0-.08.24 4.74 4.74 0 0 0-.74-.35c-.27-.1-.37.13-.35.34-.35-.25-.69-.51-1-.77-.15-.12-.32.11-.28.25a2.87 2.87 0 0 0 .1.28l-.66-.32c-.19-.08-.35.22-.24.36a6.45 6.45 0 0 0 2 1.55 11.21 11.21 0 0 0-2.37.24c-.16 0-.36.33-.14.42a7.34 7.34 0 0 0 2.53.49 7.78 7.78 0 0 0 2.45 1.08 7.56 7.56 0 0 0 2.83-.21l.6-.08h.1a.24.24 0 0 0 .16-.1 2.88 2.88 0 0 0 2-1.37.24.24 0 0 0 0-.06 8.36 8.36 0 0 0 1.55-.38h.06a.29.29 0 0 0-.14-.54c-.48 0-.94.14-1.41.22l-.08-.06.37-.15.54-.2c.25-.1.2-.54 0-.52l1.51-.73h.07c.25-.28 0-.83-.32-.73z" transform="translate(-313.75 -120)"/><path class="cls-5" d="M585.24 387.92a5.13 5.13 0 0 1 1.65-2.78.81.81 0 0 0 .28-1 4.76 4.76 0 0 0-.47-.72 2.49 2.49 0 0 0-1.68-2.12 3.16 3.16 0 0 0-1.17-.29c-2-.12-3 1.65-3.3 3.37a.74.74 0 0 0 0 .4c-.08.43.37.44.83.72a12.49 12.49 0 0 1 2.77 2.53c.33.32.98.44 1.09-.11z" transform="translate(-313.75 -120)"/><path class="cls-10" d="M335.66 411.49a2.5 2.5 0 0 0 1.4 1.06 2.18 2.18 0 0 0 .61 2.42c.54.57 1.45 1 2.06.42a.94.94 0 0 0 .39.52 3.42 3.42 0 0 0 2.49.48 1 1 0 0 0 .76-.66.91.91 0 0 0 0-.12 2.24 2.24 0 0 0 2.32.31 2.09 2.09 0 0 0 1.13-.84 3.12 3.12 0 0 0 .32-1.37 2.65 2.65 0 0 0 1.19-.63 3.22 3.22 0 0 0 .71-1.76c.15-1.12-.08-2.53-1.16-2.85a3.9 3.9 0 0 0-.59-3.31 2.28 2.28 0 0 0-1.21-.83 2.17 2.17 0 0 0-1.52.21 2.8 2.8 0 0 0-2.3-1.67 1.82 1.82 0 0 0-2.28 1.24v.16c-.92-.56-2.11.13-2.85.8a2.38 2.38 0 0 0-.78 1.36 2.3 2.3 0 0 0 .28 1.4.89.89 0 0 0-.77.47 3.77 3.77 0 0 0-.59 1.46 2.46 2.46 0 0 0 .39 1.73z" transform="translate(-313.75 -120)"/><path class="cls-11" d="M337.61 411.42a6.51 6.51 0 0 0 1.53-.1c.57 0 1.14-.08 1.71-.07-.42.58-1 1-1.42 1.6-.08.13.08.31.19.19a6 6 0 0 1 1.9-1.49c-.09.51-.3 1-.38 1.5A16.89 16.89 0 0 0 341 415c0 .14.24.19.25 0a10.47 10.47 0 0 1 .6-2.26c.18-.55.34-1.11.49-1.67.09.33.15.66.24 1a8.48 8.48 0 0 0 .6 1.4.12.12 0 0 0 .23-.07c0-.9-.46-1.78-.45-2.68.6.63 1.08 1.37 1.71 2a.12.12 0 0 0 .2-.13 7.38 7.38 0 0 0-.7-1.61l-.27-.51c.45.2.92.35 1.38.54l.63.31a.13.13 0 0 0 .1-.23 5 5 0 0 0-.61-.3c-.5-.26-1-.55-1.48-.83.79.09 1.59 0 2.38.2a.13.13 0 0 0 .07-.24 6.89 6.89 0 0 0-2.18-.61l.51-.22c.59-.27 1.21-.48 1.8-.75.13-.06 0-.3-.12-.24a15.62 15.62 0 0 1-2.77 1 7.16 7.16 0 0 1 .82-1 14 14 0 0 0 .87-1.29c.09-.13-.08-.31-.19-.19-.71.74-1.54 1.36-2.24 2.09a15.58 15.58 0 0 0 1.11-3.27c0-.13-.19-.25-.24-.1-.23.67-.53 1.32-.82 2-.18.4-.32.81-.46 1.21 0-.31-.08-.61-.11-.92-.06-.63 0-1.27 0-1.9a.13.13 0 0 0-.24-.07 5 5 0 0 0-.47 2 7.87 7.87 0 0 0-.07 1 13 13 0 0 0-1.65-2.08.12.12 0 0 0-.2.09 5.83 5.83 0 0 0 1.07 2.24 16.66 16.66 0 0 0-2.51-.95.13.13 0 0 0-.07.24c.91.49 1.74 1.11 2.61 1.67a5.8 5.8 0 0 1-2.43-.26c-.15 0-.2.18-.07.24a12 12 0 0 0 2.23.78c-.58.1-.73.2-1.32.26a3.66 3.66 0 0 0-1.63.38.14.14 0 0 0 .01.15z" transform="translate(-313.75 -120)"/><path class="cls-11" d="M340.09 409.74a1.1 1.1 0 0 0 .25.74.75.75 0 0 0 .7.23v.06a.74.74 0 0 0 .39.79.86.86 0 0 0 .88 0 .38.38 0 0 0 .16-.29.87.87 0 0 0 .41.24.8.8 0 0 0 .59-.12 1.18 1.18 0 0 0 .48-.56.7.7 0 0 0-.09-.71.78.78 0 0 0 .45-.82.87.87 0 0 0-.06-.29.72.72 0 0 0-.18-.24 1 1 0 0 0-.66-.28 1.39 1.39 0 0 0-.32 0 1.27 1.27 0 0 0-.28-.51 1.1 1.1 0 0 0-.7-.37.83.83 0 0 0-.84.7.77.77 0 0 0 .06.45 1.15 1.15 0 0 0-1.24.98z" transform="translate(-313.75 -120)"/><path class="cls-12" d="M342.64 410.89a.07.07 0 0 0 .1 0 .86.86 0 0 0-.3-.82.07.07 0 0 0-.11 0 .78.78 0 0 0 .31.82zM341.69 410.65a.72.72 0 0 0 .51-.65.08.08 0 0 0 0-.07.07.07 0 0 0-.09-.06.83.83 0 0 0-.49.69.08.08 0 0 0 .07.09zM341.27 409.38c0 .42.49.36.8.36a.07.07 0 0 0 .06-.09.08.08 0 0 0 0-.09c-.13-.07-.25-.17-.38-.23a.64.64 0 0 0-.4 0 .07.07 0 0 0-.08.05zM342.3 409.59c0 .06.11.1.13 0a.71.71 0 0 0-.12-.84.07.07 0 0 0-.11 0 .77.77 0 0 0 .1.84zM342.54 409.93a.79.79 0 0 0 .91-.15.08.08 0 0 0 0-.13c-.27-.12-.92-.24-.95.21a.06.06 0 0 0 .04.07zM342.71 410.23a.81.81 0 0 0 .27.34 1.12 1.12 0 0 0 .45.09.07.07 0 0 0 .06-.09.82.82 0 0 0-.21-.37.73.73 0 0 0-.46-.06.07.07 0 0 0-.11.09z" transform="translate(-313.75 -120)"/><path class="cls-12" d="M342.16 410.24c0 .08.13.13.16 0a3.47 3.47 0 0 0 .2-.31.56.56 0 0 0 0-.38.2.2 0 0 1 0-.07c0-.06-.1-.14-.15-.06a1.28 1.28 0 0 0-.23.38 1.13 1.13 0 0 0 .02.44zM340.95 410.05a.72.72 0 0 0 .75 0 .07.07 0 0 0 .06-.13 1.48 1.48 0 0 0-.47-.2.49.49 0 0 0-.37.23.08.08 0 0 0 .03.1zM342 409.33a.06.06 0 0 0 .08-.08.08.08 0 0 0 0-.05 4.09 4.09 0 0 0-.09-.41.68.68 0 0 0-.34-.18.07.07 0 0 0-.1 0 .57.57 0 0 0 .45.72zM342.72 409.47a.69.69 0 0 0 .51-.57.52.52 0 0 0-.38 0 .42.42 0 0 0-.14.16c0 .09 0 .19-.09.27a.07.07 0 0 0 .1.14z" transform="translate(-313.75 -120)"/><path class="cls-13" d="M558.48 418.63a2.43 2.43 0 0 0 .3 2.54 1.91 1.91 0 0 0 1.88.26 3.44 3.44 0 0 1 .47.77 4.75 4.75 0 0 0 .54.69 1.92 1.92 0 0 0 1.44.65c1.36 0 1.86-1.61 1.95-2.7.07-.84.12-1.66.26-2.49a5.9 5.9 0 0 0 0-2.2c-.29-1.41-2.12-1.59-3.14-1a.41.41 0 0 0-.18.3 4.88 4.88 0 0 0-3.52 3.18zM555.72 411.1a5.75 5.75 0 0 1-.23 2.35 2.35 2.35 0 0 0 0 1.3 1.45 1.45 0 0 0 1.16.91 6 6 0 0 0 5.56-.92c.91-.17 1.85-.84 1.47-1.89s-1.75-2-2.64-2.66a6.49 6.49 0 0 0-3.45-1.65c-1.42-.08-2.07 1.29-1.87 2.56zM566.7 415.21a.36.36 0 0 0-.08.19v.07a.42.42 0 0 0 .18.38 8.43 8.43 0 0 0 .1 4.45 3.3 3.3 0 0 0 1.35 2.21c.93.52 2.05-.26 2.53-1 .37-.59.44-1.31.81-1.91s1.27-.72 1.78-1.13a2.4 2.4 0 0 0 .7-2.87c-.75-1.63-3.34-2.26-5.26-1.87a.4.4 0 0 0-.45-.16 2.62 2.62 0 0 0-1.66 1.64zM566.94 409.63a5.06 5.06 0 0 0-.08 3.71.52.52 0 0 0 .86.08 11.61 11.61 0 0 0 4.35-.91 2.25 2.25 0 0 0 1.43-1.26 1.37 1.37 0 0 0-.08-.93 1.85 1.85 0 0 0-.38-.55c-.32-.35-1-.37-1.18-.84a.83.83 0 0 1-.07-.28.43.43 0 0 0 0-.16v-.61a3.74 3.74 0 0 0-.17-1 1.71 1.71 0 0 0-.82-1c-.87-.46-1.81.19-2.38.81a8.48 8.48 0 0 0-1.48 2.94zM561.67 409.42c.69.79 1.2 2 2.13 2.53a1.35 1.35 0 0 0 1.45 0 .15.15 0 0 0 .15-.11 1.15 1.15 0 0 0 .31-1c.42-1.12 1-2.16 1.34-3.34s.35-3.28-1-3.7a1.51 1.51 0 0 0-1.44.2c-.54.41-.69.79-1.4.42s-1.61-1-2.45-.53c-2.37 1.38-.32 4.11.91 5.53z" transform="translate(-313.75 -120)"/><path class="cls-14" d="M561.16 416.41a.3.3 0 0 0 .29.48l.51-.14-.1.11a.29.29 0 0 0 .32.46l.1-.05c-.17.23-.35.45-.5.69a.28.28 0 0 0 .32.42 5.36 5.36 0 0 0 1.49-.92 16.85 16.85 0 0 1-.77 2c-.08.2.17.54.39.39a3.41 3.41 0 0 0 .88-1.06.31.31 0 0 0 .21.27c1.39.31 1.32-2.39.83-3.39a1.39 1.39 0 0 0-.7-.89c-1.36-.78-2.57.71-3.27 1.63z" transform="translate(-313.75 -120)"/><path class="cls-14" d="M562.23 408.43c-.17-.22-.58-.27-.63.07a3.81 3.81 0 0 0 .9 2.53 5.19 5.19 0 0 0-1.51-1c-.25-.1-.62.09-.47.41a3.4 3.4 0 0 0 .41.62c-.53-.14-1-.11-1.12.36a.85.85 0 0 0 .69.88 3.4 3.4 0 0 0-.49.21.35.35 0 0 0 .1.61 3.93 3.93 0 0 0-.36.29.34.34 0 0 0 .15.58 4.33 4.33 0 0 0 .59.06 3.65 3.65 0 0 0-.51.31.35.35 0 0 0 .29.58l.58-.19a.4.4 0 0 0 .2.22.31.31 0 0 0 .43.29 6.49 6.49 0 0 0 .77-.43c.91-.24 1.87-.66 1.51-1.79a4.31 4.31 0 0 0-.67-1.26 2.93 2.93 0 0 0 .61.43 1 1 0 0 0 .68.1.87.87 0 0 0 .65-.21c1-.8 1.39-2.39 1.71-3.59.1-.38-.46-.56-.68-.32l-.26.27c.08-.41.15-.82.18-1.23s-.54-.62-.68-.23l-.07.2a1.66 1.66 0 0 0-.3-.43.34.34 0 0 0-.54.09 4.55 4.55 0 0 0-.11 1.35 8.23 8.23 0 0 0-.61-1.14.34.34 0 0 0-.61.31 6.74 6.74 0 0 1 .39 1.93l-.22-.28a.34.34 0 0 0-.57.07c-.11-.23-.26-.46-.43-.67zM567.27 409.49a.25.25 0 0 0-.3.15c-.39.9-1.37 2.83-.59 3.78 0 .7 1.08.71 1.66.61 1.33-.22 3.14-.67 4-1.74a.37.37 0 0 0-.12-.55 2.05 2.05 0 0 0-1.54-.09c-.42.08-.83.17-1.24.27a1.88 1.88 0 0 0 .52-.89.36.36 0 0 0-.4-.42 1.73 1.73 0 0 0-.32.11 4.31 4.31 0 0 0 .34-.8.35.35 0 0 0-.37-.42c.29-.85.45-1.79-.38-1.86-.65-.09-1 .93-1.26 1.85zm.73.51a3.68 3.68 0 0 1-.17.34l.13-.42z" transform="translate(-313.75 -120)"/><path class="cls-14" d="M566.6 415.23a2.26 2.26 0 0 0-.18 1 6.66 6.66 0 0 0 .47 3.79.32.32 0 0 0 .41.17c1.23-.59.45-2.34.52-3.55.31.68.61 1.36.94 2a.3.3 0 0 0 .52.09 1.94 1.94 0 0 0 0-1.83h.35a.3.3 0 0 0 .22-.47 3.23 3.23 0 0 0-.45-.47 2.29 2.29 0 0 0 1.06-.22.3.3 0 0 0 .15-.35 2.69 2.69 0 0 0 1-.25.33.33 0 0 0 0-.55 1.63 1.63 0 0 0-1.26-.37.33.33 0 0 0-.25-.41h-.18a.29.29 0 0 0-.22-.12c-1.3-.01-2.49.2-3.1 1.54z" transform="translate(-313.75 -120)"/><path class="cls-12" d="M562.93 413.32h-.06l-.28.05c-.2 0-.11.36.06.38a3.93 3.93 0 0 0 .83 0 3.82 3.82 0 0 0-.33.33 3.12 3.12 0 0 0-.44.23c-.19.12 0 .36.18.36a2.34 2.34 0 0 0 .62-.1 5.79 5.79 0 0 0-.52.27c-.21.12.06.39.25.33a3.42 3.42 0 0 0 .38-.16l-.09.15a.17.17 0 0 0 .08.24l-.17.15c-.19.16.08.48.26.33l.38-.32a.2.2 0 0 0 .32.08l.24-.28-.15.41a3.36 3.36 0 0 0-.21.4.2.2 0 0 0 .33.22l.11-.18c0 .13.23.23.3.07s.09-.21.13-.32v.23a2.46 2.46 0 0 0-.08.64c0 .2.3.26.34.05s.06-.36.08-.54a.14.14 0 0 0 .22-.09.23.23 0 0 0 .35.13c0 .18.05.35.09.53s.27.2.28 0 0-.33 0-.49a.21.21 0 0 0 .1-.05h-.38c.06.21 0 .26 0 0 .74.1.77 0 .74-.23s.16-.2.14-.29c.06.09.23.18.3.26s.58.11.46-.15a4 4 0 0 0-.24-.52l.16.13a.22.22 0 1 0 .32-.3l-.41-.47.59.25a.21.21 0 0 0 .22-.35l-.22-.16a.21.21 0 0 0 0-.32l-.28-.13a.18.18 0 0 0 0-.24l.43-.11a.21.21 0 0 0-.05-.4 2.09 2.09 0 0 0-.48 0h.11c.23-.1 0-.41-.17-.38a3.22 3.22 0 0 0-.59.15 6.19 6.19 0 0 0 .85-.77c.15-.17-.13-.41-.3-.29l-.3.23a.17.17 0 0 0-.15 0l-.39.19.06-.14a6 6 0 0 0 .49-.7c.11-.19-.19-.37-.33-.23a1.9 1.9 0 0 0-.32.39.2.2 0 0 0-.3.06v-.62c0-.19-.34-.34-.39-.09l-.06.32a.17.17 0 0 0-.21.06c0-.21-.06-.41-.1-.62s-.41-.25-.39 0 .07.58.11.88l-.09-.37c0-.21-.09-.42-.14-.63s-.4-.29-.4 0a9.68 9.68 0 0 0 .1 1v.07c-.26-.37-.52-.74-.79-1.1-.14-.18-.45 0-.33.19l.15.26a.17.17 0 0 0 0 .21.17.17 0 0 0 0 .25l.19.24a2.82 2.82 0 0 0-.43-.17 8.05 8.05 0 0 0-.76-.3c-.22-.07-.26.22-.14.34a5.14 5.14 0 0 0 1.08.8q-.59-.15-1.17-.35c-.22-.08-.3.27-.1.36l.36.14a.19.19 0 0 0 .13.29v.16h.08c.09 0 .19-.08.28-.08a2.64 2.64 0 0 0-.54.23z" transform="translate(-313.75 -120)"/><path class="cls-13" d="M565.11 428.8a2.34 2.34 0 0 0-2.38.84 2 2 0 0 0 .15 1.92 3.4 3.4 0 0 1-.64.63 4.75 4.75 0 0 0-.54.69 2 2 0 0 0-.32 1.57c.29 1.35 1.95 1.5 3 1.35.82-.12 1.62-.23 2.45-.28a5.65 5.65 0 0 0 2.13-.43c1.29-.59 1.07-2.44.27-3.32a.4.4 0 0 0-.33-.12 4.87 4.87 0 0 0-3.79-2.85zM571.76 424.46a5.5 5.5 0 0 1-2.31.27 2.25 2.25 0 0 0-1.24.32 1.48 1.48 0 0 0-.63 1.35 6.22 6.22 0 0 0 2.08 5.31c.36.87 1.2 1.65 2.13 1s1.52-2.16 2-3.19a6.72 6.72 0 0 0 .85-3.78 2 2 0 0 0-2.88-1.28zM570.16 436.22a.34.34 0 0 0-.2 0h-.06a.41.41 0 0 0-.33.26 8.09 8.09 0 0 0-4.26 1.06 3.27 3.27 0 0 0-1.83 1.81c-.3 1 .69 2 1.53 2.29.65.23 1.36.15 2 .39s1 1.1 1.48 1.53a2.31 2.31 0 0 0 2.91.08c1.4-1.1 1.46-3.8.67-5.62a.41.41 0 0 0 .05-.48 2.6 2.6 0 0 0-1.96-1.32z" transform="translate(-313.75 -120)"/><path class="cls-13" d="M575.8 435.5a5.39 5.39 0 0 0-4 .82.6.6 0 0 0 .11 1 13.34 13.34 0 0 0 2 4.58 2.47 2.47 0 0 0 1.69 1.27 1.46 1.46 0 0 0 1-.31 2.06 2.06 0 0 0 .5-.55c.3-.44.17-1.15.62-1.51a.89.89 0 0 1 .29-.14.46.46 0 0 0 .17 0c.22 0 .46-.06.66-.11a4 4 0 0 0 1.05-.44 1.92 1.92 0 0 0 .92-1.16c.29-1.08-.63-2-1.42-2.44a9 9 0 0 0-3.59-1.01zM574.66 430c-.61.86-1.67 1.62-2 2.65a1.41 1.41 0 0 0 .33 1.43.15.15 0 0 0 .14.12 1.11 1.11 0 0 0 1 .09 35.19 35.19 0 0 0 3.5.61c1.05.05 3.23-.36 3.35-1.79a1.57 1.57 0 0 0-.5-1.39c-.51-.45-.91-.52-.71-1.3s.65-1.82 0-2.55c-1.83-2.02-4.04.6-5.11 2.13z" transform="translate(-313.75 -120)"/><path class="cls-14" d="M567.82 431a.3.3 0 0 0-.4.39c.08.15.17.31.25.47l-.12-.08a.29.29 0 0 0-.37.42l.07.09c-.25-.12-.51-.25-.77-.35a.28.28 0 0 0-.33.41 5.42 5.42 0 0 0 1.21 1.28 16.22 16.22 0 0 1-2.08-.33c-.21 0-.49.29-.29.47a3.36 3.36 0 0 0 1.21.65.31.31 0 0 0-.21.27c0 1.45 2.59.8 3.44.09a1.39 1.39 0 0 0 .71-.88c.37-1.53-1.28-2.42-2.32-2.9z" transform="translate(-313.75 -120)"/><path class="cls-14" d="M575.73 430.33c.17-.21.14-.63-.21-.61a3.72 3.72 0 0 0-2.24 1.44 5.33 5.33 0 0 0 .62-1.71c0-.27-.22-.6-.49-.37a3.36 3.36 0 0 0-.51.54c0-.56-.11-1-.59-1a.85.85 0 0 0-.7.88 3.49 3.49 0 0 0-.31-.45.34.34 0 0 0-.56.23 3.94 3.94 0 0 0-.36-.29.33.33 0 0 0-.52.27 4.56 4.56 0 0 0 .07.59 3.69 3.69 0 0 0-.4-.44.34.34 0 0 0-.49.41l.31.53a.4.4 0 0 0-.17.24.31.31 0 0 0-.18.49 6.59 6.59 0 0 0 .58.67c.43.85 1 1.71 2 1.11a4.24 4.24 0 0 0 1.06-.93 3 3 0 0 0-.28.69 1 1 0 0 0 0 .7.9.9 0 0 0 .34.6c1 .82 2.59.86 3.82.92.39 0 .44-.58.16-.75l-.32-.2c.41 0 .82 0 1.23-.08s.48-.67.07-.73h-.21a1.65 1.65 0 0 0 .35-.39.35.35 0 0 0-.2-.52 4.36 4.36 0 0 0-1.33.18 8.1 8.1 0 0 0 1-.85.34.34 0 0 0-.42-.54 6.5 6.5 0 0 1-1.78.8l.22-.28a.35.35 0 0 0-.19-.55c.27-.19.46-.38.63-.6zM575.79 435.56a.25.25 0 0 0-.21-.27c-1-.2-3-.75-3.76.23-.67.16-.45 1.22-.23 1.78.5 1.27 1.32 3 2.54 3.6a.36.36 0 0 0 .51-.24 2.14 2.14 0 0 0-.25-1.54c-.16-.4-.34-.79-.53-1.17a1.83 1.83 0 0 0 1 .32.36.36 0 0 0 .32-.49 1.79 1.79 0 0 0-.17-.3 4.16 4.16 0 0 0 .84.16.35.35 0 0 0 .33-.45c.87.1 1.81.06 1.71-.78-.1-.66-1.16-.79-2.1-.85zm-.33.81l-.36-.1h.43z" transform="translate(-313.75 -120)"/><path class="cls-14" d="M570.13 436.13a2.16 2.16 0 0 0-1 0 6.41 6.41 0 0 0-3.55 1.29.33.33 0 0 0-.07.45c.83 1.1 2.35-.06 3.53-.25-.58.45-1.17.9-1.74 1.37a.31.31 0 0 0 0 .53 1.87 1.87 0 0 0 1.76-.38 2.68 2.68 0 0 0 0 .36.29.29 0 0 0 .5.12 3.25 3.25 0 0 0 .36-.55 2.37 2.37 0 0 0 .44 1 .29.29 0 0 0 .37.08 2.79 2.79 0 0 0 .45.93.32.32 0 0 0 .54-.07 1.7 1.7 0 0 0 .08-1.33.32.32 0 0 0 .34-.34v-.19a.3.3 0 0 0 .07-.24c-.21-1.33-.66-2.47-2.08-2.78z" transform="translate(-313.75 -120)"/><path class="cls-12" d="M571.17 432.08h-.06l-.11-.26c-.08-.19-.37 0-.35.14a4.1 4.1 0 0 0 .2.82 3.81 3.81 0 0 0-.39-.26 3.18 3.18 0 0 0-.32-.39c-.16-.16-.34.1-.31.26a2.43 2.43 0 0 0 .23.59 5 5 0 0 0-.24-.45h.1a1 1 0 0 1-.13 0c-.16-.18-.43.15-.33.32a3.26 3.26 0 0 0 .21.35l-.18-.05a.17.17 0 0 0-.22.13l-.18-.13a.21.21 0 0 0-.26.33l.39.31a.21.21 0 0 0 0 .34l.32.17-.43-.06a3.23 3.23 0 0 0-.43-.12.2.2 0 0 0-.14.38l.2.07c-.12.07-.17.28 0 .32l.34.06h-.22a2.36 2.36 0 0 0-.63.06c-.19 0-.19.36 0 .35h.54a.14.14 0 0 0 .13.2.24.24 0 0 0-.05.37l-.49.2c-.15.07-.13.31.05.28l.47-.1a.21.21 0 0 0 .07.09s0-.08-.06-.08c-.19.11-.18.4.08.34 0 .4.13.46.31.39s.19 0 .28-.07c-.07.08-.14.19-.21.28s0 .56.24.39a4 4 0 0 0 .44-.37l-.09.18a.22.22 0 1 0 .36.25l.36-.51c0 .21-.08.42-.12.64a.21.21 0 0 0 .38.14l.11-.25a.21.21 0 0 0 .3-.1 2 2 0 0 0 .07-.31.18.18 0 0 0 .24 0c.06.14.13.27.2.4a.2.2 0 0 0 .37-.14 2.19 2.19 0 0 0-.06-.49l.06.1c.14.21.4-.05.33-.25a3.34 3.34 0 0 0-.28-.55 6.17 6.17 0 0 0 .92.67c.19.11.36-.22.22-.36l-.29-.25a.18.18 0 0 0 0-.15l-.26-.35h.15a5.87 5.87 0 0 0 .78.33c.21.07.31-.26.15-.38a1.87 1.87 0 0 0-.45-.23.2.2 0 0 0-.13-.29l.6-.11c.23 0 .26-.41 0-.41h-.32a.18.18 0 0 0-.11-.19c.19-.07.39-.14.57-.23s.15-.46-.1-.38-.54.19-.82.29l.34-.16.58-.27c.18-.09.19-.46 0-.4a9.3 9.3 0 0 0-.95.31h-.07c.3-.33.6-.68.89-1 .14-.17-.07-.45-.25-.29l-.22.2a.16.16 0 0 0-.21 0 .16.16 0 0 0-.25 0l-.2.24a2.93 2.93 0 0 0 .07-.46c.06-.27.1-.54.13-.82s-.26-.21-.35-.06a5.25 5.25 0 0 0-.54 1.25q0-.62.09-1.24c0-.23-.33-.24-.37 0s0 .26-.06.39a.19.19 0 0 0-.25.19h-.15v.08c0 .09.11.17.14.26a2.74 2.74 0 0 0-.37-.49z" transform="translate(-313.75 -120)"/><path class="cls-15" d="M336.78 363.83a.47.47 0 0 0-.3-.13.22.22 0 0 0-.24.23.6.6 0 0 0 .12.29v.05a7.57 7.57 0 0 0-.93 1.17 1.23 1.23 0 0 0-.45-.37 2.54 2.54 0 0 0 0-1.48.75.75 0 0 0 .14-.24 1.24 1.24 0 0 0 .1-.13.25.25 0 0 0 .08-.3.43.43 0 0 0-.28-.22h-.21a1 1 0 0 0-.22 0 .18.18 0 0 0-.08.3l.09.08a.4.4 0 0 0 .3.16 3.2 3.2 0 0 1 0 1.57.86.86 0 0 0-.56-.06 2.58 2.58 0 0 0-.55-1.7.43.43 0 0 0 0-.12.13.13 0 0 0 0-.07.46.46 0 0 0-.44-.31.38.38 0 0 0-.27.1.22.22 0 0 0-.1.25.21.21 0 0 0 0 .09.46.46 0 0 0 .57.25.29.29 0 0 0 .1-.08 3.2 3.2 0 0 1 .4 1.16 3.32 3.32 0 0 1 0 .47 6 6 0 0 0-2.36 1.79 6.71 6.71 0 0 0-1.2 2 .54.54 0 0 0 0 .68 1.75 1.75 0 0 0 .51.32l.46.22a12.93 12.93 0 0 0 2.74.93 1.69 1.69 0 0 0 .89 0c.24-.05 1-2.6.59-4.41a4.35 4.35 0 0 1 1.49-.63.46.46 0 0 0 .51.36.22.22 0 0 0 .17-.18.57.57 0 0 0 0-.22.25.25 0 0 0-.07-.13l-.05-.08a.29.29 0 0 0-.09-.07.15.15 0 0 0-.13 0 .33.33 0 0 0-.27.16.3.3 0 0 0 0 .09 2.29 2.29 0 0 0-1.56.48 2.9 2.9 0 0 0-.18-.47 11.8 11.8 0 0 1 .9-1.23.27.27 0 0 0 .11.06.22.22 0 0 0 .17 0h.05a.23.23 0 0 0 .18-.29.54.54 0 0 0-.1-.22z" transform="translate(-313.75 -120)"/><path class="cls-5" d="M336.09 370.71a6.31 6.31 0 0 0-1.81-.67 5.59 5.59 0 0 0-1.54.68c.38-.61 1-.76 1.29-1.42a5.57 5.57 0 0 0-.15-1.67 5.58 5.58 0 0 0-1.36.68 5.49 5.49 0 0 0-.71 1.8 2.5 2.5 0 0 0-1.52-2.43s-.56 1.46-.06 2.19a10.56 10.56 0 0 0 .79 1.47 2.1 2.1 0 0 1 .12 1.19.07.07 0 0 0 .12.06 1.6 1.6 0 0 1 1.38-.8c.55-.07 1.26 0 1.81-.11a6.45 6.45 0 0 0 1.64-.97z" transform="translate(-313.75 -120)"/><path class="cls-5" d="M331.66 376.52a1.55 1.55 0 0 1-.15-.18.07.07 0 0 0-.1 0 1.67 1.67 0 0 1-.37-.43 1.62 1.62 0 0 0 .27-.12 5.13 5.13 0 0 0 .49-.32 2.4 2.4 0 0 0 .43-.37.27.27 0 0 0 .08-.3c-.16-.33-.58 0-.74.14a2.66 2.66 0 0 0-.37.39 1.34 1.34 0 0 0-.19.46 2.38 2.38 0 0 1-.23-1.18c.58-.44 1.52-.68 1.69-1.49a.06.06 0 0 0 0-.07.78.78 0 0 0-.3 0 1.2 1.2 0 0 0-.8.44 3.66 3.66 0 0 0-.48.66 4.94 4.94 0 0 1 .2-.78c.11-.31.28-.61.4-.92a3.32 3.32 0 0 1 .67-.48.07.07 0 0 0 0-.12 2.54 2.54 0 0 1-.86-.41.06.06 0 0 0-.09.05.05.05 0 0 0 0 .07.23.23 0 0 0 0 .09 2.42 2.42 0 0 1 .13.7l-.14.27a5.46 5.46 0 0 0-.26.61 1.53 1.53 0 0 0-.07-.32 2.2 2.2 0 0 0-.34-.69.43.43 0 0 0-.5-.21.28.28 0 0 0-.13.35 1.71 1.71 0 0 0 .29.57 2.57 2.57 0 0 0 .43.49.42.42 0 0 0 .17.1 8.35 8.35 0 0 0-.15 1.53 1.28 1.28 0 0 0-.75-.51c-.15 0-.56-.11-.58.14a.7.7 0 0 0 .55.51 4.08 4.08 0 0 0 .48.14c.12 0 .25.07.37.09a1.89 1.89 0 0 0 .87 1.11.08.08 0 0 0 .08-.01z" transform="translate(-313.75 -120)"/><path class="cls-15" d="M321.87 365.05a.48.48 0 0 1 .26-.19.22.22 0 0 1 .29.17.6.6 0 0 1-.05.31v.06a7.5 7.5 0 0 1 1.15.95 1.79 1.79 0 0 1 .34-.62 3.17 3.17 0 0 1-.34-1.61.26.26 0 0 1-.16 0h-.11a.2.2 0 0 1-.14-.24.4.4 0 0 1 .23-.26h.2a1 1 0 0 1 .23 0 .18.18 0 0 1 .14.28l-.07.09a.41.41 0 0 1-.26.22 3.19 3.19 0 0 0 .37 1.53.86.86 0 0 1 .53-.18 2.59 2.59 0 0 1 .18-1.78.43.43 0 0 1-.06-.11.13.13 0 0 1 0-.07.46.46 0 0 1 .36-.4.37.37 0 0 1 .28 0 .21.21 0 0 1 .15.23.21.21 0 0 1 0 .1.47.47 0 0 1-.5.37.29.29 0 0 1-.11-.05 3.21 3.21 0 0 0-.15 1.22 3.32 3.32 0 0 0 .07.47 6 6 0 0 1 2.69 1.24 6.65 6.65 0 0 1 1.6 1.74.54.54 0 0 1 .13.67 1.77 1.77 0 0 1-.43.42l-.41.31a13 13 0 0 1-2.49 1.5 1.7 1.7 0 0 1-.88.16c-.25 0-1.48-2.34-1.5-4.19a4.33 4.33 0 0 0-1.58-.3.47.47 0 0 1-.43.47.22.22 0 0 1-.2-.14.57.57 0 0 1 0-.22.26.26 0 0 1 0-.15.59.59 0 0 1 0-.1l.06-.1a.16.16 0 0 1 .13 0 .34.34 0 0 1 .31.1l.06.08a2.29 2.29 0 0 1 1.63.14 2.91 2.91 0 0 1 .08-.5 11.68 11.68 0 0 0-1.14-1 .28.28 0 0 1-.1.09.22.22 0 0 1-.17 0H322a.22.22 0 0 1-.23-.25.55.55 0 0 1 .05-.23z" transform="translate(-313.75 -120)"/><path class="cls-5" d="M325.73 372.24c.56 0 1.24-.23 1.8-.28a1.59 1.59 0 0 1 1.51.49.07.07 0 0 0 .1-.09 2.11 2.11 0 0 1-.13-1.19 10.63 10.63 0 0 0 .46-1.6c.34-.82-.51-2.13-.51-2.13a2.52 2.52 0 0 0-1 2.7 5.44 5.44 0 0 0-1.08-1.61 5.55 5.55 0 0 0-1.47-.37 5.57 5.57 0 0 0 .2 1.66c.44.58 1.06.59 1.56 1.11a5.56 5.56 0 0 0-1.65-.33 6.36 6.36 0 0 0-1.63 1 6.41 6.41 0 0 0 1.84.64z" transform="translate(-313.75 -120)"/><path class="cls-5" d="M329.59 376.47a1.91 1.91 0 0 0 .61-1.27c.12 0 .23-.11.35-.17a4.13 4.13 0 0 0 .44-.24.71.71 0 0 0 .43-.61c-.07-.24-.46-.08-.6 0a1.3 1.3 0 0 0-.62.66 8.32 8.32 0 0 0-.47-1.46.42.42 0 0 0 .14-.13 2.59 2.59 0 0 0 .32-.57 1.72 1.72 0 0 0 .17-.62.27.27 0 0 0-.2-.32.44.44 0 0 0-.44.31 2.21 2.21 0 0 0-.19.75 1.54 1.54 0 0 0 0 .33 5.41 5.41 0 0 0-.38-.54l-.19-.23a2.42 2.42 0 0 1 0-.71.23.23 0 0 0 0-.1.05.05 0 0 0 0-.06.06.06 0 0 0-.1 0 2.57 2.57 0 0 1-.75.58.07.07 0 0 0 0 .12 3.29 3.29 0 0 1 .76.33c.18.28.41.53.58.81a4.9 4.9 0 0 1 .36.72 3.63 3.63 0 0 0-.61-.54 1.2 1.2 0 0 0-.88-.26.78.78 0 0 0-.3 0 .06.06 0 0 0 0 .08c.33.75 1.3.79 2 1.09a2.38 2.38 0 0 1 0 1.21 1.33 1.33 0 0 0-.28-.41 2.64 2.64 0 0 0-.44-.3c-.19-.1-.67-.33-.75 0a.27.27 0 0 0 .14.28 2.38 2.38 0 0 0 .49.27 5.11 5.11 0 0 0 .55.2 1.61 1.61 0 0 0 .29.06 1.68 1.68 0 0 1-.27.5.07.07 0 0 0-.1 0 1.57 1.57 0 0 1-.11.2.08.08 0 0 0 .05.04z" transform="translate(-313.75 -120)"/><path class="cls-16" d="M417.87 137.41q3.4-.59 6.81-1.11l.12.77a4.79 4.79 0 0 0-1.7 1.85 12.33 12.33 0 0 0-1.1 3.37q-1.55 7.76-2.88 15.51l-.81.14q-4.11-7.16-8.45-14.21-1.37 8.17-2.49 16.31l-.75.16q-4.32-7-8.87-13.88c-.81-1.23-1.37-2-1.67-2.39a2.22 2.22 0 0 0-1-.74 2.83 2.83 0 0 0-1.51 0l-.18-.75q4.4-1.07 8.82-2l.16.76h-.36c-1.35.29-1.94.82-1.77 1.57a7 7 0 0 0 .9 1.83q3.17 4.88 6.22 9.82.86-5.86 1.84-11.74a7.88 7.88 0 0 0-1-1.54 2.52 2.52 0 0 0-.9-.66 1.72 1.72 0 0 0-.69-.14c-.18 0-.55.06-1.12.15l-.16-.76q4.56-.95 9.13-1.78l.14.76a6.56 6.56 0 0 0-1.67.54.82.82 0 0 0-.47.95 8.76 8.76 0 0 0 1.16 2.34q2.88 4.79 5.66 9.63.81-4.53 1.7-9.07.17-.8.26-1.55a4.88 4.88 0 0 0 0-1.33 2.39 2.39 0 0 0-1-1.75 3.47 3.47 0 0 0-2.18-.37zm-20.29 7.83q4.65 7 9.06 14.15l.1-.4a3.07 3.07 0 0 0 .07-.43 1.42 1.42 0 0 0 0-.44 3 3 0 0 0-.48-1.05q-3.77-6.07-7.71-12.07a17.41 17.41 0 0 0-1.25-1.73 1.69 1.69 0 0 0-.89-.57 2.48 2.48 0 0 0-1.24.13 2.53 2.53 0 0 1 1.1.74 15 15 0 0 1 1.24 1.67zm12-2.81q4.48 7.25 8.72 14.62a3.3 3.3 0 0 0 .18-1.41 4 4 0 0 0-.48-1.06q-3.71-6.41-7.61-12.72a12 12 0 0 0-.89-1.28 1.53 1.53 0 0 0-.75-.46 3 3 0 0 0-1.31 0 5.91 5.91 0 0 1 2.19 2.31zm13.22-5.05l-3 .49a2.51 2.51 0 0 1 1.15.78 3.14 3.14 0 0 1 .53 1.24 7.51 7.51 0 0 1 .5-1.38 4.1 4.1 0 0 1 .86-1.14zM434.21 145.16l.78 6.19a6.59 6.59 0 0 0 .35 1.58 1.43 1.43 0 0 0 .66.77 2.51 2.51 0 0 0 1.2.2q.76 0 2.08-.17a8.3 8.3 0 0 0 2.8-.79 8.56 8.56 0 0 0 2.24-1.64 22.72 22.72 0 0 0 2.23-2.71l1.17-.11q-.68 2.65-1.34 5.29-8.86.83-17.69 2.11l-.11-.77a8.55 8.55 0 0 0 1.92-.49 1.59 1.59 0 0 0 .86-.76 2.37 2.37 0 0 0 .11-1.29l-1.9-13.88a2.88 2.88 0 0 0-.47-1.39 1.42 1.42 0 0 0-1-.48 12.13 12.13 0 0 0-2.18.08l-.11-.77q9-1.34 17.95-2.25 1.14 2.16 2.26 4.34l-1.08.1a9.89 9.89 0 0 0-2.32-1.66 11.12 11.12 0 0 0-3-1 10.44 10.44 0 0 0-3.37-.12 5.93 5.93 0 0 0-2 .53 1.6 1.6 0 0 0-.83.88 3.15 3.15 0 0 0-.06 1.32l.78 6.13 3-.37c2.59-.31 3.79-1.58 3.58-3.85l1-.11.78 7.49-.91.1a3.87 3.87 0 0 0-1.28-2.4 3.6 3.6 0 0 0-2.64-.49zm-4.13-6.42l1.84 13.57a3.49 3.49 0 0 1 0 1.53 2.14 2.14 0 0 1-.62.9 1.71 1.71 0 0 0 1.46-.82 4 4 0 0 0 .1-2L431 138.35a2.12 2.12 0 0 0-.65-1.52 2.49 2.49 0 0 0-1.61-.2 1.7 1.7 0 0 1 .9.64 3.58 3.58 0 0 1 .44 1.46zm11 6.55l-.3-2.77a3.5 3.5 0 0 1-2 1.62 4.65 4.65 0 0 1 1.34.36 2.49 2.49 0 0 1 .88.78zm1.36-10.47l-2.75.3a10.12 10.12 0 0 1 2.11.63 20.73 20.73 0 0 1 2 1zm2.47 18.33l.76-2.56a8.92 8.92 0 0 1-1.42 1.5q-.65.52-1.85 1.31zM447.8 134.29l-.07-.78q5.29-.47 10.6-.8v.78h-.47a6.29 6.29 0 0 0-1.81.32 1.41 1.41 0 0 0-.84.79 3.57 3.57 0 0 0-.16 1.53l.95 13.95a2.36 2.36 0 0 0 .37 1.24 1.72 1.72 0 0 0 1.06.6 8.07 8.07 0 0 0 2.1.09 11.36 11.36 0 0 0 2.09-.3 7.55 7.55 0 0 0 1.87-.75 9.72 9.72 0 0 0 1.89-1.42 16.33 16.33 0 0 0 2-2.24h1.35q-.9 2.6-1.77 5.2-8.74.3-17.47 1l-.07-.78h.19a6 6 0 0 0 1.9-.39 1.42 1.42 0 0 0 .79-.8 3.59 3.59 0 0 0 .12-1.43l-1-13.43a4.78 4.78 0 0 0-.33-1.59 1.4 1.4 0 0 0-1-.72 7 7 0 0 0-2.29-.07zm4 1.86l1.1 14.54a2 2 0 0 1-.17 1.1 2.13 2.13 0 0 1-.72.73h.5q1.46-.11 1.31-2.18l-1-13.63a7.13 7.13 0 0 0-.39-2.11 1.24 1.24 0 0 0-1.43-.6h-.46a2.09 2.09 0 0 1 .91.67 3.19 3.19 0 0 1 .35 1.48zm11 15.69l2.65-.11 1.14-2.86a10.45 10.45 0 0 1-1.7 1.72 10.25 10.25 0 0 1-2.06 1.25zM488.72 131.84h1.25l-.18 6.36h-.93a14.86 14.86 0 0 0-1.47-2.51 9.39 9.39 0 0 0-1.72-1.81 6.74 6.74 0 0 0-1.93-1.08 6.58 6.58 0 0 0-2.19-.36 6.13 6.13 0 0 0-2.88.67 6.24 6.24 0 0 0-2.19 1.92 9.3 9.3 0 0 0-1.38 3 13.79 13.79 0 0 0-.45 3.8 12.36 12.36 0 0 0 1 5 8.21 8.21 0 0 0 2.72 3.4 6.7 6.7 0 0 0 3.91 1.24 8 8 0 0 0 2.61-.41 8.57 8.57 0 0 0 2.43-1.29 11.82 11.82 0 0 0 2.2-2.18l.85.5a11.27 11.27 0 0 1-4 3.42 11.62 11.62 0 0 1-5.28 1.12 11.48 11.48 0 0 1-4.26-.8 10.39 10.39 0 0 1-3.41-2.2 10.23 10.23 0 0 1-2.27-3.29 10.64 10.64 0 0 1-.87-4 10.48 10.48 0 0 1 .75-4.27 9.91 9.91 0 0 1 2.31-3.44 10.54 10.54 0 0 1 3.52-2.24 11.71 11.71 0 0 1 4.3-.79 9.6 9.6 0 0 1 1.6.13q.74.13 1.76.39l1.38.35a3.93 3.93 0 0 0 .83.09 2.72 2.72 0 0 0 1.99-.72zm-10.68.56a13.45 13.45 0 0 0-3.85 2.07 8.93 8.93 0 0 0-1.5 1.58 9.6 9.6 0 0 0-1.74 4 10.19 10.19 0 0 0-.19 2.2 10.59 10.59 0 0 0 1.2 4.73 9.53 9.53 0 0 0 3.28 3.57 11.5 11.5 0 0 0 5.08 1.75 13.39 13.39 0 0 1-3.51-1.47 11 11 0 0 1-2.73-2.3 9.75 9.75 0 0 1-1.95-9.25 9.41 9.41 0 0 1 1.33-2.82 11.45 11.45 0 0 1 2.07-2.27 22.79 22.79 0 0 1 2.47-1.8zm10 3v-2.44a3.9 3.9 0 0 1-1.51.27 4.23 4.23 0 0 1-.72-.07 9.83 9.83 0 0 1 1.27 1.1q.47.58.92 1.18zM492.41 142.27a11.41 11.41 0 0 1 .34-2.45 10.19 10.19 0 0 1 .83-2.19 9.36 9.36 0 0 1 1.33-1.92 10.26 10.26 0 0 1 1.74-1.55 9.59 9.59 0 0 1 2.19-1.15 10.57 10.57 0 0 1 2.52-.58 16.7 16.7 0 0 1 2.88-.05 12.45 12.45 0 0 1 4.62 1.14 10.13 10.13 0 0 1 3.4 2.56 9.83 9.83 0 0 1 1.94 3.54 10.36 10.36 0 0 1 .39 4.06 10.61 10.61 0 0 1-1.25 4.12 10.38 10.38 0 0 1-2.69 3.18 11.25 11.25 0 0 1-3.77 1.94 12.49 12.49 0 0 1-4.47.48 11.35 11.35 0 0 1-4.11-1 10.16 10.16 0 0 1-3.23-2.36 10 10 0 0 1-2-3.47 11.53 11.53 0 0 1-.66-4.3zm6-8.62a10 10 0 0 0-4 3.58 10.14 10.14 0 0 0-1.49 5.09 11.16 11.16 0 0 0 .66 4.36 9.31 9.31 0 0 0 2.27 3.46 11.31 11.31 0 0 0 3.8 2.37 12.12 12.12 0 0 1-4.33-4.18 12.07 12.07 0 0 1-.86-9.51 9.63 9.63 0 0 1 1.5-2.71 16.13 16.13 0 0 1 2.42-2.46zm-1.78 7.26a18.87 18.87 0 0 0 .31 4.62 12.29 12.29 0 0 0 1.32 3.69 7.28 7.28 0 0 0 2.17 2.44 5.53 5.53 0 0 0 2.8 1 5.76 5.76 0 0 0 2.5-.38 5.91 5.91 0 0 0 2.18-1.5 8.14 8.14 0 0 0 1.6-2.63 13.36 13.36 0 0 0 .81-3.75 15.7 15.7 0 0 0-.2-4.41 10.48 10.48 0 0 0-1.33-3.54 7.36 7.36 0 0 0-2.28-2.35 6.18 6.18 0 0 0-3-1 6 6 0 0 0-2.66.42 5.76 5.76 0 0 0-2.16 1.54 7.84 7.84 0 0 0-1.46 2.5 11 11 0 0 0-.63 3.35zm9.76-7.39a8.44 8.44 0 0 1 2.74 2.59 10.14 10.14 0 0 1 1.5 3.78 16.94 16.94 0 0 1 .19 4.69 11.89 11.89 0 0 1-1 4.11 10.08 10.08 0 0 1-2.13 3 8.49 8.49 0 0 0 2.13-1.86 8.22 8.22 0 0 0 1.36-2.46 13.17 13.17 0 0 0 .66-3.2 14.41 14.41 0 0 0-.32-4.79 9 9 0 0 0-1.87-3.75 6.5 6.5 0 0 0-3.29-2.11zM529.17 150.82q4.26-7.23 8.78-14.38 3.27.51 6.54 1.08l-.14.79a4.69 4.69 0 0 0-2.21 0 1.41 1.41 0 0 0-.9.91 19.17 19.17 0 0 0-.52 2.46l-2.09 12.38a3.27 3.27 0 0 0 0 1.48 1.4 1.4 0 0 0 .69.82 7.41 7.41 0 0 0 1.71.57l-.14.79q-4.6-.82-9.22-1.52l.12-.79a4.68 4.68 0 0 0 2 0 1.32 1.32 0 0 0 .87-.77 10.13 10.13 0 0 0 .41-1.81l2.25-13.83q-5.14 8.26-9.92 16.62l-.83-.11q-2.36-9.05-5.08-18l-1.35 11.77a5.51 5.51 0 0 0 .4 3.19 4 4 0 0 0 2.34 1.81l-.1.79q-3.63-.46-7.27-.83l.08-.79a3.39 3.39 0 0 0 2.51-.94 4.6 4.6 0 0 0 1.17-2.83l1.5-13.34a3.84 3.84 0 0 0-1.38-1.12 4.84 4.84 0 0 0-1.87-.47l.08-.79q3.48.35 7 .76 2.4 7.97 4.57 16.1zm-11.92 2.7l3 .34a2.31 2.31 0 0 1-.76-.85 3.51 3.51 0 0 1-.36-1.18 2.9 2.9 0 0 1-.75 1 4.91 4.91 0 0 1-1.13.69zm3.2-18.58l-.56-.06a3.53 3.53 0 0 1 1.37 1.12 7.33 7.33 0 0 1 .87 2q2.56 8.32 4.82 16.69a2.18 2.18 0 0 0 .45-1 3.28 3.28 0 0 0-.16-1.19q-1.94-7.33-4.11-14.62a6.32 6.32 0 0 0-.95-2.15 2.41 2.41 0 0 0-1.73-.79zm16 18.61l2.24-13.83a6.49 6.49 0 0 1 .64-2.25 1.27 1.27 0 0 0-.91.19 1.37 1.37 0 0 0-.44.72 14.54 14.54 0 0 0-.31 1.58l-2.21 13.82a3.31 3.31 0 0 1-.43 1.38 2.14 2.14 0 0 1-1 .6l.5.08a1.21 1.21 0 0 0 1.32-.37 5.55 5.55 0 0 0 .6-1.92zM551.38 149.37l-1.27 6.28a6.93 6.93 0 0 0-.18 1.65 1.47 1.47 0 0 0 .38 1 2.47 2.47 0 0 0 1.08.59q.73.23 2 .51a8.15 8.15 0 0 0 2.91.14 8.56 8.56 0 0 0 2.67-.87 23.17 23.17 0 0 0 3-1.91l1.15.27q-1.51 2.36-3 4.72-8.71-2.07-17.49-3.68l.14-.79a8.35 8.35 0 0 0 2 .14 1.59 1.59 0 0 0 1.07-.46 2.48 2.48 0 0 0 .53-1.23l2.71-14.14a3 3 0 0 0 0-1.51 1.42 1.42 0 0 0-.8-.79 11.86 11.86 0 0 0-2.09-.63l.14-.79q8.92 1.6 17.79 3.64.38 2.48.74 5l-1.07-.25a10 10 0 0 0-1.66-2.37 11.1 11.1 0 0 0-2.49-2 10.28 10.28 0 0 0-3.16-1.21 5.83 5.83 0 0 0-2.11-.14 1.62 1.62 0 0 0-1.07.59 3.31 3.31 0 0 0-.49 1.27l-1.26 6.23 2.95.61c2.57.54 4.12-.31 4.66-2.59l1 .23-1.7 7.55-.9-.2a4 4 0 0 0-.44-2.75 3.56 3.56 0 0 0-2.35-1.33zm-1.83-7.6l-2.67 13.82a3.65 3.65 0 0 1-.54 1.48 2.17 2.17 0 0 1-.88.67 1.69 1.69 0 0 0 1.66-.32 4.21 4.21 0 0 0 .74-1.9l2.71-13.84a2.21 2.21 0 0 0-.12-1.69 2.45 2.45 0 0 0-1.47-.72 1.72 1.72 0 0 1 .64.91 3.75 3.75 0 0 1-.07 1.59zm8.28 9.94l.62-2.79a3.51 3.51 0 0 1-2.38.94 4.6 4.6 0 0 1 1.16.79 2.53 2.53 0 0 1 .59 1.05zm4.71-9.76l-2.71-.6a10.05 10.05 0 0 1 1.8 1.3 20.84 20.84 0 0 1 1.56 1.61zm-3.62 18.66l1.56-2.25a9 9 0 0 1-1.84 1q-.79.29-2.19.68z" transform="translate(-313.75 -120)"/></svg>