<svg id="Layer_1" data-name="Layer 1" xmlns="http://www.w3.org/2000/svg" viewBox="0 0 495.18 307.72"><defs><style>.cls-1{fill:#dfb0af;}.cls-1,.cls-2,.cls-4{stroke:#42210b;stroke-miterlimit:10;stroke-width:2px;}.cls-2{fill:#fcfcfc;}.cls-3,.cls-7{font-size:36px;}.cls-3,.cls-5,.cls-7{fill:#42210b;}.cls-3{font-family:Imprint MT Shadow;}.cls-4{fill:#efd7d4;}.cls-5{font-size:12px;font-family:Century Schoolbook;}.cls-6{fill:#9bba9a;}.cls-7{font-family:Edwardian Script ITC;}</style></defs><title>AttireNEW1box</title><rect class="cls-1" x="1" y="38.54" width="493.18" height="268.18" rx="12" ry="12"/><rect class="cls-2" x="12.14" y="48.06" width="470.91" height="248.75" rx="12" ry="12"/><g id="New_Symbol_28" data-name="New Symbol 28"><text class="cls-3" transform="translate(90.43 30.4)">Formal or Black-Tie</text></g><path class="cls-4" d="M324.79,139.48a24.95,24.95,0,0,0-24.88,24.88v69.11a8.93,8.93,0,0,0,8.91,8.9h82.37a8.93,8.93,0,0,0,8.91-8.9V164.36a25,25,0,0,0-24.88-24.88h-8.06v29.2a15.19,15.19,0,0,1-5,11.17A17.84,17.84,0,0,1,350,184.5h0a17.84,17.84,0,0,1-12.11-4.65,15.19,15.19,0,0,1-5-11.17v-29.2h-8.06Zm27,84.93a3.84,3.84,0,1,1-3.84,3.84,3.84,3.84,0,0,1,3.84-3.84h0Zm0-14.27A3.84,3.84,0,1,1,348,214a3.84,3.84,0,0,1,3.84-3.84h0Zm0-14.27a3.84,3.84,0,1,1-3.84,3.84,3.84,3.84,0,0,1,3.84-3.84h0Zm23.53,46.5V189.12h4.29v53.26h-4.29Zm-55,0V189.12h4.29v53.26h-4.29Z" transform="translate(-232.41 -34.19)"/><path class="cls-4" d="M355,151.09l2.19,1.27h0l2.18,1.26v-5.06l-2.18,1.26h0L355,151.09h0Zm-4,2.32-4.2,2.42h0l-5.2,3-3,1.74v-19l3,1.74,5.2,3h0l4.2,2.42,4.2-2.42h0l5.2-3,3-1.74v19l-3-1.74-5.2-3h0l-4.2-2.42h0Zm-6.21-1.05h0l2.19-1.27-2.19-1.27h0l-2.18-1.26v5.06l2.18-1.26h0Z" transform="translate(-232.41 -34.19)"/><text class="cls-5" transform="translate(66.91 231.93)">Formal Suit &amp; Tie<tspan x="45.01" y="14.4">or</tspan><tspan x="2.12" y="28.8">Tuxedo (optional)</tspan></text><circle class="cls-6" cx="296.61" cy="290.68" r="2.42" transform="translate(-351.1 255.63) rotate(-44.3)"/><circle class="cls-6" cx="294.19" cy="261.34" r="2.42" transform="translate(-331.3 245.59) rotate(-44.3)"/><text class="cls-7" transform="translate(59.74 88.81)">Gentlemen</text><path class="cls-4" d="M579.58,248.39a3.82,3.82,0,0,1-2.12-1.2h0c-2.78-3.16-1.23-15.44,2-28.95,3.76-15.84,9.68-33.79,13.3-39.9V168.06a8.2,8.2,0,0,1-4.95-5,9.54,9.54,0,0,1-.54-3.9h0a9.48,9.48,0,0,1,1.09-3.79,8.25,8.25,0,0,1,7.56-4.43l0.42,0,12,2.3,11.33-2.29,0.44,0a8.25,8.25,0,0,1,7.56,4.43,9.58,9.58,0,0,1,.55,7.7,8.2,8.2,0,0,1-4.95,5v9.52c3.68,5.68,9.77,24.15,13.53,40.45,3.13,13.57,4.56,25.93,1.67,29.17h0a3.77,3.77,0,0,1-1.28.93h0a2.23,2.23,0,0,1-3.84-1.49,3.21,3.21,0,0,0-6.42.1H622.4a3.21,3.21,0,1,0-6.41,0h-4.48a3.21,3.21,0,1,0-6.41,0h-4.48a3.21,3.21,0,1,0-6.41,0h-4.48a3.21,3.21,0,1,0-6.41,0,2.24,2.24,0,0,1-3.74,1.66h0Zm38-53.52a2.23,2.23,0,1,0-3.8,2.36,61.23,61.23,0,0,1,7.39,17.05,66.93,66.93,0,0,1,2.06,18.22,2.23,2.23,0,0,0,4.46.07,71.29,71.29,0,0,0-2.2-19.41,65.65,65.65,0,0,0-7.91-18.3h0Z" transform="translate(-232.41 -34.19)"/><path class="cls-4" d="M616.05,152.19a2.23,2.23,0,1,0,4.39.79l2.49-13.82a2.23,2.23,0,1,0-4.39-.79l-2.49,13.82h0Z" transform="translate(-232.41 -34.19)"/><path class="cls-4" d="M595.45,153.3a2.23,2.23,0,0,0,4.39-.79l-2.49-13.82a2.23,2.23,0,0,0-4.39.79l2.49,13.82h0Z" transform="translate(-232.41 -34.19)"/><circle class="cls-6" cx="570.19" cy="263.76" r="2.42" transform="translate(-254.51 439.05) rotate(-44.3)"/><circle class="cls-6" cx="570.19" cy="277.1" r="2.42" transform="translate(-263.82 442.85) rotate(-44.3)"/><circle class="cls-6" cx="541.35" cy="291.68" r="2.42" transform="translate(-282.21 426.85) rotate(-44.3)"/><text class="cls-5" transform="translate(344.15 233.1)">Long Dress<tspan x="-1" y="14.4">Dressy Suit</tspan><tspan x="-31.01" y="28.8">Formal Cocktail Dress</tspan></text><text class="cls-7" transform="translate(337.48 90.31)">Ladies</text></svg>