<svg id="Layer_7" data-name="Layer 7" xmlns="http://www.w3.org/2000/svg" viewBox="0 0 246.2 96.56"><defs><style>.cls-1{font-size:72px;font-family:Century Schoolbook;font-weight:700;}.cls-1,.cls-2{fill:#efd7d4;stroke:#42210b;stroke-miterlimit:10;stroke-width:2px;}</style></defs><title>GiftsTitle</title><text class="cls-1" transform="translate(1 72.61)">Gifts </text><polyline class="cls-2" points="186.37 73.21 212.23 73.21 212.23 37.65 186.37 37.65 186.37 73.21"/><polygon class="cls-2" points="215.39 73.21 241.69 73.21 241.69 37.65 215.39 37.65 215.39 73.21 215.39 73.21"/><path class="cls-2" d="M582.08,266.1h8.49a14.22,14.22,0,0,0,5.92-3.68c2.34-2.42,4.9-7.44,3.25-10.81-0.72-1.48-2.57-2.91-4.33-2.24-2,.76-3.26,2.37-4.59,4a37.32,37.32,0,0,0-4.51,6.87,37.43,37.43,0,0,0-4.51-6.87c-1.32-1.59-2.61-3.2-4.58-4-1.76-.68-3.61.76-4.33,2.24-1.65,3.37.91,8.38,3.25,10.81a14.21,14.21,0,0,0,5.92,3.68h0Zm9.39-7.63a33.42,33.42,0,0,1,2.3-3.07c0.39-.47.81-0.92,1.22-1.37s1.49-1.83,1.62-.32c0.2,2.36-1.48,5-3,6.55a9.6,9.6,0,0,1-4.59,2.58,39.33,39.33,0,0,1,2.48-4.37h0ZM576,253.71c0.13-1.51,1.13-.21,1.62.32s0.83,0.9,1.22,1.37a33.15,33.15,0,0,1,2.3,3.07,39.32,39.32,0,0,1,2.48,4.37,9.58,9.58,0,0,1-4.59-2.58c-1.55-1.6-3.23-4.2-3-6.55h0Z" transform="translate(-372.52 -248.2)"/><path class="cls-2" d="M554.94,283.66h29.8V268.3h-29.8v15.36h0Zm33,0h29.8V268.3h-29.8v15.36h0Z" transform="translate(-372.52 -248.2)"/></svg>