<svg id="Layer_1" data-name="Layer 1" xmlns="http://www.w3.org/2000/svg" viewBox="0 0 929.44 294.35"><defs><style>.cls-1{fill:#bdc64b;}.cls-2{fill:#fff;}</style></defs><title>HeaderImg</title><path class="cls-1" d="M62.75,5c-0.45-1.25-1-3-1.66-4.71C60.47,0.21,59.84.08,59.21,0a5.7,5.7,0,0,1-.71,0C54.75,0,51,0,47.31-.21a7.81,7.81,0,0,0,.95,2.08C51,6,62.92,11,67.59,11.78,68.38,11.9,64.3,9.37,62.75,5Z" transform="translate(-20.56 0.86)"/><path class="cls-1" d="M85.45,41.15c-4.44-1.41-9-4.69-13.91-3-2.61.88-4.64,2.81-4,5.45-2.54,1-5.29,2-7.91,1.5-7.66-1.52-9.76-4.13-10-4.31a100.27,100.27,0,0,1-4.78-27.31c1.43,3.71,4.93,6.08,8.11,8.39,0.57,0.41,1-.56.58-1-3.1-2.64-7.5-4.78-8.72-8.94A82.41,82.41,0,0,1,45.62-.3L44.15-.37c-0.27.06-.55,0.12-0.82,0.2A5.55,5.55,0,0,1,42.22,0,43.59,43.59,0,0,1,38,3.26l-0.06,0C33.81,0.74,29.68,3.6,27.07,7c-3.75,4.9-3.26,10.07-4.85,15.67-0.37,1.32,1.78-.91,2.3-1.85,2.85-5.12,9.49-3.07,12.61-7.78C38,11.74,40.89,5.26,38.7,4.3a18.82,18.82,0,0,0,4-3.27,88.93,88.93,0,0,0,0,21.85,12.1,12.1,0,0,0-4.37,6.24,0.55,0.55,0,0,0,1,.44A21.51,21.51,0,0,1,42.9,24.2a74.12,74.12,0,0,0,1.5,7.57,185.58,185.58,0,0,0,6.68,19.84,0.49,0.49,0,0,0-.1.24C50.44,55.23,50.68,58.67,50,62c-0.09.49-.2,1-0.32,1.46C43.19,73.66,32.06,76.78,21.18,80.17c-0.94.29-.79,1.75,0.21,1.43,10-3.13,20.25-6.09,27.15-14.09C48.07,69,40,83.19,37.81,89.47c-0.34,1,1.16,1.3,1.47.41C41.9,82.38,50,67.61,49.44,68.09c0.39-1,1.69-4.58,1.44-4.78a44.44,44.44,0,0,0,1-9.54c2.79,7.44,5.44,14.9,6.79,22.71,0,0,0,0,0,0a49.68,49.68,0,0,1-.45,13.2,0.38,0.38,0,0,0-.3.18A43.92,43.92,0,0,1,50,98.35a0.41,0.41,0,0,0-.41-0.12c-3.13.62-6.53-.61-9.46,1.18-1.67,1-2.93,4.61-2.94,4.62-0.43.36-2.31,4-1.7,3.68,4-1.88,12.25.26,14.39-8.19a26.66,26.66,0,0,0,7.87-7.78,36.91,36.91,0,0,1-1.55,4.83A50.71,50.71,0,0,1,48,110.8c-0.13.16,0.16,0.47,0.31,0.31A40.76,40.76,0,0,0,59.62,88.61a85.94,85.94,0,0,1-1.67,16.24,0.38,0.38,0,0,0-.11.19,16.84,16.84,0,0,0-.41,2.27,114.42,114.42,0,0,1-8.05,23c-0.11.25-2.82,7.52-2.68,7.23,1.81-3.83,6.58-14.77,8-18.8a25.12,25.12,0,0,0,.14,8.83c0.06,0.29.57,0.33,0.52,0-0.72-4.69.17-9.27,1.21-13.86L56.74,114a31.58,31.58,0,0,1,1-3.61,4.53,4.53,0,0,0,.06-0.54,26.26,26.26,0,0,0,.63-3.43A79.6,79.6,0,0,0,60.61,88.1a76.08,76.08,0,0,0-.52-8.43c1.29,5.36,3.6,11.05,7.82,14.14a0.2,0.2,0,0,0,.29-0.29,58.22,58.22,0,0,1-8.08-17.58c0.13-1.78-2.49-11.54-2.58-11.75l0,0c-0.41-2.82-1.76-5.43-2.85-8.07l-0.53-1.31C52.9,50.9,51.61,47,50.34,43.11a1.78,1.78,0,0,0,1.23.29c2.45,1.24,4.61,2.49,7.35,2.82,1.06,2.17,3.13,3,4.64,5a22.87,22.87,0,0,1,2.39,3.91,1.31,1.31,0,0,0-.28.13C59.34,59.48,68,74.07,70.75,78.4c0.51,0.81-.3-3.61.08-7.49,0.35-3.46,3-6.52,1.4-10-0.48-1.05-3.59-5.41-5.34-5.85-0.68-1.51-4.89-7.41-7.08-8.74,0.28,0,.56,0,0.85,0A20.37,20.37,0,0,0,68,44.69a0.52,0.52,0,0,0,.62-0.13c3.27,5.91,18.33-2.95,22.75-1.75C92.2,43,86.52,41.49,85.45,41.15Z" transform="translate(-20.56 0.86)"/><path class="cls-1" d="M458,83.89c-4.92-1.59-9.93-5.23-15.39-3.4-2.88,1-5.11,3.09-4.42,6-2.8,1-5.84,2.21-8.74,1.62-8.48-1.72-10.81-4.62-11.06-4.82A111.74,111.74,0,0,1,412.93,53c1.59,4.12,5.47,6.75,9,9.33,0.63,0.46,1.15-.62.64-1.05-3.44-2.94-8.31-5.33-9.68-9.95a91,91,0,0,1,1.16-15.82c0.39-2.42.88-4.85,1.46-7.26a5.18,5.18,0,0,0,1.64,2c-3,2-2.3,7.23-.48,9.9,3.09,4.54,16.24,10.23,21.4,11.06,0.88,0.14-3.64-2.68-5.37-7.5-1.9-5.27-5.15-17.76-13.85-13.91a0.59,0.59,0,0,0-.1-0.23c-0.79-1-2.28-2-2.73-3.3,2.72-10.1,7.49-19.6,16.14-25.94l-3.26-.29c-6.26,4.21-10.51,10.69-13.34,17.77-8.64-7.06-22.33-1.29-31.68,6.78-1.4,1.21,4,.34,5.63.26,6.33-.33,9.12,4.34,15.37,2.84,3.15-.76,6.33-3.56,9.16-5.63a74,74,0,0,0-1.93,7.45q-0.79,3.85-1.31,7.77c-1.5,1.74-3.64,3-5.49,4.36l-0.06,0c-4.54-2.75-9.1.4-12,4.16-4.12,5.41-3.55,11.13-5.28,17.33-0.41,1.46,2-1,2.53-2,3.13-5.66,10.47-3.35,13.89-8.55,1-1.46,4.12-8.62,1.69-9.7a20.53,20.53,0,0,0,4.45-3.61,98.69,98.69,0,0,0,.11,24.19,13.24,13.24,0,0,0-4.79,6.89c-0.23.74,0.81,1.25,1.12,0.49a23.53,23.53,0,0,1,3.86-5.91,82.65,82.65,0,0,0,1.69,8.39,207.47,207.47,0,0,0,7.48,22,0.54,0.54,0,0,0-.11.27c-0.57,3.74-.28,7.55-1,11.28-0.1.54-.22,1.08-0.35,1.62-7.16,11.21-19.44,14.61-31.44,18.32-1,.32-0.86,1.93.24,1.59,11.05-3.41,22.35-6.64,29.93-15.47-0.52,1.59-9.36,17.31-11.75,24.26-0.37,1.07,1.28,1.44,1.62.46,2.86-8.3,11.76-24.61,11.12-24.08,0.42-1.08,1.84-5.06,1.57-5.29a49.17,49.17,0,0,0,1.07-10.56c3.12,8.25,6.09,16.52,7.61,25.18,0,0,0,0,0,0a55.08,55.08,0,0,1-.43,14.61,0.42,0.42,0,0,0-.33.19,48,48,0,0,1-8.67,9.33,0.46,0.46,0,0,0-.46-0.13c-3.46.67-7.22-.7-10.45,1.26-1.84,1.12-3.21,5.09-3.23,5.1-0.48.4-2.53,4.38-1.86,4.06,4.41-2.06,13.54.34,15.86-9a29.1,29.1,0,0,0,8.66-8.58,40.6,40.6,0,0,1-1.69,5.34,55.54,55.54,0,0,1-9,15.73c-0.15.18,0.18,0.52,0.35,0.35,6.44-6.24,10.93-15.52,12.34-24.87a95.1,95.1,0,0,1-1.77,18,0.42,0.42,0,0,0-.12.21,18.59,18.59,0,0,0-.44,2.51,125.83,125.83,0,0,1-8.78,25.48c-0.13.27-3.08,8.31-2.93,8,2-4.23,7.2-16.32,8.8-20.77a27.88,27.88,0,0,0,.2,9.78c0.07,0.33.63,0.37,0.57,0-0.82-5.2.15-10.26,1.27-15.34,0,0.1.1,0.2,0.15,0.3a34.81,34.81,0,0,1,1.08-4,5,5,0,0,0,.06-0.6,29,29,0,0,0,.68-3.79,88,88,0,0,0,2.33-20.29,84.54,84.54,0,0,0-.61-9.33c1.46,5.94,4,12.25,8.71,15.69a0.22,0.22,0,0,0,.32-0.32,65.19,65.19,0,0,1-9-19.51c0.13-2-2.81-12.79-2.91-13a0.21,0.21,0,0,0,0,0c-0.46-3.12-2-6-3.19-9-0.2-.48-0.4-1-0.59-1.45-1.38-4.28-2.82-8.57-4.24-12.92a2,2,0,0,0,1.36.32c2.71,1.39,5.1,2.78,8.13,3.16,1.18,2.41,3.47,3.34,5.15,5.52a25.63,25.63,0,0,1,2.66,4.34,1.43,1.43,0,0,0-.31.14c-7,4.69,2.7,20.89,5.72,25.69,0.57,0.9-.35-4,0.06-8.29,0.37-3.83,3.27-7.2,1.49-11.09-0.53-1.17-4-6-5.93-6.5-0.75-1.68-5.43-8.23-7.86-9.72,0.31,0,.62,0,0.94,0a22.34,22.34,0,0,0,8.09-1.76,0.57,0.57,0,0,0,.69-0.14c3.64,6.56,20.24-3.18,25.13-1.82C465.43,86,459.14,84.27,458,83.89Z" transform="translate(-20.56 0.86)"/><path class="cls-1" d="M496.21-.39c-4.82.55-9.63,1.15-14.45,1.29,2.17,1.24,4.45,2.45,6.59,2.69,4.09,0.45,6.27-1.65,9.2-3.07A5.23,5.23,0,0,1,496.21-.39Z" transform="translate(-20.56 0.86)"/><path class="cls-1" d="M516.2,90.23c-11.22-2-22.66-3.62-30.44-12.85-0.18-.46-0.35-0.93-0.5-1.41-1.08-3.26-1.28-6.71-2.24-10a0.49,0.49,0,0,0-.13-0.23,185.59,185.59,0,0,0,4.06-20.54,74.13,74.13,0,0,0,.51-7.7,21.51,21.51,0,0,1,4.18,4.85,0.55,0.55,0,0,0,.94-0.56,12.1,12.1,0,0,0-5.13-5.62,88.93,88.93,0,0,0-2.82-21.66,18.82,18.82,0,0,0,4.43,2.73c-2,1.24,1.65,7.29,2.69,8.49,3.7,4.27,10,1.38,13.5,6.09,0.64,0.86,3.06,2.79,2.52,1.53-2.3-5.35-2.48-10.54-6.83-14.91-3-3-7.49-5.35-11.24-2.38l-0.05.05a29.07,29.07,0,0,1-5.45-3.28Q483.25,9.39,482.07,6c-0.59-1.7-1.29-3.41-2-5.1-1,0-2.06,0-3.09-.07,0.43,0.9.85,1.8,1.24,2.72-0.25,1.21-1.47,2.23-2.06,3.26a0.53,0.53,0,0,0-.06.22c-8.28-2.47-9.7,9.07-10.77,14-1,4.51-4.7,7.55-3.92,7.32,4.54-1.33,15.66-7.9,17.89-12.31,1.31-2.59,1.31-7.38-1.62-8.81a4.62,4.62,0,0,0,1.22-2c0.82,2.09,1.54,4.21,2.19,6.33a82.15,82.15,0,0,1,2.95,14c-0.67,4.28-4.76,7-7.49,10-0.41.45,0.19,1.36,0.7,0.87,2.86-2.7,6-5.5,7-9.36a100.27,100.27,0,0,1-1.22,27.7c-0.21.2-1.95,3.06-9.35,5.56-2.53.85-5.4,0.15-8-.46,0.27-2.69-2-4.34-4.69-4.88-5.12-1-9.18,2.8-13.41,4.78-1,.48-6.45,2.75-5.65,2.41,4.22-1.76,20.31,5.09,22.78-1.2a0.52,0.52,0,0,0,.64.05,20.37,20.37,0,0,0,7.48.67c0.29,0,.57-0.09.84-0.13-2,1.6-5.42,8-5.89,9.58-1.68.66-4.2,5.38-4.54,6.49-1.13,3.68,1.89,6.38,2.68,9.76,0.88,3.79.65,8.29,1,7.42,2.14-4.64,8.88-20.23,2-23.64a1.31,1.31,0,0,0-.29-0.09,22.87,22.87,0,0,1,1.87-4.18c1.24-2.14,3.19-3.23,4-5.52,2.67-.69,4.65-2.2,6.92-3.75a1.78,1.78,0,0,0,1.18-.44c-0.75,4.06-1.53,8.06-2.25,12-0.12.46-.23,0.91-0.36,1.37-0.74,2.76-1.75,5.53-1.79,8.37a0.19,0.19,0,0,0,0,0c-0.07.22-1.4,10.24-1,12a58.23,58.23,0,0,1-5.75,18.48,0.2,0.2,0,0,0,.32.25c3.79-3.6,5.34-9.54,5.94-15a76.07,76.07,0,0,0,.57,8.42,79.6,79.6,0,0,0,4.53,17.9,26.24,26.24,0,0,0,1.07,3.32,4.53,4.53,0,0,0,.13.53,31.6,31.6,0,0,1,1.45,3.45c0-.1.07-0.19,0.1-0.29,1.62,4.42,3.1,8.84,3,13.58,0,0.35.49,0.25,0.51,0a25.12,25.12,0,0,0-1-8.78c2,3.8,8.12,14,10.4,17.6,0.17,0.27-3.45-6.6-3.59-6.83a114.42,114.42,0,0,1-11-21.81,16.84,16.84,0,0,0-.7-2.2,0.38,0.38,0,0,0-.13-0.17,85.93,85.93,0,0,1-3.75-15.89,40.76,40.76,0,0,0,14.07,20.87c0.18,0.13.43-.21,0.27-0.35a50.71,50.71,0,0,1-10-13.07,36.9,36.9,0,0,1-2.16-4.59,26.66,26.66,0,0,0,8.81,6.71c3.21,8.1,11.12,4.92,15.33,6.27,0.64,0.21-1.68-3.13-2.16-3.43,0,0-1.72-3.41-3.51-4.2-3.14-1.4-6.35.25-9.54,0a0.41,0.41,0,0,0-.39.17A43.92,43.92,0,0,1,481,104.6a0.38,0.38,0,0,0-.32-0.14,49.68,49.68,0,0,1-2.15-13s0,0,0,0c0.33-7.92,2-15.66,3.8-23.39a44.44,44.44,0,0,0,2.23,9.33c-0.22.23,1.53,3.64,2,4.56-0.64-.41,9.32,13.2,12.89,20.3,0.42,0.84,1.86.32,1.4-.6-3-5.95-12.81-19-13.47-20.39,7.87,7,18.4,8.67,28.74,10.48C517.21,91.86,517.17,90.4,516.2,90.23Z" transform="translate(-20.56 0.86)"/><path class="cls-1" d="M385.69,21.65c-8.5-7.33-20.91-12.6-28.7-6.25-2.47-6.11-6.11-11.72-11.38-15.55a11.8,11.8,0,0,1-3.86-.4C349.7,5.2,354.09,13.85,356.61,23c-0.41,1.17-1.75,2-2.46,3a0.53,0.53,0,0,0-.09.21c-7.9-3.51-10.79,7.75-12.48,12.5-1.55,4.35-5.63,6.88-4.83,6.76,4.67-.73,16.55-5.81,19.33-9.9,1.63-2.4,2.25-7.15-.48-8.94a4.62,4.62,0,0,0,1.47-1.83c0.54,2.18,1,4.37,1.35,6.56a82.15,82.15,0,0,1,1.12,14.29c-1.22,4.16-5.62,6.3-8.72,8.94-0.46.39,0,1.37,0.58,1,3.18-2.31,6.68-4.68,8.11-8.39a100.27,100.27,0,0,1-4.78,27.31c-0.23.18-2.33,2.78-10,4.31-2.62.52-5.38-.54-7.91-1.5,0.62-2.64-1.42-4.56-4-5.45-4.94-1.68-9.47,1.6-13.91,3-1.07.34-6.75,1.89-5.92,1.66,4.42-1.2,19.48,7.66,22.75,1.75a0.52,0.52,0,0,0,.62.13A20.37,20.37,0,0,0,343.67,80c0.29,0,.57,0,0.85,0-2.19,1.33-6.4,7.23-7.08,8.74-1.75.44-4.86,4.8-5.34,5.85-1.59,3.51,1.05,6.57,1.4,10,0.39,3.87-.43,8.3.08,7.49,2.72-4.33,11.41-18.92,5.08-23.18a1.31,1.31,0,0,0-.28-0.13,22.87,22.87,0,0,1,2.39-3.91c1.51-2,3.58-2.8,4.64-5,2.74-.34,4.9-1.58,7.35-2.82A1.78,1.78,0,0,0,354,76.8c-1.27,3.93-2.56,7.8-3.79,11.65l-0.53,1.31c-1.09,2.64-2.44,5.26-2.85,8.07l0,0c-0.1.21-2.71,10-2.58,11.75a58.23,58.23,0,0,1-8.08,17.58,0.2,0.2,0,0,0,.29.29c4.22-3.08,6.53-8.77,7.82-14.14a76.05,76.05,0,0,0-.52,8.43,79.6,79.6,0,0,0,2.19,18.33,26.25,26.25,0,0,0,.63,3.43,4.53,4.53,0,0,0,.06.54,31.6,31.6,0,0,1,1,3.61l0.14-.27c1,4.59,1.94,9.16,1.21,13.86-0.05.35,0.45,0.31,0.52,0a25.12,25.12,0,0,0,.14-8.83c1.46,4,6.24,15,8,18.8,0.13,0.29-2.57-7-2.68-7.23a114.42,114.42,0,0,1-8.05-23,16.83,16.83,0,0,0-.41-2.27,0.38,0.38,0,0,0-.11-0.19,85.94,85.94,0,0,1-1.67-16.24A40.76,40.76,0,0,0,356,144.81c0.16,0.15.45-.15,0.31-0.31a50.71,50.71,0,0,1-8.2-14.24,36.89,36.89,0,0,1-1.55-4.83,26.66,26.66,0,0,0,7.87,7.78c2.14,8.45,10.39,6.31,14.39,8.19,0.61,0.29-1.26-3.32-1.7-3.68,0,0-1.27-3.6-2.94-4.62-2.93-1.79-6.33-.57-9.46-1.18a0.41,0.41,0,0,0-.41.12,43.92,43.92,0,0,1-7.89-8.46,0.38,0.38,0,0,0-.3-0.18,49.68,49.68,0,0,1-.45-13.2s0,0,0,0c1.34-7.81,4-15.27,6.79-22.71a44.44,44.44,0,0,0,1,9.54c-0.25.2,1.05,3.8,1.44,4.78-0.58-.48,7.55,14.29,10.16,21.79,0.31,0.89,1.8.56,1.47-.41-2.19-6.28-10.26-20.52-10.74-22,6.9,8,17.13,11,27.15,14.09,1,0.31,1.15-1.14.21-1.43-10.88-3.39-22-6.51-28.53-16.67-0.12-.48-0.22-1-0.32-1.46-0.65-3.37-.41-6.82-0.94-10.2a0.49,0.49,0,0,0-.1-0.24,185.58,185.58,0,0,0,6.68-19.84,74.12,74.12,0,0,0,1.5-7.57A21.51,21.51,0,0,1,365,63.24a0.55,0.55,0,0,0,1-.44,12.1,12.1,0,0,0-4.37-6.24,88.93,88.93,0,0,0,0-21.85,18.82,18.82,0,0,0,4,3.27c-2.19,1,.7,7.44,1.57,8.77,3.12,4.71,9.75,2.66,12.61,7.78,0.52,0.94,2.67,3.16,2.3,1.85-1.59-5.6-1.1-10.77-4.85-15.67-2.61-3.41-6.74-6.27-10.84-3.81l-0.06,0a29.06,29.06,0,0,1-5-4q-0.49-3.54-1.22-7a67.19,67.19,0,0,0-1.78-6.73c2.57,1.88,5.46,4.43,8.32,5.12,5.67,1.39,8.17-2.82,13.9-2.5C382.08,21.95,387,22.75,385.69,21.65Z" transform="translate(-20.56 0.86)"/><path class="cls-1" d="M312.26,54.71c-2.61.88-4.64,2.81-4,5.45-2.54,1-5.29,2-7.91,1.5-7.66-1.52-9.76-4.13-10-4.31A100.27,100.27,0,0,1,285.55,30c1.43,3.71,4.93,6.08,8.11,8.39,0.57,0.41,1-.56.58-1-3.1-2.64-7.5-4.78-8.72-8.94a82.16,82.16,0,0,1,1.12-14.29C287,12,287.45,9.85,288,7.67a4.62,4.62,0,0,0,1.47,1.83c-2.73,1.79-2.11,6.54-.48,8.94,2.78,4.09,14.66,9.17,19.33,9.9,0.8,0.12-3.28-2.41-4.83-6.76-1.7-4.76-4.59-16-12.48-12.5a0.53,0.53,0,0,0-.09-0.21c-0.71-.94-2.05-1.8-2.46-3A61,61,0,0,1,290.6-.5c-8.22,0-16.45,0-24.66.3a45.71,45.71,0,0,0-6.57,4.72c-1.27,1.1,3.61.29,5.09,0.21,5.73-.32,8.23,3.89,13.9,2.5,2.85-.7,5.74-3.24,8.32-5.12a67.19,67.19,0,0,0-1.78,6.73q-0.73,3.48-1.22,7a29.07,29.07,0,0,1-5,4l-0.06,0c-4.1-2.47-8.23.39-10.84,3.81-3.75,4.9-3.26,10.07-4.85,15.67-0.37,1.32,1.78-.91,2.3-1.85,2.85-5.12,9.49-3.07,12.61-7.78,0.88-1.33,3.76-7.8,1.57-8.77a18.81,18.81,0,0,0,4-3.27,88.93,88.93,0,0,0,0,21.85,12.1,12.1,0,0,0-4.37,6.24,0.55,0.55,0,0,0,1,.44,21.5,21.5,0,0,1,3.52-5.35,74.13,74.13,0,0,0,1.5,7.57,185.58,185.58,0,0,0,6.68,19.84,0.49,0.49,0,0,0-.1.24c-0.53,3.38-.29,6.82-0.94,10.2-0.09.49-.2,1-0.32,1.46-6.52,10.16-17.65,13.28-28.53,16.67-0.94.29-.79,1.75,0.21,1.43,10-3.13,20.25-6.09,27.15-14.09-0.48,1.44-8.54,15.67-10.74,22-0.34,1,1.16,1.3,1.47.41,2.62-7.5,10.74-22.28,10.16-21.79,0.39-1,1.69-4.58,1.44-4.78a44.44,44.44,0,0,0,1-9.54c2.79,7.44,5.44,14.9,6.79,22.71,0,0,0,0,0,0a49.68,49.68,0,0,1-.45,13.2,0.38,0.38,0,0,0-.3.18,43.91,43.91,0,0,1-7.89,8.46,0.41,0.41,0,0,0-.41-0.12c-3.13.62-6.53-.61-9.46,1.18-1.67,1-2.93,4.61-2.94,4.62-0.43.36-2.31,4-1.7,3.68,4-1.88,12.25.26,14.39-8.19a26.66,26.66,0,0,0,7.87-7.78,36.9,36.9,0,0,1-1.55,4.83,50.71,50.71,0,0,1-8.2,14.24c-0.13.16,0.16,0.47,0.31,0.31a40.76,40.76,0,0,0,11.27-22.51,85.93,85.93,0,0,1-1.67,16.24,0.38,0.38,0,0,0-.11.19,16.83,16.83,0,0,0-.41,2.27,114.42,114.42,0,0,1-8.05,23c-0.11.25-2.82,7.52-2.68,7.23,1.81-3.83,6.58-14.77,8-18.8a25.12,25.12,0,0,0,.14,8.83c0.06,0.29.57,0.33,0.52,0-0.72-4.69.17-9.27,1.21-13.86l0.14,0.27a31.59,31.59,0,0,1,1-3.61,4.53,4.53,0,0,0,.06-0.54,26.25,26.25,0,0,0,.63-3.43,79.6,79.6,0,0,0,2.19-18.33,76.05,76.05,0,0,0-.52-8.43c1.29,5.36,3.6,11.05,7.82,14.14a0.2,0.2,0,0,0,.29-0.29,58.23,58.23,0,0,1-8.08-17.58c0.13-1.78-2.49-11.54-2.58-11.75l0,0c-0.41-2.82-1.76-5.43-2.85-8.07l-0.53-1.31c-1.23-3.86-2.52-7.72-3.79-11.65a1.78,1.78,0,0,0,1.23.29c2.45,1.24,4.61,2.49,7.35,2.82,1.06,2.17,3.13,3,4.64,5a22.86,22.86,0,0,1,2.39,3.91,1.31,1.31,0,0,0-.28.13c-6.33,4.26,2.36,18.85,5.08,23.18,0.51,0.81-.3-3.61.08-7.49,0.35-3.46,3-6.52,1.4-10-0.48-1.05-3.59-5.41-5.34-5.85-0.68-1.51-4.89-7.41-7.08-8.74,0.28,0,.56,0,0.85,0a20.37,20.37,0,0,0,7.33-1.63,0.52,0.52,0,0,0,.62-0.13c3.27,5.91,18.33-2.95,22.75-1.75,0.83,0.23-4.85-1.32-5.92-1.66C321.73,56.3,317.21,53,312.26,54.71Z" transform="translate(-20.56 0.86)"/><path class="cls-1" d="M255.77,77.93c-3,1-5.29,3.18-4.54,6.23-2.9,1.06-6,2.25-9.06,1.61-8.82-1.87-11.26-4.91-11.53-5.11a117.87,117.87,0,0,1-5.87-31.6c1.69,4.31,5.74,7.08,9.42,9.8,0.66,0.49,1.18-.63.65-1.09-3.59-3.09-8.68-5.63-10.13-10.45a94.87,94.87,0,0,1,1.08-16.48c0.39-2.52.87-5,1.46-7.55A5.52,5.52,0,0,0,229,25.42c-3.1,2-2.32,7.52-.42,10.31,3.25,4.76,16.95,10.8,22.32,11.71,0.91,0.16-3.8-2.83-5.64-7.87-2-5.51-5.49-18.55-14.5-14.61a0.63,0.63,0,0,0-.1-0.24c-0.83-1.1-2.38-2.11-2.86-3.46,1.9-7.27,4.82-14.23,9.39-20l-3.93.15a46.55,46.55,0,0,0-6,11c-9-7.44-23.19-1.53-32.84,6.81-1.44,1.25,4.15.39,5.85,0.32,6.57-.29,9.5,4.6,16,3.08,3.26-.76,6.54-3.66,9.47-5.79a76.54,76.54,0,0,0-1.95,7.75q-0.79,4-1.3,8.09c-1.54,1.8-3.76,3.1-5.66,4.5l-0.07-.05c-4.74-2.91-9.44.34-12.39,4.24-4.23,5.6-3.6,11.57-5.34,18-0.41,1.52,2-1,2.61-2.1,3.2-5.87,10.84-3.4,14.35-8.8,1-1.52,4.21-9,1.68-10.1a20.84,20.84,0,0,0,4.59-3.72,103.3,103.3,0,0,0,.31,25.22A13.5,13.5,0,0,0,217.59,67c-0.23.77,0.85,1.31,1.16,0.52a24,24,0,0,1,4-6.13,87.26,87.26,0,0,0,1.83,8.76,220,220,0,0,0,7.95,23,0.56,0.56,0,0,0-.12.28c-0.56,3.89-.23,7.87-0.93,11.76-0.1.57-.22,1.13-0.35,1.68C223.76,118.52,211,122,198.6,125.72c-1.07.32-.88,2,0.26,1.66,11.45-3.46,23.15-6.74,31-15.88-0.53,1.65-9.58,18-12,25.19-0.38,1.12,1.34,1.52,1.69.5,2.9-8.62,12-25.56,11.35-25,0.43-1.12,1.87-5.26,1.58-5.5a51.21,51.21,0,0,0,1-11c3.31,8.62,6.46,17.27,8.11,26.31,0,0,0,0,0,0a57.55,57.55,0,0,1-.33,15.22,0.43,0.43,0,0,0-.34.2,48.73,48.73,0,0,1-8.93,9.65,0.48,0.48,0,0,0-.48-0.14c-3.58.67-7.5-.79-10.84,1.23-1.9,1.15-3.3,5.28-3.31,5.29-0.49.41-2.59,4.54-1.89,4.22,4.56-2.11,14.06.47,16.39-9.25,3.58-2.06,6.6-5.52,8.92-8.87a41.88,41.88,0,0,1-1.71,5.55,56.78,56.78,0,0,1-9.2,16.32c-0.15.18,0.19,0.54,0.37,0.37,6.64-6.45,11.22-16.08,12.6-25.82a99.05,99.05,0,0,1-1.69,18.72,0.43,0.43,0,0,0-.12.21,19.29,19.29,0,0,0-.44,2.62A129.6,129.6,0,0,1,231.66,184c-0.13.28-3.13,8.64-3,8.31,2-4.4,7.34-17,9-21.58a29.21,29.21,0,0,0,.29,10.2c0.08,0.34.66,0.39,0.59,0-0.9-5.43.07-10.69,1.19-16,0,0.11.11,0.21,0.16,0.31a36,36,0,0,1,1.09-4.15,5.22,5.22,0,0,0,.06-0.62,30.08,30.08,0,0,0,.68-3.95A91.63,91.63,0,0,0,244,135.44a88.77,88.77,0,0,0-.71-9.74c1.56,6.21,4.29,12.81,9.18,16.43,0.26,0.19.5-.07,0.33-0.33a69.32,69.32,0,0,1-9.53-20.41c0.12-2.05-3-13.36-3.13-13.6a0.23,0.23,0,0,0,0,0c-0.51-3.26-2.1-6.29-3.39-9.36-0.21-.5-0.42-1-0.63-1.52-1.47-4.47-3-9-4.51-13.51a2.07,2.07,0,0,0,1.42.35c2.83,1.47,5.32,2.94,8.47,3.37,1.24,2.52,3.63,3.52,5.39,5.8a27.31,27.31,0,0,1,2.8,4.54,1.46,1.46,0,0,0-.32.15c-7.21,4.83,3,21.79,6.16,26.83,0.6,0.95-.4-4.18,0-8.64,0.35-4,3.34-7.48,1.46-11.55-0.56-1.22-4.2-6.29-6.21-6.83-0.8-1.76-5.71-8.62-8.25-10.19,0.32,0,.64,0,1,0a22.9,22.9,0,0,0,8.39-1.77,0.58,0.58,0,0,0,.71-0.14c3.83,6.87,21-3.14,26.07-1.69,1,0.27-5.58-1.6-6.81-2C266.66,79.91,261.42,76.06,255.77,77.93Z" transform="translate(-20.56 0.86)"/><path class="cls-1" d="M762,14.53C752.32,6.19,738.15.29,729.13,7.72A49.77,49.77,0,0,0,725.33,0Q724,0.22,722.66.49a6.12,6.12,0,0,1-.68.08,58.36,58.36,0,0,1,6.6,16c-0.48,1.35-2,2.36-2.86,3.46a0.63,0.63,0,0,0-.1.24c-9-3.94-12.49,9.1-14.5,14.61-1.84,5-6.56,8-5.64,7.87,5.37-.91,19.07-6.95,22.32-11.71,1.91-2.8,2.69-8.28-.42-10.31a5.53,5.53,0,0,0,1.72-2.13c0.59,2.5,1.07,5,1.46,7.55a94.88,94.88,0,0,1,1.08,16.48c-1.45,4.82-6.54,7.36-10.13,10.45-0.53.46,0,1.58,0.65,1.09,3.69-2.72,7.74-5.49,9.42-9.8a117.87,117.87,0,0,1-5.87,31.6c-0.27.21-2.71,3.25-11.53,5.11-3,.64-6.16-0.55-9.06-1.61,0.74-3.05-1.56-5.25-4.54-6.23-5.65-1.86-10.89,2-16,3.67-1.23.41-7.78,2.28-6.81,2,5.08-1.45,22.24,8.56,26.07,1.69a0.58,0.58,0,0,0,.71.14,22.9,22.9,0,0,0,8.39,1.77c0.34,0,.66,0,1,0-2.54,1.57-7.45,8.44-8.25,10.19-2,.53-5.65,5.61-6.21,6.83-1.88,4.07,1.11,7.57,1.46,11.55,0.39,4.47-.61,9.59,0,8.64,3.18-5,13.36-22,6.16-26.83a1.45,1.45,0,0,0-.32-0.15,27.31,27.31,0,0,1,2.8-4.54c1.76-2.28,4.15-3.28,5.39-5.8,3.15-.43,5.64-1.9,8.47-3.37a2.07,2.07,0,0,0,1.42-.35c-1.51,4.56-3,9-4.51,13.51-0.21.51-.41,1-0.63,1.52-1.29,3.06-2.88,6.1-3.39,9.36a0.22,0.22,0,0,0,0,0c-0.11.25-3.25,11.55-3.13,13.6a69.32,69.32,0,0,1-9.53,20.41c-0.18.26,0.07,0.52,0.33,0.33,4.88-3.62,7.61-10.22,9.18-16.43a88.77,88.77,0,0,0-.71,9.74,91.63,91.63,0,0,0,2.25,21.13,30.06,30.06,0,0,0,.68,3.95,5.22,5.22,0,0,0,.06.62,36,36,0,0,1,1.09,4.15c0.05-.11.11-0.21,0.16-0.31,1.13,5.28,2.09,10.55,1.19,16-0.07.4,0.52,0.36,0.59,0a29.21,29.21,0,0,0,.29-10.2c1.62,4.63,6.95,17.18,9,21.58,0.15,0.33-2.85-8-3-8.31a129.6,129.6,0,0,1-8.91-26.48,19.29,19.29,0,0,0-.44-2.62,0.43,0.43,0,0,0-.12-0.21,99.05,99.05,0,0,1-1.69-18.72c1.39,9.74,6,19.37,12.6,25.82,0.18,0.17.52-.18,0.37-0.37a56.78,56.78,0,0,1-9.2-16.32,41.87,41.87,0,0,1-1.71-5.55c2.32,3.35,5.33,6.81,8.92,8.87,2.33,9.72,11.84,7.13,16.39,9.25,0.7,0.32-1.4-3.81-1.89-4.22,0,0-1.41-4.14-3.31-5.29-3.34-2-7.26-.56-10.84-1.23a0.48,0.48,0,0,0-.48.14,48.73,48.73,0,0,1-8.93-9.65,0.43,0.43,0,0,0-.34-0.2,57.55,57.55,0,0,1-.33-15.22s0,0,0,0c1.65-9,4.8-17.69,8.11-26.31a51.21,51.21,0,0,0,1,11c-0.29.24,1.15,4.37,1.58,5.5-0.66-.55,8.45,16.38,11.35,25,0.34,1,2.06.62,1.69-.5-2.42-7.22-11.47-23.53-12-25.19,7.8,9.14,19.5,12.41,31,15.88,1.14,0.35,1.34-1.33.26-1.66-12.43-3.76-25.15-7.2-32.49-18.83-0.13-.56-0.24-1.12-0.35-1.68-0.7-3.88-.37-7.86-0.93-11.76a0.56,0.56,0,0,0-.12-0.28,220.06,220.06,0,0,0,7.95-23,87.28,87.28,0,0,0,1.83-8.76,24,24,0,0,1,4,6.13c0.32,0.8,1.39.25,1.16-.52a13.51,13.51,0,0,0-4.92-7.14A103.31,103.31,0,0,0,734.13,30a20.84,20.84,0,0,0,4.59,3.72c-2.53,1.14.69,8.58,1.68,10.1,3.51,5.39,11.15,2.93,14.35,8.8,0.59,1.08,3,3.61,2.61,2.1-1.74-6.44-1.11-12.41-5.34-18-2.95-3.9-7.65-7.15-12.39-4.24l-0.07.05c-1.91-1.4-4.12-2.69-5.66-4.5q-0.51-4.08-1.3-8.09a76.54,76.54,0,0,0-1.95-7.75c2.93,2.13,6.21,5,9.47,5.79,6.49,1.52,9.41-3.37,16-3.08C757.82,14.92,763.41,15.78,762,14.53Z" transform="translate(-20.56 0.86)"/><path class="cls-1" d="M188.55,3.57c0.57,0.09-1.39-1.21-3.12-3.58L177.3-.56A46.36,46.36,0,0,0,188.55,3.57Z" transform="translate(-20.56 0.86)"/><path class="cls-1" d="M206.42,32.94c-4.44-1.41-9-4.69-13.91-3-2.61.88-4.64,2.81-4,5.45-2.54,1-5.29,2-7.91,1.5-7.66-1.52-9.76-4.13-10-4.31a100.27,100.27,0,0,1-4.78-27.31c1.43,3.71,4.93,6.08,8.11,8.39,0.57,0.41,1-.56.58-1-3.1-2.64-7.5-4.78-8.72-8.94,0-1.35,0-2.7.09-4.05-0.9,0-1.8.12-2.7,0.21a86.28,86.28,0,0,0,.56,14.76,12.1,12.1,0,0,0-4.37,6.24,0.55,0.55,0,0,0,1,.44A21.5,21.5,0,0,1,163.87,16a74.12,74.12,0,0,0,1.5,7.57A185.58,185.58,0,0,0,172,43.4a0.49,0.49,0,0,0-.1.24c-0.53,3.38-.29,6.82-0.94,10.2-0.09.49-.2,1-0.32,1.46C164.16,65.46,153,68.58,142.15,72c-0.94.29-.79,1.75,0.21,1.43,10-3.13,20.25-6.09,27.15-14.09C169,60.75,161,75,158.78,81.27c-0.34,1,1.16,1.3,1.47.41,2.62-7.5,10.74-22.28,10.16-21.79,0.39-1,1.69-4.58,1.44-4.78a44.44,44.44,0,0,0,1-9.54c2.79,7.44,5.44,14.9,6.79,22.71,0,0,0,0,0,0a49.68,49.68,0,0,1-.45,13.2,0.38,0.38,0,0,0-.3.18A43.91,43.91,0,0,1,171,90.14a0.41,0.41,0,0,0-.41-0.12c-3.13.62-6.53-.6-9.46,1.18-1.67,1-2.93,4.61-2.94,4.62-0.43.36-2.31,4-1.7,3.68,4-1.88,12.25.26,14.39-8.19a26.66,26.66,0,0,0,7.87-7.78,36.9,36.9,0,0,1-1.55,4.83A50.71,50.71,0,0,1,169,102.6c-0.13.16,0.16,0.47,0.31,0.31A40.76,40.76,0,0,0,180.58,80.4a85.94,85.94,0,0,1-1.67,16.24,0.38,0.38,0,0,0-.11.19,16.83,16.83,0,0,0-.41,2.27,114.42,114.42,0,0,1-8.05,23c-0.11.25-2.82,7.52-2.68,7.23,1.81-3.83,6.58-14.77,8-18.8a25.12,25.12,0,0,0,.14,8.83c0.06,0.29.57,0.33,0.52,0-0.72-4.69.17-9.27,1.21-13.86l0.14,0.27a31.6,31.6,0,0,1,1-3.61,4.53,4.53,0,0,0,.06-0.54,26.25,26.25,0,0,0,.63-3.43,79.6,79.6,0,0,0,2.19-18.33,76.05,76.05,0,0,0-.52-8.43c1.29,5.36,3.6,11.05,7.82,14.14a0.2,0.2,0,0,0,.29-0.29,58.23,58.23,0,0,1-8.08-17.58C181.22,66,178.6,56.19,178.51,56l0,0c-0.41-2.82-1.76-5.43-2.85-8.07l-0.53-1.31c-1.23-3.86-2.52-7.72-3.79-11.65a1.78,1.78,0,0,0,1.23.29c2.45,1.24,4.61,2.49,7.35,2.82,1.06,2.17,3.13,3,4.64,5a22.87,22.87,0,0,1,2.39,3.91,1.31,1.31,0,0,0-.28.13c-6.33,4.26,2.36,18.85,5.08,23.18,0.51,0.81-.3-3.61.08-7.49,0.35-3.46,3-6.52,1.4-10-0.48-1.05-3.59-5.41-5.34-5.85-0.68-1.51-4.89-7.41-7.08-8.74,0.28,0,.56,0,0.85,0A20.37,20.37,0,0,0,189,36.49a0.52,0.52,0,0,0,.62-0.13c3.27,5.91,18.33-2.95,22.75-1.75C213.17,34.84,207.49,33.28,206.42,32.94Z" transform="translate(-20.56 0.86)"/><path class="cls-1" d="M157.27,0.35c-3.41,0-6.83,0-10.25,0-2.64,4.45-2.41,9.12-3.83,14.14-0.37,1.32,1.78-.91,2.3-1.85,2.85-5.12,9.49-3.07,12.61-7.78a20.61,20.61,0,0,0,2-4.66C159.13,0.28,158.2.35,157.27,0.35Z" transform="translate(-20.56 0.86)"/><path class="cls-1" d="M147.45,19.66c-8.5-7.33-20.91-12.6-28.7-6.25A37.56,37.56,0,0,0,110.12.13c-1.11,0-2.22,0-3.33,0,5.92,5.6,9.42,13,11.58,20.88-0.41,1.17-1.75,2-2.46,3a0.53,0.53,0,0,0-.09.21c-7.9-3.51-10.79,7.75-12.48,12.5-1.55,4.35-5.63,6.88-4.83,6.76,4.67-.73,16.55-5.81,19.33-9.9,1.63-2.4,2.25-7.15-.48-8.94a4.62,4.62,0,0,0,1.47-1.83c0.54,2.18,1,4.37,1.35,6.56a82.15,82.15,0,0,1,1.12,14.29c-1.22,4.16-5.62,6.3-8.72,8.94-0.46.39,0,1.37,0.58,1,3.18-2.31,6.68-4.68,8.11-8.39a100.27,100.27,0,0,1-4.78,27.31c-0.23.18-2.33,2.78-10,4.31-2.62.52-5.38-.54-7.91-1.5,0.62-2.64-1.42-4.56-4-5.45-4.94-1.68-9.47,1.6-13.91,3-1.07.34-6.75,1.89-5.92,1.66,4.42-1.2,19.48,7.66,22.75,1.75a0.52,0.52,0,0,0,.62.13A20.37,20.37,0,0,0,105.43,78c0.29,0,.57,0,0.85,0-2.19,1.33-6.4,7.23-7.08,8.74-1.75.44-4.86,4.8-5.34,5.85-1.59,3.51,1.05,6.57,1.4,10,0.39,3.87-.43,8.3.08,7.49,2.72-4.33,11.41-18.92,5.08-23.18a1.31,1.31,0,0,0-.28-0.13,22.87,22.87,0,0,1,2.39-3.91c1.51-2,3.58-2.8,4.64-5,2.74-.34,4.9-1.58,7.35-2.82a1.78,1.78,0,0,0,1.23-.29c-1.27,3.93-2.56,7.8-3.79,11.65l-0.53,1.31c-1.09,2.64-2.44,5.26-2.85,8.07l0,0c-0.1.21-2.71,10-2.58,11.75a58.23,58.23,0,0,1-8.08,17.58,0.2,0.2,0,0,0,.29.29c4.22-3.08,6.53-8.77,7.82-14.14a76.08,76.08,0,0,0-.52,8.43,79.6,79.6,0,0,0,2.19,18.33,26.25,26.25,0,0,0,.63,3.43,4.53,4.53,0,0,0,.06.54,31.59,31.59,0,0,1,1,3.61l0.14-.27c1,4.59,1.94,9.16,1.21,13.86-0.05.35,0.45,0.31,0.52,0a25.11,25.11,0,0,0,.14-8.83c1.46,4,6.24,15,8,18.8,0.13,0.29-2.57-7-2.68-7.23a114.42,114.42,0,0,1-8.05-23,16.84,16.84,0,0,0-.41-2.27,0.38,0.38,0,0,0-.11-0.19,85.93,85.93,0,0,1-1.67-16.24,40.76,40.76,0,0,0,11.27,22.51c0.16,0.15.45-.15,0.31-0.31a50.71,50.71,0,0,1-8.2-14.24,36.91,36.91,0,0,1-1.55-4.83,26.66,26.66,0,0,0,7.87,7.78c2.14,8.45,10.39,6.31,14.39,8.19,0.61,0.29-1.26-3.32-1.7-3.68,0,0-1.27-3.6-2.94-4.62-2.93-1.79-6.33-.57-9.46-1.18a0.41,0.41,0,0,0-.41.12,43.91,43.91,0,0,1-7.89-8.46,0.38,0.38,0,0,0-.3-0.18,49.68,49.68,0,0,1-.45-13.2s0,0,0,0c1.34-7.81,4-15.27,6.79-22.71a44.44,44.44,0,0,0,1,9.54c-0.25.2,1.05,3.8,1.44,4.78-0.58-.48,7.55,14.29,10.16,21.79,0.31,0.89,1.8.56,1.47-.41-2.19-6.28-10.26-20.52-10.74-22,6.9,8,17.13,11,27.15,14.09,1,0.31,1.15-1.14.21-1.43-10.88-3.39-22-6.51-28.53-16.67-0.12-.48-0.22-1-0.32-1.46-0.65-3.37-.41-6.82-0.94-10.2a0.49,0.49,0,0,0-.1-0.24,185.58,185.58,0,0,0,6.68-19.84,74.14,74.14,0,0,0,1.5-7.57,21.51,21.51,0,0,1,3.52,5.35,0.55,0.55,0,0,0,1-.44,12.1,12.1,0,0,0-4.37-6.24,88.93,88.93,0,0,0,0-21.85,18.82,18.82,0,0,0,4,3.27c-2.19,1,.7,7.44,1.57,8.77,3.12,4.71,9.75,2.66,12.61,7.78,0.52,0.94,2.67,3.16,2.3,1.85-1.59-5.6-1.1-10.77-4.85-15.67-2.61-3.41-6.74-6.27-10.84-3.81l-0.06,0a29.07,29.07,0,0,1-5-4q-0.49-3.54-1.22-7a67.18,67.18,0,0,0-1.78-6.73c2.57,1.88,5.46,4.43,8.32,5.12,5.67,1.39,8.17-2.82,13.9-2.5C143.84,20,148.72,20.76,147.45,19.66Z" transform="translate(-20.56 0.86)"/><path class="cls-1" d="M919,0.54l-0.32-.06c-4.48-1-8.79-.56-13.1.06a8.58,8.58,0,0,0,1.24,3.16c2.78,4.09,14.66,9.17,19.33,9.9,0.8,0.12-3.28-2.41-4.83-6.76C920.72,5.23,920,2.84,919,.54Z" transform="translate(-20.56 0.86)"/><path class="cls-1" d="M944,43c-4.44-1.41-9-4.69-13.91-3-2.61.88-4.64,2.81-4,5.45-2.54,1-5.29,2-7.91,1.5-7.66-1.52-9.76-4.13-10-4.31a100.27,100.27,0,0,1-4.78-27.31c1.43,3.71,4.93,6.08,8.11,8.39,0.57,0.41,1-.56.58-1-3.1-2.64-7.5-4.78-8.72-8.94A82.39,82.39,0,0,1,904.28.73l-2.78.4a29.11,29.11,0,0,1-5,4l-0.06,0c-4.1-2.47-8.23.39-10.84,3.81-3.75,4.9-3.26,10.07-4.85,15.67-0.37,1.32,1.78-.91,2.3-1.85,2.85-5.12,9.49-3.07,12.61-7.78,0.88-1.33,3.76-7.8,1.57-8.77a18.81,18.81,0,0,0,4-3.27,88.94,88.94,0,0,0,0,21.85,12.1,12.1,0,0,0-4.37,6.24,0.55,0.55,0,0,0,1,.44A21.51,21.51,0,0,1,901.45,26a74.13,74.13,0,0,0,1.5,7.57,185.59,185.59,0,0,0,6.68,19.84,0.49,0.49,0,0,0-.1.24c-0.53,3.38-.29,6.82-0.94,10.2-0.09.49-.2,1-0.32,1.46C901.74,75.49,890.61,78.61,879.73,82c-0.94.29-.79,1.75,0.21,1.43,10-3.13,20.25-6.09,27.15-14.09-0.48,1.44-8.54,15.67-10.74,22-0.34,1,1.16,1.3,1.47.41,2.62-7.5,10.74-22.28,10.16-21.79,0.39-1,1.69-4.58,1.44-4.78a44.44,44.44,0,0,0,1-9.54c2.79,7.44,5.44,14.9,6.79,22.71,0,0,0,0,0,0a49.68,49.68,0,0,1-.45,13.2,0.38,0.38,0,0,0-.3.18,43.91,43.91,0,0,1-7.89,8.46,0.41,0.41,0,0,0-.41-0.12c-3.13.62-6.53-.61-9.46,1.18-1.67,1-2.93,4.61-2.94,4.62-0.43.36-2.31,4-1.7,3.68,4-1.88,12.25.26,14.39-8.19a26.66,26.66,0,0,0,7.87-7.78,36.9,36.9,0,0,1-1.55,4.83,50.71,50.71,0,0,1-8.2,14.24c-0.13.16,0.16,0.47,0.31,0.31a40.76,40.76,0,0,0,11.27-22.51,85.93,85.93,0,0,1-1.67,16.24,0.38,0.38,0,0,0-.11.19,16.84,16.84,0,0,0-.41,2.27,114.42,114.42,0,0,1-8.05,23c-0.11.25-2.82,7.52-2.68,7.23,1.81-3.83,6.58-14.77,8-18.8a25.12,25.12,0,0,0,.14,8.83c0.06,0.29.57,0.33,0.52,0-0.72-4.69.17-9.27,1.21-13.86l0.14,0.27a31.58,31.58,0,0,1,1-3.61,4.53,4.53,0,0,0,.06-0.54,26.26,26.26,0,0,0,.63-3.43,79.59,79.59,0,0,0,2.19-18.33,76.05,76.05,0,0,0-.52-8.43c1.29,5.36,3.6,11.05,7.82,14.14a0.2,0.2,0,0,0,.29-0.29,58.22,58.22,0,0,1-8.08-17.58C918.8,76,916.19,66.23,916.09,66l0,0c-0.41-2.82-1.76-5.43-2.85-8.07l-0.53-1.31c-1.23-3.86-2.52-7.72-3.79-11.65a1.78,1.78,0,0,0,1.23.29c2.45,1.24,4.61,2.49,7.35,2.82,1.06,2.17,3.13,3,4.64,5a22.86,22.86,0,0,1,2.39,3.91,1.31,1.31,0,0,0-.28.13c-6.33,4.26,2.36,18.85,5.08,23.18,0.51,0.81-.3-3.61.08-7.49,0.35-3.46,3-6.52,1.4-10-0.48-1.05-3.59-5.41-5.34-5.85-0.68-1.51-4.89-7.41-7.08-8.74,0.28,0,.56,0,0.85,0a20.37,20.37,0,0,0,7.33-1.63,0.52,0.52,0,0,0,.62-0.13c3.27,5.91,18.33-2.95,22.75-1.75C950.75,44.87,945.07,43.32,944,43Z" transform="translate(-20.56 0.86)"/><path class="cls-1" d="M887.57,75.47c-4.44-1.41-9-4.69-13.91-3-2.61.88-4.64,2.81-4,5.45-2.54,1-5.29,2-7.91,1.5-7.66-1.52-9.76-4.13-10-4.31a100.27,100.27,0,0,1-4.78-27.31c1.43,3.71,4.93,6.08,8.11,8.39,0.57,0.41,1-.56.58-1-3.1-2.64-7.5-4.78-8.72-8.94A82.15,82.15,0,0,1,848,32c0.37-2.19.81-4.38,1.35-6.56a4.62,4.62,0,0,0,1.47,1.83c-2.73,1.79-2.11,6.54-.48,8.94,2.78,4.09,14.66,9.17,19.33,9.9,0.8,0.12-3.28-2.41-4.83-6.76-1.7-4.76-4.59-16-12.48-12.5a0.53,0.53,0,0,0-.09-0.21c-0.71-.94-2.05-1.8-2.46-3,2.43-8.87,6.6-17.25,14-23H861l-0.42,0C855.46,4.47,851.9,10,849.47,16c-7.79-6.35-20.2-1.07-28.7,6.25-1.27,1.1,3.61.29,5.09,0.21,5.73-.32,8.23,3.88,13.9,2.5,2.85-.7,5.74-3.24,8.32-5.12a67.19,67.19,0,0,0-1.78,6.73q-0.73,3.48-1.22,7a29.06,29.06,0,0,1-5,4l-0.06,0c-4.1-2.47-8.23.39-10.84,3.81-3.75,4.9-3.26,10.07-4.85,15.67-0.37,1.32,1.78-.91,2.3-1.85,2.85-5.12,9.49-3.07,12.61-7.78,0.88-1.33,3.76-7.8,1.57-8.77a18.82,18.82,0,0,0,4-3.27,88.93,88.93,0,0,0,0,21.85,12.1,12.1,0,0,0-4.37,6.24,0.55,0.55,0,0,0,1,.44A21.51,21.51,0,0,1,845,58.51a74.14,74.14,0,0,0,1.5,7.57,185.58,185.58,0,0,0,6.68,19.84,0.49,0.49,0,0,0-.1.24c-0.53,3.38-.29,6.82-0.94,10.2-0.09.49-.2,1-0.32,1.46-6.52,10.16-17.65,13.28-28.53,16.67-0.94.29-.79,1.75,0.21,1.43,10-3.13,20.25-6.09,27.15-14.09-0.48,1.44-8.54,15.67-10.74,22-0.34,1,1.16,1.3,1.47.41,2.62-7.5,10.74-22.28,10.16-21.79,0.39-1,1.69-4.58,1.44-4.78a44.44,44.44,0,0,0,1-9.54c2.79,7.44,5.44,14.9,6.79,22.71,0,0,0,0,0,0a49.68,49.68,0,0,1-.45,13.2,0.38,0.38,0,0,0-.3.18,43.92,43.92,0,0,1-7.89,8.46,0.41,0.41,0,0,0-.41-0.12c-3.13.62-6.53-.61-9.46,1.18-1.67,1-2.93,4.61-2.94,4.62-0.43.36-2.31,4-1.7,3.68,4-1.88,12.25.26,14.39-8.19a26.66,26.66,0,0,0,7.87-7.78,36.91,36.91,0,0,1-1.55,4.83,50.71,50.71,0,0,1-8.2,14.24c-0.13.16,0.16,0.47,0.31,0.31a40.76,40.76,0,0,0,11.27-22.51,85.93,85.93,0,0,1-1.67,16.24,0.38,0.38,0,0,0-.11.19,16.84,16.84,0,0,0-.41,2.27,114.42,114.42,0,0,1-8.05,23c-0.11.25-2.82,7.52-2.68,7.23,1.8-3.83,6.58-14.77,8-18.8a25.11,25.11,0,0,0,.14,8.83c0.06,0.29.57,0.33,0.52,0-0.72-4.69.17-9.27,1.21-13.86l0.14,0.27a31.6,31.6,0,0,1,1-3.61,4.53,4.53,0,0,0,.06-0.54,26.25,26.25,0,0,0,.63-3.43,79.6,79.6,0,0,0,2.19-18.33,76.08,76.08,0,0,0-.52-8.43c1.29,5.36,3.6,11.05,7.82,14.14a0.2,0.2,0,0,0,.29-0.29,58.23,58.23,0,0,1-8.08-17.58c0.13-1.78-2.49-11.54-2.58-11.75l0,0c-0.41-2.82-1.76-5.43-2.85-8.07l-0.53-1.31c-1.23-3.86-2.52-7.72-3.79-11.65a1.78,1.78,0,0,0,1.23.29c2.45,1.24,4.61,2.49,7.35,2.82,1.06,2.17,3.13,3,4.64,5a22.86,22.86,0,0,1,2.39,3.91,1.31,1.31,0,0,0-.28.13c-6.33,4.26,2.36,18.85,5.08,23.18,0.51,0.81-.3-3.61.08-7.49,0.35-3.46,3-6.52,1.4-10-0.48-1.05-3.59-5.41-5.34-5.85-0.68-1.51-4.89-7.41-7.08-8.74,0.28,0,.56,0,0.85,0A20.37,20.37,0,0,0,870.12,79a0.52,0.52,0,0,0,.62-0.13c3.27,5.91,18.33-2.95,22.75-1.75C894.33,77.36,888.64,75.81,887.57,75.47Z" transform="translate(-20.56 0.86)"/><path class="cls-1" d="M817.09,94.22c-10.88-3.39-22-6.51-28.53-16.67-0.12-.48-0.22-1-0.32-1.46-0.65-3.37-.41-6.82-0.94-10.2a0.49,0.49,0,0,0-.1-0.24,185.59,185.59,0,0,0,6.68-19.84,74.12,74.12,0,0,0,1.5-7.57,21.51,21.51,0,0,1,3.52,5.35,0.55,0.55,0,0,0,1-.44,12.1,12.1,0,0,0-4.37-6.24,88.94,88.94,0,0,0,0-21.85,18.82,18.82,0,0,0,4,3.27c-2.19,1,.7,7.44,1.57,8.77,3.12,4.71,9.75,2.66,12.61,7.78,0.52,0.94,2.67,3.16,2.3,1.85-1.59-5.6-1.1-10.77-4.85-15.67-2.61-3.41-6.74-6.27-10.84-3.81l-0.06,0a29.06,29.06,0,0,1-5-4q-0.49-3.54-1.22-7c-0.4-1.88-.9-3.79-1.47-5.68-0.43,0-.86,0-1.29,0a5.28,5.28,0,0,1-1.69-.28q0.49,1.49.9,3c-0.41,1.17-1.75,2-2.46,3a0.53,0.53,0,0,0-.09.21c-7.9-3.51-10.79,7.75-12.48,12.5-1.55,4.35-5.63,6.88-4.83,6.76,4.67-.73,16.55-5.81,19.33-9.9,1.63-2.4,2.25-7.15-.48-8.94A4.62,4.62,0,0,0,791,5.14c0.54,2.18,1,4.37,1.35,6.56A82.15,82.15,0,0,1,793.48,26c-1.22,4.16-5.62,6.3-8.72,8.94-0.46.39,0,1.37,0.58,1,3.18-2.31,6.68-4.68,8.11-8.39a100.27,100.27,0,0,1-4.78,27.31c-0.23.18-2.33,2.78-10,4.31-2.62.52-5.38-.54-7.91-1.5,0.62-2.64-1.42-4.56-4-5.45-4.94-1.68-9.47,1.6-13.91,3-1.07.34-6.75,1.89-5.92,1.66,4.42-1.2,19.48,7.66,22.75,1.75a0.52,0.52,0,0,0,.62.13,20.37,20.37,0,0,0,7.33,1.63c0.29,0,.57,0,0.85,0-2.19,1.33-6.4,7.23-7.08,8.74-1.75.44-4.86,4.8-5.34,5.85-1.59,3.51,1.05,6.57,1.4,10,0.39,3.87-.43,8.3.08,7.49,2.72-4.33,11.41-18.92,5.08-23.18a1.31,1.31,0,0,0-.28-0.13,22.86,22.86,0,0,1,2.39-3.91c1.51-2,3.58-2.8,4.64-5,2.74-.34,4.9-1.58,7.35-2.82a1.78,1.78,0,0,0,1.23-.29c-1.27,3.93-2.56,7.8-3.79,11.65l-0.53,1.31c-1.09,2.64-2.44,5.26-2.85,8.07l0,0c-0.1.21-2.71,10-2.58,11.75a58.23,58.23,0,0,1-8.08,17.58,0.2,0.2,0,0,0,.29.29c4.22-3.08,6.53-8.77,7.82-14.14a76.08,76.08,0,0,0-.52,8.43,79.59,79.59,0,0,0,2.19,18.33,26.24,26.24,0,0,0,.63,3.43,4.55,4.55,0,0,0,.06.54,31.58,31.58,0,0,1,1,3.61l0.14-.27c1,4.59,1.94,9.16,1.21,13.86-0.05.35,0.45,0.31,0.52,0a25.12,25.12,0,0,0,.14-8.83c1.46,4,6.24,15,8,18.8,0.13,0.29-2.57-7-2.68-7.23a114.42,114.42,0,0,1-8.05-23,16.84,16.84,0,0,0-.41-2.27,0.38,0.38,0,0,0-.11-0.19,85.94,85.94,0,0,1-1.67-16.24,40.76,40.76,0,0,0,11.27,22.51c0.16,0.15.45-.15,0.32-0.31A50.71,50.71,0,0,1,782,110.6a36.9,36.9,0,0,1-1.55-4.83,26.66,26.66,0,0,0,7.87,7.78c2.14,8.45,10.39,6.31,14.39,8.19,0.61,0.29-1.26-3.32-1.7-3.68,0,0-1.27-3.6-2.94-4.62-2.93-1.79-6.33-.57-9.46-1.18a0.41,0.41,0,0,0-.41.12,43.92,43.92,0,0,1-7.89-8.46,0.38,0.38,0,0,0-.3-0.18,49.68,49.68,0,0,1-.45-13.2s0,0,0,0c1.34-7.81,4-15.27,6.79-22.71a44.44,44.44,0,0,0,1,9.54c-0.25.2,1.05,3.8,1.44,4.78-0.58-.48,7.55,14.29,10.16,21.79,0.31,0.89,1.8.56,1.47-.41-2.19-6.28-10.26-20.52-10.74-22,6.9,8,17.13,11,27.15,14.09C817.88,96,818,94.51,817.09,94.22Z" transform="translate(-20.56 0.86)"/><path class="cls-1" d="M817-.09c-4.65,1-9.65.48-14.34,0.76A4.57,4.57,0,0,1,799.82,0a59.15,59.15,0,0,1-6.13.64c2.21,1.68,4.59,3.52,6.95,4.1,5.67,1.39,8.17-2.82,13.9-2.5,1.48,0.08,6.37.89,5.09-.21C818.8,1.28,817.91.58,817-.09Z" transform="translate(-20.56 0.86)"/><path class="cls-1" d="M695.17,64.12c-4.22-2-8.28-5.81-13.4-4.79-2.7.54-5,2.18-4.7,4.88-2.64.62-5.51,1.31-8,.45-7.4-2.51-9.14-5.36-9.35-5.57a100.27,100.27,0,0,1-1.19-27.7c0.93,3.87,4.09,6.66,7,9.37,0.51,0.48,1.1-.42.7-0.87-2.73-3-6.82-5.72-7.48-10a82.16,82.16,0,0,1,3-14c0.65-2.12,1.38-4.24,2.19-6.33a4.62,4.62,0,0,0,1.22,2c-2.94,1.42-2.94,6.21-1.63,8.8,2.22,4.42,13.34,11,17.87,12.33,0.77,0.23-2.94-2.81-3.91-7.33-1.06-4.94-2.47-16.48-10.75-14a0.53,0.53,0,0,0-.06-0.22c-0.58-1-1.8-2.05-2.05-3.26a56.81,56.81,0,0,1,4.55-8.72c-1.14,0-2.28.11-3.42,0.23-0.17.29-.35,0.57-0.52,0.87-0.25-.26-0.51-0.49-0.78-0.72-2.74.33-5.48,0.78-8.16,0.91-5.63.26-11.27,0.25-16.91,0.25-1.18.64-2.33,1.32-3.43,2-1.4.92,3.54,0.76,5,.87C646.6,4,648.53,8.5,654.33,7.86c2.92-.32,6.12-2.47,8.91-4a67.17,67.17,0,0,0-2.64,6.45q-1.18,3.35-2.12,6.8A29.07,29.07,0,0,1,653,20.39L653,20.33c-3.75-3-8.21-.68-11.25,2.37-4.35,4.37-4.54,9.56-6.84,14.91-0.54,1.26,1.88-.67,2.52-1.53,3.49-4.71,9.81-1.81,13.51-6.07,1-1.2,4.74-7.25,2.7-8.49A18.81,18.81,0,0,0,658,18.79a88.93,88.93,0,0,0-2.84,21.66,12.1,12.1,0,0,0-5.14,5.62,0.55,0.55,0,0,0,.94.56,21.51,21.51,0,0,1,4.18-4.85,74.11,74.11,0,0,0,.5,7.7,185.58,185.58,0,0,0,4,20.54,0.49,0.49,0,0,0-.13.22c-1,3.28-1.17,6.73-2.25,10-0.16.48-.33,0.94-0.51,1.41-7.79,9.22-19.23,10.87-30.45,12.82-1,.17-1,1.63,0,1.45,10.34-1.8,20.87-3.41,28.75-10.44-0.66,1.36-10.51,14.43-13.5,20.37-0.46.92,1,1.44,1.4,0.6,3.57-7.1,13.55-20.69,12.91-20.29,0.51-.92,2.27-4.32,2-4.55a44.44,44.44,0,0,0,2.24-9.33c1.8,7.74,3.46,15.48,3.78,23.4,0,0,0,0,0,0a49.68,49.68,0,0,1-2.16,13,0.38,0.38,0,0,0-.32.14,43.91,43.91,0,0,1-8.92,7.36,0.41,0.41,0,0,0-.39-0.17c-3.18.21-6.4-1.45-9.54-.06-1.79.79-3.5,4.19-3.52,4.2-0.48.3-2.8,3.63-2.16,3.43,4.21-1.35,12.12,1.84,15.33-6.25a26.66,26.66,0,0,0,8.81-6.7,36.9,36.9,0,0,1-2.17,4.58,50.71,50.71,0,0,1-10,13.06c-0.15.14,0.09,0.48,0.27,0.35a40.76,40.76,0,0,0,14.1-20.86,85.93,85.93,0,0,1-3.77,15.89,0.38,0.38,0,0,0-.13.17,16.85,16.85,0,0,0-.7,2.2,114.42,114.42,0,0,1-11,21.8c-0.15.23-3.77,7.09-3.6,6.82,2.29-3.57,8.45-13.79,10.42-17.59a25.12,25.12,0,0,0-1,8.78c0,0.3.52,0.4,0.51,0-0.11-4.75,1.38-9.17,3-13.58,0,0.1.07,0.19,0.1,0.29a31.6,31.6,0,0,1,1.45-3.45,4.53,4.53,0,0,0,.13-0.53,26.26,26.26,0,0,0,1.07-3.32,79.6,79.6,0,0,0,4.55-17.89A76.07,76.07,0,0,0,665,99c0.59,5.48,2.14,11.43,5.92,15a0.2,0.2,0,0,0,.32-0.25,58.22,58.22,0,0,1-5.73-18.48c0.36-1.75-1-11.77-1-12a0.19,0.19,0,0,0,0,0c0-2.84-1-5.61-1.78-8.37-0.12-.45-0.24-0.91-0.35-1.37-0.72-4-1.49-8-2.24-12a1.78,1.78,0,0,0,1.18.45c2.27,1.55,4.25,3.06,6.92,3.76,0.77,2.29,2.71,3.39,4,5.53A22.86,22.86,0,0,1,674,75.42a1.31,1.31,0,0,0-.29.09c-6.83,3.4-.11,19,2,23.64,0.4,0.87.17-3.62,1.06-7.41,0.79-3.38,3.81-6.08,2.69-9.76-0.34-1.11-2.86-5.83-4.53-6.49-0.47-1.59-3.88-8-5.88-9.59,0.28,0,.55.1,0.84,0.14a20.37,20.37,0,0,0,7.48-.66,0.52,0.52,0,0,0,.64-0.05c2.47,6.29,18.56-.54,22.78,1.22C701.62,66.88,696.19,64.6,695.17,64.12Z" transform="translate(-20.56 0.86)"/><path class="cls-1" d="M606.23,8.71a42,42,0,0,0-5-9.18c-1.19-.07-2.38-0.19-3.56-0.35a48.12,48.12,0,0,1,8.2,17.18c-0.41,1.17-1.75,2-2.46,3a0.53,0.53,0,0,0-.09.21c-7.9-3.51-10.79,7.75-12.48,12.5-1.55,4.35-5.63,6.88-4.83,6.76,4.67-.73,16.55-5.81,19.33-9.9,1.63-2.4,2.25-7.15-.48-8.94a4.62,4.62,0,0,0,1.47-1.83c0.54,2.18,1,4.37,1.35,6.56A82.15,82.15,0,0,1,608.78,39c-1.22,4.16-5.62,6.3-8.72,8.94-0.46.39,0,1.37,0.58,1,3.18-2.31,6.68-4.68,8.11-8.39A100.27,100.27,0,0,1,604,67.78c-0.23.18-2.33,2.78-10,4.31-2.62.52-5.38-.54-7.91-1.5,0.62-2.64-1.42-4.56-4-5.45-4.94-1.68-9.47,1.6-13.91,3-1.07.34-6.75,1.89-5.92,1.66,4.42-1.2,19.48,7.66,22.75,1.75a0.52,0.52,0,0,0,.62.13,20.37,20.37,0,0,0,7.33,1.63c0.29,0,.57,0,0.85,0-2.19,1.33-6.4,7.23-7.08,8.74-1.75.44-4.86,4.8-5.34,5.85-1.59,3.51,1.05,6.57,1.4,10,0.39,3.87-.43,8.3.08,7.49,2.72-4.33,11.41-18.92,5.08-23.18a1.31,1.31,0,0,0-.28-0.13A22.86,22.86,0,0,1,590,78.19c1.51-2,3.58-2.8,4.64-5,2.74-.34,4.9-1.58,7.35-2.82a1.78,1.78,0,0,0,1.23-.29c-1.27,3.93-2.56,7.8-3.79,11.65l-0.53,1.31c-1.09,2.64-2.44,5.26-2.85,8.07l0,0c-0.1.21-2.71,10-2.58,11.75a58.22,58.22,0,0,1-8.08,17.58,0.2,0.2,0,0,0,.29.29c4.22-3.08,6.53-8.77,7.82-14.14a76.07,76.07,0,0,0-.52,8.43,79.59,79.59,0,0,0,2.19,18.33,26.26,26.26,0,0,0,.63,3.43,4.53,4.53,0,0,0,.06.54,31.58,31.58,0,0,1,1,3.61l0.14-.27c1,4.59,1.94,9.16,1.21,13.86-0.05.35,0.45,0.31,0.52,0a25.12,25.12,0,0,0,.14-8.83c1.46,4,6.24,15,8,18.8,0.13,0.29-2.57-7-2.68-7.23a114.42,114.42,0,0,1-8.05-23,16.84,16.84,0,0,0-.41-2.27,0.38,0.38,0,0,0-.11-0.19A85.94,85.94,0,0,1,594,115.61a40.76,40.76,0,0,0,11.27,22.51c0.16,0.15.45-.15,0.31-0.31a50.71,50.71,0,0,1-8.2-14.24,36.9,36.9,0,0,1-1.55-4.83,26.66,26.66,0,0,0,7.87,7.78c2.14,8.45,10.39,6.31,14.39,8.19,0.61,0.29-1.26-3.32-1.7-3.68,0,0-1.27-3.6-2.94-4.62-2.93-1.79-6.33-.57-9.46-1.18a0.41,0.41,0,0,0-.41.12,43.92,43.92,0,0,1-7.89-8.46,0.38,0.38,0,0,0-.3-0.18,49.68,49.68,0,0,1-.45-13.2s0,0,0,0c1.34-7.81,4-15.27,6.79-22.71a44.44,44.44,0,0,0,1,9.54c-0.25.2,1.05,3.8,1.44,4.78-0.58-.48,7.55,14.29,10.16,21.79,0.31,0.89,1.8.56,1.47-.41C613.57,110.2,605.5,96,605,94.52c6.9,8,17.13,11,27.15,14.09,1,0.31,1.15-1.14.21-1.43-10.88-3.39-22-6.51-28.53-16.67-0.12-.48-0.22-1-0.32-1.46-0.65-3.37-.41-6.82-0.94-10.2a0.49,0.49,0,0,0-.1-0.24,185.58,185.58,0,0,0,6.68-19.84,74.12,74.12,0,0,0,1.5-7.57,21.51,21.51,0,0,1,3.52,5.35,0.55,0.55,0,0,0,1-.44,12.1,12.1,0,0,0-4.37-6.24,88.93,88.93,0,0,0,0-21.85,18.82,18.82,0,0,0,4,3.27c-2.19,1,.7,7.44,1.57,8.77,3.12,4.71,9.75,2.66,12.61,7.78,0.52,0.94,2.67,3.16,2.3,1.85-1.59-5.6-1.1-10.77-4.85-15.67-2.61-3.41-6.74-6.27-10.84-3.81l-0.06,0a29.06,29.06,0,0,1-5-4q-0.49-3.54-1.22-7a67.18,67.18,0,0,0-1.78-6.73c2.57,1.88,5.46,4.43,8.32,5.12,5.67,1.39,8.17-2.82,13.9-2.5,1.48,0.08,6.37.89,5.09-.21C626.43,7.64,614,2.36,606.23,8.71Z" transform="translate(-20.56 0.86)"/><path class="cls-1" d="M508.76,24.32c8.5-7.33,20.91-12.6,28.7-6.25,3.05-7.54,7.87-14.36,15.35-17.95,1.07-.51,1.62.78,0.7,1.4C545,7.27,540.45,16.21,537.85,25.71c0.41,1.17,1.75,2,2.46,3a0.53,0.53,0,0,1,.09.21c7.9-3.51,10.79,7.75,12.48,12.5,1.55,4.35,5.63,6.88,4.83,6.76-4.67-.73-16.55-5.81-19.33-9.9-1.63-2.4-2.25-7.15.48-8.94a4.62,4.62,0,0,1-1.47-1.83c-0.54,2.18-1,4.37-1.35,6.56a82.15,82.15,0,0,0-1.12,14.29c1.22,4.16,5.62,6.3,8.72,8.94,0.46,0.39,0,1.37-.58,1-3.18-2.31-6.68-4.68-8.11-8.39a100.27,100.27,0,0,0,4.78,27.31c0.23,0.18,2.33,2.78,10,4.31,2.62,0.52,5.38-.54,7.91-1.5-0.62-2.64,1.42-4.56,4-5.45,4.94-1.68,9.47,1.6,13.91,3,1.07,0.34,6.75,1.89,5.92,1.66-4.42-1.2-19.48,7.66-22.75,1.75a0.52,0.52,0,0,1-.62.13,20.37,20.37,0,0,1-7.33,1.63c-0.29,0-.57,0-0.85,0,2.19,1.33,6.4,7.23,7.08,8.74,1.75,0.44,4.86,4.8,5.34,5.85,1.59,3.51-1.05,6.57-1.4,10-0.39,3.87.43,8.3-.08,7.49-2.72-4.33-11.41-18.92-5.08-23.18a1.31,1.31,0,0,1,.28-0.13,22.87,22.87,0,0,0-2.39-3.91c-1.51-2-3.58-2.8-4.64-5-2.74-.34-4.9-1.58-7.35-2.82a1.78,1.78,0,0,1-1.23-.29c1.27,3.93,2.56,7.8,3.79,11.65l0.53,1.31c1.09,2.64,2.44,5.26,2.85,8.07l0,0c0.1,0.21,2.71,10,2.58,11.75a58.23,58.23,0,0,0,8.08,17.58,0.2,0.2,0,0,1-.29.29c-4.22-3.08-6.53-8.77-7.82-14.14a76.07,76.07,0,0,1,.52,8.43,79.6,79.6,0,0,1-2.19,18.33,26.25,26.25,0,0,1-.63,3.43,4.54,4.54,0,0,1-.06.54,31.59,31.59,0,0,0-1,3.61l-0.14-.27c-1,4.59-1.94,9.16-1.21,13.86,0.05,0.35-.45.31-0.52,0a25.12,25.12,0,0,1-.14-8.83c-1.46,4-6.24,15-8,18.8-0.13.29,2.57-7,2.68-7.23a114.42,114.42,0,0,0,8.05-23,16.84,16.84,0,0,1,.41-2.27,0.38,0.38,0,0,1,.11-0.19A85.94,85.94,0,0,0,549.74,125a40.76,40.76,0,0,1-11.27,22.51c-0.16.15-.45-0.15-0.31-0.31a50.71,50.71,0,0,0,8.2-14.24,36.9,36.9,0,0,0,1.55-4.83,26.66,26.66,0,0,1-7.87,7.78c-2.14,8.45-10.39,6.31-14.39,8.19-0.61.29,1.26-3.32,1.7-3.68,0,0,1.27-3.6,2.94-4.62,2.93-1.79,6.33-.57,9.46-1.18a0.41,0.41,0,0,1,.41.12,43.91,43.91,0,0,0,7.89-8.46,0.38,0.38,0,0,1,.3-0.18,49.68,49.68,0,0,0,.45-13.2s0,0,0,0c-1.34-7.81-4-15.27-6.79-22.71a44.44,44.44,0,0,1-1,9.54c0.25,0.2-1.05,3.8-1.44,4.78,0.58-.48-7.55,14.29-10.16,21.79-0.31.89-1.8,0.56-1.47-.41,2.19-6.28,10.26-20.52,10.74-22-6.9,8-17.13,11-27.15,14.09-1,.31-1.15-1.14-0.21-1.43,10.88-3.39,22-6.51,28.53-16.67,0.12-.48.22-1,0.32-1.46,0.65-3.37.41-6.82,0.94-10.2a0.49,0.49,0,0,1,.1-0.24,185.58,185.58,0,0,1-6.68-19.84,74.12,74.12,0,0,1-1.5-7.57,21.51,21.51,0,0,0-3.52,5.35,0.55,0.55,0,0,1-1-.44,12.1,12.1,0,0,1,4.37-6.24,88.93,88.93,0,0,1,0-21.85,18.82,18.82,0,0,1-4,3.27c2.19,1-.7,7.44-1.57,8.77-3.12,4.71-9.75,2.66-12.61,7.78-0.52.94-2.67,3.16-2.3,1.85,1.59-5.6,1.1-10.77,4.85-15.67,2.61-3.41,6.74-6.27,10.84-3.81l0.06,0a29.07,29.07,0,0,0,5-4q0.49-3.54,1.22-7a67.19,67.19,0,0,1,1.78-6.73c-2.57,1.88-5.46,4.43-8.32,5.12-5.67,1.39-8.17-2.82-13.9-2.5C512.38,24.61,507.49,25.42,508.76,24.32Z" transform="translate(-20.56 0.86)"/><g id="New_Symbol_22" data-name="New Symbol 22"><g id="New_Symbol_14" data-name="New Symbol 14"><path class="cls-2" d="M211.74,235.73a0.41,0.41,0,0,0-.15.08l-0.23.07a2,2,0,0,0-1,.61,0.76,0.76,0,0,0,.35,1.11,2.85,2.85,0,0,0,1.61.29,1.53,1.53,0,0,0,1.5-1.42C213.71,235.44,212.46,235.5,211.74,235.73Z" transform="translate(-20.56 0.86)"/><path class="cls-2" d="M212.64,231.86a0.85,0.85,0,0,1,.41.61,2.24,2.24,0,0,1,0,.73,8,8,0,0,1-.21,1.13h0a0.57,0.57,0,0,1,0,.11,0.37,0.37,0,0,1-.49.29,1.46,1.46,0,0,1-.86-0.63,1.54,1.54,0,0,1-.19-0.94,1.79,1.79,0,0,1,.71-1.29A0.64,0.64,0,0,1,212.64,231.86Z" transform="translate(-20.56 0.86)"/><path class="cls-2" d="M214.7,232a1.47,1.47,0,0,0-1,1.71,0.55,0.55,0,0,0,.37.39,0.53,0.53,0,0,0,.33.65,2.75,2.75,0,0,0,2.22-.18,1.16,1.16,0,0,0,.28-1.76A1.91,1.91,0,0,0,214.7,232Z" transform="translate(-20.56 0.86)"/><path class="cls-2" d="M215.05,235.44a0.35,0.35,0,0,0-.35.2,2.26,2.26,0,0,0,1.22,2.65,1.22,1.22,0,0,0,1.19,0,1.25,1.25,0,0,0,.38-1.28h0a1.42,1.42,0,0,0-.45-1.11,1.63,1.63,0,0,0-1.28-.33l-0.07,0A1.85,1.85,0,0,0,215.05,235.44Z" transform="translate(-20.56 0.86)"/><path class="cls-2" d="M213.83,238.66a1.24,1.24,0,1,1-1.49,1.85,0.9,0.9,0,0,1-.26-1,0.7,0.7,0,0,1,.29-0.33,1.06,1.06,0,0,1,.48-0.65A1,1,0,0,1,213.83,238.66Z" transform="translate(-20.56 0.86)"/><path class="cls-2" d="M210.15,237.73a0.69,0.69,0,0,1,.34.64,0.53,0.53,0,0,1,.36.54,1,1,0,0,1-1.24,1,0.9,0.9,0,0,1-.51-0.43,0.86,0.86,0,0,1,0-1.31,0.51,0.51,0,0,1,.15-0.09l0.05-.08A0.61,0.61,0,0,1,210.15,237.73Z" transform="translate(-20.56 0.86)"/><path class="cls-2" d="M207.3,235.09a1.1,1.1,0,0,0-1.57,1c0.11,1.45,2.25,1,3.38.48l0.07,0a0.37,0.37,0,0,0,.49-0.29s0-.09,0-0.13a0.37,0.37,0,0,0-.07-0.44,1.14,1.14,0,0,0-.75-0.8A2.44,2.44,0,0,0,207.3,235.09Z" transform="translate(-20.56 0.86)"/><path class="cls-2" d="M207.79,232.06a1.29,1.29,0,0,0,0,1.75,1.71,1.71,0,0,0,1.75.34,0.39,0.39,0,0,0,.21-0.16,0.69,0.69,0,0,0,.48-0.77,1.73,1.73,0,0,0-1.08-1.19,0.59,0.59,0,0,0-.32-0.05A0.76,0.76,0,0,0,207.79,232.06Z" transform="translate(-20.56 0.86)"/><path class="cls-2" d="M208.37,238.8a1.72,1.72,0,0,1-.48.88,1.43,1.43,0,0,1-1,.34,0.53,0.53,0,0,1-.49-0.46,1.31,1.31,0,0,1,.29-1.2,0.69,0.69,0,0,1,.83.16C207.68,238,208.5,238.31,208.37,238.8Z" transform="translate(-20.56 0.86)"/><path class="cls-2" d="M209.38,241.42a1.12,1.12,0,0,0-.64,1.54,1,1,0,0,0,1.46.61,1.51,1.51,0,0,0,.76-1.48,0.51,0.51,0,0,0-.49-0.44A1,1,0,0,0,209.38,241.42Z" transform="translate(-20.56 0.86)"/><path class="cls-2" d="M207.87,240.63a0.48,0.48,0,0,1,.32.29,0.47,0.47,0,0,1,.19.7c-0.49.58-2,1.13-2.57,0.37a1,1,0,0,1,.38-1.33A2.41,2.41,0,0,1,207.87,240.63Z" transform="translate(-20.56 0.86)"/><path class="cls-2" d="M212.1,241a1.51,1.51,0,0,1,1,1,0.5,0.5,0,0,1,0,.29,0.44,0.44,0,0,1,0,.17,0.37,0.37,0,0,1-.49.29,1.38,1.38,0,0,1-1-1.47A0.37,0.37,0,0,1,212.1,241Z" transform="translate(-20.56 0.86)"/><path class="cls-2" d="M216.72,240.64a0.52,0.52,0,0,1,.27.5,0.64,0.64,0,0,1-.28.53,0.44,0.44,0,0,1-.15.05,0.83,0.83,0,0,1-.81.29,0.82,0.82,0,0,1-.17-1.48A1.26,1.26,0,0,1,216.72,240.64Z" transform="translate(-20.56 0.86)"/><path class="cls-2" d="M217.73,239.66a0.41,0.41,0,0,1-.09.59,0.4,0.4,0,0,1-.37,0l-0.13,0a2.26,2.26,0,0,1-1.78-.56,0.42,0.42,0,0,1,.11-0.72A2,2,0,0,1,217.73,239.66Z" transform="translate(-20.56 0.86)"/><path class="cls-2" d="M219.09,235a2.45,2.45,0,0,1,.12.48l0,0.1,0,0.1c0,0.05.07,0.2,0,.13a0.41,0.41,0,0,1-.09.59,0.48,0.48,0,0,1-.61-0.19v0a1.72,1.72,0,0,1-.41.15,0.5,0.5,0,0,1-.51-0.23c-0.34-.61-0.34-1.62.54-1.69A0.88,0.88,0,0,1,219.09,235Z" transform="translate(-20.56 0.86)"/><path class="cls-2" d="M214.61,230.2a0.85,0.85,0,0,1-.26,1.12,0.41,0.41,0,0,1-.26.11l0,0.05a0.53,0.53,0,0,1-.72.22,1.49,1.49,0,0,1-.35-0.34,1.11,1.11,0,0,1-.14-0.2,0.84,0.84,0,0,1,.07-1A1.19,1.19,0,0,1,214.61,230.2Z" transform="translate(-20.56 0.86)"/><path class="cls-2" d="M211.45,231a0.41,0.41,0,0,1-.06.56,0.27,0.27,0,0,1-.16.2,1.41,1.41,0,0,1-1.23.09,0.71,0.71,0,0,1-.28-0.94,0.93,0.93,0,0,1,.14-0.2,0.36,0.36,0,0,1,.37-0.29h0.15A1.13,1.13,0,0,1,211.45,231Z" transform="translate(-20.56 0.86)"/><path class="cls-2" d="M214.37,241.69c0.78,0.18.84,1.12,0.9,1.77a0.56,0.56,0,0,1,0,.08,0.38,0.38,0,0,1,0,.2,0.4,0.4,0,0,1-.57.14,2.28,2.28,0,0,1-.78-1.78A0.37,0.37,0,0,1,214.37,241.69Z" transform="translate(-20.56 0.86)"/><path class="cls-2" d="M213.28,243.58a0.41,0.41,0,0,1,0,.5,0.34,0.34,0,0,1-.17.39,1.61,1.61,0,0,1-1.34.17,0.7,0.7,0,0,1-.29-0.95,1.13,1.13,0,0,1,.7-0.56A1.07,1.07,0,0,1,213.28,243.58Z" transform="translate(-20.56 0.86)"/><path class="cls-2" d="M220.41,238.58a0.89,0.89,0,0,1,0,.73,0.71,0.71,0,0,1-.75.3,0.59,0.59,0,0,1-.41-0.25,0.92,0.92,0,0,1-.81-0.75,0.87,0.87,0,0,1,.88-1.08A1.5,1.5,0,0,1,220.41,238.58Z" transform="translate(-20.56 0.86)"/><path class="cls-2" d="M218.9,240.81a0.5,0.5,0,0,1,.44.55,1.18,1.18,0,0,1-.58.82,0.74,0.74,0,0,1-1-.51,0.82,0.82,0,0,1,.42-1.08A0.79,0.79,0,0,1,218.9,240.81Z" transform="translate(-20.56 0.86)"/><path class="cls-2" d="M217.31,242.52a1.49,1.49,0,0,1,.76.78,0.38,0.38,0,0,1-.25.52,0.42,0.42,0,0,1-.15,0,1.53,1.53,0,0,1-1,.36,0.73,0.73,0,0,1-.65-0.82A1,1,0,0,1,217.31,242.52Z" transform="translate(-20.56 0.86)"/><path class="cls-2" d="M215.44,244.56a0.76,0.76,0,0,1,.22.8,1.1,1.1,0,0,1-.78.54,0.41,0.41,0,0,1-.43-0.13,1.23,1.23,0,0,1-.55-0.12,0.75,0.75,0,0,1,.05-1.37A1.43,1.43,0,0,1,215.44,244.56Z" transform="translate(-20.56 0.86)"/><path class="cls-2" d="M211.57,245a0.56,0.56,0,0,1,.32.31,0.59,0.59,0,0,1,0,.31v0a0.38,0.38,0,0,1,0,.16,1.21,1.21,0,0,1-.78.76,0.91,0.91,0,0,1-.9-0.45,1,1,0,0,1-.12-0.91,0.77,0.77,0,0,1,.83-0.42A2.24,2.24,0,0,1,211.57,245Z" transform="translate(-20.56 0.86)"/><path class="cls-2" d="M207.78,243.41a1.29,1.29,0,0,1,.74,1.14c0,0.06,0,.12,0,0.18a0.47,0.47,0,0,1-.07.26s0,0,0,0a0.38,0.38,0,0,1-.49.29,1.71,1.71,0,0,1-1.22-.69,0.81,0.81,0,0,1,.11-1A0.88,0.88,0,0,1,207.78,243.41Z" transform="translate(-20.56 0.86)"/></g><text x="-20.56" y="0.86"/><text x="-20.56" y="0.86"/></g></svg>