<svg id="Layer_2" data-name="Layer 2" xmlns="http://www.w3.org/2000/svg" viewBox="0 0 263.74 93.46"><defs><style>.cls-1{fill:#dfb0af;stroke:#3c2415;stroke-miterlimit:10;stroke-width:2px;}.cls-2{font-size:18px;fill:#3c2415;font-family:Amatic;font-weight:700;}</style></defs><title>herside</title><path class="cls-1" d="M250.06,78a33.9,33.9,0,0,1-2-12.68c24.79-12.41,9.59-35-13.92-35-33.24,0-36.61,37-.3,37.76l0.84,0.28c4.8,3.65,9.8,7.34,15.43,9.61h0ZM227.83,45.38a4.58,4.58,0,0,1,5.48-.76,4.63,4.63,0,0,1,1,.73,4.6,4.6,0,0,1,1-.73A4.59,4.59,0,0,1,240.54,52h0l-5.34,5.34h0a1.31,1.31,0,0,1-.42.28h0a1.31,1.31,0,0,1-1.43-.28h0L228,52h0a4.61,4.61,0,0,1-1.12-1.52,4.58,4.58,0,0,1,.93-5.14h0Z" transform="translate(-8.36 -29.33)"/><text class="cls-2" transform="translate(209.05 68.04)">Her Side</text><text x="-8.36" y="-29.33"/></svg>