<svg id="Layer_1" data-name="Layer 1" xmlns="http://www.w3.org/2000/svg" viewBox="0 0 232.08 157.91"><defs><style>.cls-1{font-size:72px;font-family:Century Schoolbook;font-weight:700;}.cls-1,.cls-3{fill:#efd7d4;}.cls-1,.cls-2,.cls-3{stroke:#42210b;stroke-miterlimit:10;}.cls-1,.cls-2{stroke-width:2px;}.cls-2{font-size:98.53px;fill:#42210b;font-family:Edwardian Script ITC;}.cls-3{stroke-width:1.5px;}</style></defs><title>Untitled-12</title><text class="cls-1" transform="translate(12.57 62.99) scale(0.82 1)">Our</text><text class="cls-2" transform="translate(48.95 123.59)">Story</text><path class="cls-3" d="M588.28,222.23a17.83,17.83,0,0,0-26.52-15.58,18,18,0,0,0-6.51,6.27l-1.9,3.09-1.9-3.09a18,18,0,0,0-6.51-6.27A17.84,17.84,0,0,0,520,229.59a18,18,0,0,0,4.54,6.08l0.11,0.1,15.14,15.14a19.8,19.8,0,0,1,34.28-7.17l8-8,0.11-.1a18,18,0,0,0,4.54-6.08,17.68,17.68,0,0,0,1.58-7.36h0Z" transform="translate(-387.36 -202.93)"/><path class="cls-3" d="M610.86,256.41a17.83,17.83,0,0,0-26.52-15.58,18,18,0,0,0-6.51,6.27l-1.9,3.09L574,247.1a18,18,0,0,0-6.51-6.27,17.84,17.84,0,0,0-24.93,22.94,18,18,0,0,0,4.54,6.08l0.11,0.1,28.44,28.44h0a0.36,0.36,0,0,0,.11.08l0.15,0,0.15,0a0.36,0.36,0,0,0,.11-0.08h0l28.44-28.44,0.11-.1a18,18,0,0,0,4.54-6.08,17.69,17.69,0,0,0,1.58-7.36h0Z" transform="translate(-387.36 -202.93)"/></svg>