<svg id="Layer_1" data-name="Layer 1" xmlns="http://www.w3.org/2000/svg" viewBox="0 0 241.11 86.95"><defs><style>.cls-1,.cls-2{fill:#efd7d4;stroke:#42210b;stroke-miterlimit:10;stroke-width:2px;}.cls-2{font-size:72px;font-family:Century Schoolbook;font-weight:700;}</style></defs><title>Untitled-11</title><path class="cls-1" d="M559.26,245.42l39.71,9.3s1.07,0.83.92,1.48a1.23,1.23,0,0,1-.2.44c-4.7,7.53-6.87,17.58-9,27.66-1.86,8.62-3.73,17.26-7.19,24.52a1.28,1.28,0,0,1-1.45.65l-39.72-9.3s-1.38-.8-0.78-1.82c3.73-7.4,5.6-16.09,7.48-24.78,2.1-9.71,4.19-19.42,8.85-27.57h0a1.23,1.23,0,0,1,1.41-.57h0Zm21.56,31.34a4.33,4.33,0,0,0,.15-0.62,3.48,3.48,0,0,0-.47-2.41,3.58,3.58,0,0,0-2-1.49,4.53,4.53,0,0,0-.65-0.15,5.2,5.2,0,0,0-2.41.21,5.92,5.92,0,0,0-2.21,1.31l-1.69,1.59L570.88,273a3.33,3.33,0,0,0-1.07-1.61,4,4,0,0,0-1.94-.84,5.48,5.48,0,0,0-3.68.8,5.35,5.35,0,0,0-2.34,2.9,3.89,3.89,0,0,0-.16,1.75,3.34,3.34,0,0,0,.63,1.5l0.06,0.09,5.45,8.63,10.28-6.33,0.08,0a5.81,5.81,0,0,0,1.67-1.34,5,5,0,0,0,1-1.73h0Zm-16.07-21.4a1.23,1.23,0,1,0-.53,2.4l22.39,4.9a1.23,1.23,0,0,0,.53-2.4l-22.39-4.9h0Zm-11.6,37.18a1.23,1.23,0,1,0-.53,2.4l22.39,4.9a1.23,1.23,0,0,0,.53-2.4l-22.39-4.9h0Z" transform="translate(-359.8 -236.34)"/><text class="cls-2" transform="translate(1 62.99) scale(0.84 1)">RSVP</text></svg>