<svg id="Layer_1" data-name="Layer 1" xmlns="http://www.w3.org/2000/svg" viewBox="0 0 332.5 344.3"><defs><style>.cls-1{fill:#deb0ae;}.cls-2{fill:#dcbfc1;}.cls-3{fill:#eed6d3;}.cls-4{font-size:18px;font-family:Come unto Me;}.cls-5{fill:#bcc54a;}.cls-6{fill:#f7a59b;}.cls-7{fill:#fbd1cb;}.cls-8{fill:#f4887b;}.cls-9{fill:#ffcb73;}.cls-10{fill:#f48e80;}.cls-11{fill:#add2b9;}.cls-12{fill:#9ab998;}.cls-13{fill:#fff;}.cls-14{fill:#f18183;}.cls-15{fill:#42210b;}</style></defs><title>welcomefinalnoutline</title><path class="cls-1" d="M570.16,142l-15.29,41.27s43.29,11.24,71.3,28.74c0,0-4.24-19-12.16-31.5,0,0,11.06-7.55,32.24-7.92C646.25,172.62,614.34,152.28,570.16,142Z" transform="translate(-313.75 -120)"/><path class="cls-1" d="M389.84,142l15.29,41.27s-43.29,11.24-71.3,28.74c0,0,4.24-19,12.16-31.5,0,0-11.06-7.55-32.24-7.92C313.75,172.62,345.66,152.28,389.84,142Z" transform="translate(-313.75 -120)"/><path class="cls-2" d="M384.38,177.76s11.27-6.47,16.89-4.9l3.87,10.45Z" transform="translate(-313.75 -120)"/><polygon class="cls-2" points="239.45 63.31 258.51 57.76 252.56 51.54 243.45 52.53 239.45 63.31"/><path class="cls-3" d="M372.06,136.15l14,41.61s99-34.82,187.89,0l14.53-41.61S495.08,99.81,372.06,136.15Z" transform="translate(-313.75 -120)"/><text class="cls-4" transform="translate(16.22 106.81)">If you’re on this page it means we’d love to have you at <tspan x="115.56" y="21.6">our wedding!</tspan><tspan x="11.9" y="64.8">Feel free to explore through each tab to learn more </tspan><tspan x="5.82" y="86.4">about attire, event schedule, accomodations and more.</tspan><tspan x="3.05" y="129.6">If you have any questions, e-mail us using the icon on </tspan><tspan x="78.31" y="151.2">the top right of the screen!</tspan><tspan x="134.53" y="194.4">Enjoy!</tspan><tspan x="129.19" y="216">-A&amp;A</tspan></text><text x="-313.75" y="-120"/><text x="-313.75" y="-120"/><path class="cls-5" d="M529.56,427c-0.37,8.32,2.27,18,9.55,19.61-3,5.25-4.76,11.19-3.41,17.21,0.19,0.86,1.2.58,1.14-.24-0.54-7.58,2.56-14.37,6.9-20.26,0.87-.3,2,0.09,2.86.07a0.4,0.4,0,0,0,.16,0c1.58,6.22,9.48,2.73,13,1.53,3.25-1.09,6.6.12,6.16-.29-2.57-2.39-11-7-14.66-6.72-2.15.15-5.2,2-5,4.39a3.43,3.43,0,0,0-1.74,0c1-1.32,2.1-2.59,3.2-3.8a61,61,0,0,1,7.82-7.22c3-1.2,6.26.38,9.22,1,0.44,0.09.79-.63,0.29-0.78-2.81-.79-5.8-1.75-8.62-0.87a74.46,74.46,0,0,1,18.13-9.77c0.21,0.05,2.69.08,7.1,3.85,1.51,1.29,2.16,3.39,2.77,5.3-1.82.85-2,2.92-1.33,4.85,1.3,3.65,5.28,4.79,8.15,6.73,0.69,0.47,4.21,3.07,3.69,2.69-2.73-2-4.49-14.88-9.44-14.07a0.38,0.38,0,0,0-.21-0.43,15.13,15.13,0,0,0-2.42-5c-0.13-.18-0.27-0.33-0.41-0.49,1.79,0.67,7.16.41,8.35,0.11,1.06,0.82,5,.63,5.87.42,2.78-.68,3.35-3.63,5.2-5.42,2.08-2,5-3.57,4.33-3.49-3.77.4-16.28,2-15.85,7.7a1,1,0,0,0,.05.22,17,17,0,0,1-3.38.4c-1.84,0-3.28-.8-5-0.42a16.27,16.27,0,0,0-5-3,1.32,1.32,0,0,0-.73-0.59c2.88-1.07,5.72-2.09,8.54-3.15l1-.29a25.94,25.94,0,0,0,6-2h0c0.17,0,7.06-3,8-3.9a43.24,43.24,0,0,1,14-3.37,0.15,0.15,0,0,0,0-.3c-3.74-1-8.12.23-11.84,1.94a56.49,56.49,0,0,0,5.15-3.57,59.11,59.11,0,0,0,9.68-9.7,19.49,19.49,0,0,0,1.71-1.95,3.38,3.38,0,0,0,.29-0.28,23.45,23.45,0,0,1,1.65-2.24l-0.22,0c2.2-2.72,4.45-5.34,7.52-7.08,0.23-.13,0-0.41-0.23-0.31a18.65,18.65,0,0,0-5.22,4c1.68-2.7,3.21-5.49,4.62-8.3,0.1-.21-0.25-0.32-0.34-0.14A85,85,0,0,1,617,394.7a12.5,12.5,0,0,0-1.14,1.28,0.28,0.28,0,0,0-.06.15,63.82,63.82,0,0,1-8.7,8.44A30.27,30.27,0,0,0,615,387.66c0-.16-0.3-0.19-0.33,0a37.66,37.66,0,0,1-4.54,11.33,27.41,27.41,0,0,1-2.1,3.13,19.8,19.8,0,0,0,.92-8.17c3.94-5.13-1.1-9-1.84-12.16-0.11-.49-1.36,2.26-1.37,2.68,0,0-1.51,2.4-1.34,3.84,0.3,2.53,2.58,4,3.66,6.06a0.31,0.31,0,0,0,.26.19,32.61,32.61,0,0,1-1.31,8.49,0.28,0.28,0,0,0,0,.25,36.89,36.89,0,0,1-7.49,6.33l0,0a93.18,93.18,0,0,1-16.36,6.48,33,33,0,0,0,5.1-5c0.23,0.05,1.73-2.36,2.13-3,0,0.56,4.86-11,8-15.95,0.37-.59-0.5-1.31-0.91-0.67-2.66,4.17-7.25,15.41-7.87,16.35,1.5-7.7-1.48-15-4.26-22.31-0.28-.73-1.19-0.15-0.93.54,3,7.9,6.32,15.83,3.39,24.3-0.23.29-.46,0.58-0.71,0.86-1.67,1.93-3.79,3.37-5.52,5.23a0.37,0.37,0,0,0-.09.17,137.82,137.82,0,0,0-14.64,5.23,55.06,55.06,0,0,0-5.1,2.61,16,16,0,0,1,1.5-4.51,0.41,0.41,0,0,0-.72-0.39A9,9,0,0,0,561,425a66,66,0,0,0-12.74,10,14,14,0,0,0,.05-3.86c1.57,0.84,4-3.83,4.39-4.95,1.31-4-2.94-6.91-1.26-10.93,0.31-.74.62-3,0-2.19-2.54,3.5-5.77,5.59-6.91,10-0.79,3.09-.56,6.82,2.76,8.07h0.05a21.59,21.59,0,0,1,0,4.73q-1.84,1.91-3.53,3.94a49.91,49.91,0,0,0-3.11,4.13c-0.09-2.37.07-5.22-.84-7.21-1.8-3.94-5.4-3.47-7.85-7C531.39,428.93,529.61,425.71,529.56,427Z" transform="translate(-313.75 -120)"/><path class="cls-6" d="M626.09,380.34a2.3,2.3,0,0,0,2.09-.69c2.21-1,1.69-4.74,3.56-6.2,0.35-.28-0.19-0.45-0.64-0.42-1.16.07-1.85-.05-2.73,0.66a5.31,5.31,0,0,0-.65-1.8,0.37,0.37,0,0,0-.62,0,5.4,5.4,0,0,0-.91,1.5,12.68,12.68,0,0,0-2.21-1.47c-0.37-.25-0.94-0.93-0.87-0.56C623.61,373.78,622.6,379.51,626.09,380.34Z" transform="translate(-313.75 -120)"/><path class="cls-6" d="M620.27,398.49c1.18,0,2.35-.67,3.53-0.55a3.62,3.62,0,0,0,1,.46,6.28,6.28,0,0,0-1.07-2l-0.15-.25c0.66-.08,2.59-1.24,2.38-1.39a6.59,6.59,0,0,0-1.78-.91c-0.22,0-.91-0.52-1.12-0.56a4.34,4.34,0,0,0,1.18-1.67c0.13-.29.36-1.19,0.08-1-1.48,1.2-3.49.47-5.07,0.41a2.1,2.1,0,0,0-2.12,1.83,4.12,4.12,0,0,0,.4,4A3.77,3.77,0,0,0,620.27,398.49Z" transform="translate(-313.75 -120)"/><path class="cls-7" d="M625.46,416c3.35-.09,4.46-5.38,1.55-7.29a4.74,4.74,0,0,0,.19-1,4.87,4.87,0,0,0-3.19-5,3.22,3.22,0,0,0-1.79,0,3.63,3.63,0,0,0-3.14-1.82,3.32,3.32,0,0,0-3.69,2.64c-3-.27-4.94,3.53-3.58,6.29a4,4,0,0,0-1.61,4.85,3.64,3.64,0,0,0,2.52,2.53,4,4,0,0,0,1.28,2.57,5.32,5.32,0,0,0,3.58,1.21,4.58,4.58,0,0,0,2.94-1.35,3.68,3.68,0,0,0,1.71.06A3.87,3.87,0,0,0,625.46,416Z" transform="translate(-313.75 -120)"/><path class="cls-8" d="M621.72,415.43c0.46-.29.11-0.83-0.23-1.23a1.15,1.15,0,0,0,.85,0,0.31,0.31,0,0,0,.22-0.33,1.1,1.1,0,0,0,.37-1.37l0.11,0a0.42,0.42,0,0,0,.24-0.58,0.45,0.45,0,0,0,0-.46l0.18-.09a0.36,0.36,0,0,0,.17-0.37,0.53,0.53,0,0,0-.27-0.83c0.59-.13.38-0.81-0.12-0.9a0.68,0.68,0,0,0-.51-0.29,0.48,0.48,0,0,0-.56-0.66,0.66,0.66,0,0,0-.67-0.53,1.23,1.23,0,0,0-.24-0.25,0.41,0.41,0,0,0-.64.19l-0.1-.25a0.85,0.85,0,0,0-1.12-.56,0.88,0.88,0,0,0-.21-0.07l0,0a0.5,0.5,0,0,0-.46,0l0,0h-0.18a0.58,0.58,0,0,0-.88,0,0.72,0.72,0,0,0-.34-0.1,0.45,0.45,0,0,0-.73.39,3.69,3.69,0,0,0,.2.73,1.15,1.15,0,0,0-.05.13l-0.53-.17a1.31,1.31,0,0,0-.56,0v0a0.79,0.79,0,0,0-.5.37,0.54,0.54,0,0,0,.11.9,0.53,0.53,0,0,0,0,.21,3.12,3.12,0,0,1-.27,1.24,0.39,0.39,0,0,0,0,.43,0.46,0.46,0,0,0,.1.12,0.51,0.51,0,0,0,.14.31l-0.48.15c-0.27.09-.18,0.41,0,0.58l-0.27.16c-0.38.27,0,.75,0.38,0.7h0a0.41,0.41,0,0,0,.52.48l0,0a2.38,2.38,0,0,0-.26.41c-0.14.38,0.44,0.8,0.69,0.44v0c0.17,0.45.67,0.67,0.91,0.33l0.06-.06a1,1,0,0,0,.3,0,2.19,2.19,0,0,0,0,.72c0.06,0.35.69,0.56,0.81,0.14,0-.11.06-0.21,0.08-0.32a1.89,1.89,0,0,0,.06.42c0.12,0.41.87,0.44,0.92,0a1.35,1.35,0,0,0,.67.22,0.38,0.38,0,0,0,.39-0.52c0,0.08.09,0.16,0.15,0.24,0.22,0.3.92,0.27,0.88-.17A0.49,0.49,0,0,0,621.72,415.43Z" transform="translate(-313.75 -120)"/><path class="cls-5" d="M617,381.85c-0.11-1.89-1.21-3.34-2.1-4.94a3.37,3.37,0,0,0-.66-1.16,4.94,4.94,0,0,0-.14,1.34,9,9,0,0,1-1.93,3.47,4.55,4.55,0,0,0-1,2.75c0,1.89,2.42,2.43,3.28,3.94,0.08,0.31.46,1.43,0.57,1C615.51,386.14,617.09,384.12,617,381.85Z" transform="translate(-313.75 -120)"/><path class="cls-5" d="M430,425.59c0.37,8.32-2.27,18-9.55,19.61,3,5.25,4.76,11.19,3.41,17.21-0.19.86-1.2,0.58-1.14-.24,0.54-7.58-2.56-14.37-6.9-20.26-0.87-.3-2,0.09-2.86.07a0.39,0.39,0,0,1-.16,0c-1.58,6.22-9.48,2.73-13,1.53-3.25-1.09-6.6.12-6.16-.29,2.57-2.39,11-7,14.66-6.72,2.15,0.15,5.2,2,5,4.39a3.43,3.43,0,0,1,1.74,0c-1-1.32-2.1-2.59-3.2-3.8a61,61,0,0,0-7.82-7.22c-3-1.2-6.26.38-9.22,1-0.44.09-.79-0.63-0.29-0.78,2.81-.79,5.8-1.75,8.62-0.87a74.46,74.46,0,0,0-18.13-9.77c-0.21.05-2.69,0.08-7.1,3.85-1.51,1.29-2.16,3.39-2.77,5.3,1.82,0.85,2,2.92,1.33,4.85-1.3,3.65-5.28,4.79-8.15,6.73-0.69.47-4.21,3.07-3.69,2.69,2.73-2,4.49-14.88,9.44-14.07a0.38,0.38,0,0,1,.21-0.43,15.13,15.13,0,0,1,2.42-5c0.13-.18.27-0.33,0.41-0.49-1.79.67-7.16,0.41-8.35,0.11-1.06.82-5,.63-5.87,0.42-2.78-.68-3.35-3.63-5.2-5.42-2.08-2-5-3.57-4.33-3.49,3.77,0.4,16.28,2,15.85,7.7a1,1,0,0,1-.05.22,17,17,0,0,0,3.38.4c1.84,0,3.28-.8,5-0.42a16.27,16.27,0,0,1,5-3,1.32,1.32,0,0,1,.73-0.59c-2.88-1.07-5.72-2.09-8.54-3.15l-1-.29a25.94,25.94,0,0,1-6-2h0c-0.17,0-7.06-3-8-3.9a43.24,43.24,0,0,0-14-3.37,0.15,0.15,0,0,1,0-.3c3.74-1,8.12.23,11.84,1.94a56.49,56.49,0,0,1-5.15-3.57,59.11,59.11,0,0,1-9.68-9.7,19.5,19.5,0,0,1-1.71-1.95,3.37,3.37,0,0,1-.29-0.28,23.45,23.45,0,0,0-1.65-2.24l0.22,0c-2.2-2.72-4.45-5.34-7.52-7.08-0.23-.13,0-0.41.23-0.31a18.65,18.65,0,0,1,5.22,4c-1.68-2.7-5.86-10.52-7.26-13.33-0.1-.21,2.89,4.71,3,4.89a85,85,0,0,0,9.74,15.29,12.51,12.51,0,0,1,1.14,1.28,0.29,0.29,0,0,1,.06.15,63.82,63.82,0,0,0,8.7,8.44,30.27,30.27,0,0,1-7.95-16.92c0-.16.3-0.19,0.33,0a37.66,37.66,0,0,0,4.54,11.33,27.4,27.4,0,0,0,2.1,3.13,19.8,19.8,0,0,1-.92-8.17c-3.94-5.13,1.1-9,1.84-12.16,0.11-.49,1.36,2.26,1.37,2.68,0,0,1.51,2.4,1.34,3.84-0.3,2.53-2.58,4-3.66,6.06a0.31,0.31,0,0,1-.26.19,32.61,32.61,0,0,0,1.31,8.49,0.29,0.29,0,0,1,0,.25,36.89,36.89,0,0,0,7.49,6.33l0,0a93.18,93.18,0,0,0,16.36,6.48,33,33,0,0,1-5.1-5c-0.23.05-1.73-2.36-2.13-3,0,0.56-4.86-11-8-15.95-0.37-.59.5-1.31,0.91-0.67,2.66,4.17,7.25,15.41,7.87,16.35-1.5-7.7,1.48-15,4.26-22.31,0.28-.73,1.19-0.15.93,0.54-3,7.9-6.32,15.83-3.39,24.3,0.23,0.29.46,0.58,0.71,0.86,1.67,1.93,3.79,3.37,5.52,5.23a0.37,0.37,0,0,1,.09.17,137.81,137.81,0,0,1,14.64,5.23,55.06,55.06,0,0,1,5.1,2.61,16,16,0,0,0-1.5-4.51,0.41,0.41,0,0,1,.72-0.39,9,9,0,0,1,1.63,5.41,66,66,0,0,1,12.74,10,14,14,0,0,1-.05-3.86c-1.57.84-4-3.83-4.39-4.95-1.31-4,2.94-6.91,1.26-10.93-0.31-.74-0.62-3,0-2.19,2.54,3.5,5.77,5.59,6.91,10,0.79,3.09.56,6.82-2.76,8.07h-0.05a21.58,21.58,0,0,0,0,4.73q1.84,1.91,3.53,3.94a49.91,49.91,0,0,1,3.11,4.13c0.09-2.37-.07-5.22.84-7.21,1.8-3.94,5.4-3.47,7.85-7C428.13,427.56,429.9,424.34,430,425.59Z" transform="translate(-313.75 -120)"/><path class="cls-6" d="M330.77,387.1a5,5,0,0,0-4.11,1,0.94,0.94,0,0,1-.09-0.61,3.23,3.23,0,0,1,.35-1.55l0.09-.29a4.37,4.37,0,0,1-2-.5,0.42,0.42,0,0,1-.17-0.63,3.28,3.28,0,0,1,1-.95l0.6-.27a2.8,2.8,0,0,1-1.2-1.86,0.51,0.51,0,0,1,.6-0.59c1.72,0.79,2.58-.74,4.1-1.2a2.08,2.08,0,0,1,2.5,1.24,4.11,4.11,0,0,1,.6,4C332.68,385.88,331.75,387.36,330.77,387.1Z" transform="translate(-313.75 -120)"/><path class="cls-6" d="M339.24,397.12c-1.18,0-2.35-.67-3.53-0.55a3.62,3.62,0,0,1-1,.46,6.28,6.28,0,0,1,1.07-2l0.15-.25c-0.66-.08-2.59-1.24-2.38-1.39a6.59,6.59,0,0,1,1.78-.91c0.22,0,.91-0.52,1.12-0.56a4.34,4.34,0,0,1-1.18-1.67c-0.13-.29-0.36-1.19-0.08-1,1.48,1.2,3.49.47,5.07,0.41a2.1,2.1,0,0,1,2.12,1.83,4.12,4.12,0,0,1-.4,4A3.77,3.77,0,0,1,339.24,397.12Z" transform="translate(-313.75 -120)"/><path class="cls-5" d="M344.56,386.89c0.11,0.41.49-.71,0.57-1,0.86-1.51,3.28-2,3.28-3.94a4.55,4.55,0,0,0-1-2.75,9,9,0,0,1-1.93-3.47,4.94,4.94,0,0,0-.14-1.34,3.37,3.37,0,0,0-.66,1.16c-0.89,1.59-2,3-2.1,4.94C342.42,382.75,344,384.78,344.56,386.89Z" transform="translate(-313.75 -120)"/><path class="cls-9" d="M392.67,426.87c0.41-.27,1.15-0.76,1.64-0.41s-0.17,1.07-.35,1.31a9.17,9.17,0,0,1-2.27,1.94c-1.08.74-2.21,1.41-3.33,2.1a1,1,0,0,1,0,.45c0.35-.16.71-0.31,1.07-0.45a15.14,15.14,0,0,0,2.46-1.36,18.34,18.34,0,0,1,2-1.15,3.1,3.1,0,0,1,1.56-.45c0.65,0.09.61,0.72,0.39,1.2a4.45,4.45,0,0,1-1.65,1.84,4.76,4.76,0,0,1,1.06,1.94c0.15,0.83-.61,1.17-1.27,1.28a5.77,5.77,0,0,1-2.93-.6c-1-.39-1.9-0.9-2.86-1.34a2.4,2.4,0,0,1-.26.26l0,0a44,44,0,0,1,4,2.5c0.71,0.48,1.82.88,2.23,1.7a1.05,1.05,0,0,1-1.08,1.44,6,6,0,0,1-3-.6,18.4,18.4,0,0,1-1.5,2.76c-1.55.82-1.72-4.49-1.51-7.37a2.35,2.35,0,0,1-.58.11c-0.41,1.28,0,2.77,0,4.09a6.84,6.84,0,0,1-.36,3c-0.44.81-1.39,0-1.7-.42a3.26,3.26,0,0,1-.59-2.29,5.21,5.21,0,0,1-3.41-.35,0.72,0.72,0,0,1-.62-0.84c0.4-1.31,2.09-1.6,3.25-2.27,0.85-.48,1.89-0.57,2.76-1a0.78,0.78,0,0,1-.37-0.41,12.56,12.56,0,0,0-3.11.86,4.84,4.84,0,0,1-3,.31,0.92,0.92,0,0,1-.56-1.31,4.58,4.58,0,0,1,2.09-1.57c0.47-.27.11-0.73-0.12-1.06a3.55,3.55,0,0,1-.68-1.35,0.81,0.81,0,0,1,1-.91,4.94,4.94,0,0,1,2.7,1.52,12.36,12.36,0,0,1,1.87,2.37,2.67,2.67,0,0,1,.34-0.47c-0.76-1.11-1.7-2.07-2.46-3.18a3.24,3.24,0,0,1-.78-2.3c0.18-.83,1.41-0.63,1.93-0.35,0.28,0.15.49,0.41,0.77,0.57,0.45,0.27.94-.61,1.17-0.88a4.26,4.26,0,0,1,.77-0.73,1.21,1.21,0,0,1,1,1.34c0,1.35-1.28,4.6-1.35,4.89l0.08,0h0.09a0.44,0.44,0,0,1,.27,0c0.6-1.53,1-3.23,1.73-4.7a2.74,2.74,0,0,1,.69-0.91c0.39-.51.88-0.27,1.21,0.16a1.88,1.88,0,0,1,.26,1.15C391.41,427.75,392.27,427.13,392.67,426.87Z" transform="translate(-313.75 -120)"/><path class="cls-9" d="M399.52,404.55c0.41-.27,1.15-0.76,1.64-0.41s-0.17,1.07-.35,1.31a9.17,9.17,0,0,1-2.27,1.94c-1.08.74-2.21,1.41-3.33,2.1a1,1,0,0,1,0,.45c0.35-.16.71-0.31,1.07-0.45a15.14,15.14,0,0,0,2.46-1.36,18.32,18.32,0,0,1,2-1.15,3.1,3.1,0,0,1,1.56-.45c0.65,0.08.61,0.72,0.39,1.2a4.45,4.45,0,0,1-1.65,1.84,4.76,4.76,0,0,1,1.06,1.94c0.15,0.83-.61,1.17-1.27,1.28a5.77,5.77,0,0,1-2.93-.6c-1-.39-1.9-0.9-2.86-1.34a2.41,2.41,0,0,1-.26.26l0,0a44,44,0,0,1,4,2.5c0.71,0.48,1.82.88,2.23,1.7a1.05,1.05,0,0,1-1.08,1.44,6,6,0,0,1-3-.6,18.41,18.41,0,0,1-1.5,2.76c-1.55.82-1.72-4.49-1.51-7.37a2.34,2.34,0,0,1-.58.11c-0.41,1.28,0,2.77,0,4.09a6.84,6.84,0,0,1-.36,3c-0.44.81-1.39,0-1.7-.42a3.27,3.27,0,0,1-.59-2.29,5.21,5.21,0,0,1-3.41-.35,0.72,0.72,0,0,1-.62-0.84c0.4-1.31,2.09-1.6,3.25-2.27,0.85-.48,1.89-0.57,2.76-1a0.78,0.78,0,0,1-.37-0.41,12.56,12.56,0,0,0-3.11.86,4.84,4.84,0,0,1-3,.31,0.92,0.92,0,0,1-.56-1.31,4.58,4.58,0,0,1,2.09-1.57c0.47-.27.11-0.73-0.12-1.06a3.55,3.55,0,0,1-.68-1.35,0.81,0.81,0,0,1,1-.91,4.94,4.94,0,0,1,2.7,1.52,12.36,12.36,0,0,1,1.87,2.37,2.66,2.66,0,0,1,.34-0.47c-0.76-1.11-1.7-2.07-2.46-3.18a3.24,3.24,0,0,1-.78-2.3c0.18-.83,1.41-0.63,1.93-0.35,0.28,0.15.49,0.41,0.77,0.57,0.45,0.27.94-.61,1.17-0.88a4.26,4.26,0,0,1,.77-0.73,1.21,1.21,0,0,1,1,1.34c0,1.35-1.28,4.6-1.35,4.89l0.08,0h0.09a0.44,0.44,0,0,1,.27,0c0.6-1.53,1-3.23,1.73-4.7a2.74,2.74,0,0,1,.69-0.91c0.39-.51.88-0.27,1.21,0.16a1.88,1.88,0,0,1,.26,1.15C398.26,405.42,399.13,404.81,399.52,404.55Z" transform="translate(-313.75 -120)"/><path class="cls-10" d="M367.24,378.59c0.09,0.06-.13.05-0.21,0.1s-0.1.06-.15,0.09h0s0.16,0.16.15,0.18a0.4,0.4,0,0,1-.06.31,0.34,0.34,0,0,1-.21.09h-0.13a13.17,13.17,0,0,0,1.13,2.59c2,4.19,1.21,9.87-2.6,12.61a1.06,1.06,0,0,0-.26.07c-0.82.36-1.62,0.77-2.44,1.13-3.66.64-6.89-2.66-8.51-5.86a0.4,0.4,0,0,1,.29-0.58l0.12,0a9,9,0,0,0-.65-1.16,15.13,15.13,0,0,0-1.26-1.42l-0.15,0a0.39,0.39,0,0,1-.47-0.26,0.55,0.55,0,0,1,.23-0.53l0.08-.05,0.06-.07,0.06,0a0.76,0.76,0,0,1,.06-0.16,0.43,0.43,0,0,1,.43-0.21h0l0.09,0h0l0,0.06h0.05a0.58,0.58,0,0,1,.4.18,0.55,0.55,0,0,1,.17.44v0.05a0.44,0.44,0,0,1-.29.43l-0.09,0-0.1,0a6.06,6.06,0,0,1,.74.79,6.32,6.32,0,0,1,1.14,1.77,16.93,16.93,0,0,0,1.94-.5,8.35,8.35,0,0,0-1.44-1.47l-0.08,0a0.31,0.31,0,0,1-.19,0s0,0,0,0a0.68,0.68,0,0,1-.48-0.08h0a0.57,0.57,0,0,1-.31-0.86,0.21,0.21,0,0,1,.33-0.08,1.52,1.52,0,0,1,.37-0.13,0.77,0.77,0,0,1,.5,0,0.39,0.39,0,0,1,.23.33,0.46,0.46,0,0,1-.16.37,0.41,0.41,0,0,1,0,.16,0.4,0.4,0,0,1-.06.19,8.66,8.66,0,0,1,1.55,1.52q0.61-.2,1.2-0.44c-0.72-.88-1.52-1.69-2.32-2.5a5.39,5.39,0,0,1-.55-0.06,0.58,0.58,0,0,1-.48-0.49,0.51,0.51,0,0,1,.59-0.54l0-.08a0.31,0.31,0,0,1,.31-0.1h0a0.39,0.39,0,0,1,.27.19l0,0a0.93,0.93,0,0,1,.25.23l0,0.07a0.41,0.41,0,0,1,.07.2,0.46,0.46,0,0,1-.25.43,32.35,32.35,0,0,1,2.35,2.46l0.66-.29a5.45,5.45,0,0,0-.79-2.79h0a0.79,0.79,0,0,1-.33-0.05,0.41,0.41,0,0,1-.24-0.46,0.52,0.52,0,0,1,.29-0.36,0.43,0.43,0,0,1,.12-0.14,0.66,0.66,0,0,1,.6.08,1.09,1.09,0,0,1,.27.18,0.44,0.44,0,0,1,.14.31,0.39,0.39,0,0,1-.26.41l-0.14,0a5.72,5.72,0,0,1,.82,2.6q0.79-.38,1.56-0.79l0.25-.14a24,24,0,0,0-1.63-2.93,0.66,0.66,0,0,1-.19-0.05,0.69,0.69,0,0,1-.26,0,0.66,0.66,0,0,1-.3-0.18,0.5,0.5,0,0,1-.09-0.53,0.38,0.38,0,0,1,.43-0.25,0.68,0.68,0,0,1,.55,0,0.45,0.45,0,0,1,.15.75h0a0.37,0.37,0,0,1,0,0,0.22,0.22,0,0,1,0,.14,17.47,17.47,0,0,1,1.7,2.84c0.48-.27,1-0.54,1.43-0.82a12.29,12.29,0,0,0-2-2.75h0a0.61,0.61,0,0,1-.44-0.29,0.62,0.62,0,0,1,.28-0.91,0.3,0.3,0,0,1,.19,0,0.41,0.41,0,0,1,.16,0l0.3,0.09a0.61,0.61,0,0,1,.22.13,0.42,0.42,0,0,1,.05.51,0.54,0.54,0,0,1-.12.12v0a0.26,0.26,0,0,1-.09.26,0.26,0.26,0,0,1-.14,0,11.11,11.11,0,0,1,2,2.57l0.6-.38,0.8-.5c-0.55-.85-2.44-3.65-2.73-4.18a1.12,1.12,0,0,1-.63.22,0.69,0.69,0,0,1-.31-0.89c0.17-.5.95-0.93,1.34-0.42a0.6,0.6,0,0,1-.15.9c0.28,0.5,2.12,3.4,2.68,4.22,0.31-.21.77-0.61,1.05-0.85-0.25-.65-0.64-1.07-0.93-1.71a2.39,2.39,0,0,1-.32-1.55h0a1.09,1.09,0,0,0-.2-0.13,0.88,0.88,0,0,1-.3-0.05,0.31,0.31,0,0,1,0-.58l0.08,0a0.33,0.33,0,0,1,.1-0.1,0.76,0.76,0,0,1,.27-0.27,0.5,0.5,0,0,1,.38,0h0s0,0.07,0,.07a0.79,0.79,0,0,1,.26.08,0.41,0.41,0,0,1,0,.74,0.22,0.22,0,0,1-.18.31,0.55,0.55,0,0,1-.3,0c0.32,1.05,1,2,1.36,3a12.75,12.75,0,0,0,1-1.07,10.52,10.52,0,0,1-1-2.91h-0.14a0.4,0.4,0,0,1-.34-0.22,0.25,0.25,0,0,1,0-.26s0,0,0,0h0c-0.12-.41.11-0.34,0.25-0.36s0,0,0,0v0h0.13l0.2-.15a0.31,0.31,0,0,1,.44.13,0.37,0.37,0,0,1,0,.14Z" transform="translate(-313.75 -120)"/><path class="cls-10" d="M385.14,379.84a0.4,0.4,0,0,1,.28.59c-1.74,3.34-5.26,6.78-9.14,5.62-0.48-.29-1-0.57-1.43-0.89a1,1,0,0,0-.65-0.18c-3.83-2.78-4.55-8.5-2.5-12.67a13.17,13.17,0,0,0,1.16-2.57h-0.13a0.34,0.34,0,0,1-.2-0.09,0.4,0.4,0,0,1-.05-0.31s0.17-.17.16-0.18h0s-0.17,0-.15-0.1-0.29,0-.21-0.1l0.12-.07a0.37,0.37,0,0,1,0-.14,0.31,0.31,0,0,1,.44-0.13l0.2,0.15h0.13v0s0,0,0,0,0.36,0,.24.37h0s0,0,0,0a0.25,0.25,0,0,1,0,.26,0.4,0.4,0,0,1-.34.22H373a10.52,10.52,0,0,1-1.07,2.9,12.76,12.76,0,0,0,1,1.09c0.37-1,1.06-2,1.4-3a0.55,0.55,0,0,1-.3,0,0.22,0.22,0,0,1-.18-0.31,0.41,0.41,0,0,1,0-.74,0.79,0.79,0,0,1,.27-0.08s0-.07,0-0.07h0a0.5,0.5,0,0,1,.38,0,0.76,0.76,0,0,1,.26.27,0.33,0.33,0,0,1,.1.1l0.08,0a0.31,0.31,0,0,1,0,.58,0.88,0.88,0,0,1-.3,0,1.09,1.09,0,0,0-.2.13h0a2.39,2.39,0,0,1-.33,1.55c-0.29.63-.69,1.05-0.95,1.7,0.28,0.24.74,0.65,1,.87,0.57-.82,2.44-3.69,2.73-4.19a0.6,0.6,0,0,1-.14-0.9c0.39-.5,1.17-0.07,1.33.43a0.69,0.69,0,0,1-.32.89,1.12,1.12,0,0,1-.63-0.23c-0.3.52-2.22,3.31-2.78,4.15l0.79,0.51,0.6,0.39a11.11,11.11,0,0,1,2-2.54,0.26,0.26,0,0,1-.14,0,0.26,0.26,0,0,1-.09-0.26v0a0.54,0.54,0,0,1-.12-0.13,0.42,0.42,0,0,1,.06-0.51,0.61,0.61,0,0,1,.22-0.13l0.3-.09a0.41,0.41,0,0,1,.17,0,0.3,0.3,0,0,1,.19,0,0.62,0.62,0,0,1,.27.91,0.61,0.61,0,0,1-.44.28h0A12.29,12.29,0,0,0,376.1,376c0.47,0.29.94,0.57,1.42,0.84a17.47,17.47,0,0,1,1.74-2.82,0.22,0.22,0,0,1,0-.14,0.37,0.37,0,0,1,0,0h0a0.45,0.45,0,0,1,.16-0.75,0.68,0.68,0,0,1,.55,0,0.38,0.38,0,0,1,.43.26,0.5,0.5,0,0,1-.1.53,0.66,0.66,0,0,1-.3.18,0.69,0.69,0,0,1-.26,0,0.66,0.66,0,0,1-.19.05,24,24,0,0,0-1.66,2.91l0.25,0.14q0.77,0.43,1.55.81a5.72,5.72,0,0,1,.85-2.59l-0.14,0a0.39,0.39,0,0,1-.25-0.41,0.44,0.44,0,0,1,.14-0.31,1.09,1.09,0,0,1,.28-0.17,0.66,0.66,0,0,1,.6-0.08,0.43,0.43,0,0,1,.12.14,0.52,0.52,0,0,1,.28.37,0.41,0.41,0,0,1-.25.45,0.79,0.79,0,0,1-.33,0h0a5.45,5.45,0,0,0-.82,2.78l0.66,0.3a32.35,32.35,0,0,1,2.38-2.43,0.46,0.46,0,0,1-.25-0.43,0.41,0.41,0,0,1,.08-0.2l0-.07a0.93,0.93,0,0,1,.25-0.23l0,0a0.39,0.39,0,0,1,.27-0.19h0a0.31,0.31,0,0,1,.31.1l0,0.08a0.51,0.51,0,0,1,.59.55,0.58,0.58,0,0,1-.48.48,5.37,5.37,0,0,1-.55.05c-0.81.8-1.61,1.6-2.35,2.47q0.59,0.25,1.2.46a8.66,8.66,0,0,1,1.56-1.51,0.4,0.4,0,0,1-.06-0.19,0.41,0.41,0,0,1,0-.16,0.46,0.46,0,0,1-.15-0.37,0.39,0.39,0,0,1,.23-0.32,0.77,0.77,0,0,1,.5,0,1.52,1.52,0,0,1,.37.13,0.21,0.21,0,0,1,.33.08,0.57,0.57,0,0,1-.32.85h0a0.68,0.68,0,0,1-.49.08s0,0,0,0a0.31,0.31,0,0,1-.19,0l-0.08,0a8.34,8.34,0,0,0-1.46,1.45,16.93,16.93,0,0,0,1.93.52,6.31,6.31,0,0,1,1.16-1.76,6.05,6.05,0,0,1,.75-0.78l-0.1,0-0.09,0a0.44,0.44,0,0,1-.28-0.44v-0.05a0.55,0.55,0,0,1,.17-0.44,0.58,0.58,0,0,1,.4-0.18h0.05l0-.06h0l0.09,0h0a0.43,0.43,0,0,1,.43.22,0.75,0.75,0,0,1,.06.16l0.06,0,0.05,0.07,0.08,0.05a0.55,0.55,0,0,1,.23.53,0.39,0.39,0,0,1-.47.26l-0.15,0a15.11,15.11,0,0,0-1.27,1.41,9,9,0,0,0-.66,1.15Z" transform="translate(-313.75 -120)"/><path class="cls-11" d="M625.92,389a2.5,2.5,0,0,0,1.4,1.06,2.18,2.18,0,0,0,.61,2.42c0.54,0.57,1.45,1,2.06.42a0.94,0.94,0,0,0,.39.52,3.42,3.42,0,0,0,2.49.48,1,1,0,0,0,.76-0.66,0.91,0.91,0,0,0,0-.12,2.24,2.24,0,0,0,2.32.31,2.09,2.09,0,0,0,1.13-.84,3.12,3.12,0,0,0,.32-1.37,2.65,2.65,0,0,0,1.19-.63,3.22,3.22,0,0,0,.71-1.76c0.15-1.12-.08-2.53-1.16-2.85a3.9,3.9,0,0,0-.59-3.31,2.28,2.28,0,0,0-1.21-.83,2.17,2.17,0,0,0-1.52.21,2.8,2.8,0,0,0-2.3-1.67,1.82,1.82,0,0,0-2.28,1.24c0,0.05,0,.1,0,0.16-0.92-.56-2.11.13-2.85,0.8a2.38,2.38,0,0,0-.78,1.36,2.3,2.3,0,0,0,.28,1.4,0.89,0.89,0,0,0-.77.47,3.77,3.77,0,0,0-.59,1.46A2.46,2.46,0,0,0,625.92,389Z" transform="translate(-313.75 -120)"/><path class="cls-12" d="M627.87,389a6.51,6.51,0,0,0,1.53-.1c0.57,0,1.14-.08,1.71-0.07-0.42.58-1,1-1.42,1.6-0.08.13,0.08,0.31,0.19,0.19a6,6,0,0,1,1.9-1.49c-0.09.51-.3,1-0.38,1.5a16.89,16.89,0,0,0-.16,1.93h0v0c0,0.14.24,0.19,0.25,0a10.47,10.47,0,0,1,.6-2.26c0.18-.55.34-1.11,0.49-1.67,0.09,0.33.15,0.66,0.24,1a8.48,8.48,0,0,0,.6,1.4,0.12,0.12,0,0,0,.23-0.07c0-.9-0.46-1.78-0.45-2.68,0.6,0.63,1.08,1.37,1.71,2a0.12,0.12,0,0,0,.2-0.13,7.38,7.38,0,0,0-.7-1.61l-0.27-.51c0.45,0.2.92,0.35,1.38,0.54l0.63,0.31a0.13,0.13,0,0,0,.1-0.23,5,5,0,0,0-.61-0.3c-0.5-.26-1-0.55-1.48-0.83,0.79,0.09,1.59,0,2.38.2a0.13,0.13,0,0,0,.07-0.24,6.89,6.89,0,0,0-2.18-.61l0.51-.22c0.59-.27,1.21-0.48,1.8-0.75,0.13-.06,0-0.3-0.12-0.24a15.62,15.62,0,0,1-2.77,1,7.16,7.16,0,0,1,.82-1,14,14,0,0,0,.87-1.29c0.09-.13-0.08-0.31-0.19-0.19-0.71.74-1.54,1.36-2.24,2.09a15.58,15.58,0,0,0,1.11-3.27c0-.13-0.19-0.25-0.24-0.1-0.23.67-.53,1.32-0.82,2-0.18.4-.32,0.81-0.46,1.21,0-.31-0.08-0.61-0.11-0.92-0.06-.63,0-1.27,0-1.9a0.13,0.13,0,0,0-.24-0.07,5,5,0,0,0-.47,2,7.89,7.89,0,0,0-.07,1,13,13,0,0,0-1.65-2.08,0.12,0.12,0,0,0-.2.09,5.83,5.83,0,0,0,1.07,2.24,16.65,16.65,0,0,0-2.51-.95,0.13,0.13,0,0,0-.07.24c0.91,0.49,1.74,1.11,2.61,1.67a5.8,5.8,0,0,1-2.43-.26c-0.15,0-.2.18-0.07,0.24a12,12,0,0,0,2.23.78c-0.58.1-.73,0.2-1.32,0.26a3.66,3.66,0,0,0-1.63.38A0.14,0.14,0,0,0,627.87,389Z" transform="translate(-313.75 -120)"/><path class="cls-12" d="M630.34,387.28a1.1,1.1,0,0,0,.25.74,0.75,0.75,0,0,0,.7.23h0v0a0,0,0,0,1,0,.06,0.74,0.74,0,0,0,.39.79,0.86,0.86,0,0,0,.88,0,0.38,0.38,0,0,0,.16-0.29,0.87,0.87,0,0,0,.41.24,0.8,0.8,0,0,0,.59-0.12,1.18,1.18,0,0,0,.48-0.56,0.7,0.7,0,0,0-.09-0.71,0.78,0.78,0,0,0,.45-0.82,0.87,0.87,0,0,0-.06-0.29,0.72,0.72,0,0,0-.18-0.24,1,1,0,0,0-.66-0.28,1.39,1.39,0,0,0-.32,0,1.26,1.26,0,0,0-.28-0.51,1.1,1.1,0,0,0-.7-0.37,0.83,0.83,0,0,0-.84.7,0.77,0.77,0,0,0,.06.45A1.15,1.15,0,0,0,630.34,387.28Z" transform="translate(-313.75 -120)"/><path class="cls-13" d="M632.89,388.43a0.07,0.07,0,0,0,.1,0,0.86,0.86,0,0,0-.3-0.82h0a0.07,0.07,0,0,0-.11,0A0.78,0.78,0,0,0,632.89,388.43Z" transform="translate(-313.75 -120)"/><path class="cls-13" d="M631.94,388.19a0.72,0.72,0,0,0,.51-0.65,0.07,0.07,0,0,0,0-.07,0.07,0.07,0,0,0-.09-0.06,0.83,0.83,0,0,0-.49.69A0.08,0.08,0,0,0,631.94,388.19Z" transform="translate(-313.75 -120)"/><path class="cls-13" d="M631.53,386.91c0,0.42.49,0.36,0.8,0.36a0.07,0.07,0,0,0,.06-0.09,0.08,0.08,0,0,0,0-.09c-0.13-.07-0.25-0.17-0.38-0.23a0.64,0.64,0,0,0-.4,0A0.07,0.07,0,0,0,631.53,386.91Z" transform="translate(-313.75 -120)"/><path class="cls-13" d="M632.55,387.12c0,0.06.11,0.1,0.13,0a0.71,0.71,0,0,0-.12-0.84,0.07,0.07,0,0,0-.11,0A0.77,0.77,0,0,0,632.55,387.12Z" transform="translate(-313.75 -120)"/><path class="cls-13" d="M632.8,387.47a0.79,0.79,0,0,0,.91-0.15,0.08,0.08,0,0,0,0-.13c-0.27-.12-0.92-0.24-0.95.21A0.06,0.06,0,0,0,632.8,387.47Z" transform="translate(-313.75 -120)"/><path class="cls-13" d="M633,387.77a0.81,0.81,0,0,0,.27.34,1.12,1.12,0,0,0,.45.09,0.07,0.07,0,0,0,.06-0.09,0.82,0.82,0,0,0-.21-0.37,0.73,0.73,0,0,0-.46-0.06h0A0.07,0.07,0,0,0,633,387.77Z" transform="translate(-313.75 -120)"/><path class="cls-13" d="M632.41,387.78c0,0.08.13,0.13,0.16,0a3.47,3.47,0,0,0,.2-0.31,0.56,0.56,0,0,0,0-.38v0a0.2,0.2,0,0,1,0-.07c0-.06-0.1-0.14-0.15-0.06a1.29,1.29,0,0,0-.23.38A1.13,1.13,0,0,0,632.41,387.78Z" transform="translate(-313.75 -120)"/><path class="cls-13" d="M631.2,387.59a0.72,0.72,0,0,0,.75,0h0a0.07,0.07,0,0,0,.06-0.13,1.48,1.48,0,0,0-.47-0.2,0.49,0.49,0,0,0-.37.23A0.08,0.08,0,0,0,631.2,387.59Z" transform="translate(-313.75 -120)"/><path class="cls-13" d="M632.22,386.87a0.06,0.06,0,0,0,.08-0.08,0.08,0.08,0,0,0,0-.05,4.08,4.08,0,0,0-.09-0.41,0.68,0.68,0,0,0-.34-0.18,0.07,0.07,0,0,0-.1,0A0.57,0.57,0,0,0,632.22,386.87Z" transform="translate(-313.75 -120)"/><path class="cls-13" d="M633,387a0.69,0.69,0,0,0,.51-0.57,0.52,0.52,0,0,0-.38,0,0.42,0.42,0,0,0-.14.16c0,0.09,0,.19-0.09.27A0.07,0.07,0,0,0,633,387Z" transform="translate(-313.75 -120)"/><path class="cls-6" d="M608.2,399.1a0.31,0.31,0,0,0-.12-0.35,12.7,12.7,0,0,0-5-1.8c-0.89-.2-1.78-0.4-2.65-0.66a10.05,10.05,0,0,1-1.38-.55c0.14-.25,9.73,2.7,9.33,1.25a1.47,1.47,0,0,1,.1-0.58,5.49,5.49,0,0,0,.54-3.49,0.27,0.27,0,0,0-.17-0.2c-1.87-.51-3.68,0-5.58.25-0.58.08-4,1.39-4.61,1.55,1.84-1,7.1-2.8,8.74-4.13a3.38,3.38,0,0,0-.59-1.8c-0.63-.93-2.33-2.94-3.48-3.24-0.86-.22-2.78,4.29-3.39,5.31s-1.92,2.77-2.46,3.63c0.55-1.11,3.45-8.09,3.48-10a3.08,3.08,0,0,0-1.11-.51,4,4,0,0,0-3.59,1c-0.9,1.08.54,6.11,0,9.17L596,394a27.58,27.58,0,0,0-1.47-8.87,0.31,0.31,0,0,0-.35-0.22,4.82,4.82,0,0,0-2.61,1.31c-0.73.69-1.81,1.11-1.2,1.83,0.43,0.51,4,6.05,4.55,6.87a1.84,1.84,0,0,0,1,2.31,2.19,2.19,0,0,0,1,0,0.92,0.92,0,0,0,.33,0l0.45,0.08c0.6,0.11,3,1.91,5.54,3.61,0.72,0.48,2.19,2,3.08,1.67S607.91,400,608.2,399.1Z" transform="translate(-313.75 -120)"/><path class="cls-14" d="M601.7,386.39c0.31-.32.84-1.69,0.5-2-2.11-1.71-4-1.47-6.32-.37-0.4.19,0.57,6.91,0.57,9.59,0,0.68,1.71,1,1.76.47A14.59,14.59,0,0,1,601.7,386.39Z" transform="translate(-313.75 -120)"/><path class="cls-10" d="M607.3,397.51c2.33,0.43,2.07-2.86,1.77-4.81-0.05-.34-5.15-0.64-10.28,1.8-0.56.27,0.47,1.43,0.49,1.43C603.57,396.31,604.65,397,607.3,397.51Z" transform="translate(-313.75 -120)"/><path class="cls-7" d="M602.9,397.85c-0.91-.55-1.76-1.17-2.7-1.66a5,5,0,0,0-.66-0.27,10,10,0,0,0,2.79-.24,0.31,0.31,0,0,0,0-.6c-0.2,0-.4-0.06-0.59-0.08l0.41-.15c0.21-.09.34-0.52,0-0.55l-0.42,0h0a0.3,0.3,0,0,0-.16-0.57,22.34,22.34,0,0,0-2.62.55c0.71-.69,1.53-1.27,2.24-2a0.23,0.23,0,0,0-.29-0.36,10.67,10.67,0,0,0-1.05.69,9.38,9.38,0,0,0,.82-1.17c0.15-.26-0.21-0.43-0.4-0.28a7.89,7.89,0,0,0-1.73,2.06c0.09-.79.15-1.58,0.29-2.36a4,4,0,0,0,.08-0.45c0-.25-0.41-0.26-0.46,0s-0.06.31-.09,0.47a8.4,8.4,0,0,1-.67,1.66,9.32,9.32,0,0,1,.35-1.83c0.09-.28-0.35-0.33-0.45-0.09s-0.2.57-.29,0.85c0-.63,0-1.25,0-1.88a0.25,0.25,0,0,0-.47-0.09,7.91,7.91,0,0,0-.64,2.35,0.24,0.24,0,0,0-.22.1,4.8,4.8,0,0,0-.24-0.78c-0.11-.26-0.33-0.19-0.48,0-0.05-.42-0.09-0.85-0.11-1.26,0-.19-0.29-0.17-0.36,0a2.82,2.82,0,0,0-.14.26c-0.07-.23-0.13-0.47-0.2-0.7s-0.38-.12-0.42.06a6.5,6.5,0,0,0,.17,2.47,11.21,11.21,0,0,0-1.72-1.6c-0.12-.1-0.47-0.05-0.39.18a7.43,7.43,0,0,0,1.3,2.2,7.89,7.89,0,0,0,.82,2.52,7.57,7.57,0,0,0,2,2l0.45,0.4h0l0.06,0.05a0.24,0.24,0,0,0,.18.06,2.79,2.79,0,0,0,2.28.57l0.06,0a8.3,8.3,0,0,0,1.28.9h0l0.06,0c0.25,0.14.5-.26,0.3-0.46s-0.72-.6-1.08-0.9a0.25,0.25,0,0,0,0-.1l0.35,0.18,0.5,0.27c0.23,0.12.52-.2,0.34-0.38l1.51,0.64h0l0.07,0C602.95,398.56,603.18,398,602.9,397.85Z" transform="translate(-313.75 -120)"/><path class="cls-5" d="M594.36,399.51a4.87,4.87,0,0,1,3.08-.59,0.77,0.77,0,0,0,.88-0.42,4.72,4.72,0,0,0,.21-0.82,2.47,2.47,0,0,0,.43-2.64,3.2,3.2,0,0,0-.55-1.06c-1.22-1.57-3.13-1.13-4.57-.24a0.71,0.71,0,0,0-.26.29c-0.36.22-.08,0.56,0,1.08a12.54,12.54,0,0,1,0,3.7C593.55,399.23,593.89,399.79,594.36,399.51Z" transform="translate(-313.75 -120)"/><path class="cls-6" d="M594.86,376a0.31,0.31,0,0,0-.35-0.15c-1.74.34-3.31,1.58-4.72,2.6-0.76.55-1.51,1.1-2.3,1.6a10.29,10.29,0,0,1-1.35.69c-0.09-.28,8.64-5.67,7.29-6.35a1.48,1.48,0,0,1-.37-0.47,5.51,5.51,0,0,0-2.25-2.79,0.26,0.26,0,0,0-.26,0c-1.65,1.1-2.52,2.82-3.61,4.48-0.33.5-1.69,4.05-2,4.61,0.51-2.1,2.74-7.39,2.86-9.56a3.34,3.34,0,0,0-1.75-.77c-1.12-.15-3.79-0.2-4.8.48-0.75.51,1.32,5.07,1.67,6.23,0.3,1,.77,3.37,1,4.37-0.46-1.18-3.7-8.17-5.11-9.48a3.14,3.14,0,0,0-1.14.51,4.15,4.15,0,0,0-1.69,3.47c0.2,1.43,4.94,3.75,6.85,6.26a1.47,1.47,0,0,0-.16.24,27.29,27.29,0,0,0-7.64-4.91,0.32,0.32,0,0,0-.41.12,5.08,5.08,0,0,0-.8,2.91c0,1-.4,2.15.55,2.17,0.67,0,7.26,1,8.24,1.16a1.82,1.82,0,0,0,2.41.81,2.29,2.29,0,0,0,.68-0.76,1,1,0,0,0,.21-0.27l0.36-.29c0.49-.39,3.48-1,6.48-1.82,0.85-.23,3-0.31,3.34-1.24S595.34,376.79,594.86,376Z" transform="translate(-313.75 -120)"/><path class="cls-14" d="M580.91,372.32c0-.46-0.69-1.8-1.13-1.72-2.72.47-3.85,2.12-4.58,4.63-0.13.44,5.56,4.26,7.57,6.08,0.51,0.47,1.9-.65,1.55-1A14.9,14.9,0,0,1,580.91,372.32Z" transform="translate(-313.75 -120)"/><path class="cls-10" d="M593.05,375.56c1.91-1.51-.73-3.54-2.4-4.65-0.29-.19-4,3.54-5.66,9.16-0.18.62,1.39,0.61,1.4,0.6C589.62,377.62,590.88,377.27,593.05,375.56Z" transform="translate(-313.75 -120)"/><path class="cls-7" d="M590.31,379.19c-1,.33-2.08.56-3.09,1a5.05,5.05,0,0,0-.65.32,10.51,10.51,0,0,0,1.72-2.32,0.31,0.31,0,0,0-.44-0.42c-0.16.13-.32,0.26-0.46,0.4a4.26,4.26,0,0,0,.16-0.42c0.07-.22-0.16-0.62-0.4-0.39l-0.3.31v0a0.3,0.3,0,0,0-.54-0.26,23.54,23.54,0,0,0-1.37,2.4c0-1,.09-2,0.05-3.07a0.23,0.23,0,0,0-.47,0,11.22,11.22,0,0,0-.2,1.28,9.68,9.68,0,0,0-.32-1.43c-0.09-.29-0.46-0.13-0.48.12a8.2,8.2,0,0,0,.36,2.74c-0.53-.61-1.08-1.19-1.57-1.83a4,4,0,0,0-.28-0.37c-0.17-.19-0.47.14-0.34,0.33l0.29,0.38a8.56,8.56,0,0,1,.79,1.65,9.37,9.37,0,0,1-1.13-1.52c-0.15-.26-0.49,0-0.37.28s0.29,0.54.45,0.8c-0.46-.44-0.9-0.89-1.4-1.28a0.26,0.26,0,0,0-.39.31,8,8,0,0,0,1.32,2.09,0.26,0.26,0,0,0-.08.24,4.74,4.74,0,0,0-.74-0.35c-0.27-.1-0.37.13-0.35,0.34-0.35-.25-0.69-0.51-1-0.77-0.15-.12-0.32.11-0.28,0.25a2.87,2.87,0,0,0,.1.28l-0.66-.32c-0.19-.08-0.35.22-0.24,0.36a6.45,6.45,0,0,0,2,1.55,11.21,11.21,0,0,0-2.37.24c-0.16,0-.36.33-0.14,0.42A7.34,7.34,0,0,0,580,383a7.78,7.78,0,0,0,2.45,1.08,7.56,7.56,0,0,0,2.83-.21l0.6-.08H586a0.24,0.24,0,0,0,.16-0.1,2.88,2.88,0,0,0,2-1.37,0.24,0.24,0,0,0,0-.06,8.36,8.36,0,0,0,1.55-.38h0l0.06,0a0.29,0.29,0,0,0-.14-0.54c-0.48,0-.94.14-1.41,0.22l-0.08-.06,0.37-.15,0.54-.2c0.25-.1.2-0.54,0-0.52l1.51-.73h0l0.07,0C590.88,379.64,590.63,379.09,590.31,379.19Z" transform="translate(-313.75 -120)"/><path class="cls-5" d="M585.74,386.92a5.13,5.13,0,0,1,1.65-2.78,0.81,0.81,0,0,0,.28-1,4.76,4.76,0,0,0-.47-0.72,2.49,2.49,0,0,0-1.68-2.12,3.16,3.16,0,0,0-1.17-.29c-2-.12-3,1.65-3.3,3.37a0.74,0.74,0,0,0,0,.4c-0.08.43,0.37,0.44,0.83,0.72a12.49,12.49,0,0,1,2.77,2.53C585,387.35,585.63,387.47,585.74,386.92Z" transform="translate(-313.75 -120)"/><path class="cls-11" d="M335.16,409.49a2.5,2.5,0,0,0,1.4,1.06,2.18,2.18,0,0,0,.61,2.42c0.54,0.57,1.45,1,2.06.42a0.94,0.94,0,0,0,.39.52,3.42,3.42,0,0,0,2.49.48,1,1,0,0,0,.76-0.66,0.91,0.91,0,0,0,0-.12,2.24,2.24,0,0,0,2.32.31,2.09,2.09,0,0,0,1.13-.84,3.12,3.12,0,0,0,.32-1.37,2.65,2.65,0,0,0,1.19-.63,3.22,3.22,0,0,0,.71-1.76c0.15-1.12-.08-2.53-1.16-2.85a3.9,3.9,0,0,0-.59-3.31,2.28,2.28,0,0,0-1.21-.83,2.17,2.17,0,0,0-1.52.21,2.8,2.8,0,0,0-2.3-1.67,1.82,1.82,0,0,0-2.28,1.24c0,0.05,0,.1,0,0.16-0.92-.56-2.11.13-2.85,0.8a2.38,2.38,0,0,0-.78,1.36,2.3,2.3,0,0,0,.28,1.4,0.89,0.89,0,0,0-.77.47,3.77,3.77,0,0,0-.59,1.46A2.46,2.46,0,0,0,335.16,409.49Z" transform="translate(-313.75 -120)"/><path class="cls-12" d="M337.11,409.42a6.51,6.51,0,0,0,1.53-.1c0.57,0,1.14-.08,1.71-0.07-0.42.58-1,1-1.42,1.6-0.08.13,0.08,0.31,0.19,0.19a6,6,0,0,1,1.9-1.49c-0.09.51-.3,1-0.38,1.5a16.89,16.89,0,0,0-.16,1.93h0v0c0,0.14.24,0.19,0.25,0a10.47,10.47,0,0,1,.6-2.26c0.18-.55.34-1.11,0.49-1.67,0.09,0.33.15,0.66,0.24,1a8.48,8.48,0,0,0,.6,1.4,0.12,0.12,0,0,0,.23-0.07c0-.9-0.46-1.78-0.45-2.68,0.6,0.63,1.08,1.37,1.71,2a0.12,0.12,0,0,0,.2-0.13,7.38,7.38,0,0,0-.7-1.61l-0.27-.51c0.45,0.2.92,0.35,1.38,0.54l0.63,0.31a0.13,0.13,0,0,0,.1-0.23,5,5,0,0,0-.61-0.3c-0.5-.26-1-0.55-1.48-0.83,0.79,0.09,1.59,0,2.38.2a0.13,0.13,0,0,0,.07-0.24,6.89,6.89,0,0,0-2.18-.61l0.51-.22c0.59-.27,1.21-0.48,1.8-0.75,0.13-.06,0-0.3-0.12-0.24a15.62,15.62,0,0,1-2.77,1,7.16,7.16,0,0,1,.82-1,14,14,0,0,0,.87-1.29c0.09-.13-0.08-0.31-0.19-0.19-0.71.74-1.54,1.36-2.24,2.09a15.58,15.58,0,0,0,1.11-3.27c0-.13-0.19-0.25-0.24-0.1-0.23.67-.53,1.32-0.82,2-0.18.4-.32,0.81-0.46,1.21,0-.31-0.08-0.61-0.11-0.92-0.06-.63,0-1.27,0-1.9a0.13,0.13,0,0,0-.24-0.07,5,5,0,0,0-.47,2,7.87,7.87,0,0,0-.07,1,13,13,0,0,0-1.65-2.08,0.12,0.12,0,0,0-.2.09,5.83,5.83,0,0,0,1.07,2.24,16.66,16.66,0,0,0-2.51-.95,0.13,0.13,0,0,0-.07.24c0.91,0.49,1.74,1.11,2.61,1.67a5.8,5.8,0,0,1-2.43-.26c-0.15,0-.2.18-0.07,0.24a12,12,0,0,0,2.23.78c-0.58.1-.73,0.2-1.32,0.26a3.66,3.66,0,0,0-1.63.38A0.14,0.14,0,0,0,337.11,409.42Z" transform="translate(-313.75 -120)"/><path class="cls-12" d="M339.59,407.74a1.1,1.1,0,0,0,.25.74,0.75,0.75,0,0,0,.7.23h0v0a0,0,0,0,1,0,.06,0.74,0.74,0,0,0,.39.79,0.86,0.86,0,0,0,.88,0,0.38,0.38,0,0,0,.16-0.29,0.87,0.87,0,0,0,.41.24,0.8,0.8,0,0,0,.59-0.12,1.18,1.18,0,0,0,.48-0.56,0.7,0.7,0,0,0-.09-0.71,0.78,0.78,0,0,0,.45-0.82,0.87,0.87,0,0,0-.06-0.29,0.72,0.72,0,0,0-.18-0.24,1,1,0,0,0-.66-0.28,1.39,1.39,0,0,0-.32,0,1.27,1.27,0,0,0-.28-0.51,1.1,1.1,0,0,0-.7-0.37,0.83,0.83,0,0,0-.84.7,0.77,0.77,0,0,0,.06.45A1.15,1.15,0,0,0,339.59,407.74Z" transform="translate(-313.75 -120)"/><path class="cls-13" d="M342.14,408.89a0.07,0.07,0,0,0,.1,0,0.86,0.86,0,0,0-.3-0.82h0a0.07,0.07,0,0,0-.11,0A0.78,0.78,0,0,0,342.14,408.89Z" transform="translate(-313.75 -120)"/><path class="cls-13" d="M341.19,408.65a0.72,0.72,0,0,0,.51-0.65,0.08,0.08,0,0,0,0-.07,0.07,0.07,0,0,0-.09-0.06,0.83,0.83,0,0,0-.49.69A0.08,0.08,0,0,0,341.19,408.65Z" transform="translate(-313.75 -120)"/><path class="cls-13" d="M340.77,407.38c0,0.42.49,0.36,0.8,0.36a0.07,0.07,0,0,0,.06-0.09,0.08,0.08,0,0,0,0-.09c-0.13-.07-0.25-0.17-0.38-0.23a0.64,0.64,0,0,0-.4,0A0.07,0.07,0,0,0,340.77,407.38Z" transform="translate(-313.75 -120)"/><path class="cls-13" d="M341.8,407.59c0,0.06.11,0.1,0.13,0a0.71,0.71,0,0,0-.12-0.84,0.07,0.07,0,0,0-.11,0A0.77,0.77,0,0,0,341.8,407.59Z" transform="translate(-313.75 -120)"/><path class="cls-13" d="M342,407.93a0.79,0.79,0,0,0,.91-0.15,0.08,0.08,0,0,0,0-.13c-0.27-.12-0.92-0.24-0.95.21A0.06,0.06,0,0,0,342,407.93Z" transform="translate(-313.75 -120)"/><path class="cls-13" d="M342.21,408.23a0.81,0.81,0,0,0,.27.34,1.12,1.12,0,0,0,.45.09,0.07,0.07,0,0,0,.06-0.09,0.82,0.82,0,0,0-.21-0.37,0.73,0.73,0,0,0-.46-0.06h0A0.07,0.07,0,0,0,342.21,408.23Z" transform="translate(-313.75 -120)"/><path class="cls-13" d="M341.66,408.24c0,0.08.13,0.13,0.16,0A3.47,3.47,0,0,0,342,408a0.56,0.56,0,0,0,0-.38v0a0.2,0.2,0,0,1,0-.07c0-.06-0.1-0.14-0.15-0.06a1.28,1.28,0,0,0-.23.38A1.13,1.13,0,0,0,341.66,408.24Z" transform="translate(-313.75 -120)"/><path class="cls-13" d="M340.45,408.05a0.72,0.72,0,0,0,.75,0h0a0.07,0.07,0,0,0,.06-0.13,1.48,1.48,0,0,0-.47-0.2,0.49,0.49,0,0,0-.37.23A0.08,0.08,0,0,0,340.45,408.05Z" transform="translate(-313.75 -120)"/><path class="cls-13" d="M341.47,407.33a0.06,0.06,0,0,0,.08-0.08,0.08,0.08,0,0,0,0-.05,4.09,4.09,0,0,0-.09-0.41,0.68,0.68,0,0,0-.34-0.18,0.07,0.07,0,0,0-.1,0A0.57,0.57,0,0,0,341.47,407.33Z" transform="translate(-313.75 -120)"/><path class="cls-13" d="M342.22,407.47a0.69,0.69,0,0,0,.51-0.57,0.52,0.52,0,0,0-.38,0,0.42,0.42,0,0,0-.14.16c0,0.09,0,.19-0.09.27A0.07,0.07,0,0,0,342.22,407.47Z" transform="translate(-313.75 -120)"/><path class="cls-14" d="M559,417.63a2.43,2.43,0,0,0,.3,2.54,1.91,1.91,0,0,0,1.88.26l0,0a3.44,3.44,0,0,1,.47.77,4.75,4.75,0,0,0,.54.69,1.92,1.92,0,0,0,1.44.65c1.36,0,1.86-1.61,1.95-2.7,0.07-.84.12-1.66,0.26-2.49a5.9,5.9,0,0,0,0-2.2c-0.29-1.41-2.12-1.59-3.14-1a0.41,0.41,0,0,0-.18.3A4.88,4.88,0,0,0,559,417.63Z" transform="translate(-313.75 -120)"/><path class="cls-14" d="M556.22,410.1a5.75,5.75,0,0,1-.23,2.35,2.35,2.35,0,0,0,0,1.3,1.45,1.45,0,0,0,1.16.91,6,6,0,0,0,5.56-.92c0.91-.17,1.85-0.84,1.47-1.89s-1.75-2-2.64-2.66a6.49,6.49,0,0,0-3.45-1.65C556.67,407.46,556,408.83,556.22,410.1Z" transform="translate(-313.75 -120)"/><path class="cls-14" d="M567.2,414.21a0.36,0.36,0,0,0-.08.19v0.07a0.42,0.42,0,0,0,.18.38,8.43,8.43,0,0,0,.1,4.45,3.3,3.3,0,0,0,1.35,2.21c0.93,0.52,2.05-.26,2.53-1,0.37-.59.44-1.31,0.81-1.91s1.27-.72,1.78-1.13a2.4,2.4,0,0,0,.7-2.87c-0.75-1.63-3.34-2.26-5.26-1.87a0.4,0.4,0,0,0-.45-0.16A2.62,2.62,0,0,0,567.2,414.21Z" transform="translate(-313.75 -120)"/><path class="cls-14" d="M567.44,408.63a5.06,5.06,0,0,0-.08,3.71,0.52,0.52,0,0,0,.86.08,11.61,11.61,0,0,0,4.35-.91,2.25,2.25,0,0,0,1.43-1.26,1.37,1.37,0,0,0-.08-0.93,1.85,1.85,0,0,0-.38-0.55c-0.32-.35-1-0.37-1.18-0.84a0.83,0.83,0,0,1-.07-0.28,0.43,0.43,0,0,0,0-.16c0-.21,0-0.43,0-0.61a3.74,3.74,0,0,0-.17-1,1.71,1.71,0,0,0-.82-1c-0.87-.46-1.81.19-2.38,0.81A8.48,8.48,0,0,0,567.44,408.63Z" transform="translate(-313.75 -120)"/><path class="cls-14" d="M562.17,408.42c0.69,0.79,1.2,2,2.13,2.53a1.35,1.35,0,0,0,1.45,0,0.15,0.15,0,0,0,.15-0.11v0a1.15,1.15,0,0,0,.31-1c0.42-1.12,1-2.16,1.34-3.34s0.35-3.28-1-3.7a1.51,1.51,0,0,0-1.44.2c-0.54.41-.69,0.79-1.4,0.42s-1.61-1-2.45-.53C558.89,404.27,560.94,407,562.17,408.42Z" transform="translate(-313.75 -120)"/><path class="cls-7" d="M561.66,415.41a0.3,0.3,0,0,0,.29.48l0.51-.14-0.1.11a0.29,0.29,0,0,0,.32.46l0.1-.05c-0.17.23-.35,0.45-0.5,0.69a0.28,0.28,0,0,0,.32.42,5.36,5.36,0,0,0,1.49-.92,16.85,16.85,0,0,1-.77,2c-0.08.2,0.17,0.54,0.39,0.39a3.41,3.41,0,0,0,.88-1.06,0.31,0.31,0,0,0,.21.27c1.39,0.31,1.32-2.39.83-3.39a1.39,1.39,0,0,0-.7-0.89C563.57,413,562.36,414.49,561.66,415.41Z" transform="translate(-313.75 -120)"/><path class="cls-7" d="M562.73,407.43c-0.17-.22-0.58-0.27-0.63.07A3.81,3.81,0,0,0,563,410a5.19,5.19,0,0,0-1.51-1c-0.25-.1-0.62.09-0.47,0.41a3.4,3.4,0,0,0,.41.62c-0.53-.14-1-0.11-1.12.36a0.85,0.85,0,0,0,.69.88,3.4,3.4,0,0,0-.49.21,0.35,0.35,0,0,0,.1.61h0a3.93,3.93,0,0,0-.36.29,0.34,0.34,0,0,0,.15.58,4.33,4.33,0,0,0,.59.06,3.65,3.65,0,0,0-.51.31,0.35,0.35,0,0,0,.29.58l0.58-.19a0.4,0.4,0,0,0,.2.22,0.31,0.31,0,0,0,.43.29,6.49,6.49,0,0,0,.77-0.43h0l0,0c0.91-.24,1.87-0.66,1.51-1.79a4.31,4.31,0,0,0-.67-1.26,2.93,2.93,0,0,0,.61.43,1,1,0,0,0,.68.1,0.87,0.87,0,0,0,.65-0.21c1-.8,1.39-2.39,1.71-3.59,0.1-.38-0.46-0.56-0.68-0.32l-0.26.27c0.08-.41.15-0.82,0.18-1.23s-0.54-.62-0.68-0.23l-0.07.2a1.66,1.66,0,0,0-.3-0.43,0.34,0.34,0,0,0-.54.09,4.55,4.55,0,0,0-.11,1.35,8.23,8.23,0,0,0-.61-1.14,0.34,0.34,0,0,0-.61.31,6.74,6.74,0,0,1,.39,1.93l-0.22-.28a0.34,0.34,0,0,0-.57.07h0C563,407.87,562.9,407.64,562.73,407.43Z" transform="translate(-313.75 -120)"/><path class="cls-7" d="M567.77,408.49a0.25,0.25,0,0,0-.3.15c-0.39.9-1.37,2.83-.59,3.78,0,0.7,1.08.71,1.66,0.61,1.33-.22,3.14-0.67,4-1.74a0.37,0.37,0,0,0-.12-0.55,2.05,2.05,0,0,0-1.54-.09c-0.42.08-.83,0.17-1.24,0.27a1.88,1.88,0,0,0,.52-0.89,0.36,0.36,0,0,0-.4-0.42,1.73,1.73,0,0,0-.32.11,4.31,4.31,0,0,0,.34-0.8,0.35,0.35,0,0,0-.37-0.42c0.29-.85.45-1.79-0.38-1.86C568.38,406.55,568,407.57,567.77,408.49Zm0.71,0.5a3.68,3.68,0,0,1-.17.34l0.13-.42Z" transform="translate(-313.75 -120)"/><path class="cls-7" d="M567.1,414.23a2.26,2.26,0,0,0-.18,1,6.66,6.66,0,0,0,.47,3.79,0.32,0.32,0,0,0,.41.17c1.23-.59.45-2.34,0.52-3.55,0.31,0.68.61,1.36,0.94,2a0.3,0.3,0,0,0,.52.09,1.94,1.94,0,0,0,0-1.83l0.35,0a0.3,0.3,0,0,0,.22-0.47,3.23,3.23,0,0,0-.45-0.47,2.29,2.29,0,0,0,1.06-.22,0.3,0.3,0,0,0,.15-0.35,2.69,2.69,0,0,0,1-.25,0.33,0.33,0,0,0,0-.55,1.63,1.63,0,0,0-1.26-.37,0.33,0.33,0,0,0-.25-0.41l-0.18,0a0.29,0.29,0,0,0-.22-0.12C568.9,412.68,567.71,412.89,567.1,414.23Z" transform="translate(-313.75 -120)"/><path class="cls-13" d="M563.43,412.32l-0.06,0-0.28.05c-0.2,0-.11.36,0.06,0.38a3.93,3.93,0,0,0,.83,0,3.82,3.82,0,0,0-.33.33,3.12,3.12,0,0,0-.44.23c-0.19.12,0,.36,0.18,0.36a2.34,2.34,0,0,0,.62-0.1,5.79,5.79,0,0,0-.52.27l0,0h0s0,0,0,0c-0.21.12,0.06,0.39,0.25,0.33a3.42,3.42,0,0,0,.38-0.16l-0.09.15a0.17,0.17,0,0,0,.08.24l-0.17.15c-0.19.16,0.08,0.48,0.26,0.33l0.38-.32a0.2,0.2,0,0,0,.32.08l0.24-.28-0.15.41a3.36,3.36,0,0,0-.21.4,0.2,0.2,0,0,0,.33.22l0.11-.18c0,0.13.23,0.23,0.3,0.07s0.09-.21.13-0.32l0,0.23a2.46,2.46,0,0,0-.08.64c0,0.2.3,0.26,0.34,0.05s0.06-.36.08-0.54a0.14,0.14,0,0,0,.22-0.09v0a0.23,0.23,0,0,0,.35.13c0,0.18.05,0.35,0.09,0.53s0.27,0.2.28,0,0-.33,0-0.49a0.21,0.21,0,0,0,.1-0.05s-0.39,0-.38,0c0.06,0.21,0,.26,0,0h0c0.74,0.1.77,0,.74-0.23s0.16-.2.14-0.29c0.06,0.09.23,0.18,0.3,0.26s0.58,0.11.46-.15a4,4,0,0,0-.24-0.52l0.16,0.13a0.22,0.22,0,1,0,.32-0.3l-0.41-.47,0.59,0.25a0.21,0.21,0,0,0,.22-0.35l-0.22-.16a0.21,0.21,0,0,0,0-.32l-0.28-.13a0.18,0.18,0,0,0,0-.24l0.43-.11a0.21,0.21,0,0,0-.05-0.4,2.09,2.09,0,0,0-.48,0l0.11,0c0.23-.1,0-0.41-0.17-0.38a3.22,3.22,0,0,0-.59.15,6.19,6.19,0,0,0,.85-0.77c0.15-.17-0.13-0.41-0.3-0.29l-0.3.23a0.17,0.17,0,0,0-.15,0l-0.39.19,0.06-.14a6,6,0,0,0,.49-0.7c0.11-.19-0.19-0.37-0.33-0.23a1.9,1.9,0,0,0-.32.39,0.2,0.2,0,0,0-.3.06c0-.22,0-0.43,0-0.62s-0.34-.34-0.39-0.09l-0.06.32a0.17,0.17,0,0,0-.21.06c0-.21-0.06-0.41-0.1-0.62s-0.41-.25-0.39,0,0.07,0.58.11,0.88l0,0-0.09-.37c0-.21-0.09-0.42-0.14-0.63s-0.4-.29-0.4,0a0.1,0.1,0,0,1,0,0h0v0a9.68,9.68,0,0,0,.1,1s0,0,0,.07c-0.26-.37-0.52-0.74-0.79-1.1-0.14-.18-0.45,0-0.33.19l0.15,0.26a0.17,0.17,0,0,0,0,.21h0a0.17,0.17,0,0,0,0,.25l0.19,0.24a2.82,2.82,0,0,0-.43-0.17,8.05,8.05,0,0,0-.76-0.3c-0.22-.07-0.26.22-0.14,0.34a5.14,5.14,0,0,0,1.08.8q-0.59-.15-1.17-0.35c-0.22-.08-0.3.27-0.1,0.36l0.36,0.14a0.19,0.19,0,0,0,.13.29h0v0.16h0.08c0.09,0,.19-0.08.28-0.08A2.64,2.64,0,0,0,563.43,412.32Z" transform="translate(-313.75 -120)"/><path class="cls-14" d="M565.61,427.8a2.34,2.34,0,0,0-2.38.84,2,2,0,0,0,.15,1.92,0.28,0.28,0,0,0,0,0,3.4,3.4,0,0,1-.64.63,4.75,4.75,0,0,0-.54.69,2,2,0,0,0-.32,1.57c0.29,1.35,1.95,1.5,3,1.35,0.82-.12,1.62-0.23,2.45-0.28a5.65,5.65,0,0,0,2.13-.43c1.29-.59,1.07-2.44.27-3.32a0.4,0.4,0,0,0-.33-0.12A4.87,4.87,0,0,0,565.61,427.8Z" transform="translate(-313.75 -120)"/><path class="cls-14" d="M572.26,423.46a5.5,5.5,0,0,1-2.31.27,2.25,2.25,0,0,0-1.24.32,1.48,1.48,0,0,0-.63,1.35,6.22,6.22,0,0,0,2.08,5.31c0.36,0.87,1.2,1.65,2.13,1s1.52-2.16,2-3.19a6.72,6.72,0,0,0,.85-3.78A2,2,0,0,0,572.26,423.46Z" transform="translate(-313.75 -120)"/><path class="cls-14" d="M570.66,435.22a0.34,0.34,0,0,0-.2,0H570.4a0.41,0.41,0,0,0-.33.26,8.09,8.09,0,0,0-4.26,1.06,3.27,3.27,0,0,0-1.83,1.81c-0.3,1,.69,2,1.53,2.29,0.65,0.23,1.36.15,2,.39s1,1.1,1.48,1.53a2.31,2.31,0,0,0,2.91.08c1.4-1.1,1.46-3.8.67-5.62a0.41,0.41,0,0,0,.05-0.48A2.6,2.6,0,0,0,570.66,435.22Z" transform="translate(-313.75 -120)"/><path class="cls-14" d="M576.3,434.5a5.39,5.39,0,0,0-4,.82,0.6,0.6,0,0,0,.11,1,13.34,13.34,0,0,0,2,4.58,2.47,2.47,0,0,0,1.69,1.27,1.46,1.46,0,0,0,1-.31,2.06,2.06,0,0,0,.5-0.55c0.3-.44.17-1.15,0.62-1.51a0.89,0.89,0,0,1,.29-0.14,0.46,0.46,0,0,0,.17,0c0.22,0,.46-0.06.66-0.11a4,4,0,0,0,1.05-.44,1.92,1.92,0,0,0,.92-1.16c0.29-1.08-.63-2-1.42-2.44A9,9,0,0,0,576.3,434.5Z" transform="translate(-313.75 -120)"/><path class="cls-14" d="M575.16,429c-0.61.86-1.67,1.62-2,2.65a1.41,1.41,0,0,0,.33,1.43,0.15,0.15,0,0,0,.14.12h0a1.11,1.11,0,0,0,1,.09,35.19,35.19,0,0,0,3.5.61c1.05,0.05,3.23-.36,3.35-1.79a1.57,1.57,0,0,0-.5-1.39c-0.51-.45-0.91-0.52-0.71-1.3s0.65-1.82,0-2.55C578.44,424.85,576.23,427.47,575.16,429Z" transform="translate(-313.75 -120)"/><path class="cls-7" d="M568.32,430a0.3,0.3,0,0,0-.4.39c0.08,0.15.17,0.31,0.25,0.47l-0.12-.08a0.29,0.29,0,0,0-.37.42l0.07,0.09c-0.25-.12-0.51-0.25-0.77-0.35a0.28,0.28,0,0,0-.33.41,5.42,5.42,0,0,0,1.21,1.28,16.22,16.22,0,0,1-2.08-.33c-0.21,0-.49.29-0.29,0.47a3.36,3.36,0,0,0,1.21.65,0.31,0.31,0,0,0-.21.27c0,1.45,2.59.8,3.44,0.09a1.39,1.39,0,0,0,.71-0.88C571,431.37,569.36,430.48,568.32,430Z" transform="translate(-313.75 -120)"/><path class="cls-7" d="M576.23,429.33c0.17-.21.14-0.63-0.21-0.61a3.72,3.72,0,0,0-2.24,1.44,5.33,5.33,0,0,0,.62-1.71c0-.27-0.22-0.6-0.49-0.37a3.36,3.36,0,0,0-.51.54c0-.56-0.11-1-0.59-1a0.85,0.85,0,0,0-.7.88,3.49,3.49,0,0,0-.31-0.45,0.34,0.34,0,0,0-.56.23s0,0,0,0a3.94,3.94,0,0,0-.36-0.29,0.33,0.33,0,0,0-.52.27,4.56,4.56,0,0,0,.07.59,3.69,3.69,0,0,0-.4-0.44,0.34,0.34,0,0,0-.49.41l0.31,0.53a0.4,0.4,0,0,0-.17.24,0.31,0.31,0,0,0-.18.49,6.59,6.59,0,0,0,.58.67h0l0,0c0.43,0.85,1,1.71,2,1.11a4.24,4.24,0,0,0,1.06-.93,3,3,0,0,0-.28.69,1,1,0,0,0,0,.7,0.9,0.9,0,0,0,.34.6c1,0.82,2.59.86,3.82,0.92,0.39,0,.44-0.58.16-0.75l-0.32-.2c0.41,0,.82,0,1.23-0.08s0.48-.67.07-0.73l-0.21,0a1.65,1.65,0,0,0,.35-0.39,0.35,0.35,0,0,0-.2-0.52,4.36,4.36,0,0,0-1.33.18,8.1,8.1,0,0,0,1-.85,0.34,0.34,0,0,0-.42-0.54,6.5,6.5,0,0,1-1.78.8l0.22-.28a0.35,0.35,0,0,0-.19-0.55v0C575.87,429.74,576.06,429.55,576.23,429.33Z" transform="translate(-313.75 -120)"/><path class="cls-7" d="M576.29,434.56a0.25,0.25,0,0,0-.21-0.27c-1-.2-3-0.75-3.76.23-0.67.16-.45,1.22-0.23,1.78,0.5,1.27,1.32,3,2.54,3.6a0.36,0.36,0,0,0,.51-0.24,2.14,2.14,0,0,0-.25-1.54c-0.16-.4-0.34-0.79-0.53-1.17a1.83,1.83,0,0,0,1,.32,0.36,0.36,0,0,0,.32-0.49,1.79,1.79,0,0,0-.17-0.3,4.16,4.16,0,0,0,.84.16,0.35,0.35,0,0,0,.33-0.45c0.87,0.1,1.81.06,1.71-.78C578.29,434.75,577.23,434.62,576.29,434.56Zm-0.33.81-0.36-.1,0.43,0Z" transform="translate(-313.75 -120)"/><path class="cls-7" d="M570.63,435.13a2.16,2.16,0,0,0-1,0,6.41,6.41,0,0,0-3.55,1.29,0.33,0.33,0,0,0-.07.45c0.83,1.1,2.35-.06,3.53-0.25-0.58.45-1.17,0.9-1.74,1.37a0.31,0.31,0,0,0,0,.53,1.87,1.87,0,0,0,1.76-.38,2.68,2.68,0,0,0,0,.36,0.29,0.29,0,0,0,.5.12,3.25,3.25,0,0,0,.36-0.55,2.37,2.37,0,0,0,.44,1,0.29,0.29,0,0,0,.37.08,2.79,2.79,0,0,0,.45.93,0.32,0.32,0,0,0,.54-0.07,1.7,1.7,0,0,0,.08-1.33,0.32,0.32,0,0,0,.34-0.34c0-.06,0-0.13,0-0.19a0.3,0.3,0,0,0,.07-0.24C572.51,436.58,572.05,435.44,570.63,435.13Z" transform="translate(-313.75 -120)"/><path class="cls-13" d="M571.67,431.08l-0.06,0-0.11-.26c-0.08-.19-0.37,0-0.35.14a4.1,4.1,0,0,0,.2.82,3.81,3.81,0,0,0-.39-0.26,3.18,3.18,0,0,0-.32-0.39c-0.16-.16-0.34.1-0.31,0.26a2.43,2.43,0,0,0,.23.59,5,5,0,0,0-.24-0.45l0.1,0h0a1,1,0,0,1-.13,0c-0.16-.18-0.43.15-0.33,0.32a3.26,3.26,0,0,0,.21.35l-0.18-.05a0.17,0.17,0,0,0-.22.13l-0.18-.13a0.21,0.21,0,0,0-.26.33l0.39,0.31a0.21,0.21,0,0,0,0,.34l0.32,0.17-0.43-.06a3.23,3.23,0,0,0-.43-0.12,0.2,0.2,0,0,0-.14.38l0.2,0.07c-0.12.07-.17,0.28,0,0.32l0.34,0.06-0.22,0a2.36,2.36,0,0,0-.63.06c-0.19,0-.19.36,0,0.35l0.54,0a0.14,0.14,0,0,0,.13.2h0a0.24,0.24,0,0,0-.05.37l-0.49.2c-0.15.07-.13,0.31,0.05,0.28l0.47-.1a0.21,0.21,0,0,0,.07.09s0-.08-0.06-0.08c-0.19.11-.18,0.4,0.08,0.34h0c0,0.4.13,0.46,0.31,0.39s0.19,0,.28-0.07c-0.07.08-.14,0.19-0.21,0.28s0,0.56.24,0.39a4,4,0,0,0,.44-0.37l-0.09.18a0.22,0.22,0,1,0,.36.25l0.36-.51c0,0.21-.08.42-0.12,0.64a0.21,0.21,0,0,0,.38.14l0.11-.25a0.21,0.21,0,0,0,.3-0.1,2,2,0,0,0,.07-0.31,0.18,0.18,0,0,0,.24,0c0.06,0.14.13,0.27,0.2,0.4a0.2,0.2,0,0,0,.37-0.14,2.19,2.19,0,0,0-.06-0.49l0.06,0.1c0.14,0.21.4-.05,0.33-0.25a3.34,3.34,0,0,0-.28-0.55,6.17,6.17,0,0,0,.92.67c0.19,0.11.36-.22,0.22-0.36l-0.29-.25a0.18,0.18,0,0,0,0-.15l-0.26-.35,0.15,0a5.87,5.87,0,0,0,.78.33c0.21,0.07.31-.26,0.15-0.38a1.87,1.87,0,0,0-.45-0.23,0.2,0.2,0,0,0-.13-0.29l0.6-.11c0.23,0,.26-0.41,0-0.41h-0.32a0.18,0.18,0,0,0-.11-0.19c0.19-.07.39-0.14,0.57-0.23s0.15-.46-0.1-0.38-0.54.19-.82,0.29h0l0.34-.16,0.58-.27c0.18-.09.19-0.46,0-0.4h0v0h0a9.3,9.3,0,0,0-.95.31h-0.07c0.3-.33.6-0.68,0.89-1,0.14-.17-0.07-0.45-0.25-0.29l-0.22.2a0.16,0.16,0,0,0-.21,0h0a0.16,0.16,0,0,0-.25,0l-0.2.24a2.93,2.93,0,0,0,.07-0.46c0.06-.27.1-0.54,0.13-0.82s-0.26-.21-0.35-0.06a5.25,5.25,0,0,0-.54,1.25q0-.62.09-1.24c0-.23-0.33-0.24-0.37,0s0,0.26-.06.39a0.19,0.19,0,0,0-.25.19s0,0,0,0l-0.15,0,0,0.08c0,0.09.11,0.17,0.14,0.26A2.74,2.74,0,0,0,571.67,431.08Z" transform="translate(-313.75 -120)"/><path class="cls-9" d="M336.28,361.83h0a0.47,0.47,0,0,0-.3-0.13,0.22,0.22,0,0,0-.24.23,0.6,0.6,0,0,0,.12.29l0,0.05a7.57,7.57,0,0,0-.93,1.17,1.23,1.23,0,0,0-.45-0.37,2.54,2.54,0,0,0,0-1.48h0a0.75,0.75,0,0,0,.14-0.24,1.24,1.24,0,0,0,.1-0.13,0.25,0.25,0,0,0,.08-0.3,0.43,0.43,0,0,0-.28-0.22h-0.21a1,1,0,0,0-.22,0,0.18,0.18,0,0,0-.08.3l0.09,0.08a0.4,0.4,0,0,0,.3.16,3.2,3.2,0,0,1,0,1.57,0.86,0.86,0,0,0-.56-0.06,2.58,2.58,0,0,0-.55-1.7,0.43,0.43,0,0,0,0-.12,0.13,0.13,0,0,0,0-.07v0a0.46,0.46,0,0,0-.44-0.31,0.38,0.38,0,0,0-.27.1,0.22,0.22,0,0,0-.1.25s0,0,0,0a0.21,0.21,0,0,0,0,.09,0.46,0.46,0,0,0,.57.25,0.29,0.29,0,0,0,.1-0.08,3.2,3.2,0,0,1,.4,1.16,3.32,3.32,0,0,1,0,.47,6,6,0,0,0-2.36,1.79,6.71,6.71,0,0,0-1.2,2,0.54,0.54,0,0,0,0,.68,1.75,1.75,0,0,0,.51.32l0.46,0.22a12.93,12.93,0,0,0,2.74.93,1.69,1.69,0,0,0,.89,0c0.24-.05,1-2.6.59-4.41a4.35,4.35,0,0,1,1.49-.63,0.46,0.46,0,0,0,.51.36,0.22,0.22,0,0,0,.17-0.18,0.57,0.57,0,0,0,0-.22,0.24,0.24,0,0,0,0,0,0.25,0.25,0,0,0-.07-0.13l-0.05-.08a0.29,0.29,0,0,0-.09-0.07h0a0.15,0.15,0,0,0-.13,0,0.33,0.33,0,0,0-.27.16,0.3,0.3,0,0,0,0,.09,2.29,2.29,0,0,0-1.56.48,2.9,2.9,0,0,0-.18-0.47,11.8,11.8,0,0,1,.9-1.23,0.27,0.27,0,0,0,.11.06,0.22,0.22,0,0,0,.17,0h0.05a0.23,0.23,0,0,0,.18-0.29,0.54,0.54,0,0,0-.1-0.22Z" transform="translate(-313.75 -120)"/><path class="cls-5" d="M335.59,368.71a6.31,6.31,0,0,0-1.81-.67,5.59,5.59,0,0,0-1.54.68c0.38-.61,1-0.76,1.29-1.42a5.57,5.57,0,0,0-.15-1.67,5.58,5.58,0,0,0-1.36.68,5.49,5.49,0,0,0-.71,1.8,2.5,2.5,0,0,0-1.52-2.43s-0.56,1.46-.06,2.19a10.56,10.56,0,0,0,.79,1.47,2.1,2.1,0,0,1,.12,1.19,0.07,0.07,0,0,0,.12.06,1.6,1.6,0,0,1,1.38-.8c0.55-.07,1.26,0,1.81-0.11A6.45,6.45,0,0,0,335.59,368.71Z" transform="translate(-313.75 -120)"/><path class="cls-5" d="M331.16,374.52a1.55,1.55,0,0,1-.15-0.18,0.07,0.07,0,0,0-.1,0,1.67,1.67,0,0,1-.37-0.43,1.62,1.62,0,0,0,.27-0.12,5.13,5.13,0,0,0,.49-0.32,2.4,2.4,0,0,0,.43-0.37,0.27,0.27,0,0,0,.08-0.3c-0.16-.33-0.58,0-0.74.14a2.66,2.66,0,0,0-.37.39,1.34,1.34,0,0,0-.19.46h0a2.38,2.38,0,0,1-.23-1.18c0.58-.44,1.52-0.68,1.69-1.49a0.06,0.06,0,0,0,0-.07,0.78,0.78,0,0,0-.3,0,1.2,1.2,0,0,0-.8.44,3.66,3.66,0,0,0-.48.66,4.94,4.94,0,0,1,.2-0.78c0.11-.31.28-0.61,0.4-0.92a3.32,3.32,0,0,1,.67-0.48,0.07,0.07,0,0,0,0-.12,2.54,2.54,0,0,1-.86-0.41,0.06,0.06,0,0,0-.09.05v0a0.05,0.05,0,0,0,0,.07v0a0.23,0.23,0,0,0,0,.09,2.42,2.42,0,0,1,.13.7h0l-0.14.27a5.46,5.46,0,0,0-.26.61,1.53,1.53,0,0,0-.07-0.32,2.2,2.2,0,0,0-.34-0.69,0.43,0.43,0,0,0-.5-0.21,0.28,0.28,0,0,0-.13.35,1.71,1.71,0,0,0,.29.57,2.57,2.57,0,0,0,.43.49,0.42,0.42,0,0,0,.17.1h0a8.35,8.35,0,0,0-.15,1.53,1.28,1.28,0,0,0-.75-0.51c-0.15,0-.56-0.11-0.58.14a0.7,0.7,0,0,0,.55.51,4.08,4.08,0,0,0,.48.14c0.12,0,.25.07,0.37,0.09a1.89,1.89,0,0,0,.87,1.11A0.08,0.08,0,0,0,331.16,374.52Z" transform="translate(-313.75 -120)"/><path class="cls-9" d="M321.37,363.05h0a0.48,0.48,0,0,1,.26-0.19,0.22,0.22,0,0,1,.29.17,0.6,0.6,0,0,1-.05.31v0.06a7.5,7.5,0,0,1,1.15.95,1.79,1.79,0,0,1,.34-0.62,3.17,3.17,0,0,1-.34-1.61h0a0.26,0.26,0,0,1-.16,0l-0.11,0a0.2,0.2,0,0,1-.14-0.24,0.4,0.4,0,0,1,.23-0.26l0.11,0H323a1,1,0,0,1,.23,0,0.18,0.18,0,0,1,.14.28l-0.07.09a0.41,0.41,0,0,1-.26.22,3.19,3.19,0,0,0,.37,1.53,0.86,0.86,0,0,1,.53-0.18,2.59,2.59,0,0,1,.18-1.78,0.43,0.43,0,0,1-.06-0.11,0.13,0.13,0,0,1,0-.07v0a0.46,0.46,0,0,1,.36-0.4,0.37,0.37,0,0,1,.28,0,0.21,0.21,0,0,1,.15.23v0a0.21,0.21,0,0,1,0,.1,0.47,0.47,0,0,1-.5.37,0.29,0.29,0,0,1-.11-0.05,3.21,3.21,0,0,0-.15,1.22,3.32,3.32,0,0,0,.07.47,6,6,0,0,1,2.69,1.24,6.65,6.65,0,0,1,1.6,1.74,0.54,0.54,0,0,1,.13.67,1.77,1.77,0,0,1-.43.42l-0.41.31a13,13,0,0,1-2.49,1.5,1.7,1.7,0,0,1-.88.16c-0.25,0-1.48-2.34-1.5-4.19a4.33,4.33,0,0,0-1.58-.3,0.47,0.47,0,0,1-.43.47,0.22,0.22,0,0,1-.2-0.14,0.57,0.57,0,0,1,0-.22,0.25,0.25,0,0,1,0,0,0.26,0.26,0,0,1,0-.15,0.59,0.59,0,0,1,0-.1l0.06-.1h0a0.16,0.16,0,0,1,.13,0,0.34,0.34,0,0,1,.31.1l0.06,0.08a2.29,2.29,0,0,1,1.63.14,2.91,2.91,0,0,1,.08-0.5,11.68,11.68,0,0,0-1.14-1,0.28,0.28,0,0,1-.1.09,0.22,0.22,0,0,1-.17,0h-0.05a0.22,0.22,0,0,1-.23-0.25,0.55,0.55,0,0,1,.05-0.23Z" transform="translate(-313.75 -120)"/><path class="cls-5" d="M325.23,370.24c0.56,0,1.24-.23,1.8-0.28a1.59,1.59,0,0,1,1.51.49,0.07,0.07,0,0,0,.1-0.09,2.11,2.11,0,0,1-.13-1.19,10.63,10.63,0,0,0,.46-1.6c0.34-.82-0.51-2.13-0.51-2.13a2.52,2.52,0,0,0-1,2.7,5.44,5.44,0,0,0-1.08-1.61,5.55,5.55,0,0,0-1.47-.37,5.57,5.57,0,0,0,.2,1.66c0.44,0.58,1.06.59,1.56,1.11a5.56,5.56,0,0,0-1.65-.33,6.36,6.36,0,0,0-1.63,1A6.41,6.41,0,0,0,325.23,370.24Z" transform="translate(-313.75 -120)"/><path class="cls-5" d="M329.09,374.47a1.91,1.91,0,0,0,.61-1.27c0.12,0,.23-0.11.35-0.17a4.13,4.13,0,0,0,.44-0.24,0.71,0.71,0,0,0,.43-0.61c-0.07-.24-0.46-0.08-0.6,0a1.3,1.3,0,0,0-.62.66,8.32,8.32,0,0,0-.47-1.46h0a0.42,0.42,0,0,0,.14-0.13,2.59,2.59,0,0,0,.32-0.57,1.72,1.72,0,0,0,.17-0.62,0.27,0.27,0,0,0-.2-0.32,0.44,0.44,0,0,0-.44.31,2.21,2.21,0,0,0-.19.75,1.54,1.54,0,0,0,0,.33,5.41,5.41,0,0,0-.38-0.54l-0.19-.23h0a2.42,2.42,0,0,1,0-.71,0.23,0.23,0,0,0,0-.1v0a0.05,0.05,0,0,0,0-.06,0.18,0.18,0,0,0,0,0,0.06,0.06,0,0,0-.1,0,2.57,2.57,0,0,1-.75.58,0.07,0.07,0,0,0,0,.12,3.29,3.29,0,0,1,.76.33c0.18,0.28.41,0.53,0.58,0.81a4.9,4.9,0,0,1,.36.72,3.63,3.63,0,0,0-.61-0.54,1.2,1.2,0,0,0-.88-0.26,0.78,0.78,0,0,0-.3,0,0.06,0.06,0,0,0,0,.08c0.33,0.75,1.3.79,2,1.09a2.38,2.38,0,0,1,0,1.21h0a1.33,1.33,0,0,0-.28-0.41,2.64,2.64,0,0,0-.44-0.3c-0.19-.1-0.67-0.33-0.75,0a0.27,0.27,0,0,0,.14.28,2.38,2.38,0,0,0,.49.27,5.11,5.11,0,0,0,.55.2,1.61,1.61,0,0,0,.29.06,1.68,1.68,0,0,1-.27.5,0.07,0.07,0,0,0-.1,0,1.57,1.57,0,0,1-.11.2A0.08,0.08,0,0,0,329.09,374.47Z" transform="translate(-313.75 -120)"/><path class="cls-15" d="M424.19,137.09q3-.54,6.1-1l0.11,0.69a4.29,4.29,0,0,0-1.51,1.67,11.07,11.07,0,0,0-1,3q-1.34,7-2.49,13.92l-0.73.13q-3.72-6.4-7.66-12.7-1.18,7.33-2.14,14.64l-0.67.15q-3.92-6.25-8-12.4c-0.74-1.1-1.24-1.81-1.52-2.14a2,2,0,0,0-.91-0.66,2.53,2.53,0,0,0-1.36,0l-0.17-.67q3.94-1,7.9-1.86l0.15,0.68h-0.14l-0.18,0c-1.21.27-1.73,0.75-1.58,1.42a6.26,6.26,0,0,0,.82,1.64q2.87,4.36,5.64,8.78,0.74-5.26,1.58-10.54a7.08,7.08,0,0,0-.95-1.37,2.27,2.27,0,0,0-.81-0.59,1.54,1.54,0,0,0-.62-0.12q-0.24,0-1,.14l-0.14-.68q4.08-.87,8.18-1.64l0.13,0.68a5.89,5.89,0,0,0-1.49.49,0.73,0.73,0,0,0-.42.85,7.84,7.84,0,0,0,1.05,2.09q2.61,4.28,5.13,8.61,0.7-4.07,1.47-8.14,0.15-.72.22-1.39a4.38,4.38,0,0,0,0-1.19,2.15,2.15,0,0,0-.89-1.57,3.11,3.11,0,0,0-2-.32ZM406,144.22q4.22,6.27,8.21,12.65l0.09-.36a2.92,2.92,0,0,0,.06-0.39,1.28,1.28,0,0,0,0-.39,2.67,2.67,0,0,0-.43-0.94q-3.42-5.43-7-10.79a15.7,15.7,0,0,0-1.13-1.55,1.52,1.52,0,0,0-.8-0.51,2.22,2.22,0,0,0-1.11.13,2.28,2.28,0,0,1,1,.66A13.52,13.52,0,0,1,406,144.22Zm10.79-2.58q4.07,6.48,7.91,13.06a3,3,0,0,0,.15-1.26,3.56,3.56,0,0,0-.44-0.95q-3.37-5.73-6.9-11.37a10.67,10.67,0,0,0-.81-1.14,1.37,1.37,0,0,0-.68-0.41,2.71,2.71,0,0,0-1.17,0A5.31,5.31,0,0,1,416.83,141.64Zm11.83-4.6-2.68.45a2.26,2.26,0,0,1,1,.69,2.83,2.83,0,0,1,.48,1.11,6.77,6.77,0,0,1,.44-1.24A3.69,3.69,0,0,1,428.66,137Z" transform="translate(-313.75 -120)"/><path class="cls-15" d="M438.9,144l0.74,5.55a5.9,5.9,0,0,0,.33,1.41,1.28,1.28,0,0,0,.6.69,2.26,2.26,0,0,0,1.08.18c0.46,0,1.08-.07,1.86-0.17a7.44,7.44,0,0,0,2.51-.72,7.67,7.67,0,0,0,2-1.49,20.19,20.19,0,0,0,2-2.44l1-.1q-0.6,2.38-1.17,4.75-8,.79-15.86,2l-0.11-.69a7.67,7.67,0,0,0,1.72-.45,1.43,1.43,0,0,0,.77-0.69,2.12,2.12,0,0,0,.09-1.16l-1.79-12.44a2.59,2.59,0,0,0-.43-1.25,1.27,1.27,0,0,0-.91-0.42,11,11,0,0,0-2,.09l-0.11-.69q8-1.25,16.1-2.11,1,1.93,2.05,3.88l-1,.1a8.9,8.9,0,0,0-2.09-1.48,10,10,0,0,0-2.67-.92,9.38,9.38,0,0,0-3-.09,5.33,5.33,0,0,0-1.83.49,1.43,1.43,0,0,0-.74.8,2.8,2.8,0,0,0,0,1.19l0.73,5.49,2.67-.35c2.33-.29,3.39-1.44,3.19-3.47l0.94-.11,0.74,6.71-0.82.09a3.47,3.47,0,0,0-1.16-2.14,3.23,3.23,0,0,0-2.37-.43Zm-3.75-5.74,1.73,12.16a3.13,3.13,0,0,1,0,1.38,1.91,1.91,0,0,1-.56.81,1.53,1.53,0,0,0,1.31-.74,3.58,3.58,0,0,0,.08-1.77L436,137.87a1.9,1.9,0,0,0-.59-1.36,2.24,2.24,0,0,0-1.45-.17,1.52,1.52,0,0,1,.81.57A3.2,3.2,0,0,1,435.16,138.22ZM445,144l-0.28-2.48A3.14,3.14,0,0,1,443,143a4.16,4.16,0,0,1,1.21.32A2.23,2.23,0,0,1,445,144Zm1.16-9.4-2.46.28a9.08,9.08,0,0,1,1.89.55,18.65,18.65,0,0,1,1.78.88Zm2.33,16.42,0.67-2.3a8.08,8.08,0,0,1-1.27,1.36q-0.58.46-1.65,1.18Z" transform="translate(-313.75 -120)"/><path class="cls-15" d="M451,134.13l-0.06-.7q4.75-.45,9.51-0.77l0,0.7-0.42,0a5.64,5.64,0,0,0-1.62.29,1.26,1.26,0,0,0-.75.72,3.2,3.2,0,0,0-.13,1.38q0.46,6.24.91,12.48a2.12,2.12,0,0,0,.34,1.11,1.54,1.54,0,0,0,1,.53,7.25,7.25,0,0,0,1.88.07,10.27,10.27,0,0,0,1.87-.28,6.77,6.77,0,0,0,1.67-.68,8.74,8.74,0,0,0,1.69-1.29,14.7,14.7,0,0,0,1.74-2l1.21,0q-0.79,2.34-1.56,4.68-7.85.32-15.68,1l-0.06-.7,0.17,0a5.35,5.35,0,0,0,1.71-.36,1.28,1.28,0,0,0,.7-0.73,3.2,3.2,0,0,0,.1-1.28q-0.5-6-1-12a4.27,4.27,0,0,0-.3-1.42,1.26,1.26,0,0,0-.89-0.64A6.27,6.27,0,0,0,451,134.13Zm3.6,1.65q0.54,6.52,1.07,13a1.75,1.75,0,0,1-.15,1,1.92,1.92,0,0,1-.64.66h0.44c0.87-.07,1.26-0.72,1.16-2q-0.48-6.11-1-12.22a6.39,6.39,0,0,0-.36-1.89,1.12,1.12,0,0,0-1.27-.52l-0.41,0a1.88,1.88,0,0,1,.82.6A2.85,2.85,0,0,1,454.64,135.78Zm10,14,2.38-.12,1-2.57a9.37,9.37,0,0,1-1.52,1.55A9.24,9.24,0,0,1,464.63,149.8Z" transform="translate(-313.75 -120)"/><path class="cls-15" d="M487.76,131.71l1.13,0q-0.06,2.85-.12,5.7l-0.84,0a13.28,13.28,0,0,0-1.34-2.24,8.42,8.42,0,0,0-1.55-1.61,6.1,6.1,0,0,0-1.74-1,6,6,0,0,0-2-.31,5.5,5.5,0,0,0-2.59.62,5.57,5.57,0,0,0-2,1.74,8.29,8.29,0,0,0-1.22,2.73,12.31,12.31,0,0,0-.38,3.41,11.09,11.09,0,0,0,1,4.48,7.37,7.37,0,0,0,2.46,3,6,6,0,0,0,3.51,1.09,7.19,7.19,0,0,0,2.34-.38,7.7,7.7,0,0,0,2.17-1.17,10.64,10.64,0,0,0,2-2l0.77,0.44a10.11,10.11,0,0,1-3.6,3.09,10.46,10.46,0,0,1-4.73,1,10.3,10.3,0,0,1-3.83-.69,9.33,9.33,0,0,1-3.07-2,9.18,9.18,0,0,1-2.06-2.94,9.56,9.56,0,0,1-.81-3.58,9.39,9.39,0,0,1,.65-3.84,8.88,8.88,0,0,1,2.05-3.09,9.45,9.45,0,0,1,3.15-2,10.51,10.51,0,0,1,3.86-.73,8.64,8.64,0,0,1,1.44.1q0.67,0.11,1.58.34l1.24,0.31a3.56,3.56,0,0,0,.75.08A2.45,2.45,0,0,0,487.76,131.71Zm-9.59.56a12.06,12.06,0,0,0-3.44,1.88,8,8,0,0,0-1.34,1.42,8.6,8.6,0,0,0-1.54,3.57,9.11,9.11,0,0,0-.16,2,9.49,9.49,0,0,0,1.1,4.23,8.56,8.56,0,0,0,3,3.18,10.34,10.34,0,0,0,4.57,1.54,12,12,0,0,1-3.16-1.3,9.88,9.88,0,0,1-2.47-2.05,8.74,8.74,0,0,1-1.8-8.29,8.43,8.43,0,0,1,1.18-2.54,10.27,10.27,0,0,1,1.84-2A20.32,20.32,0,0,1,478.17,132.27Zm9,2.68q0-1.09,0-2.19a3.51,3.51,0,0,1-1.36.25,3.89,3.89,0,0,1-.64-0.06,8.85,8.85,0,0,1,1.15,1Q486.73,134.42,487.17,135Z" transform="translate(-313.75 -120)"/><path class="cls-15" d="M491.14,141.05a10.26,10.26,0,0,1,.29-2.2,9.14,9.14,0,0,1,.74-2,8.34,8.34,0,0,1,1.18-1.73,9.14,9.14,0,0,1,1.55-1.4,8.6,8.6,0,0,1,2-1,9.54,9.54,0,0,1,2.26-.54,15,15,0,0,1,2.58-.06,11.2,11.2,0,0,1,4.16,1,9.11,9.11,0,0,1,3.07,2.28,8.82,8.82,0,0,1,1.77,3.17,9.26,9.26,0,0,1,.38,3.64,9.49,9.49,0,0,1-1.1,3.71,9.3,9.3,0,0,1-2.4,2.86,10.12,10.12,0,0,1-3.38,1.76,11.25,11.25,0,0,1-4,.45,10.21,10.21,0,0,1-3.7-.91,9.13,9.13,0,0,1-2.92-2.1,9,9,0,0,1-1.86-3.1A10.31,10.31,0,0,1,491.14,141.05Zm5.31-7.77a8.93,8.93,0,0,0-3.56,3.23,9.08,9.08,0,0,0-1.31,4.57,10,10,0,0,0,.62,3.91,8.36,8.36,0,0,0,2.06,3.1,10.16,10.16,0,0,0,3.43,2.1,10.87,10.87,0,0,1-3.91-3.73,9.74,9.74,0,0,1-1.34-5.58,9.84,9.84,0,0,1,.51-2.94,8.68,8.68,0,0,1,1.33-2.44A14.53,14.53,0,0,1,496.45,133.29Zm-1.55,6.52a16.88,16.88,0,0,0,.31,4.15,11,11,0,0,0,1.21,3.3,6.54,6.54,0,0,0,2,2.18,5,5,0,0,0,2.52.87,5.19,5.19,0,0,0,2.25-.35,5.3,5.3,0,0,0,1.95-1.36,7.28,7.28,0,0,0,1.43-2.36,11.89,11.89,0,0,0,.71-3.37,14.07,14.07,0,0,0-.21-4,9.38,9.38,0,0,0-1.22-3.16,6.6,6.6,0,0,0-2.06-2.1,5.55,5.55,0,0,0-2.69-.85,5.4,5.4,0,0,0-2.38.39,5.16,5.16,0,0,0-1.93,1.39,7,7,0,0,0-1.3,2.25A9.86,9.86,0,0,0,494.89,139.81Zm8.72-6.68a7.57,7.57,0,0,1,2.48,2.31,9.09,9.09,0,0,1,1.37,3.38,15.19,15.19,0,0,1,.2,4.21,10.67,10.67,0,0,1-.9,3.69,9,9,0,0,1-1.89,2.66,7.63,7.63,0,0,0,1.91-1.68,7.37,7.37,0,0,0,1.2-2.21,11.75,11.75,0,0,0,.57-2.87,12.93,12.93,0,0,0-.31-4.3,8.06,8.06,0,0,0-1.7-3.35A5.86,5.86,0,0,0,503.62,133.13Z" transform="translate(-313.75 -120)"/><path class="cls-15" d="M524.22,148.52Q528,142,532,135.58q2.94,0.44,5.88.93l-0.12.71a4.22,4.22,0,0,0-2,0,1.27,1.27,0,0,0-.8.82,17.09,17.09,0,0,0-.45,2.21l-1.8,11.12a2.92,2.92,0,0,0,0,1.32,1.27,1.27,0,0,0,.63.73,6.67,6.67,0,0,0,1.54.51l-0.12.71q-4.14-.71-8.3-1.32l0.1-.71a4.22,4.22,0,0,0,1.84,0,1.19,1.19,0,0,0,.78-0.69,9.11,9.11,0,0,0,.35-1.63l1.88-12.43q-4.56,7.44-8.81,15l-0.75-.1q-2.18-8.11-4.68-16.16L516.1,147.1a4.93,4.93,0,0,0,.38,2.85,3.57,3.57,0,0,0,2.11,1.61l-0.08.71q-3.27-.39-6.54-0.71l0.07-.71a3,3,0,0,0,2.25-.86,4.13,4.13,0,0,0,1-2.55l1.26-12a3.45,3.45,0,0,0-1.25-1,4.35,4.35,0,0,0-1.68-.41l0.07-.71q3.13,0.29,6.25.64Q522.23,141.24,524.22,148.52ZM513.53,151l2.73,0.29a2.08,2.08,0,0,1-.68-0.76,3.19,3.19,0,0,1-.33-1.06,2.59,2.59,0,0,1-.66.88A4.42,4.42,0,0,1,513.53,151Zm2.76-16.68-0.5-.05a3.17,3.17,0,0,1,1.24,1,6.55,6.55,0,0,1,.8,1.81q2.36,7.45,4.43,14.94a2,2,0,0,0,.4-0.86,2.92,2.92,0,0,0-.15-1.07q-1.78-6.56-3.78-13.09a5.66,5.66,0,0,0-.87-1.92A2.17,2.17,0,0,0,516.29,134.33Zm14.49,16.61,1.93-12.42a5.83,5.83,0,0,1,.56-2,1.15,1.15,0,0,0-.82.17,1.24,1.24,0,0,0-.39.65,13.7,13.7,0,0,0-.27,1.41l-1.9,12.41a3,3,0,0,1-.38,1.24,1.92,1.92,0,0,1-.87.55L529.1,153a1.09,1.09,0,0,0,1.19-.34A5,5,0,0,0,530.78,150.94Z" transform="translate(-313.75 -120)"/><path class="cls-15" d="M544.18,147.1l-1.1,5.64a6.21,6.21,0,0,0-.15,1.48,1.32,1.32,0,0,0,.34.87,2.24,2.24,0,0,0,1,.52c0.44,0.13,1.05.28,1.83,0.44a7.34,7.34,0,0,0,2.62.11,7.71,7.71,0,0,0,2.39-.8,20.77,20.77,0,0,0,2.69-1.73l1,0.24q-1.35,2.12-2.67,4.25-7.84-1.81-15.75-3.21l0.12-.71a7.51,7.51,0,0,0,1.78.11,1.43,1.43,0,0,0,1-.42,2.22,2.22,0,0,0,.46-1.1l2.35-12.7a2.71,2.71,0,0,0,0-1.35,1.27,1.27,0,0,0-.72-0.71,10.77,10.77,0,0,0-1.89-.55l0.12-.71q8,1.39,16,3.17,0.36,2.22.69,4.44l-1-.22a9,9,0,0,0-1.51-2.12,10,10,0,0,0-2.25-1.76,9.25,9.25,0,0,0-2.85-1.07,5.25,5.25,0,0,0-1.9-.12,1.45,1.45,0,0,0-1,.54,3,3,0,0,0-.43,1.14l-1.09,5.59,2.65,0.53c2.31,0.47,3.7-.3,4.17-2.35l0.93,0.2-1.48,6.78-0.81-.18a3.62,3.62,0,0,0-.41-2.46,3.21,3.21,0,0,0-2.12-1.18Zm-1.7-6.81-2.31,12.42a3.29,3.29,0,0,1-.48,1.33,1.94,1.94,0,0,1-.79.61,1.52,1.52,0,0,0,1.49-.3,3.76,3.76,0,0,0,.65-1.7l2.35-12.43a2,2,0,0,0-.12-1.52,2.21,2.21,0,0,0-1.32-.63,1.55,1.55,0,0,1,.58.82A3.36,3.36,0,0,1,542.48,140.29Zm7.51,8.87,0.54-2.51a3.16,3.16,0,0,1-2.14.86,4.15,4.15,0,0,1,1,.7A2.29,2.29,0,0,1,550,149.16Zm4.17-8.78-2.44-.53a9.05,9.05,0,0,1,1.63,1.15,18.59,18.59,0,0,1,1.41,1.44ZM551,157.14l1.39-2a8.1,8.1,0,0,1-1.65.91q-0.71.26-2,.62Z" transform="translate(-313.75 -120)"/></svg>