<svg id="Layer_1" data-name="Layer 1" xmlns="http://www.w3.org/2000/svg" viewBox="0 0 296.28 289.31"><defs><style>.cls-1{fill:#efd7d4;stroke:#42210b;stroke-miterlimit:10;stroke-width:2px;}.cls-2{fill:#9bba9a;}.cls-3{font-size:21px;font-family:Blooming Elegant Hand;}.cls-3,.cls-4{fill:#42210b;}.cls-4{font-size:36px;font-family:Blooming Elegant Sans;}.cls-5{fill:#bdc64b;}</style></defs><title>AttireFinal</title><path class="cls-1" d="M173.9,261.09a3.82,3.82,0,0,1-2.12-1.2h0c-2.78-3.16-1.23-15.44,2-28.95,3.76-15.84,9.68-33.79,13.3-39.9V180.75a8.2,8.2,0,0,1-4.95-5,9.54,9.54,0,0,1-.54-3.9h0a9.48,9.48,0,0,1,1.09-3.79,8.25,8.25,0,0,1,7.56-4.43l0.42,0,12,2.3,11.33-2.29,0.44,0a8.25,8.25,0,0,1,7.56,4.43,9.58,9.58,0,0,1,.55,7.7,8.2,8.2,0,0,1-4.95,5v9.52c3.68,5.68,9.77,24.15,13.53,40.45,3.13,13.57,4.56,25.93,1.67,29.17h0a3.77,3.77,0,0,1-1.28.93h0a2.23,2.23,0,0,1-3.84-1.49,3.21,3.21,0,0,0-6.42.1h-4.48a3.21,3.21,0,1,0-6.41,0h-4.48a3.21,3.21,0,1,0-6.41,0h-4.48a3.21,3.21,0,1,0-6.41,0H184a3.21,3.21,0,1,0-6.41,0,2.24,2.24,0,0,1-3.74,1.66h0Zm38-53.52a2.23,2.23,0,1,0-3.8,2.36A61.23,61.23,0,0,1,215.52,227a66.93,66.93,0,0,1,2.06,18.22,2.23,2.23,0,0,0,4.46.07,71.29,71.29,0,0,0-2.2-19.41,65.65,65.65,0,0,0-7.91-18.3h0Z" transform="translate(-54.17 -92.91)"/><path class="cls-1" d="M210.36,164.89a2.23,2.23,0,1,0,4.39.79l2.49-13.82a2.23,2.23,0,1,0-4.39-.79l-2.49,13.82h0Z" transform="translate(-54.17 -92.91)"/><path class="cls-1" d="M189.77,166a2.23,2.23,0,0,0,4.39-.79l-2.49-13.82a2.23,2.23,0,0,0-4.39.79L189.77,166h0Z" transform="translate(-54.17 -92.91)"/><circle class="cls-2" cx="168.62" cy="279.68" r="2.42" transform="translate(-201.57 104.39) rotate(-44.3)"/><circle class="cls-2" cx="168.88" cy="304.07" r="2.42" transform="translate(-218.53 111.5) rotate(-44.3)"/><circle class="cls-2" cx="144.27" cy="329.93" r="2.42" transform="translate(-243.59 101.67) rotate(-44.3)"/><text class="cls-3" transform="translate(123.52 193.87)">Long Dress<tspan x="-1.39" y="25.2">Dressy Suit</tspan><tspan x="-26.65" y="50.4">Formal Cocktail Dress</tspan></text><text class="cls-4" transform="translate(111.8 44.29)">Ladies</text><path class="cls-5" d="M348.28,263.74a6.09,6.09,0,0,0-4.26-1.58,8.61,8.61,0,0,1-4.4-.95,3,3,0,0,0-.85-0.54l0.35-2,0.26-2,0.13,0.29a0.6,0.6,0,0,0,.28.31,10.1,10.1,0,0,0,.88,1.62,3.61,3.61,0,0,0,1.22,1.19c1.37,0.78,3.46-.39,3.78-2.1,0.6-2.92-4.29-2.23-6.11-2.47l0.42-4c1,1.34,2.44,2.57,4.13,2.07a2.4,2.4,0,0,0,1.58-1.52,2.59,2.59,0,0,0-.45-2.28c-1-1.38-1.85-1.47-3.33-1.56-0.37,0-1.65.05-1.7,0.35l0,0,0.17-2.58,0.08-1.29v-1.86a7.6,7.6,0,0,0,2.25,3.13,5.37,5.37,0,0,0,5.27.63,0.69,0.69,0,0,0,.47-0.83c-1.27-3.65-4.65-5.35-8-6.83v-0.21s0-.08.05-0.12-0.15-2.35-.43-5.23a16.56,16.56,0,0,0,3.69,3.4c1.28,0.86,3.64,1.3,4.62-.29s-0.13-3.47-1.53-4.47c-2.11-1.5-4.56-1.64-7.06-1.41-0.24-2.35-.5-4.84-0.72-6.89a16.54,16.54,0,0,0,3.63,4,5.21,5.21,0,0,0,5.8-.4c1.39-1.39-.19-3.45-1.4-4.3a13.08,13.08,0,0,0-8.33-2.11c-0.1-.85-0.16-1.44-0.19-1.61-0.19-1.13-.36-2.49-0.67-3.77l-1.08-5a24,24,0,0,0,4.17,4.84,4.58,4.58,0,0,0,2.29,1.13,2.09,2.09,0,0,0,2-1.15c1.26-2-.08-4-2-5.27a11.92,11.92,0,0,0-1.57-.88,14.4,14.4,0,0,0-1.67-.63,9.55,9.55,0,0,0-2.76-.49,0.57,0.57,0,0,0-.43.2l0-.13a0.58,0.58,0,0,0-.23-0.39c-0.24-1-.69-2.9-1.22-4.76s-1.15-3.69-1.43-4.7c0.08-.56.5,0.52,1.34,1.71a25.25,25.25,0,0,0,2.92,3.33,5.93,5.93,0,0,0,3.75,1.73,0.63,0.63,0,0,0,.61-0.54,9.24,9.24,0,0,0-.14-3.5,4.78,4.78,0,0,0-1.94-2.77,10.39,10.39,0,0,0-3.41-1.35l-1.78-.4c-0.6-.13-1.2-0.27-1.78-0.45l-1.82-5.53L329.58,185a15.88,15.88,0,0,0,2.82,1.87c1.31,0.7,4,1.83,5,.27s0.11-4.3-1.46-5.2c-1.09-.62-2.87-0.26-4.32.25a19.91,19.91,0,0,0-1.89.77l-0.8.39-2.11-4.71a0.51,0.51,0,0,0,.3,0c2.46,1.2,6.45,2,6.17-1.58a2,2,0,0,0-1.07-1.79A4.15,4.15,0,0,0,330,175c-1.64.21-3.45,0.9-4.34,0.91l-0.12,0c-0.74-1.46-1.42-3-2.21-4.4a9.31,9.31,0,0,0,4,1.94,3,3,0,0,0,3.36-1.37c1-1.71-.34-4.16-2.07-5a4.64,4.64,0,0,0-4.15.2,9.6,9.6,0,0,0-1.45.86c-0.36.25-.57,0.44-0.57,0.44-0.35.65-.62,0.36-0.93-0.33-0.25-.46-0.64-1.1-1-1.75l-1.1-1.7a11.63,11.63,0,0,0,3.17.85c1.25,0.17,2.48.12,2.92-.5a1,1,0,0,0-.2-1c-0.53-.78-2.17-1.39-4.06-1.2a6.78,6.78,0,0,0-2.17,1s-2.83-4.06-3.22-4.49a11,11,0,0,1,1.31,1,7.11,7.11,0,0,0,1.28,1,5.7,5.7,0,0,0,2.69.4,2.24,2.24,0,0,0,1.9-2.81,4,4,0,0,0-1-1.94,4.72,4.72,0,0,0-1.85-1.15,6.39,6.39,0,0,0-5.64,1.22c-1.25-1.9-2.68-3.67-4.06-5.48s-2.88-3.52-4.34-5.27a25,25,0,0,0,2.74,1.63c1.63,0.8,4,1.9,5.41.53a3.27,3.27,0,0,0,.64-3.37,6,6,0,0,0-2.22-3c-1.27-.84-3.34-0.25-5.08.56a22,22,0,0,0-2.25,1.23l-0.95.6c0.12-.37-4.74-5.2-6.05-6.32,1.46,0.21,3,0,3.71-1.34a2.57,2.57,0,0,0-1.76-3.58c-1.73-.41-3.29.84-4.39,1.89a0.57,0.57,0,0,0-.11.59c-0.73-.67-1.5-1.31-2.24-2a3.35,3.35,0,0,0-1.18-1,63.73,63.73,0,0,0,7.17-2.32c2.16-.83,3.78-1.14,4.27-3.75,0.39-2.36-3.82-2.49-5.51-1.88a6.06,6.06,0,0,0-3.49,2.89,8.61,8.61,0,0,1-3,3.33,2.93,2.93,0,0,0-.89.46c-1.05-.87-2.15-1.69-3.22-2.54l0.31,0a0.59,0.59,0,0,0,.41-0.09,5.62,5.62,0,0,0,3.5-.43c1.38-.82,1.35-3.13.06-4.31-2.2-2-4.07,2.57-5.19,4-0.35-.26-1-0.76-1.63-1.21l-1.68-1.14c1.68-.23,3.49-0.88,3.89-2.57a2.35,2.35,0,0,0-.55-2.1,2.56,2.56,0,0,0-2.18-.78c-1.67.14-2.19,0.85-3,2.08-0.21.31-.78,1.46-0.55,1.65,0,0,0,0,0,0L280,123.5l-1.09-.69-2.19-1.36-0.8-.5,0.65-.12c1.78-.34,3.73-1.2,4.52-2.95,0.62-1.37-1.27-1.81-2.2-1.8-2.26,0-4.18,1.61-6,2.77a0.7,0.7,0,0,0-.21.21l-0.25-.14s-2.21-1-5.19-2.35a9.93,9.93,0,0,0,4.15-.73c0.89-.43,2.62-1.58,2.28-2.81s-2.26-.89-3.16-0.7a17.74,17.74,0,0,0-5.75,2.85,0.7,0.7,0,0,0-.2.19c-3-1.31-6.24-2.75-8.82-3.86,2.92-.31,5.9,0,8.8-0.4,1.08-.17,2.6-1.73,1.82-2.89-1.08-1.6-3.12-1.47-4.85-1.13a13.82,13.82,0,0,0-3.75,1.28c-0.14,0-3.92,2.22-4,2.3-1.16-.49-2-0.85-2.45-1-1.24-.47-2.46-0.81-3.37-1.09l-1.54-.46a29.13,29.13,0,0,0,6.28-1.22c1.86-.69,3.07-1.81,2.1-3.69a2.87,2.87,0,0,0-2.4-1.67,6.41,6.41,0,0,0-3.18.81,12.43,12.43,0,0,0-4.72,4.16,0.58,0.58,0,0,0,0,.48l-0.13,0a0.56,0.56,0,0,0-.45,0c-2-.58-7.48-2-9.53-2.37-0.45-.34.7-0.18,2.17-0.35l2.2-.32a14,14,0,0,0,2.13-.49,6.09,6.09,0,0,0,3.39-2.44,0.62,0.62,0,0,0-.17-0.79,10.26,10.26,0,0,0-3.11-1.6,4.39,4.39,0,0,0-3.36.26c-2.28,1.17-3.6,3.36-5.39,5l-1.41-.34c-0.47-.11-1-0.18-1.43-0.28l-2.86-.54c-1-.18-1.9-0.37-2.86-0.53l-2.88-.4a16.37,16.37,0,0,0,3-1.57c1.26-.79,3.55-2.44,2.73-4.18s-3.67-2.25-5.24-1.31c-1.09.65-1.65,2.33-1.95,3.85a19.89,19.89,0,0,0-.28,2l-0.06.89c-0.6-.07-1.58-0.24-2.56-0.31l-2.57-.21a0.52,0.52,0,0,0,.12-0.28c2.27-1.58,5-4.67,1.71-6.16-3.5-1.56-3.86,4.52-4.73,6.05a0.6,0.6,0,0,0,0,.12c-0.82-.09-1.64-0.11-2.46-0.14l-2.46-.1a9.06,9.06,0,0,0,3.68-2.54,3,3,0,0,0,.5-3.61c-1-1.68-3.77-1.67-5.37-.68a4.53,4.53,0,0,0-1.9,3.66,9.6,9.6,0,0,0,0,1.68c0,0.43.1,0.71,0.1,0.71,0.39,0.64,0,.71-0.75.66l-4,.13c1.13-.69,4-3.73,3.36-5.1a1,1,0,0,0-.95-0.29,4.73,4.73,0,0,0-3.07,2.88,6.73,6.73,0,0,0-.21,2.38l-0.78.05c-0.47,0-1.11.09-1.76,0.17-1.3.15-2.67,0.31-3,.33,0.42-.29,2.57-1,3-1.29a8.76,8.76,0,0,0,1-1,4.15,4.15,0,0,0,.71-1.14,2.24,2.24,0,0,0-1.47-3.05,4.5,4.5,0,0,0-4.12,1,6.29,6.29,0,0,0-1.78,5.45l-6.78.76c-2.25.34-4.49,0.74-6.73,1.11a24.73,24.73,0,0,0,2.79-1.52c1.52-.95,3.62-2.55,3.17-4.45-0.54-2.39-4.25-2.83-6.33-1.83-1.37.64-1.89,2.77-2.05,4.71a22.49,22.49,0,0,0-.07,2.57l0,1.12a14.81,14.81,0,0,0-3.75.67c-1,.2-1.92.54-2.77,0.79l-2,.59c0.92-1.15,1.48-2.54.69-3.87a2.58,2.58,0,0,0-4-.3c-1.23,1.28-.9,3.32-0.55,4.78a0.55,0.55,0,0,0,.45.38l-2.82,1a3.35,3.35,0,0,0-1.48.5,63.35,63.35,0,0,0,1.58-7.34c0.37-2.28.88-3.91-1.12-5.57s-4.08,2-4.4,3.8a6,6,0,0,0,.75,4.46,8.63,8.63,0,0,1,1.37,4.29,3.06,3.06,0,0,0,0,1l-3.81,1.52,0.18-.25a0.58,0.58,0,0,0,.13-0.4,5.57,5.57,0,0,0,1.38-3.23c0-1.6-2-2.74-3.71-2.22-2.85.89,0.19,4.8,0.89,6.5l-0.81.34-1,.5-1.83.87c0.65-1.57,1-3.45-.28-4.64a2.37,2.37,0,0,0-2.09-.58,2.55,2.55,0,0,0-1.77,1.49c-0.71,1.51-.36,2.31.3,3.64,0.17,0.33.87,1.41,1.16,1.3l0,0c-1.55.75-3.05,1.59-4.58,2.39h0a7,7,0,0,0,1.23-3.1c0.17-1.58-.14-4.25-2-4.76-1.42-.39-2.89,1.27-3.27,2.45a10.1,10.1,0,0,0,.67,7.23l0,0.06-0.06,0a0.47,0.47,0,0,0-.16,0,8.2,8.2,0,0,0-1.74,1l-0.11-.06s-4.69,3.27-5,3.53a35.16,35.16,0,0,0,2.09-4.66c0.34-1,.69-3.61-0.75-4s-2.67,1.33-3.26,2.36c-1.26,2.2-1,5.41-.95,7.83a0.66,0.66,0,0,0,0,.17c-1.29,1.06-2.75,2.28-4.15,3.45a29.63,29.63,0,0,0,.69-8.78c-0.06-1.86-.36-4.28-2.41-4.81-4.46-1.13-.73,13.56-0.18,15.19l-3.54,3c-1,.86-1.91,1.76-2.61,2.39l-1.18,1.1a26.49,26.49,0,0,0,2.08-6.06c0.33-1.95,0-3.55-2.15-3.66a3.18,3.18,0,0,0-1.57.29,2.92,2.92,0,0,0-1.06,1,6.34,6.34,0,0,0-.9,3.14,12.22,12.22,0,0,0,1.25,6.16,0.57,0.57,0,0,0,.39.28l-0.1.1a0.58,0.58,0,0,0-.22.39c-0.76.72-2.12,2.09-3.49,3.46s-2.61,2.85-3.35,3.59c-0.52.22,0.19-.69,0.8-2,0.27-.68.56-1.38,0.8-2.09a14.69,14.69,0,0,0,.64-2.08,6,6,0,0,0-.4-4.13,0.62,0.62,0,0,0-.77-0.25,10.3,10.3,0,0,0-3,1.87,4.55,4.55,0,0,0-1.43,3.06c-0.14,2.55,1.09,4.78,1.57,7.12l-3.86,4.36c-0.66.71-1.24,1.49-1.86,2.24l-1.83,2.27a16,16,0,0,0,.2-3.39c-0.06-1.5-.4-4.35-2.29-4.5s-3.76,2.06-3.75,3.88c0,1.26,1.17,2.58,2.35,3.61a19.92,19.92,0,0,0,1.6,1.25l0.74,0.5-3,4.2a0.51,0.51,0,0,0-.18-0.25c-0.2-2.74-1.47-6.63-4.45-4.56-3.17,2.2,2,5.6,2.87,7.13a0.58,0.58,0,0,0,.08.09l-2.72,4.1c0.5-2.93-.23-6.64-3.16-6.65a3.1,3.1,0,0,0-2.43,1.43,5.09,5.09,0,0,0-.7,1.37,4.51,4.51,0,0,0-.18,1.48,4.66,4.66,0,0,0,2.25,3.5,9.6,9.6,0,0,0,1.47.83c0.4,0.18.67,0.27,0.67,0.27,0.74,0,.62.36,0.18,1-0.52.9-1.49,2.61-1.94,3.54a7,7,0,0,0-.26-1.4,12.7,12.7,0,0,0-.57-1.76c-0.48-1.17-1.14-2.21-1.89-2.29a1,1,0,0,0-.74.67,3,3,0,0,0-.1,1.78,6.32,6.32,0,0,0,1.07,2.32,6.79,6.79,0,0,0,2,1.38l-1.07,2.32-0.79,1.7c-0.23.49-.37,0.89-0.44,1-0.09-.53.49-2.68,0.39-3.19a5.74,5.74,0,0,0-1-2.53,2.23,2.23,0,0,0-3.38-.25,4.26,4.26,0,0,0-1.26,4,6.43,6.43,0,0,0,3.88,4.29c-0.48,1-1,2.05-1.43,3.09l-1.29,3.16c-0.42,1.06-.88,2.1-1.27,3.17l-1.13,3.22a25.25,25.25,0,0,0,0-3.19c-0.09-1.8-.3-4.37-2.22-5a3.25,3.25,0,0,0-3.23,1.13,6.09,6.09,0,0,0-.62.76,6.37,6.37,0,0,0-.46.87,5.33,5.33,0,0,0-.45,1.8c-0.08,1.52,1.47,3,3,4.13a22,22,0,0,0,2.17,1.33l1,0.51c-0.23,0-.72,1.72-1.24,3.6l-0.75,2.79c-0.24.85-.35,1.6-0.46,2a5.06,5.06,0,0,0-1.15-1.79,2.58,2.58,0,0,0-1.88-.74,2.54,2.54,0,0,0-2.19,3.33c0.53,1.71,2.4,2.43,3.85,2.86a0.57,0.57,0,0,0,.56-0.2c-0.23,1-.46,1.93-0.61,2.92a3.35,3.35,0,0,0-.27,1.54,73.33,73.33,0,0,0-5.6-5c-1.76-1.45-2.89-2.7-5.37-1.81-2.32.83-.27,4.56,1.12,5.71A6.09,6.09,0,0,0,62,213a8.61,8.61,0,0,1,4.4.95,3,3,0,0,0,.85.54l-0.35,2-0.26,2-0.13-.29a0.6,0.6,0,0,0-.28-0.31,10.12,10.12,0,0,0-.88-1.62,3.61,3.61,0,0,0-1.22-1.19c-1.37-.78-3.46.39-3.78,2.1-0.6,2.92,4.29,2.23,6.11,2.47l-0.42,4c-1-1.34-2.44-2.57-4.13-2.07a2.4,2.4,0,0,0-1.58,1.52,2.59,2.59,0,0,0,.45,2.28c1,1.38,1.85,1.47,3.33,1.56,0.37,0,1.65-.05,1.7-0.35l0,0-0.17,2.58-0.08,1.29v2a0.61,0.61,0,0,0,0,.2v0.11a11.74,11.74,0,0,0-2.94-2.69c-1.39-.95-4.55-1.72-5.45.4-1.86,4.38,4.87,7.36,8.37,5.78v0.24a0.73,0.73,0,0,0,0,.22v0.17a0.65,0.65,0,0,0,.09.34c0,0.09.82,7.9,1.5,14.28H66.9c-1.13-1.06-2-2.45-3.15-3.5a26.78,26.78,0,0,0-3.5-2.66c-1.53-1-4.61-1.91-5.78.1s1.47,4.18,3,4.93a24.47,24.47,0,0,0,8.92,2.44l0.45,0.36a0.53,0.53,0,0,0,.55.09c0.36,3.3.67,5.91,0.77,6.34l1.08,5A24,24,0,0,0,65,259.85a4.58,4.58,0,0,0-2.29-1.13,2.09,2.09,0,0,0-2,1.15c-1.26,2,.08,4,2,5.27a11.91,11.91,0,0,0,1.57.88,14.38,14.38,0,0,0,1.67.63,9.56,9.56,0,0,0,2.76.49,0.57,0.57,0,0,0,.43-0.2l0,0.13a0.58,0.58,0,0,0,.23.39c0.24,1,.69,2.9,1.22,4.76s1.15,3.69,1.43,4.7c-0.08.56-.49-0.52-1.34-1.71a25.3,25.3,0,0,0-2.92-3.33,5.94,5.94,0,0,0-3.75-1.73,0.63,0.63,0,0,0-.6.54,9.24,9.24,0,0,0,.14,3.5A4.78,4.78,0,0,0,65.63,277,10.39,10.39,0,0,0,69,278.32l1.78,0.4c0.6,0.13,1.2.27,1.78,0.45l1.82,5.53,2.07,5.44a15.88,15.88,0,0,0-2.82-1.87c-1.31-.7-4-1.83-5-0.27s-0.11,4.3,1.46,5.2c1.09,0.62,2.87.26,4.33-.25a19.9,19.9,0,0,0,1.89-.77l0.8-.39,2.11,4.71a0.51,0.51,0,0,0-.3,0c-2.46-1.2-6.45-2-6.17,1.58a2,2,0,0,0,1.07,1.79,4.15,4.15,0,0,0,2.21.18c1.64-.21,3.45-0.9,4.34-0.91l0.12,0c0.74,1.46,1.42,3,2.21,4.4a9.31,9.31,0,0,0-4-1.94A3,3,0,0,0,75.35,303c-1,1.71.34,4.16,2.07,5a4.64,4.64,0,0,0,4.15-.2,9.61,9.61,0,0,0,1.45-.86c0.36-.25.57-0.44,0.57-0.44,0.35-.65.62-0.36,0.93,0.33,0.25,0.46.64,1.1,1,1.75l1.1,1.7a11.62,11.62,0,0,0-3.17-.85c-1.25-.17-2.48-0.12-2.92.5a1,1,0,0,0,.2,1c0.53,0.78,2.17,1.39,4.06,1.2a6.78,6.78,0,0,0,2.17-1s2.83,4.06,3.22,4.49a11,11,0,0,1-1.31-1,7.09,7.09,0,0,0-1.28-1,5.7,5.7,0,0,0-2.69-.4,2.24,2.24,0,0,0-1.9,2.81A4,4,0,0,0,84,318a4.72,4.72,0,0,0,1.85,1.15,6.39,6.39,0,0,0,5.64-1.22c1.25,1.9,2.68,3.67,4.06,5.48s2.88,3.52,4.34,5.27a25,25,0,0,0-2.74-1.63c-1.63-.8-4-1.9-5.41-0.53a3.27,3.27,0,0,0-.64,3.37,6,6,0,0,0,2.22,3c1.27,0.84,3.34.25,5.08-.56a22,22,0,0,0,2.25-1.23l0.94-.6c-0.12.37,4.74,5.2,6.05,6.32-1.46-.21-3,0-3.71,1.34a2.57,2.57,0,0,0,1.76,3.58c1.73,0.41,3.29-.84,4.39-1.89a0.57,0.57,0,0,0,.11-0.59c0.73,0.67,1.5,1.31,2.24,2a3.35,3.35,0,0,0,1.18,1,63.76,63.76,0,0,0-7.17,2.32c-2.16.83-3.78,1.14-4.27,3.75-0.39,2.36,3.82,2.49,5.51,1.88a6.06,6.06,0,0,0,3.49-2.89,8.61,8.61,0,0,1,3-3.33,2.92,2.92,0,0,0,.89-0.46c1.05,0.87,2.15,1.69,3.22,2.54l-0.31,0a0.59,0.59,0,0,0-.41.09,5.62,5.62,0,0,0-3.5.43c-1.38.82-1.35,3.13-.06,4.31,2.2,2,4.07-2.57,5.19-4,0.35,0.26,1,.76,1.63,1.21l1.68,1.14c-1.69.23-3.49,0.88-3.89,2.57a2.35,2.35,0,0,0,.55,2.1,2.56,2.56,0,0,0,2.18.78c1.67-.14,2.19-0.85,3-2.08,0.21-.31.78-1.46,0.55-1.65,0,0,0,0,0,0l1.06,0.74,1.09,0.69,2.19,1.36,0.58,0.36c-3.87.06-9.53,1-8.48,5.28,0.42,1.75,3.88,1.13,4.95.77,2.3-.78,4.33-2.89,6.18-4.47l1.23,0.67a0.66,0.66,0,0,0,.35.08c0.07,0,2.56,1.28,6.15,3-2,0-4-.18-5.84.58-1.53.61-2.66,2.12-1.84,3.71s3.35,1,4.62.73a9.57,9.57,0,0,0,5.24-3.75,0.65,0.65,0,0,0,.11-0.23l0.95,0.43a0.66,0.66,0,0,0,.33.15c1.77,0.79,3.66,1.62,5.58,2.41a17.61,17.61,0,0,0-8,1.71c-1.51.76-5.06,3.51-4.17,5.6,1.08,2.54,4.27,1.26,6.19.57a18.32,18.32,0,0,0,4.77-2.68c1.44-1.09,2.34-2.68,4-3.56a0.6,0.6,0,0,0,.32-0.42l2.25,0.85c1.24,0.45,2.46.81,3.37,1.09l1.54,0.46a29.13,29.13,0,0,0-6.28,1.22c-1.86.69-3.07,1.81-2.1,3.69a2.87,2.87,0,0,0,2.4,1.67,6.41,6.41,0,0,0,3.18-.81,12.43,12.43,0,0,0,4.72-4.16,0.58,0.58,0,0,0,0-.48l0.13,0a0.56,0.56,0,0,0,.45,0c2,0.58,7.48,2,9.53,2.37,0.45,0.34-.7.18-2.17,0.35l-2.2.32a14,14,0,0,0-2.13.49,6.09,6.09,0,0,0-3.39,2.44,0.62,0.62,0,0,0,.17.79,10.26,10.26,0,0,0,3.11,1.6,4.39,4.39,0,0,0,3.36-.26c2.28-1.17,3.6-3.36,5.39-5l1.41,0.34c0.47,0.11,1,.18,1.43.28l2.86,0.54c1,0.18,1.9.37,2.86,0.53l2.88,0.4a16.37,16.37,0,0,0-3,1.57c-1.26.79-3.55,2.44-2.73,4.18s3.67,2.25,5.24,1.31c1.09-.65,1.65-2.33,1.95-3.85a19.88,19.88,0,0,0,.28-2l0.06-.89c0.6,0.07,1.58.24,2.56,0.31l2.57,0.21a0.52,0.52,0,0,0-.12.28c-2.27,1.58-5,4.67-1.71,6.16,3.5,1.56,3.86-4.52,4.73-6.05a0.57,0.57,0,0,0,0-.12c0.82,0.09,1.64.11,2.46,0.14l2.46,0.1a9.07,9.07,0,0,0-3.68,2.54,3,3,0,0,0-.5,3.6c1,1.68,3.77,1.67,5.37.68a4.53,4.53,0,0,0,1.9-3.66,9.61,9.61,0,0,0,0-1.68c0-.43-0.1-0.71-0.1-0.71-0.39-.64,0-0.71.75-0.66l4-.13c-1.13.69-4,3.73-3.36,5.1a1,1,0,0,0,.95.29,4.73,4.73,0,0,0,3.07-2.88,6.73,6.73,0,0,0,.21-2.38l0.78-.05c0.47,0,1.11-.09,1.76-0.17,1.3-.15,2.67-0.31,3-0.33-0.42.29-2.57,1-3,1.29a8.73,8.73,0,0,0-1,1,4.15,4.15,0,0,0-.71,1.14,2.24,2.24,0,0,0,1.47,3.05,4.5,4.5,0,0,0,4.12-1,6.29,6.29,0,0,0,1.78-5.45l6.78-.76c2.25-.34,4.49-0.74,6.73-1.11a24.75,24.75,0,0,0-2.79,1.52c-1.52.95-3.62,2.55-3.17,4.45,0.54,2.39,4.25,2.83,6.33,1.83,1.37-.64,1.89-2.77,2.05-4.71a22.49,22.49,0,0,0,.07-2.56l0-1.12a14.81,14.81,0,0,0,3.75-.67c1-.2,1.92-0.54,2.77-0.79l2-.59c-0.92,1.15-1.48,2.54-.69,3.87a2.58,2.58,0,0,0,4,.3c1.23-1.28.9-3.32,0.55-4.78a0.55,0.55,0,0,0-.45-0.38l2.82-1a3.35,3.35,0,0,0,1.48-.5,63.31,63.31,0,0,0-1.58,7.34c-0.37,2.28-.88,3.91,1.12,5.57s4.08-2,4.4-3.8a6,6,0,0,0-.75-4.46,8.64,8.64,0,0,1-1.37-4.29,3.05,3.05,0,0,0,0-1l3.81-1.52-0.18.25a0.58,0.58,0,0,0-.13.4,5.57,5.57,0,0,0-1.38,3.23c0,1.6,2,2.74,3.71,2.22,2.85-.89-0.19-4.8-0.89-6.5l0.81-.34,1-.5,1.83-.87c-0.65,1.57-1,3.45.28,4.64a2.37,2.37,0,0,0,2.09.58,2.55,2.55,0,0,0,1.77-1.49c0.71-1.51.36-2.31-.3-3.64-0.17-.33-0.87-1.41-1.16-1.3l0,0c1.55-.75,3.05-1.59,4.58-2.39l1.58-.85c-0.77,2.33-1.61,4.73-1.38,7.19,0.17,1.79,1.46,3.56,3.38,3.33s2-2.7,2.13-4a12.32,12.32,0,0,0-2.1-7.68l0.86-.52a0.72,0.72,0,0,0,.21-0.19c0.07,0,1.8-1.25,4.18-3a14.79,14.79,0,0,0-1.89,5.27c-0.3,1.59-.58,4.8,1.77,5.09s2.95-2,3.38-3.73a12.82,12.82,0,0,0-.8-7.81,0.7,0.7,0,0,0-.2-0.46l1.42-1a0.76,0.76,0,0,0,.3-0.22l4.75-3.5c-1.62,3.65-4.27,12.13.67,12.41,2,0.11,2.68-4.13,2.88-5.43a12.17,12.17,0,0,0-1.76-8.17,0.63,0.63,0,0,0-.08-0.09c1.73-1.3,3.07-2.31,3.57-2.73,1-.86,1.91-1.76,2.61-2.39l1.18-1.1a26.49,26.49,0,0,0-2.08,6.06c-0.33,1.95,0,3.55,2.15,3.66a3.18,3.18,0,0,0,1.57-.29,2.92,2.92,0,0,0,1.06-1,6.34,6.34,0,0,0,.9-3.14,12.22,12.22,0,0,0-1.25-6.16,0.57,0.57,0,0,0-.39-0.28l0.1-.1a0.58,0.58,0,0,0,.22-0.39c0.76-.72,2.12-2.09,3.49-3.46s2.61-2.85,3.35-3.59c0.52-.22-0.19.69-0.8,2-0.27.68-.56,1.38-0.8,2.09a14.62,14.62,0,0,0-.64,2.08,6,6,0,0,0,.4,4.13,0.62,0.62,0,0,0,.77.25,10.3,10.3,0,0,0,3-1.87,4.55,4.55,0,0,0,1.43-3.06c0.14-2.55-1.09-4.78-1.57-7.12l3.86-4.36c0.66-.71,1.24-1.49,1.86-2.24l1.83-2.27a16,16,0,0,0-.2,3.39c0.06,1.5.4,4.35,2.29,4.5s3.76-2.06,3.75-3.88c0-1.26-1.17-2.58-2.35-3.61a19.89,19.89,0,0,0-1.6-1.25l-0.74-.5,3-4.2a0.51,0.51,0,0,0,.18.25c0.2,2.74,1.47,6.63,4.45,4.56,3.17-2.2-2-5.6-2.87-7.13a0.61,0.61,0,0,0-.08-0.09l2.72-4.1c-0.5,2.93.23,6.64,3.16,6.65A3.1,3.1,0,0,0,326,314a5.08,5.08,0,0,0,.7-1.37,4.51,4.51,0,0,0,.18-1.48,4.66,4.66,0,0,0-2.25-3.5,9.61,9.61,0,0,0-1.47-.83c-0.4-.18-0.67-0.27-0.67-0.27-0.74,0-.62-0.36-0.18-1,0.52-.9,1.49-2.61,1.94-3.54a7,7,0,0,0,.26,1.4,12.74,12.74,0,0,0,.57,1.76c0.48,1.17,1.14,2.21,1.89,2.29a1,1,0,0,0,.74-0.67,3,3,0,0,0,.1-1.78,6.32,6.32,0,0,0-1.07-2.32,6.79,6.79,0,0,0-2-1.38L325.8,299l0.79-1.7c0.23-.49.37-0.89,0.44-1,0.09,0.53-.49,2.68-0.39,3.19a5.74,5.74,0,0,0,1,2.53,2.23,2.23,0,0,0,3.38.25,4.26,4.26,0,0,0,1.26-4,6.43,6.43,0,0,0-3.88-4.29c0.48-1,1-2.05,1.43-3.09l1.29-3.16c0.42-1.06.88-2.1,1.27-3.17l1.13-3.22a25.21,25.21,0,0,0,0,3.19c0.09,1.8.3,4.37,2.22,5a3.25,3.25,0,0,0,3.23-1.13,6.09,6.09,0,0,0,.62-0.76,6.43,6.43,0,0,0,.46-0.87,5.33,5.33,0,0,0,.45-1.8c0.08-1.52-1.47-3-3-4.13a22.06,22.06,0,0,0-2.17-1.33l-1-.51c0.23,0,.72-1.72,1.24-3.6l0.75-2.79c0.24-.85.35-1.6,0.46-2a5.05,5.05,0,0,0,1.15,1.79,2.58,2.58,0,0,0,1.88.74,2.54,2.54,0,0,0,2.19-3.33c-0.53-1.71-2.4-2.43-3.85-2.86a0.57,0.57,0,0,0-.56.2c0.23-1,.46-1.93.61-2.92a3.35,3.35,0,0,0,.27-1.54,73.42,73.42,0,0,0,5.6,5c1.76,1.45,2.89,2.7,5.37,1.81C351.72,268.62,349.67,264.89,348.28,263.74Zm-9.8-10.42a15.86,15.86,0,0,0-6-.1,5.31,5.31,0,0,0-3.26,1.63,2.8,2.8,0,0,0-.58,1.66,6.3,6.3,0,0,0,.43,2.42c0.59,1.62,2.34,1.67,4.2,1a15.31,15.31,0,0,0,4.8-2.76c-0.1,1-.29,2-0.47,3l-0.53,3c-2.08.13-3.44,0-4.75,0.06a12.07,12.07,0,0,0-4.51,1.17,7,7,0,0,0-2.66,2.37c-0.67,1-.84,2.2.24,3a4.47,4.47,0,0,0,3.62.48,15.15,15.15,0,0,0,3.42-1.34c2.08-1,2.28-2.39,4.28-3.72-0.78,3.29-1.48,6.6-2.49,9.83a5.79,5.79,0,0,0-6.46.2,3.69,3.69,0,0,0-2.58,3.15c-0.22,2.46,2.41,2.95,4.41,2.24,2-.07,3.52-2.94,4.12-3.51-0.24.92-.79,2.32-1.3,3.74L331,284.62a0.56,0.56,0,0,0-.66.08,16.34,16.34,0,0,0-7.53-.62,6.45,6.45,0,0,0-3.18,1.28,3.17,3.17,0,0,0-1,1.28,2.57,2.57,0,0,0-.07,1.7c0.62,2.28,4.08,1.83,5.79,1.44,0.44-.1.92-0.22,1.41-0.37a15.33,15.33,0,0,0,1.44-.55,10.6,10.6,0,0,0,2.7-1.67c-0.53,1.27-1,2.57-1.59,3.82l-1.76,3.75a0.58,0.58,0,0,0-.17.36c-0.67,1.52-1.5,3-2.27,4.45a6.6,6.6,0,0,1-.65.57,12.69,12.69,0,0,0-6.63-1c-2.13.28-3.74,1.21-3.72,3.17s1.44,2.51,3.36,2.26a18.07,18.07,0,0,0,6.25-2.43c-1,1.79-2.33,4-3.64,6.15l-2.05,3.13c-0.67,1-1.27,2-1.91,2.81a7.81,7.81,0,0,0-5.29-2.28,3.84,3.84,0,0,0-4.1,2.68,0.63,0.63,0,0,0,.12.63,5.64,5.64,0,0,0,3.81,1.54,10,10,0,0,0,4.23-1c-2,2.79-4.15,5.41-6.29,8.06a0.62,0.62,0,0,0-.49.16q-0.29.25-.59,0.46a9.86,9.86,0,0,0-5.74-3,5.39,5.39,0,0,0-3,.39,4.64,4.64,0,0,0-1.25.87,5.31,5.31,0,0,0-1.06,1.37,0.62,0.62,0,0,0,.06.64,7.9,7.9,0,0,0,4.38,2.59,8.22,8.22,0,0,0,2.55.13,9.57,9.57,0,0,0,2.52-.65c-0.64.71-1.25,1.45-1.91,2.14l-2,2.06c-1.85-.38-3.64-0.88-5.49-1.13s-5.06-.74-5.74,1.55c-0.81,2.66,2,3.71,4,3.69a9.25,9.25,0,0,0,2.87-1.19c0.58-.31,1.16-0.62,1.68-0.88a6.69,6.69,0,0,1,1.22-.57c-0.29.3-.61,0.65-1,1l-1.18,1.11-2.61,2.48c-0.88.87-1.84,1.64-2.69,2.4l-2.28,2a5.71,5.71,0,0,0-2-4.09c-1.46-1.31-4.19-2.47-5.94-1.08-1.9,1.56-1.18,4,.69,5.22a10.52,10.52,0,0,0,5.43,1.49l-3.34,2.66c0-.08-2.54,1.64-5.51,3.73a9.4,9.4,0,0,0-4.08-4.31c-1.22-.56-5.13-1.09-6,0.45-1,1.92.93,3.5,2.39,4.49a9,9,0,0,0,4.72,1.45c-3.61,2.57-7,5-7,5l-0.08,0c-2.84-1-9.85-6.6-11.77-1.31-0.64,1.75,1.81,2.94,3,3.37a10.71,10.71,0,0,0,4.43.43l-1,.53-1.67.88c-0.56.28-1.14,0.53-1.71,0.8l-3.42,1.58a15.76,15.76,0,0,0-2.93-5.27,5.52,5.52,0,0,0-3-2c-1.12-.18-2.32.3-3.61,1.92a2.06,2.06,0,0,0-.37,2.1,5.35,5.35,0,0,0,1.56,2.07,16.17,16.17,0,0,0,4.77,2.73c-1.9.76-3.78,1.54-5.73,2.15-2.3-3.51-2.29-5-5.68-7.41a5.52,5.52,0,0,0-1.48-.7,7.16,7.16,0,0,0-1.9-.42c-1.25-.08-2.34.31-2.47,1.67-0.25,2.53,2.53,4.53,4.26,5.68a6.9,6.9,0,0,0,2.62,1,9.65,9.65,0,0,1,2.73.78c-0.8.27-1.6,0.55-2.41,0.8l-2.44.68-2.44.68c-0.81.23-1.63,0.46-2.46,0.63a5.88,5.88,0,0,0-3.4-5.53,3.54,3.54,0,0,0-4-.61c-2.25,1-1.36,3.52.26,4.92,1.07,1.77,4.28,1.46,5.09,1.78-0.92.2-2.4,0.52-3.88,0.79l-3.92.61a0.54,0.54,0,0,0-.4-0.52,15.93,15.93,0,0,0-3.21-6.77c-1.34-1.76-3.94-3.51-5.8-1.54-1.66,1.73.45,4.45,1.64,5.71a13.65,13.65,0,0,0,5,3.56l-4.12.47-2.06.23c-0.69.08-1.38,0.1-2.07,0.15a0.58,0.58,0,0,0-.4,0l-5,.3a6.79,6.79,0,0,1-.82-0.29,13,13,0,0,0-2.49-6.28,5.37,5.37,0,0,0-2.16-1.78,2.84,2.84,0,0,0-2.45.19c-1.69.94-1.45,2.46-.28,4a16.57,16.57,0,0,0,5.23,4.16l-3.4,0c-1.21,0-2.48-.08-3.74-0.11L196,373.3l-3.39-.3a7.74,7.74,0,0,0-.69-5.7,4.61,4.61,0,0,0-1.79-1.86,3.61,3.61,0,0,0-2.58-.37,0.64,0.64,0,0,0-.49.43,5.64,5.64,0,0,0,.58,4.07,9.26,9.26,0,0,0,3,3.2c-1.7-.11-3.38-0.42-5.07-0.64s-3.38-.44-5-0.8a0.61,0.61,0,0,0-.38-0.34l-0.7-.27a9.78,9.78,0,0,0-.25-6.47,5.34,5.34,0,0,0-1.83-2.35,4.74,4.74,0,0,0-3.09-.91,0.63,0.63,0,0,0-.53.38,7.85,7.85,0,0,0,0,5.08,8.64,8.64,0,0,0,1.16,2.27,8.15,8.15,0,0,0,1.82,1.89c-0.94-.16-1.87-0.4-2.8-0.62l-2.79-.67c-0.6-1.79-1.07-3.55-1.76-5.34s-1.89-4.73-4.22-4.15a2.3,2.3,0,0,0-2,2.2,5.6,5.6,0,0,0,.8,3.13c0.56,1,4.3,2.77,5.17,3.68L162.73,367l-6.27-2.12a5.74,5.74,0,0,0,2.53-3.81,7.14,7.14,0,0,0-.09-3.25,3.32,3.32,0,0,0-1.93-2.45c-2.3-.85-4,1-4.18,3.22a10.42,10.42,0,0,0,1.43,5.43l-4-1.55a47.44,47.44,0,0,0-4.51-2.24c1-3.16,2.89-12.21-2.34-11.78S142,355.52,143,359c-4.13-1.92-8.53-3.91-8.65-4,1.59-2.39,1.5-5.11,1.13-7.91-0.2-1.49-.85-5.13-3.26-4.54-4.52,1.11-2.45,7.47-.41,11.15l-0.76-.47-3.2-2c-1.08-.64-2.1-1.38-3.13-2.1L121.66,347a15.83,15.83,0,0,0,3.12-5.18c0.9-2.6.84-5.21-3.23-5.82-1.69-.32-2.6,1.17-3,3.1a15.49,15.49,0,0,0,0,5.51l-2.41-1.89-2.32-2c1.88-3.74,3.17-4.46,3.56-8.61,0.18-1.8-.92-6-3.41-4.79-2.32,1.05-2.65,4.45-2.77,6.52a6.83,6.83,0,0,0,.41,2.78c0.13,0.4.27,0.81,0.39,1.26a7.69,7.69,0,0,1,.28,1.52l-1-.83-0.92-.88-1.83-1.76-1.83-1.76c-0.6-.6-1.16-1.23-1.75-1.84a5.82,5.82,0,0,0,3.07-5.7,3.69,3.69,0,0,0-1.46-3.8c-2-1.44-3.75.61-4.14,2.7a4,4,0,0,0,.06,3c0.35,1,.86,1.86.93,2.29-1.35-1.33-3.9-4.61-5.13-6a0.54,0.54,0,0,0,.25-0.6,16.4,16.4,0,0,0,4.29-6.21,6.51,6.51,0,0,0,.49-3.41,2.77,2.77,0,0,0-2.1-2.36c-2.27-.61-3.62,2.62-4.14,4.31a13.33,13.33,0,0,0-.51,6.09l-2.52-3.29c-0.81-1.12-1.58-2.27-2.37-3.4a0.58,0.58,0,0,0-.22-0.33l-1.41-2.06-1.32-2.12a6.64,6.64,0,0,1-.17-0.85,12.75,12.75,0,0,0,4.15-5.28,5.92,5.92,0,0,0,.48-2.78,2.62,2.62,0,0,0-1.38-2c-1.69-1-2.89,0-3.64,1.79a13.33,13.33,0,0,0-.81,3.16,18.19,18.19,0,0,0-.2,3.46c-0.57-.87-1.1-1.9-1.7-2.95l-1.83-3.27c-1.16-2.25-2.28-4.53-3.19-6.39a7.84,7.84,0,0,0,4.62-3.45c1-1.61,1.14-3.42-.27-4.9a0.67,0.67,0,0,0-.63-0.2c-2.88.85-4.17,3.65-4.48,6.69-0.67-1.57-1.39-3.11-2-4.7L75.9,285a0.59,0.59,0,0,0,.09-0.5,5,5,0,0,1-.12-0.74,9.91,9.91,0,0,0,5.51-3.46,5.45,5.45,0,0,0,1.16-2.77,4.3,4.3,0,0,0-.13-1.52,4.91,4.91,0,0,0-.28-0.78,5.74,5.74,0,0,0-.4-0.81,0.61,0.61,0,0,0-.58-0.27,8,8,0,0,0-4.44,2.5,8.82,8.82,0,0,0-2.06,4.64c-0.6-1.82-1.22-3.62-1.69-5.47,1.26-1.41,2.6-2.72,3.75-4.19s3.15-4,1.52-5.74c-1.87-2-4.2-.14-5.22,1.63a9.34,9.34,0,0,0-.44,3.08,22.64,22.64,0,0,1-.17,3.23c-0.22-.81-0.54-1.8-0.79-2.91l-0.8-3.51c-0.61-2.4-1-4.84-1.29-6.49a5.67,5.67,0,0,0,4.54.29c1.86-.6,4.3-2.4,3.88-4.59-0.36-2.43-2.8-3-4.82-2a10.54,10.54,0,0,0-4,4c-0.22-1.41-.38-2.82-0.58-4.23a7.6,7.6,0,0,0,0-1.43c3.3-1.11,13.84-4.75,10.71-7.72-1.63-1.54-4.84-.38-6.59.42A9.25,9.25,0,0,0,68.29,250c-0.14-1.9-.33-4.23-0.52-6.54,2.16-.18,4.66-0.19,6.43-1.51a3.05,3.05,0,0,0,.6-4.55c-1.2-1.25-3.35.22-4.3,1S69,240,68.23,240.65a4.28,4.28,0,0,1-.65.45c-0.36-4.3-.68-8-0.68-8s0-.1,0-0.16A28,28,0,0,0,75,231.07a2.19,2.19,0,0,0,1-3.34c-1.18-1.31-3.94-.54-5.33.06a10,10,0,0,0-3.68,2.68c0-.38,0-0.76.06-1.14l0.24-3.76,0.12-1.88,0.22-1.87a15.86,15.86,0,0,0,6,.1,5.31,5.31,0,0,0,3.26-1.63,2.8,2.8,0,0,0,.58-1.66,6.3,6.3,0,0,0-.43-2.42c-0.59-1.62-2.34-1.67-4.2-1a15.3,15.3,0,0,0-4.8,2.76c0.1-1,.29-2,0.47-3l0.53-3c2.09-.13,3.44,0,4.75-0.06a12.07,12.07,0,0,0,4.51-1.17A7,7,0,0,0,81,208.29c0.67-1,.84-2.2-0.24-3a4.47,4.47,0,0,0-3.62-.48,15.15,15.15,0,0,0-3.42,1.34c-2.08,1-2.28,2.39-4.28,3.72,0.78-3.29,1.48-6.6,2.49-9.83a5.79,5.79,0,0,0,6.46-.2,3.69,3.69,0,0,0,2.58-3.15c0.22-2.46-2.41-2.95-4.41-2.24-2,.07-3.52,2.94-4.12,3.51,0.24-.92.79-2.32,1.3-3.74l1.36-3.72a0.56,0.56,0,0,0,.66-0.08,16.34,16.34,0,0,0,7.53.62,6.44,6.44,0,0,0,3.18-1.28,3.16,3.16,0,0,0,1-1.28,2.57,2.57,0,0,0,.07-1.7c-0.62-2.28-4.08-1.83-5.79-1.44-0.44.1-.92,0.22-1.41,0.37a15.36,15.36,0,0,0-1.44.55,10.61,10.61,0,0,0-2.7,1.67c0.53-1.27,1-2.57,1.59-3.82l1.76-3.75a0.58,0.58,0,0,0,.17-0.36c0.67-1.52,1.5-3,2.27-4.45a6.62,6.62,0,0,1,.65-0.57,12.69,12.69,0,0,0,6.63,1c2.13-.28,3.74-1.21,3.72-3.17s-1.44-2.51-3.36-2.26a18.07,18.07,0,0,0-6.25,2.43c1-1.79,2.33-4,3.64-6.15L89,163.66c0.67-1,1.27-2,1.91-2.81a7.81,7.81,0,0,0,5.29,2.28,3.84,3.84,0,0,0,4.1-2.68,0.63,0.63,0,0,0-.12-0.63,5.64,5.64,0,0,0-3.81-1.54,10,10,0,0,0-4.23,1c2-2.79,4.15-5.41,6.29-8.06a0.62,0.62,0,0,0,.49-0.16q0.29-.25.59-0.46a9.86,9.86,0,0,0,5.74,3,5.39,5.39,0,0,0,3-.39,4.64,4.64,0,0,0,1.25-.87,5.3,5.3,0,0,0,1.06-1.37,0.62,0.62,0,0,0-.06-0.64,7.9,7.9,0,0,0-4.38-2.59,8.22,8.22,0,0,0-2.55-.13,9.57,9.57,0,0,0-2.52.65c0.64-.71,1.25-1.45,1.91-2.14l2-2.06c1.85,0.38,3.64.88,5.49,1.13s5.06,0.74,5.74-1.55c0.8-2.66-2-3.71-4-3.69a9.25,9.25,0,0,0-2.87,1.19c-0.58.31-1.16,0.62-1.68,0.88a6.7,6.7,0,0,1-1.22.57c0.29-.3.61-0.65,1-1l1.18-1.11,2.61-2.48c0.88-.87,1.84-1.64,2.69-2.4l2.28-2a5.71,5.71,0,0,0,2,4.09c1.46,1.31,4.19,2.47,5.94,1.09,1.9-1.56,1.18-4-.69-5.22a10.52,10.52,0,0,0-5.43-1.49s3.73-3.15,7.92-6.33l0.09,0.05c2.89,1,5.81,2.26,8.92,2.12,1.74-.08,4.33-1.14,4.33-3.21,0-1.72-2.55-2.27-3.78-2.35a20.79,20.79,0,0,0-5.41.35,37.32,37.32,0,0,1,4.94-3s2.23-1.34,2.23-1.34l1-.59c1.38,0.51,2.45,1.41,3.78,2a8.64,8.64,0,0,0,3.41.37c1.3,0,4,.12,4.51-1.59,0.42-1.54-1.56-2.61-2.69-3a11.11,11.11,0,0,0-4.92,0l1.54-.81c0.56-.28,1.14-0.53,1.71-0.8l3.42-1.58a15.76,15.76,0,0,0,2.92,5.27,5.52,5.52,0,0,0,3,2c1.12,0.18,2.32-.3,3.61-1.92a2.06,2.06,0,0,0,.37-2.1,5.35,5.35,0,0,0-1.56-2.07,16.17,16.17,0,0,0-4.77-2.73c1.9-.76,3.78-1.54,5.73-2.15,2.3,3.51,2.29,5,5.68,7.41a5.52,5.52,0,0,0,1.48.7,7.16,7.16,0,0,0,1.9.42c1.25,0.08,2.34-.31,2.47-1.67,0.25-2.53-2.53-4.53-4.26-5.68a6.9,6.9,0,0,0-2.62-1,9.65,9.65,0,0,1-2.73-.78c0.8-.27,1.6-0.55,2.41-0.8l2.44-.68,2.44-.68c0.81-.23,1.63-0.46,2.46-0.63a5.88,5.88,0,0,0,3.4,5.53,3.54,3.54,0,0,0,4,.61c2.25-1,1.36-3.52-.26-4.92-1.07-1.77-4.28-1.46-5.09-1.78,0.92-.2,2.4-0.52,3.88-0.79l3.92-.61a0.54,0.54,0,0,0,.4.52,15.93,15.93,0,0,0,3.21,6.77c1.34,1.76,3.94,3.51,5.8,1.54,1.66-1.73-.45-4.45-1.64-5.71a13.65,13.65,0,0,0-5-3.56l4.12-.47,2.06-.23c0.69-.08,1.38-0.1,2.07-0.15a0.58,0.58,0,0,0,.4,0l5-.3a6.8,6.8,0,0,1,.82.29,13,13,0,0,0,2.49,6.28,5.37,5.37,0,0,0,2.16,1.78,2.84,2.84,0,0,0,2.45-.19c1.69-.94,1.45-2.46.27-4a16.57,16.57,0,0,0-5.23-4.16l3.4,0c1.21,0,2.48.08,3.74,0.11l3.74,0.13,3.39,0.3a7.74,7.74,0,0,0,.69,5.7,4.61,4.61,0,0,0,1.79,1.86,3.61,3.61,0,0,0,2.58.37,0.64,0.64,0,0,0,.49-0.43,5.64,5.64,0,0,0-.58-4.07,9.26,9.26,0,0,0-3-3.2c1.7,0.11,3.38.42,5.07,0.64s3.38,0.44,5,.8a0.61,0.61,0,0,0,.38.34l0.7,0.27a9.79,9.79,0,0,0,.25,6.47,5.34,5.34,0,0,0,1.83,2.35,4.75,4.75,0,0,0,3.09.91,0.63,0.63,0,0,0,.53-0.38,7.85,7.85,0,0,0,0-5.08,8.65,8.65,0,0,0-1.16-2.27,8.15,8.15,0,0,0-1.82-1.89c0.94,0.16,1.87.4,2.8,0.62l2.79,0.67c0.6,1.79,1.07,3.55,1.76,5.34s1.89,4.73,4.22,4.15a2.3,2.3,0,0,0,2-2.2,5.6,5.6,0,0,0-.8-3.13c-0.56-1-4.3-2.77-5.17-3.68l6.37,1.82,6.27,2.12a5.74,5.74,0,0,0-2.53,3.81,7.14,7.14,0,0,0,.09,3.25,3.32,3.32,0,0,0,1.93,2.45c2.3,0.85,4-1,4.18-3.22a10.42,10.42,0,0,0-1.43-5.43l4,1.55,2.28,1.06v0c0,0.18,0,.37,0,0.57a0.58,0.58,0,0,0,0,.44c-0.26,3.56-1.1,10.19,3.38,10.56,1.75,0.14,1.6-2.62,1.38-3.59a27.1,27.1,0,0,0-3.37-7.21v-0.18c4.64,2.15,12.13,5.6,12.27,5.67l1.05,0.58a1.77,1.77,0,0,0,.63.35,0.66,0.66,0,0,0,0,.17c-0.05,2.51-.1,10.61,4.32,9.55,1.68-.4,1.3-3.25,1.14-4.41a7.1,7.1,0,0,0-.93-2.55l0.3,0.19c1.08,0.64,2.1,1.38,3.13,2.1l3.09,2.16a15.84,15.84,0,0,0-3.12,5.18c-0.9,2.6-.84,5.21,3.23,5.82,1.69,0.32,2.6-1.17,3-3.1a15.49,15.49,0,0,0,0-5.51l2.41,1.89,2.32,2c-1.88,3.74-3.17,4.46-3.56,8.61-0.18,1.8.92,6,3.41,4.79,2.32-1.05,2.65-4.45,2.77-6.52a6.83,6.83,0,0,0-.41-2.78c-0.13-.4-0.27-0.81-0.39-1.26a7.71,7.71,0,0,1-.28-1.52l1,0.83,0.92,0.88,1.83,1.76,1.83,1.76c0.6,0.6,1.16,1.23,1.75,1.84a5.82,5.82,0,0,0-3.07,5.7,3.69,3.69,0,0,0,1.46,3.8c2,1.44,3.75-.61,4.14-2.7a4,4,0,0,0-.06-3c-0.35-1-.86-1.86-0.93-2.29,1.35,1.33,3.9,4.61,5.13,6a0.54,0.54,0,0,0-.25.6,16.4,16.4,0,0,0-4.29,6.21,6.51,6.51,0,0,0-.49,3.41,2.77,2.77,0,0,0,2.1,2.36c2.27,0.61,3.62-2.62,4.14-4.31a13.33,13.33,0,0,0,.51-6.09l2.52,3.29c0.81,1.12,1.58,2.27,2.37,3.4a0.58,0.58,0,0,0,.22.33l1.41,2.06,1.32,2.12a6.67,6.67,0,0,1,.17.85,12.75,12.75,0,0,0-4.15,5.28,5.92,5.92,0,0,0-.48,2.78,2.62,2.62,0,0,0,1.38,2c1.69,1,2.89,0,3.64-1.79a13.33,13.33,0,0,0,.81-3.16,18.23,18.23,0,0,0,.2-3.46c0.57,0.87,1.1,1.9,1.7,2.95l1.83,3.27c1.16,2.25,2.28,4.53,3.19,6.39a7.84,7.84,0,0,0-4.62,3.45c-1,1.61-1.14,3.42.27,4.9a0.66,0.66,0,0,0,.63.2c2.88-.85,4.17-3.65,4.48-6.69,0.67,1.57,1.39,3.11,2,4.7l1.82,4.78a0.59,0.59,0,0,0-.09.5,5,5,0,0,1,.12.74,9.91,9.91,0,0,0-5.51,3.46,5.45,5.45,0,0,0-1.17,2.77,4.3,4.3,0,0,0,.13,1.52,4.94,4.94,0,0,0,.28.78,5.76,5.76,0,0,0,.4.81,0.61,0.61,0,0,0,.58.27,8,8,0,0,0,4.44-2.5,8.82,8.82,0,0,0,2.06-4.64c0.6,1.82,1.22,3.62,1.69,5.47-1.26,1.41-2.6,2.72-3.75,4.19s-3.15,4-1.52,5.74c1.87,2,4.2.14,5.22-1.63a9.34,9.34,0,0,0,.44-3.08,22.63,22.63,0,0,1,.17-3.23c0.21,0.81.54,1.8,0.79,2.91l0.8,3.51c0.61,2.4,1,4.84,1.29,6.49A5.67,5.67,0,0,0,332,214c-1.86.6-4.3,2.4-3.88,4.59,0.36,2.43,2.8,3,4.82,2a10.54,10.54,0,0,0,4-4c0.21,1.36.37,2.73,0.56,4.1a0.54,0.54,0,0,0,0,.72l0,0v0.13a0.75,0.75,0,0,0,0,.15c0.08,1.11.28,3.14,0.51,5.39a6.69,6.69,0,0,0-4.52,1.81c-1.49,1.28-3.39,3.88-3.18,5.94,0.18,1.77,2.21,2.06,3.39,1a16.29,16.29,0,0,0,2.65-3c0.75-1.06,1.17-2.35,1.91-3.42,0.44,4.12.9,8.16,0.9,8.18s0,0.25,0,.37a0.75,0.75,0,0,0,0,.26,0.65,0.65,0,0,0-.32.34,10.11,10.11,0,0,0-4.26,3c-0.75.87-2.47,3.22-1.75,4.44,0.82,1.41,3.24-.18,4-0.81a10.77,10.77,0,0,0,2.31-2.58c0,1.05,0,2.11-.09,3.16l-0.24,3.76-0.12,1.88Z" transform="translate(-54.17 -92.91)"/></svg>