<svg id="Layer_20" data-name="Layer 20" xmlns="http://www.w3.org/2000/svg" xmlns:xlink="http://www.w3.org/1999/xlink" viewBox="0 0 632.28 26.73"><defs><style>.cls-1{fill:#fabbb3;}.cls-2{fill:#969162;}</style><symbol id="New_Symbol_40" data-name="New Symbol 40" viewBox="0 0 26.28 25.75"><path class="cls-1" d="M5.16,16.84a11.73,11.73,0,0,0,4.46-1.79A30.74,30.74,0,0,1,13,12.92c-1.76,2.17-1.47,5.3-.72,7.85a12.26,12.26,0,0,0,1.81,4c0.56,0.74,1.6,1.52,2.4.63a4.8,4.8,0,0,0,.84-3A14.53,14.53,0,0,0,17,18.87a13.89,13.89,0,0,0-1.75-4.53,8.25,8.25,0,0,0,2.23,1.2,16.46,16.46,0,0,0,3.94.77c1.85,0.16,5.49,0,4.79-2.79-0.44-1.78-2.79-2.14-4.31-2.21a20.12,20.12,0,0,0-3.16.22,40,40,0,0,0-4.37.65A5.71,5.71,0,0,0,15.4,8.55a19.62,19.62,0,0,0-.09-2.48,21.13,21.13,0,0,0-.53-3.26A5.18,5.18,0,0,0,13.64.37,1.28,1.28,0,0,0,12,.22a3.9,3.9,0,0,0-1.77,3.05,8,8,0,0,0,.66,3.82c0.65,1.59,1.32,3.19,2.11,4.72a6.49,6.49,0,0,0-1.09-.29,18.81,18.81,0,0,0-2.41-.25c-1-.06-2-0.16-3-0.16a17.14,17.14,0,0,0-3.3.31C-2.51,12.6.2,17.73,5.16,16.84Z"/><path class="cls-2" d="M16.07,13.95A0.36,0.36,0,0,0,16,13.23,0.36,0.36,0,0,0,16.07,13.95Z"/><path class="cls-2" d="M15.09,15.49c0.25-.05.13-0.44-0.12-0.39S14.84,15.54,15.09,15.49Z"/><path class="cls-2" d="M13.62,16.81a0.3,0.3,0,0,0-.12-0.58A0.3,0.3,0,0,0,13.62,16.81Z"/><path class="cls-2" d="M14.61,14.08c0.27-.05.15-0.46-0.12-0.41S14.35,14.14,14.61,14.08Z"/><path class="cls-2" d="M13.13,15.1A0.47,0.47,0,0,0,13,14.17,0.47,0.47,0,0,0,13.13,15.1Z"/><path class="cls-2" d="M15,13.08a0.6,0.6,0,0,0-.22-1.17A0.6,0.6,0,0,0,15,13.08Z"/><path class="cls-2" d="M13.13,13.5c0.73-.15.43-1.26-0.3-1.12S12.4,13.64,13.13,13.5Z"/><path class="cls-2" d="M14.3,11.57c0.67-.13.33-1.14-0.34-1S13.63,11.7,14.3,11.57Z"/><path class="cls-2" d="M11.26,12.83c0.51-.1.45-0.91-0.06-0.81S10.75,12.93,11.26,12.83Z"/><path class="cls-2" d="M12.65,12c0.76-.15.67-1.36-0.1-1.21S11.89,12.12,12.65,12Z"/><path class="cls-2" d="M11.59,14.9a0.23,0.23,0,0,0-.1-0.45A0.23,0.23,0,0,0,11.59,14.9Z"/><path class="cls-2" d="M10,15.1a0.37,0.37,0,0,0-.13-0.72A0.37,0.37,0,0,0,10,15.1Z"/><path class="cls-2" d="M9.7,13.17c0.46-.09.38-0.82-0.08-0.72S9.24,13.26,9.7,13.17Z"/><path class="cls-2" d="M10.81,11.55c0.52-.1.46-0.94-0.07-0.83S10.28,11.65,10.81,11.55Z"/><path class="cls-2" d="M16,11.8a0.63,0.63,0,0,0-.2-1.24A0.63,0.63,0,0,0,16,11.8Z"/><path class="cls-2" d="M15.19,10.33c0.42-.08.25-0.72-0.16-0.64S14.77,10.41,15.19,10.33Z"/><path class="cls-2" d="M13.26,10.12c0.42-.08.35-0.75-0.08-0.67S12.83,10.21,13.26,10.12Z"/><path class="cls-2" d="M11.67,10.37c0.34-.07.27-0.61-0.08-0.54S11.32,10.44,11.67,10.37Z"/></symbol></defs><title>border</title><use width="26.28" height="25.75" transform="translate(8.78 -5.21) rotate(36.47)" xlink:href="#New_Symbol_40"/><use width="26.28" height="25.75" transform="translate(84.95 -2.99) rotate(72.24)" xlink:href="#New_Symbol_40"/><use width="26.28" height="25.75" transform="translate(124.57 3.73) rotate(-15.78)" xlink:href="#New_Symbol_40"/><use width="26.28" height="25.75" transform="translate(617.41 -5.39) rotate(32.67)" xlink:href="#New_Symbol_40"/><use width="26.28" height="25.75" transform="translate(572.82 -2.74) rotate(77.88)" xlink:href="#New_Symbol_40"/><use width="26.28" height="25.75" transform="matrix(0.94, 0.33, -0.33, 0.94, 494.19, -3.54)" xlink:href="#New_Symbol_40"/><use width="26.28" height="25.75" transform="translate(455.99 10.95) rotate(125.88)" xlink:href="#New_Symbol_40"/><use width="26.28" height="25.75" transform="translate(392.96 -0.24) rotate(87.06)" xlink:href="#New_Symbol_40"/><use width="26.28" height="25.75" transform="translate(322.02 -4.35) rotate(32.67)" xlink:href="#New_Symbol_40"/><use width="26.28" height="25.75" transform="translate(276.16 -3.02) rotate(77.41)" xlink:href="#New_Symbol_40"/><use width="26.28" height="25.75" transform="translate(199.09 -4.38) rotate(32.67)" xlink:href="#New_Symbol_40"/></svg>