<svg id="Layer_20" data-name="Layer 20" xmlns="http://www.w3.org/2000/svg" xmlns:xlink="http://www.w3.org/1999/xlink" viewBox="0 0 632.28 26.73"><defs><style>.cls-1{fill:#fabbb3}.cls-2{fill:#969162}</style><symbol id="New_Symbol_40" data-name="New Symbol 40" viewBox="0 0 26.28 25.75"><path class="cls-1" d="M5.16 16.84a11.73 11.73 0 0 0 4.46-1.79A30.74 30.74 0 0 1 13 12.92c-1.76 2.17-1.47 5.3-.72 7.85a12.26 12.26 0 0 0 1.81 4c.56.74 1.6 1.52 2.4.63a4.8 4.8 0 0 0 .84-3 14.53 14.53 0 0 0-.33-3.53 13.89 13.89 0 0 0-1.75-4.53 8.25 8.25 0 0 0 2.23 1.2 16.46 16.46 0 0 0 3.94.77c1.85.16 5.49 0 4.79-2.79-.44-1.78-2.79-2.14-4.31-2.21a20.12 20.12 0 0 0-3.16.22 40 40 0 0 0-4.37.65 5.71 5.71 0 0 0 1.03-3.63 19.62 19.62 0 0 0-.09-2.48 21.13 21.13 0 0 0-.53-3.26A5.18 5.18 0 0 0 13.64.37 1.28 1.28 0 0 0 12 .22a3.9 3.9 0 0 0-1.77 3.05 8 8 0 0 0 .66 3.82c.65 1.59 1.32 3.19 2.11 4.72a6.49 6.49 0 0 0-1.09-.29 18.81 18.81 0 0 0-2.41-.25c-1-.06-2-.16-3-.16a17.14 17.14 0 0 0-3.3.31c-5.71 1.18-3 6.31 1.96 5.42z"/><path class="cls-2" d="M16.07 13.95a.36.36 0 0 0-.07-.72.36.36 0 0 0 .07.72zM15.09 15.49c.25-.05.13-.44-.12-.39s-.13.44.12.39zM13.62 16.81a.3.3 0 0 0-.12-.58.3.3 0 0 0 .12.58zM14.61 14.08c.27-.05.15-.46-.12-.41s-.14.47.12.41zM13.13 15.1a.47.47 0 0 0-.13-.93.47.47 0 0 0 .13.93zM15 13.08a.6.6 0 0 0-.22-1.17.6.6 0 0 0 .22 1.17zM13.13 13.5c.73-.15.43-1.26-.3-1.12s-.43 1.26.3 1.12zM14.3 11.57c.67-.13.33-1.14-.34-1s-.33 1.13.34 1zM11.26 12.83c.51-.1.45-.91-.06-.81s-.45.91.06.81zM12.65 12c.76-.15.67-1.36-.1-1.21s-.66 1.33.1 1.21zM11.59 14.9a.23.23 0 0 0-.1-.45.23.23 0 0 0 .1.45zM10 15.1a.37.37 0 0 0-.13-.72.37.37 0 0 0 .13.72zM9.7 13.17c.46-.09.38-.82-.08-.72s-.38.81.08.72zM10.81 11.55c.52-.1.46-.94-.07-.83s-.46.93.07.83zM16 11.8a.63.63 0 0 0-.2-1.24.63.63 0 0 0 .2 1.24zM15.19 10.33c.42-.08.25-.72-.16-.64s-.26.72.16.64zM13.26 10.12c.42-.08.35-.75-.08-.67s-.35.76.08.67zM11.67 10.37c.34-.07.27-.61-.08-.54s-.27.61.08.54z"/></symbol></defs><title>border</title><use width="26.28" height="25.75" transform="rotate(36.47 12.297 10.72)" xlink:href="#New_Symbol_40"/><use width="26.28" height="25.75" transform="rotate(72.24 44.524 56.71)" xlink:href="#New_Symbol_40"/><use width="26.28" height="25.75" transform="rotate(-15.78 75.743 -447.575)" xlink:href="#New_Symbol_40"/><use width="26.28" height="25.75" transform="rotate(32.67 317.9 1050.605)" xlink:href="#New_Symbol_40"/><use width="26.28" height="25.75" transform="rotate(77.88 288.105 353.075)" xlink:href="#New_Symbol_40"/><use width="26.28" height="25.75" transform="matrix(.94 .33 -.33 .94 494.19 -3.54)" xlink:href="#New_Symbol_40"/><use width="26.28" height="25.75" transform="rotate(125.88 225.198 121.945)" xlink:href="#New_Symbol_40"/><use width="26.28" height="25.75" transform="rotate(87.06 196.606 206.71)" xlink:href="#New_Symbol_40"/><use width="26.28" height="25.75" transform="rotate(32.67 168.431 547.19)" xlink:href="#New_Symbol_40"/><use width="26.28" height="25.75" transform="rotate(77.41 139.964 170.811)" xlink:href="#New_Symbol_40"/><use width="26.28" height="25.75" transform="rotate(32.67 107.017 337.457)" xlink:href="#New_Symbol_40"/></svg>