<svg id="Layer_1" data-name="Layer 1" xmlns="http://www.w3.org/2000/svg" viewBox="0 0 929.44 294.35"><defs><style>.cls-1{fill:#bdc64b}.cls-2{fill:#fff}</style></defs><title>HeaderImg</title><path class="cls-1" d="M62.75 5c-.45-1.25-1-3-1.66-4.71-.62-.08-1.25-.21-1.88-.29a5.7 5.7 0 0 1-.71 0C54.75 0 51 0 47.31-.21a7.81 7.81 0 0 0 .95 2.08C51 6 62.92 11 67.59 11.78c.79.12-3.29-2.41-4.84-6.78z" transform="translate(-20.56 .86)"/><path class="cls-1" d="M85.45 41.15c-4.44-1.41-9-4.69-13.91-3-2.61.88-4.64 2.81-4 5.45-2.54 1-5.29 2-7.91 1.5-7.66-1.52-9.76-4.13-10-4.31a100.27 100.27 0 0 1-4.78-27.31c1.43 3.71 4.93 6.08 8.11 8.39.57.41 1-.56.58-1-3.1-2.64-7.5-4.78-8.72-8.94a82.41 82.41 0 0 1 .8-12.23l-1.47-.07c-.27.06-.55.12-.82.2a5.55 5.55 0 0 1-1.11.17A43.59 43.59 0 0 1 38 3.26h-.06C33.81.74 29.68 3.6 27.07 7c-3.75 4.9-3.26 10.07-4.85 15.67-.37 1.32 1.78-.91 2.3-1.85 2.85-5.12 9.49-3.07 12.61-7.78.87-1.3 3.76-7.78 1.57-8.74a18.82 18.82 0 0 0 4-3.27 88.93 88.93 0 0 0 0 21.85 12.1 12.1 0 0 0-4.37 6.24.55.55 0 0 0 1 .44 21.51 21.51 0 0 1 3.57-5.36 74.12 74.12 0 0 0 1.5 7.57 185.58 185.58 0 0 0 6.68 19.84.49.49 0 0 0-.1.24c-.54 3.38-.3 6.82-.98 10.15-.09.49-.2 1-.32 1.46-6.49 10.2-17.62 13.32-28.5 16.71-.94.29-.79 1.75.21 1.43 10-3.13 20.25-6.09 27.15-14.09C48.07 69 40 83.19 37.81 89.47c-.34 1 1.16 1.3 1.47.41C41.9 82.38 50 67.61 49.44 68.09c.39-1 1.69-4.58 1.44-4.78a44.44 44.44 0 0 0 1-9.54c2.79 7.44 5.44 14.9 6.79 22.71a49.68 49.68 0 0 1-.45 13.2.38.38 0 0 0-.3.18A43.92 43.92 0 0 1 50 98.35a.41.41 0 0 0-.41-.12c-3.13.62-6.53-.61-9.46 1.18-1.67 1-2.93 4.61-2.94 4.62-.43.36-2.31 4-1.7 3.68 4-1.88 12.25.26 14.39-8.19a26.66 26.66 0 0 0 7.87-7.78 36.91 36.91 0 0 1-1.55 4.83A50.71 50.71 0 0 1 48 110.8c-.13.16.16.47.31.31a40.76 40.76 0 0 0 11.31-22.5 85.94 85.94 0 0 1-1.67 16.24.38.38 0 0 0-.11.19 16.84 16.84 0 0 0-.41 2.27 114.42 114.42 0 0 1-8.05 23c-.11.25-2.82 7.52-2.68 7.23 1.81-3.83 6.58-14.77 8-18.8a25.12 25.12 0 0 0 .14 8.83c.06.29.57.33.52 0-.72-4.69.17-9.27 1.21-13.86l.17.29a31.58 31.58 0 0 1 1-3.61 4.53 4.53 0 0 0 .06-.54 26.26 26.26 0 0 0 .63-3.43 79.6 79.6 0 0 0 2.18-18.32 76.08 76.08 0 0 0-.52-8.43c1.29 5.36 3.6 11.05 7.82 14.14a.2.2 0 0 0 .29-.29 58.22 58.22 0 0 1-8.08-17.58c.13-1.78-2.49-11.54-2.58-11.75-.41-2.82-1.76-5.43-2.85-8.07l-.53-1.31c-1.26-3.91-2.55-7.81-3.82-11.7a1.78 1.78 0 0 0 1.23.29c2.45 1.24 4.61 2.49 7.35 2.82 1.06 2.17 3.13 3 4.64 5a22.87 22.87 0 0 1 2.39 3.91 1.31 1.31 0 0 0-.28.13C59.34 59.48 68 74.07 70.75 78.4c.51.81-.3-3.61.08-7.49.35-3.46 3-6.52 1.4-10-.48-1.05-3.59-5.41-5.34-5.85-.68-1.51-4.89-7.41-7.08-8.74h.85A20.37 20.37 0 0 0 68 44.69a.52.52 0 0 0 .62-.13c3.27 5.91 18.33-2.95 22.75-1.75.83.19-4.85-1.32-5.92-1.66zM458 83.89c-4.92-1.59-9.93-5.23-15.39-3.4-2.88 1-5.11 3.09-4.42 6-2.8 1-5.84 2.21-8.74 1.62-8.48-1.72-10.81-4.62-11.06-4.82A111.74 111.74 0 0 1 412.93 53c1.59 4.12 5.47 6.75 9 9.33.63.46 1.15-.62.64-1.05-3.44-2.94-8.31-5.33-9.68-9.95a91 91 0 0 1 1.16-15.82c.39-2.42.88-4.85 1.46-7.26a5.18 5.18 0 0 0 1.64 2c-3 2-2.3 7.23-.48 9.9 3.09 4.54 16.24 10.23 21.4 11.06.88.14-3.64-2.68-5.37-7.5-1.9-5.27-5.15-17.76-13.85-13.91a.59.59 0 0 0-.1-.23c-.79-1-2.28-2-2.73-3.3 2.72-10.1 7.49-19.6 16.14-25.94L428.9.04c-6.26 4.21-10.51 10.69-13.34 17.77-8.64-7.06-22.33-1.29-31.68 6.78-1.4 1.21 4 .34 5.63.26 6.33-.33 9.12 4.34 15.37 2.84 3.15-.76 6.33-3.56 9.16-5.63a74 74 0 0 0-1.93 7.45q-.79 3.85-1.31 7.77c-1.5 1.74-3.64 3-5.49 4.36h-.06c-4.54-2.75-9.1.4-12 4.16-4.12 5.41-3.55 11.13-5.28 17.33-.41 1.46 2-1 2.53-2 3.13-5.66 10.47-3.35 13.89-8.55 1-1.46 4.12-8.62 1.69-9.7a20.53 20.53 0 0 0 4.45-3.61 98.69 98.69 0 0 0 .11 24.19 13.24 13.24 0 0 0-4.79 6.89c-.23.74.81 1.25 1.12.49a23.53 23.53 0 0 1 3.86-5.91 82.65 82.65 0 0 0 1.69 8.39 207.47 207.47 0 0 0 7.48 22 .54.54 0 0 0-.11.27c-.57 3.74-.28 7.55-1 11.28-.1.54-.22 1.08-.35 1.62-7.16 11.21-19.44 14.61-31.44 18.32-1 .32-.86 1.93.24 1.59 11.05-3.41 22.35-6.64 29.93-15.47-.52 1.59-9.36 17.31-11.75 24.26-.37 1.07 1.28 1.44 1.62.46 2.86-8.3 11.76-24.61 11.12-24.08.42-1.08 1.84-5.06 1.57-5.29a49.17 49.17 0 0 0 1.07-10.56c3.12 8.25 6.09 16.52 7.61 25.18a55.08 55.08 0 0 1-.43 14.61.42.42 0 0 0-.33.19 48 48 0 0 1-8.67 9.33.46.46 0 0 0-.46-.13c-3.46.67-7.22-.7-10.45 1.26-1.84 1.12-3.21 5.09-3.23 5.1-.48.4-2.53 4.38-1.86 4.06 4.41-2.06 13.54.34 15.86-9a29.1 29.1 0 0 0 8.66-8.58 40.6 40.6 0 0 1-1.69 5.34 55.54 55.54 0 0 1-9 15.73c-.15.18.18.52.35.35 6.44-6.24 10.93-15.52 12.34-24.87a95.1 95.1 0 0 1-1.77 18 .42.42 0 0 0-.12.21 18.59 18.59 0 0 0-.44 2.51 125.83 125.83 0 0 1-8.78 25.48c-.13.27-3.08 8.31-2.93 8 2-4.23 7.2-16.32 8.8-20.77a27.88 27.88 0 0 0 .2 9.78c.07.33.63.37.57 0-.82-5.2.15-10.26 1.27-15.34 0 .1.1.2.15.3a34.81 34.81 0 0 1 1.08-4 5 5 0 0 0 .06-.6 29 29 0 0 0 .68-3.79 88 88 0 0 0 2.33-20.29 84.54 84.54 0 0 0-.61-9.33c1.46 5.94 4 12.25 8.71 15.69a.22.22 0 0 0 .32-.32 65.19 65.19 0 0 1-9-19.51c.13-2-2.81-12.79-2.91-13-.46-3.12-2-6-3.19-9-.2-.48-.4-1-.59-1.45-1.38-4.28-2.82-8.57-4.24-12.92a2 2 0 0 0 1.36.32c2.71 1.39 5.1 2.78 8.13 3.16 1.18 2.41 3.47 3.34 5.15 5.52a25.63 25.63 0 0 1 2.66 4.34 1.43 1.43 0 0 0-.31.14c-7 4.69 2.7 20.89 5.72 25.69.57.9-.35-4 .06-8.29.37-3.83 3.27-7.2 1.49-11.09-.53-1.17-4-6-5.93-6.5-.75-1.68-5.43-8.23-7.86-9.72h.94a22.34 22.34 0 0 0 8.09-1.76.57.57 0 0 0 .69-.14c3.64 6.56 20.24-3.18 25.13-1.82.92.21-5.37-1.52-6.51-1.9zM496.21-.39C491.39.16 486.58.76 481.76.9c2.17 1.24 4.45 2.45 6.59 2.69 4.09.45 6.27-1.65 9.2-3.07a5.23 5.23 0 0 1-1.34-.91z" transform="translate(-20.56 .86)"/><path class="cls-1" d="M516.2 90.23c-11.22-2-22.66-3.62-30.44-12.85-.18-.46-.35-.93-.5-1.41-1.08-3.26-1.28-6.71-2.24-10a.49.49 0 0 0-.13-.23 185.59 185.59 0 0 0 4.06-20.54 74.13 74.13 0 0 0 .51-7.7 21.51 21.51 0 0 1 4.18 4.85.55.55 0 0 0 .94-.56 12.1 12.1 0 0 0-5.13-5.62 88.93 88.93 0 0 0-2.82-21.66 18.82 18.82 0 0 0 4.43 2.73c-2 1.24 1.65 7.29 2.69 8.49 3.7 4.27 10 1.38 13.5 6.09.64.86 3.06 2.79 2.52 1.53-2.3-5.35-2.48-10.54-6.83-14.91-3-3-7.49-5.35-11.24-2.38l-.05.05a29.07 29.07 0 0 1-5.45-3.28q-.95-3.44-2.13-6.83c-.59-1.7-1.29-3.41-2-5.1-1 0-2.06 0-3.09-.07.43.9.85 1.8 1.24 2.72-.25 1.21-1.47 2.23-2.06 3.26a.53.53 0 0 0-.06.22c-8.28-2.47-9.7 9.07-10.77 14-1 4.51-4.7 7.55-3.92 7.32 4.54-1.33 15.66-7.9 17.89-12.31 1.31-2.59 1.31-7.38-1.62-8.81a4.62 4.62 0 0 0 1.22-2c.82 2.09 1.54 4.21 2.19 6.33a82.15 82.15 0 0 1 2.95 14c-.67 4.28-4.76 7-7.49 10-.41.45.19 1.36.7.87 2.86-2.7 6-5.5 7-9.36a100.27 100.27 0 0 1-1.22 27.7c-.21.2-1.95 3.06-9.35 5.56-2.53.85-5.4.15-8-.46.27-2.69-2-4.34-4.69-4.88-5.12-1-9.18 2.8-13.41 4.78-1 .48-6.45 2.75-5.65 2.41 4.22-1.76 20.31 5.09 22.78-1.2a.52.52 0 0 0 .64.05 20.37 20.37 0 0 0 7.48.67c.29 0 .57-.09.84-.13-2 1.6-5.42 8-5.89 9.58-1.68.66-4.2 5.38-4.54 6.49-1.13 3.68 1.89 6.38 2.68 9.76.88 3.79.65 8.29 1 7.42 2.14-4.64 8.88-20.23 2-23.64a1.31 1.31 0 0 0-.29-.09 22.87 22.87 0 0 1 1.87-4.18c1.24-2.14 3.19-3.23 4-5.52 2.67-.69 4.65-2.2 6.92-3.75a1.78 1.78 0 0 0 1.18-.44c-.75 4.06-1.53 8.06-2.25 12-.12.46-.23.91-.36 1.37-.74 2.76-1.75 5.53-1.79 8.37-.07.22-1.4 10.24-1 12a58.23 58.23 0 0 1-5.75 18.48.2.2 0 0 0 .32.25c3.79-3.6 5.34-9.54 5.94-15a76.07 76.07 0 0 0 .57 8.42 79.6 79.6 0 0 0 4.53 17.9 26.24 26.24 0 0 0 1.07 3.32 4.53 4.53 0 0 0 .13.53 31.6 31.6 0 0 1 1.45 3.45c0-.1.07-.19.1-.29 1.62 4.42 3.1 8.84 3 13.58 0 .35.49.25.51 0a25.12 25.12 0 0 0-1-8.78c2 3.8 8.12 14 10.4 17.6.17.27-3.45-6.6-3.59-6.83a114.42 114.42 0 0 1-11-21.81 16.84 16.84 0 0 0-.7-2.2.38.38 0 0 0-.13-.17 85.93 85.93 0 0 1-3.75-15.89 40.76 40.76 0 0 0 14.07 20.87c.18.13.43-.21.27-.35a50.71 50.71 0 0 1-10-13.07 36.9 36.9 0 0 1-2.16-4.59 26.66 26.66 0 0 0 8.81 6.71c3.21 8.1 11.12 4.92 15.33 6.27.64.21-1.68-3.13-2.16-3.43 0 0-1.72-3.41-3.51-4.2-3.14-1.4-6.35.25-9.54 0a.41.41 0 0 0-.39.17 43.92 43.92 0 0 1-9.02-7.28.38.38 0 0 0-.32-.14 49.68 49.68 0 0 1-2.15-13c.33-7.92 2-15.66 3.8-23.39a44.44 44.44 0 0 0 2.23 9.33c-.22.23 1.53 3.64 2 4.56-.64-.41 9.32 13.2 12.89 20.3.42.84 1.86.32 1.4-.6-3-5.95-12.81-19-13.47-20.39 7.87 7 18.4 8.67 28.74 10.48 1.09.11 1.05-1.35.08-1.52zM385.69 21.65c-8.5-7.33-20.91-12.6-28.7-6.25-2.47-6.11-6.11-11.72-11.38-15.55a11.8 11.8 0 0 1-3.86-.4c7.95 5.75 12.34 14.4 14.86 23.55-.41 1.17-1.75 2-2.46 3a.53.53 0 0 0-.09.21c-7.9-3.51-10.79 7.75-12.48 12.5-1.55 4.35-5.63 6.88-4.83 6.76 4.67-.73 16.55-5.81 19.33-9.9 1.63-2.4 2.25-7.15-.48-8.94a4.62 4.62 0 0 0 1.47-1.83c.54 2.18 1 4.37 1.35 6.56a82.15 82.15 0 0 1 1.12 14.29c-1.22 4.16-5.62 6.3-8.72 8.94-.46.39 0 1.37.58 1 3.18-2.31 6.68-4.68 8.11-8.39a100.27 100.27 0 0 1-4.78 27.31c-.23.18-2.33 2.78-10 4.31-2.62.52-5.38-.54-7.91-1.5.62-2.64-1.42-4.56-4-5.45-4.94-1.68-9.47 1.6-13.91 3-1.07.34-6.75 1.89-5.92 1.66 4.42-1.2 19.48 7.66 22.75 1.75a.52.52 0 0 0 .62.13 20.37 20.37 0 0 0 7.31 1.59h.85c-2.19 1.33-6.4 7.23-7.08 8.74-1.75.44-4.86 4.8-5.34 5.85-1.59 3.51 1.05 6.57 1.4 10 .39 3.87-.43 8.3.08 7.49 2.72-4.33 11.41-18.92 5.08-23.18a1.31 1.31 0 0 0-.28-.13 22.87 22.87 0 0 1 2.39-3.91c1.51-2 3.58-2.8 4.64-5 2.74-.34 4.9-1.58 7.35-2.82a1.78 1.78 0 0 0 1.24-.24c-1.27 3.93-2.56 7.8-3.79 11.65l-.53 1.31c-1.09 2.64-2.44 5.26-2.85 8.07-.1.21-2.71 10-2.58 11.75a58.23 58.23 0 0 1-8.08 17.58.2.2 0 0 0 .29.29c4.22-3.08 6.53-8.77 7.82-14.14a76.05 76.05 0 0 0-.52 8.43 79.6 79.6 0 0 0 2.19 18.33 26.25 26.25 0 0 0 .63 3.43 4.53 4.53 0 0 0 .06.54 31.6 31.6 0 0 1 1 3.61l.14-.27c1 4.59 1.94 9.16 1.21 13.86-.05.35.45.31.52 0a25.12 25.12 0 0 0 .14-8.83c1.46 4 6.24 15 8 18.8.13.29-2.57-7-2.68-7.23a114.42 114.42 0 0 1-8.05-23 16.83 16.83 0 0 0-.41-2.27.38.38 0 0 0-.11-.19 85.94 85.94 0 0 1-1.67-16.24A40.76 40.76 0 0 0 356 144.81c.16.15.45-.15.31-.31a50.71 50.71 0 0 1-8.2-14.24 36.89 36.89 0 0 1-1.55-4.83 26.66 26.66 0 0 0 7.87 7.78c2.14 8.45 10.39 6.31 14.39 8.19.61.29-1.26-3.32-1.7-3.68 0 0-1.27-3.6-2.94-4.62-2.93-1.79-6.33-.57-9.46-1.18a.41.41 0 0 0-.41.12 43.92 43.92 0 0 1-7.89-8.46.38.38 0 0 0-.3-.18 49.68 49.68 0 0 1-.45-13.2c1.34-7.81 4-15.27 6.79-22.71a44.44 44.44 0 0 0 1 9.54c-.25.2 1.05 3.8 1.44 4.78-.58-.48 7.55 14.29 10.16 21.79.31.89 1.8.56 1.47-.41-2.19-6.28-10.26-20.52-10.74-22 6.9 8 17.13 11 27.15 14.09 1 .31 1.15-1.14.21-1.43-10.88-3.39-22-6.51-28.53-16.67-.12-.48-.22-1-.32-1.46-.65-3.37-.41-6.82-.94-10.2a.49.49 0 0 0-.1-.24 185.58 185.58 0 0 0 6.68-19.84 74.12 74.12 0 0 0 1.5-7.57 21.51 21.51 0 0 1 3.56 5.37.55.55 0 0 0 1-.44 12.1 12.1 0 0 0-4.37-6.24 88.93 88.93 0 0 0 0-21.85 18.82 18.82 0 0 0 4 3.27c-2.19 1 .7 7.44 1.57 8.77 3.12 4.71 9.75 2.66 12.61 7.78.52.94 2.67 3.16 2.3 1.85-1.59-5.6-1.1-10.77-4.85-15.67-2.61-3.41-6.74-6.27-10.84-3.81h-.06a29.06 29.06 0 0 1-5-4q-.49-3.54-1.22-7a67.19 67.19 0 0 0-1.78-6.73c2.57 1.88 5.46 4.43 8.32 5.12 5.67 1.39 8.17-2.82 13.9-2.5 1.5.16 6.42.96 5.11-.14z" transform="translate(-20.56 .86)"/><path class="cls-1" d="M312.26 54.71c-2.61.88-4.64 2.81-4 5.45-2.54 1-5.29 2-7.91 1.5-7.66-1.52-9.76-4.13-10-4.31a100.27 100.27 0 0 1-4.8-27.35c1.43 3.71 4.93 6.08 8.11 8.39.57.41 1-.56.58-1-3.1-2.64-7.5-4.78-8.72-8.94a82.16 82.16 0 0 1 1.12-14.29c.36-2.16.81-4.31 1.36-6.49a4.62 4.62 0 0 0 1.47 1.83c-2.73 1.79-2.11 6.54-.48 8.94 2.78 4.09 14.66 9.17 19.33 9.9.8.12-3.28-2.41-4.83-6.76-1.7-4.76-4.59-16-12.48-12.5a.53.53 0 0 0-.09-.21c-.71-.94-2.05-1.8-2.46-3A61 61 0 0 1 290.6-.5c-8.22 0-16.45 0-24.66.3a45.71 45.71 0 0 0-6.57 4.72c-1.27 1.1 3.61.29 5.09.21 5.73-.32 8.23 3.89 13.9 2.5 2.85-.7 5.74-3.24 8.32-5.12a67.19 67.19 0 0 0-1.78 6.73q-.73 3.48-1.22 7a29.07 29.07 0 0 1-5 4h-.06c-4.1-2.47-8.23.39-10.84 3.81-3.75 4.9-3.26 10.07-4.85 15.67-.37 1.32 1.78-.91 2.3-1.85 2.85-5.12 9.49-3.07 12.61-7.78.88-1.33 3.76-7.8 1.57-8.77a18.81 18.81 0 0 0 4-3.27 88.93 88.93 0 0 0 0 21.85 12.1 12.1 0 0 0-4.37 6.24.55.55 0 0 0 1 .44 21.5 21.5 0 0 1 3.52-5.35 74.13 74.13 0 0 0 1.5 7.57 185.58 185.58 0 0 0 6.68 19.84.49.49 0 0 0-.1.24c-.53 3.38-.29 6.82-.94 10.2-.09.49-.2 1-.32 1.46-6.52 10.16-17.65 13.28-28.53 16.67-.94.29-.79 1.75.21 1.43 10-3.13 20.25-6.09 27.15-14.09-.48 1.44-8.54 15.67-10.74 22-.34 1 1.16 1.3 1.47.41 2.62-7.5 10.74-22.28 10.16-21.79.39-1 1.69-4.58 1.44-4.78a44.44 44.44 0 0 0 1-9.54c2.79 7.44 5.44 14.9 6.79 22.71a49.68 49.68 0 0 1-.45 13.2.38.38 0 0 0-.3.18 43.91 43.91 0 0 1-7.89 8.46.41.41 0 0 0-.41-.12c-3.13.62-6.53-.61-9.46 1.18-1.67 1-2.93 4.61-2.94 4.62-.43.36-2.31 4-1.7 3.68 4-1.88 12.25.26 14.39-8.19a26.66 26.66 0 0 0 7.87-7.78 36.9 36.9 0 0 1-1.55 4.83 50.71 50.71 0 0 1-8.2 14.24c-.13.16.16.47.31.31a40.76 40.76 0 0 0 11.27-22.51 85.93 85.93 0 0 1-1.67 16.24.38.38 0 0 0-.11.19 16.83 16.83 0 0 0-.41 2.27 114.42 114.42 0 0 1-8.05 23c-.11.25-2.82 7.52-2.68 7.23 1.81-3.83 6.58-14.77 8-18.8a25.12 25.12 0 0 0 .14 8.83c.06.29.57.33.52 0-.72-4.69.17-9.27 1.21-13.86l.14.27a31.59 31.59 0 0 1 1-3.61 4.53 4.53 0 0 0 .06-.54 26.25 26.25 0 0 0 .63-3.43 79.6 79.6 0 0 0 2.19-18.33 76.05 76.05 0 0 0-.52-8.43c1.29 5.36 3.6 11.05 7.82 14.14a.2.2 0 0 0 .29-.29 58.23 58.23 0 0 1-8.08-17.58c.13-1.78-2.49-11.54-2.58-11.75-.41-2.82-1.76-5.43-2.85-8.07l-.53-1.31c-1.23-3.86-2.52-7.72-3.79-11.65a1.78 1.78 0 0 0 1.23.29c2.45 1.24 4.61 2.49 7.35 2.82 1.06 2.17 3.13 3 4.64 5a22.86 22.86 0 0 1 2.39 3.91 1.31 1.31 0 0 0-.28.13c-6.33 4.26 2.36 18.85 5.08 23.18.51.81-.3-3.61.08-7.49.35-3.46 3-6.52 1.4-10-.48-1.05-3.59-5.41-5.34-5.85-.68-1.51-4.89-7.41-7.08-8.74h.85a20.37 20.37 0 0 0 7.33-1.63.52.52 0 0 0 .62-.13c3.27 5.91 18.33-2.95 22.75-1.75.83.23-4.85-1.32-5.92-1.66-4.37-1.56-8.89-4.86-13.84-3.15z" transform="translate(-20.56 .86)"/><path class="cls-1" d="M255.77 77.93c-3 1-5.29 3.18-4.54 6.23-2.9 1.06-6 2.25-9.06 1.61-8.82-1.87-11.26-4.91-11.53-5.11a117.87 117.87 0 0 1-5.87-31.6c1.69 4.31 5.74 7.08 9.42 9.8.66.49 1.18-.63.65-1.09-3.59-3.09-8.68-5.63-10.13-10.45a94.87 94.87 0 0 1 1.08-16.48c.39-2.52.87-5 1.46-7.55a5.52 5.52 0 0 0 1.75 2.13c-3.1 2-2.32 7.52-.42 10.31 3.25 4.76 16.95 10.8 22.32 11.71.91.16-3.8-2.83-5.64-7.87-2-5.51-5.49-18.55-14.5-14.61a.63.63 0 0 0-.1-.24c-.83-1.1-2.38-2.11-2.86-3.46 1.9-7.27 4.82-14.23 9.39-20l-3.93.15a46.55 46.55 0 0 0-6 11c-9-7.44-23.19-1.53-32.84 6.81-1.44 1.25 4.15.39 5.85.32 6.57-.29 9.5 4.6 16 3.08 3.26-.76 6.54-3.66 9.47-5.79a76.54 76.54 0 0 0-1.95 7.75q-.79 4-1.3 8.09c-1.54 1.8-3.76 3.1-5.66 4.5l-.07-.05c-4.74-2.91-9.44.34-12.39 4.24-4.23 5.6-3.6 11.57-5.34 18-.41 1.52 2-1 2.61-2.1 3.2-5.87 10.84-3.4 14.35-8.8 1-1.52 4.21-9 1.68-10.1a20.84 20.84 0 0 0 4.59-3.72 103.3 103.3 0 0 0 .31 25.22 13.5 13.5 0 0 0-4.98 7.14c-.23.77.85 1.31 1.16.52a24 24 0 0 1 4-6.13 87.26 87.26 0 0 0 1.83 8.76 220 220 0 0 0 7.95 23 .56.56 0 0 0-.12.28c-.56 3.89-.23 7.87-.93 11.76-.1.57-.22 1.13-.35 1.68-7.37 11.65-20.13 15.13-32.53 18.85-1.07.32-.88 2 .26 1.66 11.45-3.46 23.15-6.74 31-15.88-.53 1.65-9.58 18-12 25.19-.38 1.12 1.34 1.52 1.69.5 2.9-8.62 12-25.56 11.35-25 .43-1.12 1.87-5.26 1.58-5.5a51.21 51.21 0 0 0 1-11c3.31 8.62 6.46 17.27 8.11 26.31a57.55 57.55 0 0 1-.33 15.22.43.43 0 0 0-.34.2 48.73 48.73 0 0 1-8.93 9.65.48.48 0 0 0-.48-.14c-3.58.67-7.5-.79-10.84 1.23-1.9 1.15-3.3 5.28-3.31 5.29-.49.41-2.59 4.54-1.89 4.22 4.56-2.11 14.06.47 16.39-9.25 3.58-2.06 6.6-5.52 8.92-8.87a41.88 41.88 0 0 1-1.71 5.55 56.78 56.78 0 0 1-9.2 16.32c-.15.18.19.54.37.37 6.64-6.45 11.22-16.08 12.6-25.82a99.05 99.05 0 0 1-1.69 18.72.43.43 0 0 0-.12.21 19.29 19.29 0 0 0-.44 2.62 129.6 129.6 0 0 1-8.93 26.48c-.13.28-3.13 8.64-3 8.31 2-4.4 7.34-17 9-21.58a29.21 29.21 0 0 0 .29 10.2c.08.34.66.39.59 0-.9-5.43.07-10.69 1.19-16 0 .11.11.21.16.31a36 36 0 0 1 1.09-4.15 5.22 5.22 0 0 0 .06-.62 30.08 30.08 0 0 0 .68-3.95 91.63 91.63 0 0 0 2.28-21.08 88.77 88.77 0 0 0-.71-9.74c1.56 6.21 4.29 12.81 9.18 16.43.26.19.5-.07.33-.33a69.32 69.32 0 0 1-9.53-20.41c.12-2.05-3-13.36-3.13-13.6-.51-3.26-2.1-6.29-3.39-9.36-.21-.5-.42-1-.63-1.52-1.47-4.47-3-9-4.51-13.51a2.07 2.07 0 0 0 1.42.35c2.83 1.47 5.32 2.94 8.47 3.37 1.24 2.52 3.63 3.52 5.39 5.8a27.31 27.31 0 0 1 2.8 4.54 1.46 1.46 0 0 0-.32.15c-7.21 4.83 3 21.79 6.16 26.83.6.95-.4-4.18 0-8.64.35-4 3.34-7.48 1.46-11.55-.56-1.22-4.2-6.29-6.21-6.83-.8-1.76-5.71-8.62-8.25-10.19h1a22.9 22.9 0 0 0 8.39-1.77.58.58 0 0 0 .71-.14c3.83 6.87 21-3.14 26.07-1.69 1 .27-5.58-1.6-6.81-2-5.23-1.72-10.47-5.57-16.12-3.7zM762 14.53c-9.68-8.34-23.85-14.24-32.87-6.81a49.77 49.77 0 0 0-3.8-7.72q-1.33.22-2.67.49a6.12 6.12 0 0 1-.68.08 58.36 58.36 0 0 1 6.6 16c-.48 1.35-2 2.36-2.86 3.46a.63.63 0 0 0-.1.24c-9-3.94-12.49 9.1-14.5 14.61-1.84 5-6.56 8-5.64 7.87 5.37-.91 19.07-6.95 22.32-11.71 1.91-2.8 2.69-8.28-.42-10.31a5.53 5.53 0 0 0 1.72-2.13c.59 2.5 1.07 5 1.46 7.55a94.88 94.88 0 0 1 1.08 16.48c-1.45 4.82-6.54 7.36-10.13 10.45-.53.46 0 1.58.65 1.09 3.69-2.72 7.74-5.49 9.42-9.8a117.87 117.87 0 0 1-5.87 31.6c-.27.21-2.71 3.25-11.53 5.11-3 .64-6.16-.55-9.06-1.61.74-3.05-1.56-5.25-4.54-6.23-5.65-1.86-10.89 2-16 3.67-1.23.41-7.78 2.28-6.81 2 5.08-1.45 22.24 8.56 26.07 1.69a.58.58 0 0 0 .71.14 22.9 22.9 0 0 0 8.39 1.77h1c-2.54 1.57-7.45 8.44-8.25 10.19-2 .53-5.65 5.61-6.21 6.83-1.88 4.07 1.11 7.57 1.46 11.55.39 4.47-.61 9.59 0 8.64 3.18-5 13.36-22 6.16-26.83a1.45 1.45 0 0 0-.32-.15 27.31 27.31 0 0 1 2.8-4.54c1.76-2.28 4.15-3.28 5.39-5.8 3.15-.43 5.64-1.9 8.47-3.37a2.07 2.07 0 0 0 1.42-.35c-1.51 4.56-3 9-4.51 13.51-.21.51-.41 1-.63 1.52-1.29 3.06-2.88 6.1-3.39 9.36-.11.25-3.25 11.55-3.13 13.6a69.32 69.32 0 0 1-9.53 20.41c-.18.26.07.52.33.33 4.88-3.62 7.61-10.22 9.18-16.43a88.77 88.77 0 0 0-.71 9.74 91.63 91.63 0 0 0 2.25 21.13 30.06 30.06 0 0 0 .68 3.95 5.22 5.22 0 0 0 .06.62 36 36 0 0 1 1.09 4.15c.05-.11.11-.21.16-.31 1.13 5.28 2.09 10.55 1.19 16-.07.4.52.36.59 0a29.21 29.21 0 0 0 .29-10.2c1.62 4.63 6.95 17.18 9 21.58.15.33-2.85-8-3-8.31a129.6 129.6 0 0 1-8.91-26.48 19.29 19.29 0 0 0-.44-2.62.43.43 0 0 0-.12-.21 99.05 99.05 0 0 1-1.69-18.72c1.39 9.74 6 19.37 12.6 25.82.18.17.52-.18.37-.37a56.78 56.78 0 0 1-9.2-16.32 41.87 41.87 0 0 1-1.71-5.55c2.32 3.35 5.33 6.81 8.92 8.87 2.33 9.72 11.84 7.13 16.39 9.25.7.32-1.4-3.81-1.89-4.22 0 0-1.41-4.14-3.31-5.29-3.34-2-7.26-.56-10.84-1.23a.48.48 0 0 0-.48.14 48.73 48.73 0 0 1-8.93-9.65.43.43 0 0 0-.34-.2 57.55 57.55 0 0 1-.33-15.22c1.65-9 4.8-17.69 8.11-26.31a51.21 51.21 0 0 0 1 11c-.29.24 1.15 4.37 1.58 5.5-.66-.55 8.45 16.38 11.35 25 .34 1 2.06.62 1.69-.5-2.42-7.22-11.47-23.53-12-25.19 7.8 9.14 19.5 12.41 31 15.88 1.14.35 1.34-1.33.26-1.66-12.43-3.76-25.15-7.2-32.49-18.83-.13-.56-.24-1.12-.35-1.68-.7-3.88-.37-7.86-.93-11.76a.56.56 0 0 0-.12-.28 220.06 220.06 0 0 0 7.95-23 87.28 87.28 0 0 0 1.83-8.76 24 24 0 0 1 4 6.13c.32.8 1.39.25 1.16-.52a13.51 13.51 0 0 0-4.92-7.14 103.31 103.31 0 0 0 .14-25.21 20.84 20.84 0 0 0 4.59 3.72c-2.53 1.14.69 8.58 1.68 10.1 3.51 5.39 11.15 2.93 14.35 8.8.59 1.08 3 3.61 2.61 2.1-1.74-6.44-1.11-12.41-5.34-18-2.95-3.9-7.65-7.15-12.39-4.24l-.07.05c-1.91-1.4-4.12-2.69-5.66-4.5q-.51-4.08-1.3-8.09a76.54 76.54 0 0 0-1.95-7.75c2.93 2.13 6.21 5 9.47 5.79 6.49 1.52 9.41-3.37 16-3.08 1.7.02 7.29.88 5.88-.37zM188.55 3.57c.57.09-1.39-1.21-3.12-3.58l-8.13-.55a46.36 46.36 0 0 0 11.25 4.13z" transform="translate(-20.56 .86)"/><path class="cls-1" d="M206.42 32.94c-4.44-1.41-9-4.69-13.91-3-2.61.88-4.64 2.81-4 5.45-2.54 1-5.29 2-7.91 1.5-7.66-1.52-9.76-4.13-10-4.31a100.27 100.27 0 0 1-4.78-27.31c1.43 3.71 4.93 6.08 8.11 8.39.57.41 1-.56.58-1-3.1-2.64-7.5-4.78-8.72-8.94 0-1.35 0-2.7.09-4.05-.9 0-1.8.12-2.7.21a86.28 86.28 0 0 0 .56 14.76 12.1 12.1 0 0 0-4.37 6.24.55.55 0 0 0 1 .44 21.5 21.5 0 0 1 3.5-5.32 74.12 74.12 0 0 0 1.5 7.57A185.58 185.58 0 0 0 172 43.4a.49.49 0 0 0-.1.24c-.53 3.38-.29 6.82-.94 10.2-.09.49-.2 1-.32 1.46C164.16 65.46 153 68.58 142.15 72c-.94.29-.79 1.75.21 1.43 10-3.13 20.25-6.09 27.15-14.09C169 60.75 161 75 158.78 81.27c-.34 1 1.16 1.3 1.47.41 2.62-7.5 10.74-22.28 10.16-21.79.39-1 1.69-4.58 1.44-4.78a44.44 44.44 0 0 0 1-9.54c2.79 7.44 5.44 14.9 6.79 22.71a49.68 49.68 0 0 1-.45 13.2.38.38 0 0 0-.3.18 43.91 43.91 0 0 1-7.89 8.48.41.41 0 0 0-.41-.12c-3.13.62-6.53-.6-9.46 1.18-1.67 1-2.93 4.61-2.94 4.62-.43.36-2.31 4-1.7 3.68 4-1.88 12.25.26 14.39-8.19a26.66 26.66 0 0 0 7.87-7.78 36.9 36.9 0 0 1-1.55 4.83 50.71 50.71 0 0 1-8.2 14.24c-.13.16.16.47.31.31a40.76 40.76 0 0 0 11.27-22.51 85.94 85.94 0 0 1-1.67 16.24.38.38 0 0 0-.11.19 16.83 16.83 0 0 0-.41 2.27 114.42 114.42 0 0 1-8.05 23c-.11.25-2.82 7.52-2.68 7.23 1.81-3.83 6.58-14.77 8-18.8a25.12 25.12 0 0 0 .14 8.83c.06.29.57.33.52 0-.72-4.69.17-9.27 1.21-13.86l.14.27a31.6 31.6 0 0 1 1-3.61 4.53 4.53 0 0 0 .06-.54 26.25 26.25 0 0 0 .63-3.43 79.6 79.6 0 0 0 2.19-18.33 76.05 76.05 0 0 0-.52-8.43c1.29 5.36 3.6 11.05 7.82 14.14a.2.2 0 0 0 .29-.29 58.23 58.23 0 0 1-8.08-17.58c.16-1.7-2.46-11.51-2.55-11.7-.41-2.82-1.76-5.43-2.85-8.07l-.53-1.31c-1.23-3.86-2.52-7.72-3.79-11.65a1.78 1.78 0 0 0 1.23.29c2.45 1.24 4.61 2.49 7.35 2.82 1.06 2.17 3.13 3 4.64 5a22.87 22.87 0 0 1 2.39 3.91 1.31 1.31 0 0 0-.28.13c-6.33 4.26 2.36 18.85 5.08 23.18.51.81-.3-3.61.08-7.49.35-3.46 3-6.52 1.4-10-.48-1.05-3.59-5.41-5.34-5.85-.68-1.51-4.89-7.41-7.08-8.74h.85a20.37 20.37 0 0 0 7.34-1.73.52.52 0 0 0 .62-.13c3.27 5.91 18.33-2.95 22.75-1.75.8.23-4.88-1.33-5.95-1.67zM157.27.35h-10.25c-2.64 4.45-2.41 9.12-3.83 14.14-.37 1.32 1.78-.91 2.3-1.85 2.85-5.12 9.49-3.07 12.61-7.78a20.61 20.61 0 0 0 2-4.66c-.97.08-1.9.15-2.83.15z" transform="translate(-20.56 .86)"/><path class="cls-1" d="M147.45 19.66c-8.5-7.33-20.91-12.6-28.7-6.25A37.56 37.56 0 0 0 110.12.13h-3.33c5.92 5.6 9.42 13 11.58 20.88-.41 1.17-1.75 2-2.46 3a.53.53 0 0 0-.09.21c-7.9-3.51-10.79 7.75-12.48 12.5-1.55 4.35-5.63 6.88-4.83 6.76 4.67-.73 16.55-5.81 19.33-9.9 1.63-2.4 2.25-7.15-.48-8.94a4.62 4.62 0 0 0 1.47-1.83c.54 2.18 1 4.37 1.35 6.56a82.15 82.15 0 0 1 1.12 14.29c-1.22 4.16-5.62 6.3-8.72 8.94-.46.39 0 1.37.58 1 3.18-2.31 6.68-4.68 8.11-8.39a100.27 100.27 0 0 1-4.78 27.31c-.23.18-2.33 2.78-10 4.31-2.62.52-5.38-.54-7.91-1.5.62-2.64-1.42-4.56-4-5.45-4.94-1.68-9.47 1.6-13.91 3-1.07.34-6.75 1.89-5.92 1.66 4.42-1.2 19.48 7.66 22.75 1.75a.52.52 0 0 0 .62.13 20.37 20.37 0 0 0 7.31 1.58h.85c-2.19 1.33-6.4 7.23-7.08 8.74-1.75.44-4.86 4.8-5.34 5.85-1.59 3.51 1.05 6.57 1.4 10 .39 3.87-.43 8.3.08 7.49 2.72-4.33 11.41-18.92 5.08-23.18a1.31 1.31 0 0 0-.28-.13 22.87 22.87 0 0 1 2.39-3.91c1.51-2 3.58-2.8 4.64-5 2.74-.34 4.9-1.58 7.35-2.82a1.78 1.78 0 0 0 1.23-.29c-1.27 3.93-2.56 7.8-3.79 11.65l-.53 1.31c-1.09 2.64-2.44 5.26-2.85 8.07-.1.21-2.71 10-2.58 11.75a58.23 58.23 0 0 1-8.08 17.58.2.2 0 0 0 .29.29c4.22-3.08 6.53-8.77 7.82-14.14a76.08 76.08 0 0 0-.52 8.43 79.6 79.6 0 0 0 2.19 18.33 26.25 26.25 0 0 0 .63 3.43 4.53 4.53 0 0 0 .06.54 31.59 31.59 0 0 1 1 3.61l.14-.27c1 4.59 1.94 9.16 1.21 13.86-.05.35.45.31.52 0a25.11 25.11 0 0 0 .14-8.83c1.46 4 6.24 15 8 18.8.13.29-2.57-7-2.68-7.23a114.42 114.42 0 0 1-8.05-23 16.84 16.84 0 0 0-.41-2.27.38.38 0 0 0-.11-.19 85.93 85.93 0 0 1-1.67-16.24 40.76 40.76 0 0 0 11.27 22.51c.16.15.45-.15.31-.31a50.71 50.71 0 0 1-8.2-14.24 36.91 36.91 0 0 1-1.55-4.83 26.66 26.66 0 0 0 7.87 7.78c2.14 8.45 10.39 6.31 14.39 8.19.61.29-1.26-3.32-1.7-3.68 0 0-1.27-3.6-2.94-4.62-2.93-1.79-6.33-.57-9.46-1.18a.41.41 0 0 0-.41.12 43.91 43.91 0 0 1-7.89-8.46.38.38 0 0 0-.3-.18 49.68 49.68 0 0 1-.45-13.2c1.34-7.81 4-15.27 6.79-22.71a44.44 44.44 0 0 0 1 9.54c-.25.2 1.05 3.8 1.44 4.78-.58-.48 7.55 14.29 10.16 21.79.31.89 1.8.56 1.47-.41-2.19-6.28-10.26-20.52-10.74-22 6.9 8 17.13 11 27.15 14.09 1 .31 1.15-1.14.21-1.43-10.88-3.39-22-6.51-28.53-16.67-.12-.48-.22-1-.32-1.46-.65-3.37-.41-6.82-.94-10.2a.49.49 0 0 0-.1-.24 185.58 185.58 0 0 0 6.68-19.84 74.14 74.14 0 0 0 1.5-7.57 21.51 21.51 0 0 1 3.52 5.35.55.55 0 0 0 1-.44 12.1 12.1 0 0 0-4.37-6.24 88.93 88.93 0 0 0 0-21.85 18.82 18.82 0 0 0 4 3.27c-2.19 1 .7 7.44 1.57 8.77 3.12 4.71 9.75 2.66 12.61 7.78.52.94 2.67 3.16 2.3 1.85-1.59-5.6-1.1-10.77-4.85-15.67-2.61-3.41-6.74-6.27-10.84-3.81h-.06a29.07 29.07 0 0 1-5-4q-.49-3.54-1.22-7a67.18 67.18 0 0 0-1.78-6.73c2.57 1.88 5.46 4.43 8.32 5.12 5.67 1.39 8.17-2.82 13.9-2.5 1.55.3 6.43 1.06 5.16-.04zM919 .54l-.32-.06c-4.48-1-8.79-.56-13.1.06a8.58 8.58 0 0 0 1.24 3.16c2.78 4.09 14.66 9.17 19.33 9.9.8.12-3.28-2.41-4.83-6.76-.6-1.61-1.32-4-2.32-6.3z" transform="translate(-20.56 .86)"/><path class="cls-1" d="M944 43c-4.44-1.41-9-4.69-13.91-3-2.61.88-4.64 2.81-4 5.45-2.54 1-5.29 2-7.91 1.5-7.66-1.52-9.76-4.13-10-4.31a100.27 100.27 0 0 1-4.78-27.31c1.43 3.71 4.93 6.08 8.11 8.39.57.41 1-.56.58-1-3.1-2.64-7.5-4.78-8.72-8.94a82.39 82.39 0 0 1 .91-13.05l-2.78.4a29.11 29.11 0 0 1-5 4h-.06c-4.1-2.47-8.23.39-10.84 3.81-3.75 4.9-3.26 10.07-4.85 15.67-.37 1.32 1.78-.91 2.3-1.85 2.85-5.12 9.49-3.07 12.61-7.78.88-1.33 3.76-7.8 1.57-8.77a18.81 18.81 0 0 0 4-3.27 88.94 88.94 0 0 0 0 21.85 12.1 12.1 0 0 0-4.37 6.24.55.55 0 0 0 1 .44 21.51 21.51 0 0 1 3.59-5.47 74.13 74.13 0 0 0 1.5 7.57 185.59 185.59 0 0 0 6.68 19.84.49.49 0 0 0-.1.24c-.53 3.38-.29 6.82-.94 10.2-.09.49-.2 1-.32 1.46-6.53 10.18-17.66 13.3-28.54 16.69-.94.29-.79 1.75.21 1.43 10-3.13 20.25-6.09 27.15-14.09-.48 1.44-8.54 15.67-10.74 22-.34 1 1.16 1.3 1.47.41 2.62-7.5 10.74-22.28 10.16-21.79.39-1 1.69-4.58 1.44-4.78a44.44 44.44 0 0 0 1-9.54c2.79 7.44 5.44 14.9 6.79 22.71a49.68 49.68 0 0 1-.45 13.2.38.38 0 0 0-.3.18 43.91 43.91 0 0 1-7.89 8.46.41.41 0 0 0-.41-.12c-3.13.62-6.53-.61-9.46 1.18-1.67 1-2.93 4.61-2.94 4.62-.43.36-2.31 4-1.7 3.68 4-1.88 12.25.26 14.39-8.19a26.66 26.66 0 0 0 7.87-7.78 36.9 36.9 0 0 1-1.55 4.83 50.71 50.71 0 0 1-8.2 14.24c-.13.16.16.47.31.31a40.76 40.76 0 0 0 11.27-22.51 85.93 85.93 0 0 1-1.67 16.24.38.38 0 0 0-.11.19 16.84 16.84 0 0 0-.41 2.27 114.42 114.42 0 0 1-8.05 23c-.11.25-2.82 7.52-2.68 7.23 1.81-3.83 6.58-14.77 8-18.8a25.12 25.12 0 0 0 .14 8.83c.06.29.57.33.52 0-.72-4.69.17-9.27 1.21-13.86l.14.27a31.58 31.58 0 0 1 1-3.61 4.53 4.53 0 0 0 .06-.54 26.26 26.26 0 0 0 .63-3.43 79.59 79.59 0 0 0 2.19-18.33 76.05 76.05 0 0 0-.52-8.43c1.29 5.36 3.6 11.05 7.82 14.14a.2.2 0 0 0 .29-.29 58.22 58.22 0 0 1-8.08-17.58c.17-1.75-2.44-11.52-2.54-11.75-.41-2.82-1.76-5.43-2.85-8.07l-.53-1.31c-1.23-3.86-2.52-7.72-3.79-11.65a1.78 1.78 0 0 0 1.23.29c2.45 1.24 4.61 2.49 7.35 2.82 1.06 2.17 3.13 3 4.64 5a22.86 22.86 0 0 1 2.39 3.91 1.31 1.31 0 0 0-.28.13c-6.33 4.26 2.36 18.85 5.08 23.18.51.81-.3-3.61.08-7.49.35-3.46 3-6.52 1.4-10-.48-1.05-3.59-5.41-5.34-5.85-.68-1.51-4.89-7.41-7.08-8.74h.85a20.37 20.37 0 0 0 7.33-1.63.52.52 0 0 0 .62-.13c3.27 5.91 18.33-2.95 22.75-1.75.81.16-4.87-1.39-5.94-1.71z" transform="translate(-20.56 .86)"/><path class="cls-1" d="M887.57 75.47c-4.44-1.41-9-4.69-13.91-3-2.61.88-4.64 2.81-4 5.45-2.54 1-5.29 2-7.91 1.5-7.66-1.52-9.76-4.13-10-4.31a100.27 100.27 0 0 1-4.78-27.31c1.43 3.71 4.93 6.08 8.11 8.39.57.41 1-.56.58-1-3.1-2.64-7.5-4.78-8.72-8.94A82.15 82.15 0 0 1 848 32c.37-2.19.81-4.38 1.35-6.56a4.62 4.62 0 0 0 1.47 1.83c-2.73 1.79-2.11 6.54-.48 8.94 2.78 4.09 14.66 9.17 19.33 9.9.8.12-3.28-2.41-4.83-6.76-1.7-4.76-4.59-16-12.48-12.5a.53.53 0 0 0-.09-.21c-.71-.94-2.05-1.8-2.46-3 2.43-8.87 6.6-17.25 14-23h-3.23C855.46 4.47 851.9 10 849.47 16c-7.79-6.35-20.2-1.07-28.7 6.25-1.27 1.1 3.61.29 5.09.21 5.73-.32 8.23 3.88 13.9 2.5 2.85-.7 5.74-3.24 8.32-5.12a67.19 67.19 0 0 0-1.78 6.73q-.73 3.48-1.22 7a29.06 29.06 0 0 1-5 4h-.06c-4.1-2.47-8.23.39-10.84 3.81-3.75 4.9-3.26 10.07-4.85 15.67-.37 1.32 1.78-.91 2.3-1.85 2.85-5.12 9.49-3.07 12.61-7.78.88-1.33 3.76-7.8 1.57-8.77a18.82 18.82 0 0 0 4-3.27 88.93 88.93 0 0 0 0 21.85 12.1 12.1 0 0 0-4.37 6.24.55.55 0 0 0 1 .44 21.51 21.51 0 0 1 3.56-5.4 74.14 74.14 0 0 0 1.5 7.57 185.58 185.58 0 0 0 6.68 19.84.49.49 0 0 0-.1.24c-.53 3.38-.29 6.82-.94 10.2-.09.49-.2 1-.32 1.46-6.52 10.16-17.65 13.28-28.53 16.67-.94.29-.79 1.75.21 1.43 10-3.13 20.25-6.09 27.15-14.09-.48 1.44-8.54 15.67-10.74 22-.34 1 1.16 1.3 1.47.41 2.62-7.5 10.74-22.28 10.16-21.79.39-1 1.69-4.58 1.44-4.78a44.44 44.44 0 0 0 1-9.54c2.79 7.44 5.44 14.9 6.79 22.71a49.68 49.68 0 0 1-.45 13.2.38.38 0 0 0-.3.18 43.92 43.92 0 0 1-7.89 8.46.41.41 0 0 0-.41-.12c-3.13.62-6.53-.61-9.46 1.18-1.67 1-2.93 4.61-2.94 4.62-.43.36-2.31 4-1.7 3.68 4-1.88 12.25.26 14.39-8.19a26.66 26.66 0 0 0 7.87-7.78 36.91 36.91 0 0 1-1.55 4.83 50.71 50.71 0 0 1-8.2 14.24c-.13.16.16.47.31.31a40.76 40.76 0 0 0 11.27-22.51 85.93 85.93 0 0 1-1.67 16.24.38.38 0 0 0-.11.19 16.84 16.84 0 0 0-.41 2.27 114.42 114.42 0 0 1-8.05 23c-.11.25-2.82 7.52-2.68 7.23 1.8-3.83 6.58-14.77 8-18.8a25.11 25.11 0 0 0 .14 8.83c.06.29.57.33.52 0-.72-4.69.17-9.27 1.21-13.86l.14.27a31.6 31.6 0 0 1 1-3.61 4.53 4.53 0 0 0 .06-.54 26.25 26.25 0 0 0 .63-3.43 79.6 79.6 0 0 0 2.19-18.33 76.08 76.08 0 0 0-.52-8.43c1.29 5.36 3.6 11.05 7.82 14.14a.2.2 0 0 0 .29-.29 58.23 58.23 0 0 1-8.08-17.58c.13-1.78-2.49-11.54-2.58-11.75-.41-2.82-1.76-5.43-2.85-8.07l-.53-1.31c-1.23-3.86-2.52-7.72-3.79-11.65a1.78 1.78 0 0 0 1.23.29c2.45 1.24 4.61 2.49 7.35 2.82 1.06 2.17 3.13 3 4.64 5a22.86 22.86 0 0 1 2.39 3.91 1.31 1.31 0 0 0-.28.13c-6.33 4.26 2.36 18.85 5.08 23.18.51.81-.3-3.61.08-7.49.35-3.46 3-6.52 1.4-10-.48-1.05-3.59-5.41-5.34-5.85-.68-1.51-4.89-7.41-7.08-8.74h.85a20.37 20.37 0 0 0 7.36-1.71.52.52 0 0 0 .62-.13c3.27 5.91 18.33-2.95 22.75-1.75.84.24-4.85-1.31-5.92-1.65zM817.09 94.22c-10.88-3.39-22-6.51-28.53-16.67-.12-.48-.22-1-.32-1.46-.65-3.37-.41-6.82-.94-10.2a.49.49 0 0 0-.1-.24 185.59 185.59 0 0 0 6.68-19.84 74.12 74.12 0 0 0 1.5-7.57 21.51 21.51 0 0 1 3.52 5.35.55.55 0 0 0 1-.44 12.1 12.1 0 0 0-4.37-6.24 88.94 88.94 0 0 0 0-21.85 18.82 18.82 0 0 0 4 3.27c-2.19 1 .7 7.44 1.57 8.77 3.12 4.71 9.75 2.66 12.61 7.78.52.94 2.67 3.16 2.3 1.85-1.59-5.6-1.1-10.77-4.85-15.67-2.61-3.41-6.74-6.27-10.84-3.81h-.06a29.06 29.06 0 0 1-5-4q-.49-3.54-1.22-7c-.4-1.88-.9-3.79-1.47-5.68h-1.29a5.28 5.28 0 0 1-1.69-.28q.49 1.49.9 3c-.41 1.17-1.75 2-2.46 3a.53.53 0 0 0-.09.21c-7.9-3.51-10.79 7.75-12.48 12.5-1.55 4.35-5.63 6.88-4.83 6.76 4.67-.73 16.55-5.81 19.33-9.9 1.63-2.4 2.25-7.15-.48-8.94A4.62 4.62 0 0 0 791 5.14c.54 2.18 1 4.37 1.35 6.56a82.15 82.15 0 0 1 1.13 14.3c-1.22 4.16-5.62 6.3-8.72 8.94-.46.39 0 1.37.58 1 3.18-2.31 6.68-4.68 8.11-8.39a100.27 100.27 0 0 1-4.78 27.31c-.23.18-2.33 2.78-10 4.31-2.62.52-5.38-.54-7.91-1.5.62-2.64-1.42-4.56-4-5.45-4.94-1.68-9.47 1.6-13.91 3-1.07.34-6.75 1.89-5.92 1.66 4.42-1.2 19.48 7.66 22.75 1.75a.52.52 0 0 0 .62.13 20.37 20.37 0 0 0 7.33 1.63h.85c-2.19 1.33-6.4 7.23-7.08 8.74-1.75.44-4.86 4.8-5.34 5.85-1.59 3.51 1.05 6.57 1.4 10 .39 3.87-.43 8.3.08 7.49 2.72-4.33 11.41-18.92 5.08-23.18a1.31 1.31 0 0 0-.28-.13 22.86 22.86 0 0 1 2.39-3.91c1.51-2 3.58-2.8 4.64-5 2.74-.34 4.9-1.58 7.35-2.82a1.78 1.78 0 0 0 1.23-.29c-1.27 3.93-2.56 7.8-3.79 11.65l-.53 1.31c-1.09 2.64-2.44 5.26-2.85 8.07-.1.21-2.71 10-2.58 11.75a58.23 58.23 0 0 1-8.08 17.58.2.2 0 0 0 .29.29c4.22-3.08 6.53-8.77 7.82-14.14a76.08 76.08 0 0 0-.52 8.43 79.59 79.59 0 0 0 2.19 18.33 26.24 26.24 0 0 0 .63 3.43 4.55 4.55 0 0 0 .06.54 31.58 31.58 0 0 1 1 3.61l.14-.27c1 4.59 1.94 9.16 1.21 13.86-.05.35.45.31.52 0a25.12 25.12 0 0 0 .14-8.83c1.46 4 6.24 15 8 18.8.13.29-2.57-7-2.68-7.23a114.42 114.42 0 0 1-8.05-23 16.84 16.84 0 0 0-.41-2.27.38.38 0 0 0-.11-.19 85.94 85.94 0 0 1-1.67-16.24 40.76 40.76 0 0 0 11.27 22.51c.16.15.45-.15.32-.31A50.71 50.71 0 0 1 782 110.6a36.9 36.9 0 0 1-1.55-4.83 26.66 26.66 0 0 0 7.87 7.78c2.14 8.45 10.39 6.31 14.39 8.19.61.29-1.26-3.32-1.7-3.68 0 0-1.27-3.6-2.94-4.62-2.93-1.79-6.33-.57-9.46-1.18a.41.41 0 0 0-.41.12 43.92 43.92 0 0 1-7.89-8.46.38.38 0 0 0-.3-.18 49.68 49.68 0 0 1-.45-13.2c1.34-7.81 4-15.27 6.79-22.71a44.44 44.44 0 0 0 1 9.54c-.25.2 1.05 3.8 1.44 4.78-.58-.48 7.55 14.29 10.16 21.79.31.89 1.8.56 1.47-.41-2.19-6.28-10.26-20.52-10.74-22 6.9 8 17.13 11 27.15 14.09 1.05.38 1.17-1.11.26-1.4zM817-.09c-4.65 1-9.65.48-14.34.76a4.57 4.57 0 0 1-2.84-.67 59.15 59.15 0 0 1-6.13.64c2.21 1.68 4.59 3.52 6.95 4.1 5.67 1.39 8.17-2.82 13.9-2.5 1.48.08 6.37.89 5.09-.21-.83-.75-1.72-1.45-2.63-2.12zM695.17 64.12c-4.22-2-8.28-5.81-13.4-4.79-2.7.54-5 2.18-4.7 4.88-2.64.62-5.51 1.31-8 .45-7.4-2.51-9.14-5.36-9.35-5.57a100.27 100.27 0 0 1-1.19-27.7c.93 3.87 4.09 6.66 7 9.37.51.48 1.1-.42.7-.87-2.73-3-6.82-5.72-7.48-10a82.16 82.16 0 0 1 3-14 92.91 92.91 0 0 1 2.19-6.33 4.62 4.62 0 0 0 1.22 2c-2.94 1.42-2.94 6.21-1.63 8.8 2.22 4.42 13.34 11 17.87 12.33.77.23-2.94-2.81-3.91-7.33-1.06-4.94-2.47-16.48-10.75-14a.53.53 0 0 0-.06-.22c-.58-1-1.8-2.05-2.05-3.26a56.81 56.81 0 0 1 4.55-8.72c-1.14 0-2.28.11-3.42.23-.17.29-.35.57-.52.87-.25-.26-.51-.49-.78-.72-2.74.33-5.48.78-8.16.91-5.63.26-11.27.25-16.91.25-1.18.64-2.33 1.32-3.43 2-1.4.92 3.54.76 5 .87 5.64.43 7.57 4.93 13.37 4.29 2.92-.32 6.12-2.47 8.91-4a67.17 67.17 0 0 0-2.64 6.45q-1.18 3.35-2.12 6.8a29.07 29.07 0 0 1-5.48 3.28v-.06c-3.75-3-8.21-.68-11.25 2.37-4.35 4.37-4.54 9.56-6.84 14.91-.54 1.26 1.88-.67 2.52-1.53 3.49-4.71 9.81-1.81 13.51-6.07 1-1.2 4.74-7.25 2.7-8.49a18.81 18.81 0 0 0 4.36-2.73 88.93 88.93 0 0 0-2.84 21.66 12.1 12.1 0 0 0-5.14 5.62.55.55 0 0 0 .94.56 21.51 21.51 0 0 1 4.18-4.85 74.11 74.11 0 0 0 .5 7.7 185.58 185.58 0 0 0 4 20.54.49.49 0 0 0-.13.22c-1 3.28-1.17 6.73-2.25 10-.16.48-.33.94-.51 1.41-7.79 9.22-19.23 10.87-30.45 12.82-1 .17-1 1.63 0 1.45 10.34-1.8 20.87-3.41 28.75-10.44-.66 1.36-10.51 14.43-13.5 20.37-.46.92 1 1.44 1.4.6 3.57-7.1 13.55-20.69 12.91-20.29.51-.92 2.27-4.32 2-4.55a44.44 44.44 0 0 0 2.24-9.33c1.8 7.74 3.46 15.48 3.78 23.4a49.68 49.68 0 0 1-2.16 13 .38.38 0 0 0-.32.14 43.91 43.91 0 0 1-8.92 7.36.41.41 0 0 0-.39-.17c-3.18.21-6.4-1.45-9.54-.06-1.79.79-3.5 4.19-3.52 4.2-.48.3-2.8 3.63-2.16 3.43 4.21-1.35 12.12 1.84 15.33-6.25a26.66 26.66 0 0 0 8.81-6.7 36.9 36.9 0 0 1-2.17 4.58 50.71 50.71 0 0 1-10 13.06c-.15.14.09.48.27.35a40.76 40.76 0 0 0 14.1-20.86 85.93 85.93 0 0 1-3.77 15.89.38.38 0 0 0-.13.17 16.85 16.85 0 0 0-.7 2.2 114.42 114.42 0 0 1-11 21.8c-.15.23-3.77 7.09-3.6 6.82 2.29-3.57 8.45-13.79 10.42-17.59a25.12 25.12 0 0 0-1 8.78c0 .3.52.4.51 0-.11-4.75 1.38-9.17 3-13.58 0 .1.07.19.1.29a31.6 31.6 0 0 1 1.45-3.45 4.53 4.53 0 0 0 .13-.53 26.26 26.26 0 0 0 1.07-3.32 79.6 79.6 0 0 0 4.55-17.89A76.07 76.07 0 0 0 665 99c.59 5.48 2.14 11.43 5.92 15a.2.2 0 0 0 .32-.25 58.22 58.22 0 0 1-5.73-18.48c.36-1.75-1-11.77-1-12 0-2.84-1-5.61-1.78-8.37-.12-.45-.24-.91-.35-1.37-.72-4-1.49-8-2.24-12a1.78 1.78 0 0 0 1.18.45c2.27 1.55 4.25 3.06 6.92 3.76.77 2.29 2.71 3.39 4 5.53a22.86 22.86 0 0 1 1.76 4.15 1.31 1.31 0 0 0-.29.09c-6.83 3.4-.11 19 2 23.64.4.87.17-3.62 1.06-7.41.79-3.38 3.81-6.08 2.69-9.76-.34-1.11-2.86-5.83-4.53-6.49-.47-1.59-3.88-8-5.88-9.59.28 0 .55.1.84.14a20.37 20.37 0 0 0 7.48-.66.52.52 0 0 0 .64-.05c2.47 6.29 18.56-.54 22.78 1.22.83.33-4.6-1.95-5.62-2.43z" transform="translate(-20.56 .86)"/><path class="cls-1" d="M606.23 8.71a42 42 0 0 0-5-9.18c-1.19-.07-2.38-.19-3.56-.35a48.12 48.12 0 0 1 8.2 17.18c-.41 1.17-1.75 2-2.46 3a.53.53 0 0 0-.09.21c-7.9-3.51-10.79 7.75-12.48 12.5-1.55 4.35-5.63 6.88-4.83 6.76 4.67-.73 16.55-5.81 19.33-9.9 1.63-2.4 2.25-7.15-.48-8.94a4.62 4.62 0 0 0 1.47-1.83c.54 2.18 1 4.37 1.35 6.56a82.15 82.15 0 0 1 1.1 14.28c-1.22 4.16-5.62 6.3-8.72 8.94-.46.39 0 1.37.58 1 3.18-2.31 6.68-4.68 8.11-8.39A100.27 100.27 0 0 1 604 67.78c-.23.18-2.33 2.78-10 4.31-2.62.52-5.38-.54-7.91-1.5.62-2.64-1.42-4.56-4-5.45-4.94-1.68-9.47 1.6-13.91 3-1.07.34-6.75 1.89-5.92 1.66 4.42-1.2 19.48 7.66 22.75 1.75a.52.52 0 0 0 .62.13 20.37 20.37 0 0 0 7.33 1.63h.85c-2.19 1.33-6.4 7.23-7.08 8.74-1.75.44-4.86 4.8-5.34 5.85-1.59 3.51 1.05 6.57 1.4 10 .39 3.87-.43 8.3.08 7.49 2.72-4.33 11.41-18.92 5.08-23.18a1.31 1.31 0 0 0-.28-.13 22.86 22.86 0 0 1 2.33-3.89c1.51-2 3.58-2.8 4.64-5 2.74-.34 4.9-1.58 7.35-2.82a1.78 1.78 0 0 0 1.23-.29c-1.27 3.93-2.56 7.8-3.79 11.65l-.53 1.31c-1.09 2.64-2.44 5.26-2.85 8.07-.1.21-2.71 10-2.58 11.75a58.22 58.22 0 0 1-8.08 17.58.2.2 0 0 0 .29.29c4.22-3.08 6.53-8.77 7.82-14.14a76.07 76.07 0 0 0-.52 8.43 79.59 79.59 0 0 0 2.19 18.33 26.26 26.26 0 0 0 .63 3.43 4.53 4.53 0 0 0 .06.54 31.58 31.58 0 0 1 1 3.61l.14-.27c1 4.59 1.94 9.16 1.21 13.86-.05.35.45.31.52 0a25.12 25.12 0 0 0 .14-8.83c1.46 4 6.24 15 8 18.8.13.29-2.57-7-2.68-7.23a114.42 114.42 0 0 1-8.05-23 16.84 16.84 0 0 0-.41-2.27.38.38 0 0 0-.11-.19 85.94 85.94 0 0 1-1.62-16.19 40.76 40.76 0 0 0 11.27 22.51c.16.15.45-.15.31-.31a50.71 50.71 0 0 1-8.2-14.24 36.9 36.9 0 0 1-1.55-4.83 26.66 26.66 0 0 0 7.87 7.78c2.14 8.45 10.39 6.31 14.39 8.19.61.29-1.26-3.32-1.7-3.68 0 0-1.27-3.6-2.94-4.62-2.93-1.79-6.33-.57-9.46-1.18a.41.41 0 0 0-.41.12 43.92 43.92 0 0 1-7.89-8.46.38.38 0 0 0-.3-.18 49.68 49.68 0 0 1-.45-13.2c1.34-7.81 4-15.27 6.79-22.71a44.44 44.44 0 0 0 1 9.54c-.25.2 1.05 3.8 1.44 4.78-.58-.48 7.55 14.29 10.16 21.79.31.89 1.8.56 1.47-.41-2.23-6.3-10.3-20.5-10.8-21.98 6.9 8 17.13 11 27.15 14.09 1 .31 1.15-1.14.21-1.43-10.88-3.39-22-6.51-28.53-16.67-.12-.48-.22-1-.32-1.46-.65-3.37-.41-6.82-.94-10.2a.49.49 0 0 0-.1-.24 185.58 185.58 0 0 0 6.68-19.84 74.12 74.12 0 0 0 1.5-7.57 21.51 21.51 0 0 1 3.52 5.35.55.55 0 0 0 1-.44 12.1 12.1 0 0 0-4.37-6.24 88.93 88.93 0 0 0 0-21.85 18.82 18.82 0 0 0 4 3.27c-2.19 1 .7 7.44 1.57 8.77 3.12 4.71 9.75 2.66 12.61 7.78.52.94 2.67 3.16 2.3 1.85-1.59-5.6-1.1-10.77-4.85-15.67-2.61-3.41-6.74-6.27-10.84-3.81h-.06a29.06 29.06 0 0 1-5-4q-.49-3.54-1.22-7a67.18 67.18 0 0 0-1.78-6.73c2.57 1.88 5.46 4.43 8.32 5.12 5.67 1.39 8.17-2.82 13.9-2.5 1.48.08 6.37.89 5.09-.21-8.41-7.25-20.84-12.53-28.61-6.18z" transform="translate(-20.56 .86)"/><path class="cls-1" d="M508.76 24.32c8.5-7.33 20.91-12.6 28.7-6.25 3.05-7.54 7.87-14.36 15.35-17.95 1.07-.51 1.62.78.7 1.4-8.51 5.75-13.06 14.69-15.66 24.19.41 1.17 1.75 2 2.46 3a.53.53 0 0 1 .09.21c7.9-3.51 10.79 7.75 12.48 12.5 1.55 4.35 5.63 6.88 4.83 6.76-4.67-.73-16.55-5.81-19.33-9.9-1.63-2.4-2.25-7.15.48-8.94a4.62 4.62 0 0 1-1.47-1.83c-.54 2.18-1 4.37-1.35 6.56a82.15 82.15 0 0 0-1.12 14.29c1.22 4.16 5.62 6.3 8.72 8.94.46.39 0 1.37-.58 1-3.18-2.31-6.68-4.68-8.11-8.39a100.27 100.27 0 0 0 4.78 27.31c.23.18 2.33 2.78 10 4.31 2.62.52 5.38-.54 7.91-1.5-.62-2.64 1.42-4.56 4-5.45 4.94-1.68 9.47 1.6 13.91 3 1.07.34 6.75 1.89 5.92 1.66-4.42-1.2-19.48 7.66-22.75 1.75a.52.52 0 0 1-.62.13 20.37 20.37 0 0 1-7.33 1.63h-.85c2.19 1.33 6.4 7.23 7.08 8.74 1.75.44 4.86 4.8 5.34 5.85 1.59 3.51-1.05 6.57-1.4 10-.39 3.87.43 8.3-.08 7.49-2.72-4.33-11.41-18.92-5.08-23.18a1.31 1.31 0 0 1 .28-.13 22.87 22.87 0 0 0-2.39-3.91c-1.51-2-3.58-2.8-4.64-5-2.74-.34-4.9-1.58-7.35-2.82a1.78 1.78 0 0 1-1.23-.29c1.27 3.93 2.56 7.8 3.79 11.65l.53 1.31c1.09 2.64 2.44 5.26 2.85 8.07.1.21 2.71 10 2.58 11.75a58.23 58.23 0 0 0 8.08 17.58.2.2 0 0 1-.29.29c-4.22-3.08-6.53-8.77-7.82-14.14a76.07 76.07 0 0 1 .52 8.43 79.6 79.6 0 0 1-2.19 18.33 26.25 26.25 0 0 1-.63 3.43 4.54 4.54 0 0 1-.06.54 31.59 31.59 0 0 0-1 3.61l-.14-.27c-1 4.59-1.94 9.16-1.21 13.86.05.35-.45.31-.52 0a25.12 25.12 0 0 1-.14-8.83c-1.46 4-6.24 15-8 18.8-.13.29 2.57-7 2.68-7.23a114.42 114.42 0 0 0 8.05-23 16.84 16.84 0 0 1 .41-2.27.38.38 0 0 1 .11-.19 85.94 85.94 0 0 0 1.69-16.22 40.76 40.76 0 0 1-11.27 22.51c-.16.15-.45-.15-.31-.31a50.71 50.71 0 0 0 8.2-14.24 36.9 36.9 0 0 0 1.55-4.83 26.66 26.66 0 0 1-7.87 7.78c-2.14 8.45-10.39 6.31-14.39 8.19-.61.29 1.26-3.32 1.7-3.68 0 0 1.27-3.6 2.94-4.62 2.93-1.79 6.33-.57 9.46-1.18a.41.41 0 0 1 .41.12 43.91 43.91 0 0 0 7.89-8.46.38.38 0 0 1 .3-.18 49.68 49.68 0 0 0 .45-13.2c-1.34-7.81-4-15.27-6.79-22.71a44.44 44.44 0 0 1-1 9.54c.25.2-1.05 3.8-1.44 4.78.58-.48-7.55 14.29-10.16 21.79-.31.89-1.8.56-1.47-.41 2.19-6.28 10.26-20.52 10.74-22-6.9 8-17.13 11-27.15 14.09-1 .31-1.15-1.14-.21-1.43 10.88-3.39 22-6.51 28.53-16.67.12-.48.22-1 .32-1.46.65-3.37.41-6.82.94-10.2a.49.49 0 0 1 .1-.24 185.58 185.58 0 0 1-6.68-19.84 74.12 74.12 0 0 1-1.5-7.57 21.51 21.51 0 0 0-3.52 5.35.55.55 0 0 1-1-.44 12.1 12.1 0 0 1 4.37-6.24 88.93 88.93 0 0 1 0-21.85 18.82 18.82 0 0 1-4 3.27c2.19 1-.7 7.44-1.57 8.77-3.12 4.71-9.75 2.66-12.61 7.78-.52.94-2.67 3.16-2.3 1.85 1.59-5.6 1.1-10.77 4.85-15.67 2.61-3.41 6.74-6.27 10.84-3.81h.06a29.07 29.07 0 0 0 5-4q.49-3.54 1.22-7a67.19 67.19 0 0 1 1.78-6.73c-2.57 1.88-5.46 4.43-8.32 5.12-5.67 1.39-8.17-2.82-13.9-2.5-1.55.14-6.44.95-5.17-.15z" transform="translate(-20.56 .86)"/><g id="New_Symbol_22" data-name="New Symbol 22"><g id="New_Symbol_14" data-name="New Symbol 14"><path class="cls-2" d="M211.74 235.73a.41.41 0 0 0-.15.08l-.23.07a2 2 0 0 0-1 .61.76.76 0 0 0 .35 1.11 2.85 2.85 0 0 0 1.61.29 1.53 1.53 0 0 0 1.5-1.42c-.11-1.03-1.36-.97-2.08-.74zM212.64 231.86a.85.85 0 0 1 .41.61 2.24 2.24 0 0 1 0 .73 8 8 0 0 1-.21 1.13.57.57 0 0 1 0 .11.37.37 0 0 1-.49.29 1.46 1.46 0 0 1-.86-.63 1.54 1.54 0 0 1-.19-.94 1.79 1.79 0 0 1 .71-1.29.64.64 0 0 1 .63-.01zM214.7 232a1.47 1.47 0 0 0-1 1.71.55.55 0 0 0 .37.39.53.53 0 0 0 .33.65 2.75 2.75 0 0 0 2.22-.18 1.16 1.16 0 0 0 .28-1.76 1.91 1.91 0 0 0-2.2-.81zM215.05 235.44a.35.35 0 0 0-.35.2 2.26 2.26 0 0 0 1.22 2.65 1.22 1.22 0 0 0 1.19 0 1.25 1.25 0 0 0 .38-1.28 1.42 1.42 0 0 0-.45-1.11 1.63 1.63 0 0 0-1.28-.33h-.07a1.85 1.85 0 0 0-.64-.13zM213.83 238.66a1.24 1.24 0 1 1-1.49 1.85.9.9 0 0 1-.26-1 .7.7 0 0 1 .29-.33 1.06 1.06 0 0 1 .48-.65 1 1 0 0 1 .98.13zM210.15 237.73a.69.69 0 0 1 .34.64.53.53 0 0 1 .36.54 1 1 0 0 1-1.24 1 .9.9 0 0 1-.51-.43.86.86 0 0 1 0-1.31.51.51 0 0 1 .15-.09l.05-.08a.61.61 0 0 1 .85-.27zM207.3 235.09a1.1 1.1 0 0 0-1.57 1c.11 1.45 2.25 1 3.38.48h.07a.37.37 0 0 0 .49-.29v-.13a.37.37 0 0 0-.07-.44 1.14 1.14 0 0 0-.75-.8 2.44 2.44 0 0 0-1.55.18zM207.79 232.06a1.29 1.29 0 0 0 0 1.75 1.71 1.71 0 0 0 1.75.34.39.39 0 0 0 .21-.16.69.69 0 0 0 .48-.77 1.73 1.73 0 0 0-1.08-1.19.59.59 0 0 0-.32-.05.76.76 0 0 0-1.04.08zM208.37 238.8a1.72 1.72 0 0 1-.48.88 1.43 1.43 0 0 1-1 .34.53.53 0 0 1-.49-.46 1.31 1.31 0 0 1 .29-1.2.69.69 0 0 1 .83.16c.16-.52.98-.21.85.28zM209.38 241.42a1.12 1.12 0 0 0-.64 1.54 1 1 0 0 0 1.46.61 1.51 1.51 0 0 0 .76-1.48.51.51 0 0 0-.49-.44 1 1 0 0 0-1.09-.23zM207.87 240.63a.48.48 0 0 1 .32.29.47.47 0 0 1 .19.7c-.49.58-2 1.13-2.57.37a1 1 0 0 1 .38-1.33 2.41 2.41 0 0 1 1.68-.03zM212.1 241a1.51 1.51 0 0 1 1 1 .5.5 0 0 1 0 .29.44.44 0 0 1 0 .17.37.37 0 0 1-.49.29 1.38 1.38 0 0 1-1-1.47.37.37 0 0 1 .49-.28zM216.72 240.64a.52.52 0 0 1 .27.5.64.64 0 0 1-.28.53.44.44 0 0 1-.15.05.83.83 0 0 1-.81.29.82.82 0 0 1-.17-1.48 1.26 1.26 0 0 1 1.14.11zM217.73 239.66a.41.41 0 0 1-.09.59.4.4 0 0 1-.37 0h-.13a2.26 2.26 0 0 1-1.78-.56.42.42 0 0 1 .11-.72 2 2 0 0 1 2.26.69zM219.09 235a2.45 2.45 0 0 1 .12.48v.2c0 .05.07.2 0 .13a.41.41 0 0 1-.09.59.48.48 0 0 1-.61-.19 1.72 1.72 0 0 1-.41.15.5.5 0 0 1-.51-.23c-.34-.61-.34-1.62.54-1.69a.88.88 0 0 1 .96.56zM214.61 230.2a.85.85 0 0 1-.26 1.12.41.41 0 0 1-.26.11v.05a.53.53 0 0 1-.72.22 1.49 1.49 0 0 1-.35-.34 1.11 1.11 0 0 1-.14-.2.84.84 0 0 1 .07-1 1.19 1.19 0 0 1 1.66.04zM211.45 231a.41.41 0 0 1-.06.56.27.27 0 0 1-.16.2 1.41 1.41 0 0 1-1.23.09.71.71 0 0 1-.28-.94.93.93 0 0 1 .14-.2.36.36 0 0 1 .37-.29h.15a1.13 1.13 0 0 1 1.07.58zM214.37 241.69c.78.18.84 1.12.9 1.77a.56.56 0 0 1 0 .08.38.38 0 0 1 0 .2.4.4 0 0 1-.57.14 2.28 2.28 0 0 1-.78-1.78.37.37 0 0 1 .45-.41zM213.28 243.58a.41.41 0 0 1 0 .5.34.34 0 0 1-.17.39 1.61 1.61 0 0 1-1.34.17.7.7 0 0 1-.29-.95 1.13 1.13 0 0 1 .7-.56 1.07 1.07 0 0 1 1.1.45zM220.41 238.58a.89.89 0 0 1 0 .73.71.71 0 0 1-.75.3.59.59 0 0 1-.41-.25.92.92 0 0 1-.81-.75.87.87 0 0 1 .88-1.08 1.5 1.5 0 0 1 1.09 1.05zM218.9 240.81a.5.5 0 0 1 .44.55 1.18 1.18 0 0 1-.58.82.74.74 0 0 1-1-.51.82.82 0 0 1 .42-1.08.79.79 0 0 1 .72.22zM217.31 242.52a1.49 1.49 0 0 1 .76.78.38.38 0 0 1-.25.52.42.42 0 0 1-.15 0 1.53 1.53 0 0 1-1 .36.73.73 0 0 1-.65-.82 1 1 0 0 1 1.29-.84zM215.44 244.56a.76.76 0 0 1 .22.8 1.1 1.1 0 0 1-.78.54.41.41 0 0 1-.43-.13 1.23 1.23 0 0 1-.55-.12.75.75 0 0 1 .05-1.37 1.43 1.43 0 0 1 1.49.28zM211.57 245a.56.56 0 0 1 .32.31.59.59 0 0 1 0 .31.38.38 0 0 1 0 .16 1.21 1.21 0 0 1-.78.76.91.91 0 0 1-.9-.45 1 1 0 0 1-.12-.91.77.77 0 0 1 .83-.42 2.24 2.24 0 0 1 .65.24zM207.78 243.41a1.29 1.29 0 0 1 .74 1.14v.18a.47.47 0 0 1-.07.26.38.38 0 0 1-.49.29 1.71 1.71 0 0 1-1.22-.69.81.81 0 0 1 .11-1 .88.88 0 0 1 .93-.18z" transform="translate(-20.56 .86)"/></g></g></svg>