<svg id="Layer_1" data-name="Layer 1" xmlns="http://www.w3.org/2000/svg" viewBox="0 0 81.73 70.67"><defs><style>.cls-1{fill:#dfb0af;stroke:#3c2415;stroke-miterlimit:10;stroke-width:2px;}.cls-2{font-size:12px;fill:#3c2415;font-family:Century Schoolbook;font-weight:700;}</style></defs><title>Hisside</title><path class="cls-1" d="M25.08,78c5.63-2.27,10.63-6,15.43-9.61l0.84-.28c36.32-.73,32.95-37.76-0.3-37.76-23.52,0-38.72,22.56-13.92,35a33.9,33.9,0,0,1-2,12.68h0ZM47.32,45.38A4.58,4.58,0,0,1,47.13,52h0l-5.34,5.34h0a1.3,1.3,0,0,1-1.43.28h0a1.31,1.31,0,0,1-.42-0.28h0L34.6,52h0a4.59,4.59,0,1,1,6.26-6.7,4.63,4.63,0,0,1,1-.73,4.58,4.58,0,0,1,5.48.76h0Z" transform="translate(0 -29.33)"/><text class="cls-2" transform="translate(15.03 63.78)">His Side</text></svg>