<svg id="Layer_2" data-name="Layer 2" xmlns="http://www.w3.org/2000/svg" viewBox="0 0 497.54 158.07"><defs><style>.cls-1{font-size:72px;}.cls-1,.cls-4,.cls-5{fill:#efd7d4;}.cls-1,.cls-2,.cls-4,.cls-5{stroke:#42210b;stroke-miterlimit:10;stroke-width:2px;}.cls-1,.cls-3{font-family:Century Schoolbook;font-weight:700;}.cls-2{font-size:98.53px;font-family:Edwardian Script ITC;}.cls-2,.cls-3{fill:#42210b;}.cls-3{font-size:47.75px;}.cls-4{fill-rule:evenodd;}</style></defs><title>TravelTitle</title><text class="cls-1" transform="translate(177.27 84.11)">Travel </text><text class="cls-2" transform="translate(1 124.74)">Accommodations</text><text class="cls-3" transform="translate(419.93 86.63) scale(0.84 1)">&amp;</text><path class="cls-4" d="M564.42,42.46c3.38,0,26.21,12.86,29.1,14.5,2.06,0.45,13.59,3,15.52,3.64,2.55,0.85,4.17,3.44,4.92,6.56a20,20,0,0,1-.19,9.87A7.19,7.19,0,0,1,610,81.23a12.84,12.84,0,0,1-6,1.29h-9a9.35,9.35,0,1,0-17.56,0H537a9.35,9.35,0,1,0-17.56,0H509.24a6,6,0,0,1-6-6v-12a6,6,0,0,1,4.15-5.67l0.38-.09,9.95-1.32c1.21-.91,2.36-1.85,3.46-2.8h0c1.36-1.17,2.52-2.22,3.62-3.23a63,63,0,0,1,7.33-6.07,15.06,15.06,0,0,1,8.4-2.87h23.85Zm-12,25.36a12.52,12.52,0,0,1-5.65-1.57,2,2,0,0,0-1,3.67l3.11,2.63a0.26,0.26,0,0,0,.37,0l2.63-3.12a2,2,0,0,0,.57-1.59h0Zm20.41,0a12.52,12.52,0,0,1-5.65-1.57,2,2,0,0,0-1,3.67l3.11,2.63a0.26,0.26,0,0,0,.19.06,0.27,0.27,0,0,0,.18-0.09l2.63-3.12a2,2,0,0,0,.57-1.59h0ZM526,56.94h29.41V44.43h2.19V56.94H587v2.19H526V56.94h0Z" transform="translate(-439.07 -28.66)"/><path class="cls-5" d="M528.26,87.62a8.3,8.3,0,0,1-5.89-2.44h0a8.3,8.3,0,1,1,5.88,2.45h0Zm-2.79-5.54a3.93,3.93,0,1,0-1.16-2.79,3.93,3.93,0,0,0,1.16,2.79h0Zm60.88,5.54a8.33,8.33,0,1,1,5.88-2.44,8.3,8.3,0,0,1-5.88,2.44h0Zm-2.79-5.54a3.94,3.94,0,1,0-1.16-2.79,3.93,3.93,0,0,0,1.16,2.79h0Z" transform="translate(-439.07 -28.66)"/><path class="cls-4" d="M594.92,52.63a0.54,0.54,0,0,0,.21,0,0.55,0.55,0,0,0,.19-0.07c0.25-.15,3.68-4.88,4.28-5.61a3.48,3.48,0,0,0-3.17-5.67,4.69,4.69,0,0,0-2.68,1.62,4.7,4.7,0,0,0-3-.82,3.48,3.48,0,0,0-1.48,6.32c0.78,0.53,5.38,4.14,5.66,4.21h0Z" transform="translate(-439.07 -28.66)"/><path class="cls-4" d="M578.46,41a0.48,0.48,0,0,0,.4-0.06c0.25-.15,3.68-4.88,4.28-5.61A3.48,3.48,0,0,0,580,29.69a4.69,4.69,0,0,0-2.68,1.62,4.69,4.69,0,0,0-3-.82,3.48,3.48,0,0,0-1.48,6.32c0.78,0.53,5.38,4.14,5.66,4.21h0Z" transform="translate(-439.07 -28.66)"/></svg>