<svg id="Layer_3" data-name="Layer 3" xmlns="http://www.w3.org/2000/svg" viewBox="0 0 387 167.67"><defs><style>.cls-1,.cls-2{fill:#efd7d4}.cls-1,.cls-2,.cls-3{stroke:#42210b;stroke-miterlimit:10;stroke-width:2px}.cls-2{font-size:72px;font-family:Century Schoolbook;font-weight:700}.cls-3{font-size:98.53px;fill:#42210b;font-family:Edwardian Script ITC}</style></defs><title>WeddingEventsTitle</title><path class="cls-1" d="M268.54 191.82a2.84 2.84 0 0 0 1-1.51l3-10.86A18.4 18.4 0 0 1 291.88 166a7.09 7.09 0 0 1-1.53-2.12 7 7 0 1 1 10.3 2.84 7.09 7.09 0 0 1-2.4 1 18.4 18.4 0 0 1 9.75 21.5l-3 10.86a2.84 2.84 0 0 0 .09 1.82l1.49 3.81a3.34 3.34 0 0 1-.62 3.45 3.34 3.34 0 0 1-3.37 1l-36.1-10a3.34 3.34 0 0 1-2.38-2.58 3.34 3.34 0 0 1 1.24-3.28l3.23-2.5zm33.27 5.67l-15.18-4.19a1.65 1.65 0 1 0-.88 3.19l15.17 4.19a1.65 1.65 0 0 0 .88-3.19zm-6.29-32.26l.68.08a4.41 4.41 0 1 0-1.3-.36l.62.28zM277.24 204.52a7.22 7.22 0 0 0 13.83 3.82l-13.83-3.82zM231.46 222.36a2.85 2.85 0 0 0 .09-1.82l-3-10.86a18.4 18.4 0 0 1 9.72-21.42 7.09 7.09 0 0 1-2.4-1 7 7 0 1 1 10.3-2.84 7.09 7.09 0 0 1-1.53 2.12A18.4 18.4 0 0 1 264 199.91l3 10.86a2.9 2.9 0 0 0 .38.84 2.86 2.86 0 0 0 .63.67l3.23 2.5a3.34 3.34 0 0 1 1.24 3.28 3.34 3.34 0 0 1-2.38 2.58l-36.1 10a3.34 3.34 0 0 1-3.37-1 3.34 3.34 0 0 1-.62-3.45l1.49-3.81zm31.47-12.2l-15.17 4.19a1.65 1.65 0 0 0 .88 3.19l15.17-4.19a1.65 1.65 0 1 0-.88-3.19zM241 185.7l.62-.28a4.41 4.41 0 1 0-1.3.36l.68-.08zM245.45 228.8a7.22 7.22 0 0 0 13.83-3.8l-13.83 3.82z" transform="translate(-92.44 -75.55)"/><text class="cls-2" transform="translate(4.59 70.54)">Wedding</text><text class="cls-3" transform="matrix(.84 0 0 1 205.22 134.34)">Events</text></svg>