<svg id="Layer_1" data-name="Layer 1" xmlns="http://www.w3.org/2000/svg" viewBox="0 0 364.65 165.07"><defs><style>.cls-1{font-size:72px;font-family:Century Schoolbook;font-weight:700}.cls-1,.cls-3{fill:#efd7d4}.cls-1,.cls-2,.cls-3{stroke:#42210b;stroke-miterlimit:10;stroke-width:2px}.cls-2{font-size:98.53px;fill:#42210b;font-family:Edwardian Script ITC}</style></defs><title>WeddingPartyTitle</title><text class="cls-1" transform="translate(4.59 62.99)">Wedding</text><text class="cls-2" transform="translate(170.06 130.75)">Party</text><path class="cls-3" d="M166.73 108.18v26.93h-2.69v-26.93h2.69z"/><path class="cls-3" d="M750.26 424.52H716.7a.26.26 0 0 0-.25.25v20.9a15.93 15.93 0 0 0 15.88 15.88h2.31a15.93 15.93 0 0 0 15.88-15.88v-20.9a.26.26 0 0 0-.26-.25zM719 432c11.87 6.54 17.68-2.93 29.16-.26v2.48c-11.16-2.6-16 7.8-29.16.55V432zM727.42 485.11a1.35 1.35 0 1 0 0 2.69h12.12a1.35 1.35 0 1 0 0-2.69h-12.12z" transform="translate(-568.1 -351.35)"/></svg>